<svg xmlns="http://www.w3.org/2000/svg" xmlns:xlink="http://www.w3.org/1999/xlink" width="500" zoomAndPan="magnify" viewBox="0 0 375 374.999991" height="500" preserveAspectRatio="xMidYMid meet" version="1.0"><defs><clipPath id="2eddfd8ea8"><path d="M 25 88.324219 L 350.417969 88.324219 L 350.417969 286.324219 L 25 286.324219 Z M 25 88.324219 " clip-rule="nonzero"/></clipPath><clipPath id="aded78d311"><path d="M 135 106 L 350.417969 106 L 350.417969 286.273438 L 135 286.273438 Z M 135 106 " clip-rule="nonzero"/></clipPath><clipPath id="897d08bc6e"><path d="M 329.539062 286.054688 C 329.34375 286.054688 329.148438 286.046875 328.957031 286.03125 L 135.035156 268.554688 C 137.371094 267.335938 139.648438 266.070312 141.886719 264.75 L 329.355469 281.648438 C 329.414062 281.652344 329.472656 281.65625 329.535156 281.65625 C 330.535156 281.65625 331.390625 280.890625 331.480469 279.878906 L 345.78125 122.078125 C 345.878906 121.007812 345.085938 120.054688 344.007812 119.957031 L 238.042969 110.40625 C 238.363281 108.875 238.648438 107.425781 238.910156 106.066406 L 344.402344 115.574219 C 347.710938 115.875 350.199219 118.636719 350.207031 121.886719 C 350.207031 122.082031 350.199219 122.28125 350.175781 122.476562 L 335.875 280.273438 C 335.578125 283.578125 332.796875 286.054688 329.539062 286.054688 M 329.53125 281.027344 C 329.492188 281.027344 329.453125 281.023438 329.414062 281.019531 L 142.808594 264.203125 C 162.160156 252.609375 177.792969 237.355469 190.414062 220.710938 L 191.382812 222.734375 L 187.988281 227.335938 L 189.417969 227.46875 L 190.773438 225.457031 C 191.347656 224.660156 191.667969 224.167969 191.992188 223.636719 L 192.019531 223.636719 C 192.269531 224.226562 192.535156 224.78125 192.960938 225.640625 L 194.003906 227.878906 L 195.453125 228.011719 L 192.890625 222.796875 L 196.25 218.375 L 194.820312 218.246094 L 193.296875 220.382812 C 192.882812 220.964844 192.601562 221.390625 192.277344 221.9375 L 192.234375 221.929688 C 192.019531 221.394531 191.792969 220.882812 191.488281 220.222656 L 191.222656 219.628906 C 194.980469 214.605469 198.460938 209.464844 201.691406 204.261719 L 203.535156 207.847656 L 206.1875 208.085938 C 206.03125 207.832031 205.886719 207.59375 205.757812 207.371094 C 205.625 207.15625 205.476562 206.898438 205.316406 206.609375 C 205.148438 206.320312 204.960938 205.96875 204.738281 205.554688 C 204.511719 205.140625 204.242188 204.617188 203.917969 203.984375 L 202.980469 202.15625 C 217.4375 178.296875 226.640625 153.386719 232.375 133.347656 L 232.230469 134.914062 C 232.160156 135.699219 232.09375 136.390625 232.027344 136.992188 C 231.960938 137.585938 231.886719 138.046875 231.796875 138.355469 L 238.792969 138.984375 L 238.921875 137.558594 C 238.78125 137.570312 238.617188 137.578125 238.429688 137.578125 C 238.195312 137.578125 237.933594 137.566406 237.632812 137.546875 C 237.09375 137.511719 236.433594 137.453125 235.644531 137.382812 L 233.546875 137.191406 L 233.917969 133.074219 L 238.453125 133.480469 L 238.570312 132.210938 L 234.035156 131.804688 L 234.359375 128.238281 L 239.484375 128.699219 L 239.605469 127.390625 L 234.144531 126.898438 C 235.699219 121.011719 236.941406 115.660156 237.914062 111.023438 L 343.949219 120.582031 C 344.679688 120.652344 345.222656 121.292969 345.15625 122.023438 L 330.855469 279.820312 C 330.792969 280.511719 330.210938 281.027344 329.53125 281.027344 M 203.632812 228.75 L 201.074219 223.535156 L 204.433594 219.109375 L 203 218.980469 L 201.476562 221.125 C 201.066406 221.703125 200.777344 222.125 200.457031 222.671875 L 200.410156 222.667969 C 200.203125 222.128906 199.972656 221.617188 199.671875 220.957031 L 198.601562 218.589844 L 197.15625 218.457031 L 199.558594 223.46875 L 196.167969 228.078125 L 197.597656 228.207031 L 198.949219 226.195312 C 199.53125 225.398438 199.847656 224.90625 200.171875 224.375 L 200.199219 224.378906 C 200.453125 224.960938 200.71875 225.515625 201.144531 226.378906 L 202.1875 228.617188 L 203.632812 228.75 M 317.976562 211.039062 L 321.8125 218.507812 L 324.464844 218.746094 C 324.3125 218.492188 324.167969 218.253906 324.039062 218.03125 C 323.90625 217.816406 323.753906 217.558594 323.59375 217.269531 C 323.429688 216.976562 323.238281 216.628906 323.011719 216.214844 C 322.789062 215.800781 322.519531 215.277344 322.199219 214.644531 L 319.511719 209.402344 L 322.296875 205.675781 C 322.714844 205.125 323.074219 204.65625 323.375 204.269531 C 323.679688 203.882812 323.949219 203.546875 324.183594 203.265625 C 324.417969 202.980469 324.628906 202.734375 324.824219 202.519531 C 325.019531 202.3125 325.210938 202.101562 325.410156 201.894531 L 322.699219 201.652344 L 318.46875 207.367188 L 315.199219 200.976562 L 312.488281 200.730469 C 312.648438 200.996094 312.808594 201.246094 312.960938 201.484375 C 313.113281 201.726562 313.28125 202.003906 313.460938 202.320312 C 313.644531 202.636719 313.847656 203.007812 314.074219 203.433594 C 314.304688 203.855469 314.578125 204.382812 314.894531 205.007812 L 316.941406 209.007812 L 313.339844 213.800781 C 312.917969 214.363281 312.5625 214.828125 312.273438 215.199219 C 311.992188 215.570312 311.742188 215.882812 311.53125 216.140625 C 311.328125 216.402344 311.132812 216.632812 310.960938 216.832031 C 310.785156 217.03125 310.597656 217.246094 310.390625 217.476562 L 313.042969 217.714844 L 317.976562 211.039062 M 302.6875 209.660156 L 306.523438 217.128906 L 309.179688 217.367188 C 309.023438 217.113281 308.882812 216.878906 308.75 216.65625 C 308.613281 216.433594 308.46875 216.179688 308.304688 215.890625 C 308.144531 215.601562 307.949219 215.253906 307.726562 214.835938 C 307.503906 214.421875 307.230469 213.898438 306.914062 213.269531 L 304.222656 208.023438 L 307.011719 204.296875 C 307.429688 203.746094 307.789062 203.28125 308.085938 202.894531 C 308.394531 202.503906 308.660156 202.167969 308.894531 201.886719 C 309.132812 201.601562 309.34375 201.351562 309.539062 201.144531 C 309.734375 200.929688 309.925781 200.726562 310.125 200.519531 L 307.414062 200.273438 L 303.183594 205.992188 L 299.914062 199.597656 L 297.203125 199.351562 C 297.363281 199.613281 297.523438 199.867188 297.675781 200.109375 C 297.828125 200.351562 297.996094 200.628906 298.175781 200.941406 C 298.355469 201.257812 298.558594 201.625 298.789062 202.054688 C 299.019531 202.480469 299.289062 203.007812 299.605469 203.628906 L 301.648438 207.628906 L 298.054688 212.421875 C 297.628906 212.988281 297.277344 213.453125 296.988281 213.824219 C 296.703125 214.191406 296.457031 214.503906 296.246094 214.765625 C 296.039062 215.023438 295.847656 215.257812 295.675781 215.453125 C 295.5 215.65625 295.3125 215.871094 295.101562 216.101562 L 297.757812 216.339844 L 302.6875 209.660156 M 287.402344 208.28125 L 291.238281 215.75 L 293.890625 215.988281 C 293.738281 215.734375 293.59375 215.496094 293.464844 215.28125 C 293.328125 215.058594 293.179688 214.800781 293.019531 214.515625 C 292.855469 214.226562 292.664062 213.871094 292.4375 213.457031 C 292.214844 213.042969 291.945312 212.519531 291.621094 211.886719 L 288.933594 206.644531 L 291.722656 202.917969 C 292.140625 202.367188 292.5 201.898438 292.800781 201.515625 C 293.105469 201.128906 293.375 200.792969 293.609375 200.507812 C 293.84375 200.222656 294.054688 199.976562 294.25 199.765625 C 294.445312 199.554688 294.640625 199.34375 294.835938 199.140625 L 292.125 198.894531 L 287.894531 204.617188 L 284.625 198.21875 L 281.914062 197.976562 C 282.074219 198.238281 282.234375 198.488281 282.386719 198.730469 C 282.539062 198.976562 282.707031 199.253906 282.886719 199.566406 C 283.066406 199.878906 283.273438 200.25 283.503906 200.675781 C 283.730469 201.101562 284.003906 201.625 284.320312 202.25 L 286.363281 206.25 L 282.765625 211.042969 C 282.34375 211.609375 281.988281 212.078125 281.699219 212.441406 C 281.417969 212.8125 281.171875 213.128906 280.957031 213.386719 C 280.753906 213.644531 280.558594 213.875 280.386719 214.078125 C 280.210938 214.277344 280.023438 214.492188 279.816406 214.722656 L 282.472656 214.957031 L 287.402344 208.28125 M 272.113281 206.90625 L 275.949219 214.375 L 278.605469 214.613281 C 278.449219 214.359375 278.308594 214.121094 278.171875 213.898438 C 278.042969 213.679688 277.894531 213.425781 277.730469 213.136719 C 277.570312 212.84375 277.375 212.496094 277.152344 212.082031 C 276.929688 211.667969 276.65625 211.144531 276.332031 210.511719 L 273.644531 205.269531 L 276.4375 201.542969 C 276.855469 200.992188 277.214844 200.523438 277.511719 200.136719 C 277.820312 199.75 278.085938 199.414062 278.320312 199.132812 C 278.558594 198.847656 278.769531 198.601562 278.964844 198.386719 C 279.160156 198.179688 279.351562 197.96875 279.550781 197.757812 L 276.839844 197.519531 L 272.609375 203.234375 L 269.339844 196.84375 L 266.628906 196.597656 C 266.789062 196.859375 266.949219 197.113281 267.101562 197.351562 C 267.25 197.59375 267.417969 197.871094 267.597656 198.1875 C 267.777344 198.5 267.984375 198.871094 268.214844 199.296875 C 268.445312 199.722656 268.714844 200.25 269.03125 200.875 L 271.074219 204.875 L 267.480469 209.667969 C 267.050781 210.230469 266.699219 210.695312 266.414062 211.066406 C 266.128906 211.433594 265.882812 211.75 265.671875 212.007812 C 265.460938 212.265625 265.273438 212.5 265.101562 212.695312 C 264.925781 212.898438 264.738281 213.113281 264.527344 213.34375 L 267.183594 213.582031 L 272.113281 206.90625 M 245.558594 204.511719 L 249.394531 211.980469 L 252.050781 212.21875 C 251.890625 211.964844 251.75 211.726562 251.617188 211.507812 C 251.488281 211.289062 251.339844 211.03125 251.179688 210.742188 C 251.011719 210.453125 250.820312 210.101562 250.597656 209.6875 C 250.375 209.273438 250.101562 208.75 249.78125 208.117188 L 247.089844 202.875 L 249.882812 199.148438 C 250.296875 198.597656 250.65625 198.128906 250.957031 197.742188 C 251.261719 197.355469 251.53125 197.019531 251.765625 196.738281 C 252 196.453125 252.214844 196.207031 252.410156 195.992188 C 252.601562 195.785156 252.796875 195.574219 252.996094 195.367188 L 250.28125 195.125 L 246.054688 200.847656 L 242.785156 194.449219 L 240.074219 194.203125 C 240.234375 194.46875 240.390625 194.71875 240.546875 194.957031 C 240.699219 195.199219 240.863281 195.476562 241.046875 195.792969 C 241.222656 196.109375 241.429688 196.480469 241.660156 196.90625 C 241.890625 197.332031 242.160156 197.855469 242.476562 198.480469 L 244.519531 202.480469 L 240.925781 207.273438 C 240.5 207.835938 240.144531 208.300781 239.859375 208.671875 C 239.574219 209.042969 239.328125 209.355469 239.117188 209.613281 C 238.90625 209.875 238.71875 210.105469 238.542969 210.304688 C 238.371094 210.503906 238.179688 210.722656 237.972656 210.949219 L 240.625 211.1875 L 245.558594 204.511719 M 230.273438 203.136719 L 234.109375 210.601562 L 236.761719 210.839844 C 236.605469 210.589844 236.460938 210.351562 236.332031 210.128906 C 236.199219 209.90625 236.050781 209.65625 235.890625 209.363281 C 235.726562 209.074219 235.535156 208.726562 235.3125 208.308594 C 235.085938 207.894531 234.816406 207.371094 234.492188 206.742188 L 231.804688 201.496094 L 234.597656 197.773438 C 235.007812 197.21875 235.367188 196.753906 235.671875 196.367188 C 235.972656 195.976562 236.242188 195.644531 236.476562 195.355469 C 236.710938 195.074219 236.929688 194.824219 237.121094 194.617188 C 237.3125 194.402344 237.511719 194.199219 237.703125 193.992188 L 234.996094 193.746094 L 230.769531 199.464844 L 227.496094 193.070312 L 224.785156 192.824219 C 224.945312 193.085938 225.101562 193.339844 225.257812 193.582031 C 225.410156 193.824219 225.574219 194.101562 225.757812 194.414062 C 225.9375 194.730469 226.144531 195.097656 226.371094 195.527344 C 226.601562 195.953125 226.875 196.480469 227.1875 197.101562 L 229.234375 201.101562 L 225.636719 205.894531 C 225.210938 206.460938 224.855469 206.925781 224.574219 207.296875 C 224.289062 207.664062 224.039062 207.976562 223.832031 208.238281 C 223.621094 208.5 223.429688 208.730469 223.257812 208.929688 C 223.082031 209.128906 222.890625 209.34375 222.6875 209.574219 L 225.335938 209.8125 L 230.273438 203.136719 M 214.984375 201.753906 L 218.820312 209.222656 L 221.476562 209.460938 C 221.316406 209.207031 221.175781 208.96875 221.042969 208.753906 C 220.914062 208.53125 220.765625 208.273438 220.605469 207.988281 C 220.4375 207.699219 220.246094 207.34375 220.023438 206.929688 C 219.800781 206.515625 219.527344 205.992188 219.207031 205.359375 L 216.515625 200.117188 L 219.308594 196.390625 C 219.722656 195.84375 220.082031 195.375 220.382812 194.988281 C 220.6875 194.601562 220.953125 194.265625 221.191406 193.980469 C 221.425781 193.699219 221.640625 193.449219 221.835938 193.242188 C 222.027344 193.027344 222.222656 192.816406 222.417969 192.613281 L 219.707031 192.367188 L 215.480469 198.089844 L 212.210938 191.691406 L 209.5 191.449219 C 209.660156 191.710938 209.816406 191.960938 209.972656 192.207031 C 210.125 192.449219 210.289062 192.726562 210.472656 193.039062 C 210.648438 193.351562 210.855469 193.722656 211.085938 194.148438 C 211.316406 194.578125 211.589844 195.097656 211.898438 195.722656 L 213.945312 199.722656 L 210.351562 204.515625 C 209.925781 205.082031 209.570312 205.550781 209.285156 205.917969 C 209 206.285156 208.753906 206.601562 208.542969 206.859375 C 208.332031 207.121094 208.144531 207.347656 207.96875 207.550781 C 207.796875 207.75 207.605469 207.964844 207.402344 208.195312 L 210.050781 208.433594 L 214.984375 201.753906 " clip-rule="nonzero"/></clipPath></defs><g clip-path="url(#2eddfd8ea8)"><path fill="#f2efe8" d="M 350.175781 122.476562 L 335.875 280.273438 C 335.558594 283.769531 332.464844 286.34375 328.957031 286.03125 L 31.039062 259.179688 C 27.53125 258.863281 24.945312 255.773438 25.265625 252.277344 L 39.566406 94.480469 C 39.878906 90.984375 42.980469 88.410156 46.484375 88.722656 L 344.402344 115.574219 C 347.910156 115.890625 350.496094 118.980469 350.175781 122.476562 " fill-opacity="1" fill-rule="nonzero"/></g><path fill="#5c5c5c" d="M 46.03125 93.734375 C 45.300781 93.664062 44.652344 94.203125 44.585938 94.933594 L 30.285156 252.730469 C 30.21875 253.460938 30.761719 254.105469 31.492188 254.171875 L 329.414062 281.019531 C 330.144531 281.089844 330.789062 280.550781 330.855469 279.820312 L 345.15625 122.023438 C 345.222656 121.292969 344.679688 120.652344 343.949219 120.582031 L 46.03125 93.734375 M 329.355469 281.648438 L 31.433594 254.796875 C 30.355469 254.699219 29.5625 253.75 29.660156 252.675781 L 43.960938 94.875 C 44.058594 93.800781 45.007812 93.007812 46.085938 93.105469 L 344.007812 119.957031 C 345.085938 120.054688 345.878906 121.007812 345.78125 122.078125 L 331.480469 279.878906 C 331.386719 280.953125 330.429688 281.746094 329.355469 281.648438 " fill-opacity="1" fill-rule="nonzero"/><path fill="#dcd9d3" d="M 95.371094 171.335938 C 95.242188 171.335938 95.113281 171.328125 94.980469 171.316406 L 61.777344 168.328125 C 59.429688 168.113281 57.699219 166.042969 57.914062 163.699219 L 59.691406 144.042969 C 59.894531 141.828125 61.757812 140.167969 63.941406 140.167969 C 64.070312 140.167969 64.199219 140.171875 64.328125 140.183594 L 97.53125 143.171875 C 99.882812 143.386719 101.613281 145.457031 101.402344 147.800781 L 99.621094 167.457031 C 99.417969 169.671875 97.554688 171.335938 95.371094 171.335938 " fill-opacity="1" fill-rule="nonzero"/><path fill="#f4b73f" d="M 102.921875 146.679688 L 101.140625 166.335938 C 100.929688 168.679688 98.855469 170.40625 96.5 170.199219 L 63.304688 167.203125 C 60.953125 166.992188 59.222656 164.921875 59.433594 162.578125 L 61.214844 142.917969 C 61.429688 140.578125 63.507812 138.847656 65.855469 139.058594 L 99.050781 142.054688 C 101.40625 142.261719 103.136719 144.335938 102.921875 146.679688 " fill-opacity="1" fill-rule="nonzero"/><path fill="#000000" d="M 87.546875 162.796875 C 87.464844 163.765625 86.597656 164.480469 85.632812 164.394531 L 75.042969 163.441406 C 74.070312 163.355469 73.351562 162.492188 73.441406 161.527344 L 74.804688 146.460938 C 74.894531 145.492188 75.757812 144.773438 76.726562 144.863281 L 87.3125 145.816406 C 88.28125 145.90625 89.003906 146.761719 88.914062 147.730469 Z M 101.703125 160.152344 L 88.277344 158.9375 L 88.941406 151.65625 L 102.359375 152.867188 C 102.464844 152.875 102.558594 152.796875 102.566406 152.695312 C 102.578125 152.589844 102.503906 152.5 102.398438 152.488281 L 88.972656 151.28125 L 89.292969 147.765625 C 89.371094 146.894531 88.914062 146.101562 88.199219 145.703125 L 90.035156 141.242188 L 89.640625 141.207031 L 87.851562 145.550781 C 87.6875 145.496094 87.523438 145.453125 87.347656 145.4375 L 76.761719 144.484375 C 76.585938 144.46875 76.410156 144.476562 76.246094 144.503906 L 75.265625 139.910156 L 74.875 139.875 L 75.878906 144.59375 C 75.097656 144.859375 74.507812 145.558594 74.429688 146.425781 L 74.109375 149.941406 L 60.691406 148.730469 C 60.585938 148.722656 60.492188 148.796875 60.480469 148.902344 C 60.472656 149.007812 60.546875 149.097656 60.652344 149.109375 L 74.074219 150.316406 L 73.417969 157.597656 L 59.996094 156.390625 C 59.890625 156.378906 59.796875 156.457031 59.785156 156.5625 C 59.777344 156.664062 59.855469 156.757812 59.960938 156.765625 L 73.378906 157.976562 L 73.066406 161.492188 C 72.984375 162.351562 73.433594 163.136719 74.140625 163.542969 L 72.292969 168.011719 L 72.691406 168.050781 L 74.480469 163.699219 C 74.648438 163.761719 74.824219 163.800781 75.011719 163.816406 L 85.59375 164.769531 C 85.78125 164.785156 85.957031 164.777344 86.136719 164.75 L 87.117188 169.347656 L 87.511719 169.386719 L 86.503906 164.65625 C 87.269531 164.382812 87.851562 163.691406 87.925781 162.832031 L 88.246094 159.316406 L 101.667969 160.527344 C 101.773438 160.535156 101.863281 160.460938 101.871094 160.355469 C 101.886719 160.25 101.804688 160.160156 101.703125 160.152344 " fill-opacity="1" fill-rule="nonzero"/><path fill="#5c5c5c" d="M 51.785156 181.292969 C 51.46875 180.667969 51.199219 180.144531 50.96875 179.71875 C 50.738281 179.289062 50.53125 178.921875 50.351562 178.609375 C 50.175781 178.296875 50.003906 178.015625 49.851562 177.773438 C 49.703125 177.53125 49.542969 177.28125 49.378906 177.015625 L 52.089844 177.261719 L 55.363281 183.660156 L 59.59375 177.9375 L 62.304688 178.183594 C 62.105469 178.386719 61.910156 178.597656 61.71875 178.804688 C 61.523438 179.019531 61.308594 179.265625 61.074219 179.550781 C 60.839844 179.835938 60.570312 180.171875 60.265625 180.554688 C 59.964844 180.941406 59.605469 181.410156 59.191406 181.960938 L 56.398438 185.6875 L 59.085938 190.929688 C 59.410156 191.5625 59.683594 192.085938 59.90625 192.5 C 60.128906 192.914062 60.324219 193.269531 60.484375 193.554688 C 60.648438 193.84375 60.792969 194.101562 60.929688 194.320312 C 61.0625 194.539062 61.203125 194.777344 61.355469 195.03125 L 58.703125 194.792969 L 54.867188 187.324219 L 49.9375 194 L 47.28125 193.761719 C 47.488281 193.535156 47.675781 193.320312 47.851562 193.121094 C 48.023438 192.917969 48.21875 192.6875 48.425781 192.425781 C 48.636719 192.171875 48.882812 191.855469 49.167969 191.484375 C 49.457031 191.121094 49.808594 190.652344 50.230469 190.085938 L 53.828125 185.292969 L 51.785156 181.292969 " fill-opacity="1" fill-rule="nonzero"/><path fill="#5c5c5c" d="M 67.074219 182.671875 C 66.753906 182.050781 66.484375 181.523438 66.253906 181.097656 C 66.027344 180.667969 65.824219 180.300781 65.640625 179.984375 C 65.460938 179.671875 65.292969 179.394531 65.140625 179.152344 C 64.988281 178.910156 64.828125 178.65625 64.667969 178.394531 L 67.378906 178.640625 L 70.648438 185.035156 L 74.878906 179.316406 L 77.589844 179.558594 C 77.390625 179.769531 77.199219 179.972656 77.003906 180.1875 C 76.808594 180.394531 76.597656 180.644531 76.363281 180.925781 C 76.125 181.210938 75.859375 181.546875 75.554688 181.933594 C 75.253906 182.324219 74.894531 182.789062 74.476562 183.335938 L 71.683594 187.066406 L 74.378906 192.308594 C 74.695312 192.9375 74.96875 193.460938 75.191406 193.878906 C 75.414062 194.292969 75.609375 194.644531 75.773438 194.933594 C 75.933594 195.222656 76.082031 195.476562 76.214844 195.699219 C 76.347656 195.921875 76.488281 196.15625 76.644531 196.410156 L 73.988281 196.167969 L 70.15625 188.703125 L 65.222656 195.382812 L 62.570312 195.140625 C 62.777344 194.914062 62.964844 194.695312 63.140625 194.496094 C 63.3125 194.292969 63.507812 194.066406 63.710938 193.808594 C 63.921875 193.546875 64.171875 193.230469 64.453125 192.863281 C 64.742188 192.496094 65.097656 192.027344 65.519531 191.464844 L 69.113281 186.671875 L 67.074219 182.671875 " fill-opacity="1" fill-rule="nonzero"/><path fill="#5c5c5c" d="M 82.359375 184.050781 C 82.042969 183.425781 81.773438 182.898438 81.542969 182.472656 C 81.3125 182.046875 81.109375 181.679688 80.925781 181.363281 C 80.746094 181.046875 80.578125 180.769531 80.429688 180.527344 C 80.273438 180.285156 80.117188 180.035156 79.953125 179.773438 L 82.664062 180.015625 L 85.9375 186.410156 L 90.167969 180.695312 L 92.875 180.9375 C 92.679688 181.144531 92.484375 181.351562 92.289062 181.5625 C 92.097656 181.777344 91.882812 182.019531 91.648438 182.308594 C 91.414062 182.589844 91.144531 182.925781 90.839844 183.3125 C 90.539062 183.699219 90.179688 184.167969 89.765625 184.71875 L 86.976562 188.445312 L 89.664062 193.6875 C 89.984375 194.320312 90.257812 194.84375 90.480469 195.257812 C 90.703125 195.671875 90.894531 196.019531 91.058594 196.3125 C 91.222656 196.601562 91.367188 196.855469 91.503906 197.074219 C 91.632812 197.296875 91.777344 197.535156 91.929688 197.789062 L 89.277344 197.550781 L 85.441406 190.082031 L 80.511719 196.757812 L 77.855469 196.519531 C 78.0625 196.289062 78.25 196.074219 78.425781 195.871094 C 78.597656 195.675781 78.792969 195.445312 79 195.183594 C 79.210938 194.925781 79.457031 194.613281 79.742188 194.242188 C 80.03125 193.871094 80.382812 193.40625 80.804688 192.84375 L 84.40625 188.050781 L 82.359375 184.050781 " fill-opacity="1" fill-rule="nonzero"/><path fill="#5c5c5c" d="M 97.648438 185.425781 C 97.328125 184.800781 97.058594 184.277344 96.828125 183.851562 C 96.597656 183.425781 96.398438 183.054688 96.214844 182.742188 C 96.035156 182.429688 95.867188 182.148438 95.714844 181.90625 C 95.5625 181.664062 95.40625 181.414062 95.242188 181.152344 L 97.953125 181.394531 L 101.222656 187.792969 L 105.453125 182.074219 L 108.164062 182.316406 C 107.964844 182.519531 107.773438 182.730469 107.578125 182.941406 C 107.382812 183.152344 107.171875 183.398438 106.9375 183.683594 C 106.699219 183.96875 106.433594 184.304688 106.128906 184.6875 C 105.828125 185.074219 105.46875 185.542969 105.050781 186.097656 L 102.261719 189.820312 L 104.949219 195.0625 C 105.269531 195.695312 105.542969 196.21875 105.765625 196.632812 C 105.988281 197.046875 106.183594 197.402344 106.347656 197.691406 C 106.507812 197.976562 106.660156 198.234375 106.789062 198.457031 C 106.921875 198.675781 107.0625 198.914062 107.21875 199.167969 L 104.5625 198.925781 L 100.726562 191.457031 L 95.796875 198.136719 L 93.144531 197.894531 C 93.351562 197.667969 93.539062 197.453125 93.714844 197.253906 C 93.886719 197.050781 94.078125 196.820312 94.285156 196.558594 C 94.496094 196.300781 94.746094 195.988281 95.027344 195.617188 C 95.316406 195.253906 95.671875 194.785156 96.09375 194.21875 L 99.691406 189.425781 L 97.648438 185.425781 " fill-opacity="1" fill-rule="nonzero"/><path fill="#5c5c5c" d="M 124.199219 187.820312 C 123.878906 187.195312 123.609375 186.667969 123.378906 186.246094 C 123.148438 185.816406 122.949219 185.445312 122.765625 185.132812 C 122.585938 184.820312 122.417969 184.539062 122.265625 184.300781 C 122.113281 184.058594 121.957031 183.804688 121.792969 183.542969 L 124.507812 183.789062 L 127.773438 190.183594 L 132.003906 184.464844 L 134.714844 184.710938 C 134.515625 184.914062 134.324219 185.125 134.128906 185.332031 C 133.9375 185.546875 133.722656 185.792969 133.488281 186.078125 C 133.25 186.359375 132.984375 186.699219 132.679688 187.082031 C 132.378906 187.46875 132.019531 187.9375 131.605469 188.488281 L 128.8125 192.214844 L 131.503906 197.457031 C 131.820312 198.089844 132.097656 198.613281 132.316406 199.027344 C 132.539062 199.441406 132.734375 199.792969 132.898438 200.082031 C 133.0625 200.371094 133.210938 200.628906 133.339844 200.847656 C 133.472656 201.066406 133.613281 201.304688 133.769531 201.558594 L 131.117188 201.320312 L 127.277344 193.851562 L 122.347656 200.527344 L 119.691406 200.289062 C 119.902344 200.0625 120.089844 199.84375 120.265625 199.648438 C 120.4375 199.445312 120.628906 199.210938 120.839844 198.953125 C 121.046875 198.695312 121.296875 198.382812 121.582031 198.011719 C 121.867188 197.644531 122.222656 197.175781 122.644531 196.613281 L 126.242188 191.820312 L 124.199219 187.820312 " fill-opacity="1" fill-rule="nonzero"/><path fill="#5c5c5c" d="M 139.484375 189.195312 C 139.167969 188.574219 138.894531 188.050781 138.667969 187.621094 C 138.441406 187.195312 138.234375 186.824219 138.050781 186.511719 C 137.871094 186.199219 137.703125 185.921875 137.550781 185.679688 C 137.398438 185.433594 137.246094 185.183594 137.078125 184.921875 L 139.792969 185.164062 L 143.0625 191.5625 L 147.292969 185.84375 L 150 186.085938 C 149.804688 186.292969 149.609375 186.5 149.417969 186.714844 C 149.222656 186.921875 149.007812 187.171875 148.773438 187.453125 C 148.539062 187.738281 148.269531 188.074219 147.964844 188.460938 C 147.664062 188.847656 147.304688 189.316406 146.894531 189.863281 L 144.101562 193.589844 L 146.789062 198.832031 C 147.109375 199.464844 147.382812 199.988281 147.601562 200.402344 C 147.828125 200.816406 148.023438 201.171875 148.183594 201.460938 C 148.351562 201.746094 148.496094 202.003906 148.628906 202.226562 C 148.757812 202.449219 148.902344 202.679688 149.054688 202.9375 L 146.40625 202.695312 L 142.566406 195.226562 L 137.636719 201.910156 L 134.980469 201.667969 C 135.1875 201.4375 135.375 201.222656 135.550781 201.023438 C 135.722656 200.820312 135.917969 200.59375 136.128906 200.332031 C 136.335938 200.074219 136.582031 199.757812 136.871094 199.390625 C 137.15625 199.023438 137.507812 198.554688 137.929688 197.988281 L 141.53125 193.199219 L 139.484375 189.195312 " fill-opacity="1" fill-rule="nonzero"/><path fill="#5c5c5c" d="M 154.773438 190.578125 C 154.457031 189.953125 154.183594 189.425781 153.953125 189 C 153.726562 188.574219 153.519531 188.203125 153.339844 187.886719 C 153.160156 187.574219 152.996094 187.296875 152.839844 187.054688 C 152.6875 186.8125 152.53125 186.558594 152.367188 186.300781 L 155.082031 186.542969 L 158.347656 192.9375 L 162.578125 187.21875 L 165.289062 187.464844 C 165.09375 187.671875 164.898438 187.878906 164.703125 188.089844 C 164.511719 188.300781 164.296875 188.546875 164.0625 188.828125 C 163.824219 189.117188 163.558594 189.449219 163.25 189.839844 C 162.953125 190.226562 162.59375 190.691406 162.179688 191.246094 L 159.386719 194.972656 L 162.078125 200.214844 C 162.394531 200.847656 162.671875 201.367188 162.894531 201.785156 C 163.113281 202.199219 163.308594 202.546875 163.472656 202.835938 C 163.636719 203.128906 163.785156 203.382812 163.914062 203.601562 C 164.046875 203.824219 164.1875 204.0625 164.34375 204.316406 L 161.691406 204.078125 L 157.855469 196.609375 L 152.921875 203.285156 L 150.265625 203.046875 C 150.476562 202.816406 150.667969 202.601562 150.839844 202.402344 C 151.011719 202.203125 151.203125 201.96875 151.414062 201.710938 C 151.621094 201.449219 151.871094 201.136719 152.15625 200.769531 C 152.441406 200.398438 152.796875 199.933594 153.21875 199.367188 L 156.820312 194.578125 L 154.773438 190.578125 " fill-opacity="1" fill-rule="nonzero"/><path fill="#5c5c5c" d="M 170.058594 191.953125 C 169.746094 191.328125 169.46875 190.804688 169.242188 190.378906 C 169.015625 189.953125 168.808594 189.582031 168.625 189.269531 C 168.449219 188.953125 168.28125 188.675781 168.125 188.433594 C 167.972656 188.191406 167.816406 187.941406 167.652344 187.679688 L 170.367188 187.921875 L 173.632812 194.320312 L 177.867188 188.597656 L 180.578125 188.84375 C 180.382812 189.046875 180.183594 189.257812 179.988281 189.46875 C 179.796875 189.679688 179.582031 189.925781 179.347656 190.210938 C 179.113281 190.492188 178.84375 190.828125 178.542969 191.214844 C 178.238281 191.601562 177.878906 192.070312 177.46875 192.621094 L 174.675781 196.351562 L 177.363281 201.589844 C 177.6875 202.222656 177.957031 202.746094 178.183594 203.160156 C 178.402344 203.574219 178.59375 203.929688 178.757812 204.214844 C 178.925781 204.503906 179.070312 204.761719 179.203125 204.984375 C 179.332031 205.199219 179.476562 205.4375 179.628906 205.691406 L 176.980469 205.453125 L 173.140625 197.984375 L 168.210938 204.664062 L 165.554688 204.421875 C 165.761719 204.195312 165.953125 203.980469 166.125 203.78125 C 166.296875 203.578125 166.492188 203.347656 166.703125 203.085938 C 166.910156 202.828125 167.15625 202.515625 167.445312 202.144531 C 167.726562 201.777344 168.082031 201.308594 168.503906 200.746094 L 172.105469 195.953125 L 170.058594 191.953125 " fill-opacity="1" fill-rule="nonzero"/><path fill="#5c5c5c" d="M 196.613281 194.347656 C 196.300781 193.722656 196.027344 193.195312 195.800781 192.773438 C 195.570312 192.34375 195.363281 191.972656 195.183594 191.660156 C 195.003906 191.347656 194.835938 191.066406 194.683594 190.824219 C 194.53125 190.585938 194.371094 190.332031 194.210938 190.070312 L 196.921875 190.316406 L 200.191406 196.710938 L 204.421875 190.992188 L 207.132812 191.238281 C 206.9375 191.441406 206.738281 191.652344 206.546875 191.859375 C 206.351562 192.074219 206.136719 192.320312 205.902344 192.605469 C 205.667969 192.886719 205.398438 193.222656 205.097656 193.609375 C 204.792969 193.996094 204.433594 194.464844 204.019531 195.015625 L 201.230469 198.742188 L 203.917969 203.984375 C 204.242188 204.617188 204.511719 205.140625 204.738281 205.554688 C 204.960938 205.96875 205.148438 206.320312 205.316406 206.609375 C 205.476562 206.898438 205.625 207.15625 205.757812 207.371094 C 205.886719 207.59375 206.03125 207.832031 206.1875 208.085938 L 203.535156 207.847656 L 199.699219 200.378906 L 194.765625 207.054688 L 192.113281 206.816406 C 192.316406 206.589844 192.507812 206.371094 192.683594 206.171875 C 192.855469 205.972656 193.046875 205.738281 193.257812 205.480469 C 193.46875 205.222656 193.714844 204.910156 194 204.539062 C 194.28125 204.167969 194.636719 203.703125 195.0625 203.140625 L 198.660156 198.347656 L 196.613281 194.347656 " fill-opacity="1" fill-rule="nonzero"/><path fill="#5c5c5c" d="M 211.898438 195.722656 C 211.589844 195.097656 211.316406 194.578125 211.085938 194.148438 C 210.855469 193.722656 210.648438 193.351562 210.472656 193.039062 C 210.289062 192.726562 210.125 192.449219 209.972656 192.207031 C 209.816406 191.960938 209.660156 191.710938 209.5 191.449219 L 212.210938 191.691406 L 215.480469 198.089844 L 219.707031 192.367188 L 222.417969 192.613281 C 222.222656 192.816406 222.027344 193.027344 221.835938 193.242188 C 221.640625 193.449219 221.425781 193.699219 221.191406 193.980469 C 220.953125 194.265625 220.6875 194.601562 220.382812 194.988281 C 220.082031 195.375 219.722656 195.84375 219.308594 196.390625 L 216.515625 200.117188 L 219.207031 205.359375 C 219.527344 205.992188 219.800781 206.515625 220.023438 206.929688 C 220.246094 207.34375 220.4375 207.699219 220.605469 207.988281 C 220.765625 208.273438 220.914062 208.53125 221.042969 208.753906 C 221.175781 208.96875 221.316406 209.207031 221.476562 209.460938 L 218.820312 209.222656 L 214.984375 201.753906 L 210.050781 208.433594 L 207.402344 208.195312 C 207.605469 207.964844 207.796875 207.75 207.96875 207.550781 C 208.144531 207.347656 208.332031 207.121094 208.542969 206.859375 C 208.753906 206.601562 209 206.285156 209.285156 205.917969 C 209.570312 205.550781 209.925781 205.082031 210.351562 204.515625 L 213.945312 199.722656 L 211.898438 195.722656 " fill-opacity="1" fill-rule="nonzero"/><path fill="#5c5c5c" d="M 227.1875 197.101562 C 226.875 196.480469 226.601562 195.953125 226.371094 195.527344 C 226.144531 195.097656 225.9375 194.730469 225.757812 194.414062 C 225.574219 194.101562 225.410156 193.824219 225.257812 193.582031 C 225.101562 193.339844 224.945312 193.085938 224.785156 192.824219 L 227.496094 193.070312 L 230.769531 199.464844 L 234.996094 193.746094 L 237.703125 193.992188 C 237.511719 194.199219 237.3125 194.402344 237.121094 194.617188 C 236.929688 194.824219 236.710938 195.074219 236.476562 195.355469 C 236.242188 195.644531 235.972656 195.976562 235.671875 196.367188 C 235.367188 196.753906 235.007812 197.21875 234.597656 197.773438 L 231.804688 201.496094 L 234.492188 206.742188 C 234.816406 207.371094 235.085938 207.894531 235.3125 208.308594 C 235.535156 208.726562 235.726562 209.074219 235.890625 209.363281 C 236.050781 209.65625 236.199219 209.90625 236.332031 210.128906 C 236.460938 210.351562 236.605469 210.589844 236.761719 210.839844 L 234.109375 210.601562 L 230.273438 203.136719 L 225.335938 209.8125 L 222.6875 209.574219 C 222.890625 209.34375 223.082031 209.128906 223.257812 208.929688 C 223.429688 208.730469 223.621094 208.5 223.832031 208.238281 C 224.039062 207.976562 224.289062 207.664062 224.574219 207.296875 C 224.855469 206.925781 225.210938 206.460938 225.636719 205.894531 L 229.234375 201.101562 L 227.1875 197.101562 " fill-opacity="1" fill-rule="nonzero"/><path fill="#5c5c5c" d="M 242.476562 198.480469 C 242.160156 197.855469 241.890625 197.332031 241.660156 196.90625 C 241.429688 196.480469 241.222656 196.109375 241.046875 195.792969 C 240.863281 195.476562 240.699219 195.199219 240.546875 194.957031 C 240.390625 194.71875 240.234375 194.46875 240.074219 194.203125 L 242.785156 194.449219 L 246.054688 200.847656 L 250.28125 195.125 L 252.992188 195.367188 C 252.796875 195.574219 252.601562 195.785156 252.410156 195.992188 C 252.214844 196.207031 252 196.453125 251.765625 196.738281 C 251.53125 197.019531 251.261719 197.355469 250.957031 197.742188 C 250.65625 198.128906 250.296875 198.597656 249.882812 199.148438 L 247.089844 202.875 L 249.78125 208.117188 C 250.101562 208.75 250.375 209.273438 250.597656 209.6875 C 250.820312 210.101562 251.011719 210.453125 251.179688 210.742188 C 251.339844 211.03125 251.488281 211.289062 251.617188 211.507812 C 251.75 211.726562 251.890625 211.964844 252.050781 212.21875 L 249.394531 211.980469 L 245.558594 204.511719 L 240.625 211.1875 L 237.972656 210.949219 C 238.179688 210.722656 238.371094 210.503906 238.542969 210.304688 C 238.71875 210.105469 238.90625 209.875 239.117188 209.613281 C 239.328125 209.355469 239.574219 209.042969 239.859375 208.671875 C 240.144531 208.300781 240.5 207.835938 240.925781 207.273438 L 244.519531 202.480469 L 242.476562 198.480469 " fill-opacity="1" fill-rule="nonzero"/><path fill="#5c5c5c" d="M 269.03125 200.875 C 268.714844 200.25 268.445312 199.722656 268.214844 199.296875 C 267.984375 198.871094 267.777344 198.5 267.597656 198.1875 C 267.417969 197.871094 267.25 197.59375 267.101562 197.351562 C 266.949219 197.113281 266.789062 196.859375 266.628906 196.597656 L 269.339844 196.84375 L 272.609375 203.234375 L 276.839844 197.519531 L 279.550781 197.757812 C 279.351562 197.96875 279.160156 198.179688 278.964844 198.386719 C 278.769531 198.601562 278.558594 198.847656 278.320312 199.132812 C 278.085938 199.414062 277.820312 199.75 277.511719 200.136719 C 277.214844 200.523438 276.855469 200.992188 276.4375 201.542969 L 273.644531 205.269531 L 276.332031 210.511719 C 276.65625 211.144531 276.929688 211.667969 277.152344 212.082031 C 277.375 212.496094 277.570312 212.84375 277.730469 213.136719 C 277.894531 213.425781 278.042969 213.679688 278.171875 213.898438 C 278.308594 214.121094 278.449219 214.359375 278.605469 214.613281 L 275.949219 214.375 L 272.113281 206.90625 L 267.183594 213.582031 L 264.527344 213.34375 C 264.738281 213.113281 264.925781 212.898438 265.101562 212.695312 C 265.273438 212.5 265.460938 212.265625 265.671875 212.007812 C 265.882812 211.75 266.128906 211.433594 266.414062 211.066406 C 266.699219 210.695312 267.050781 210.230469 267.480469 209.667969 L 271.074219 204.875 L 269.03125 200.875 " fill-opacity="1" fill-rule="nonzero"/><path fill="#5c5c5c" d="M 284.320312 202.25 C 284.003906 201.625 283.730469 201.101562 283.503906 200.675781 C 283.273438 200.25 283.066406 199.878906 282.886719 199.566406 C 282.707031 199.253906 282.539062 198.976562 282.386719 198.730469 C 282.234375 198.488281 282.074219 198.238281 281.914062 197.976562 L 284.625 198.21875 L 287.894531 204.617188 L 292.125 198.894531 L 294.835938 199.140625 C 294.640625 199.34375 294.445312 199.554688 294.25 199.765625 C 294.054688 199.976562 293.84375 200.222656 293.609375 200.507812 C 293.375 200.792969 293.105469 201.128906 292.800781 201.515625 C 292.5 201.898438 292.140625 202.367188 291.722656 202.917969 L 288.933594 206.644531 L 291.621094 211.886719 C 291.945312 212.519531 292.214844 213.042969 292.4375 213.457031 C 292.664062 213.871094 292.855469 214.226562 293.019531 214.515625 C 293.179688 214.800781 293.328125 215.058594 293.464844 215.28125 C 293.59375 215.496094 293.738281 215.734375 293.890625 215.988281 L 291.238281 215.75 L 287.402344 208.28125 L 282.472656 214.957031 L 279.816406 214.722656 C 280.023438 214.492188 280.210938 214.277344 280.386719 214.078125 C 280.558594 213.875 280.753906 213.644531 280.957031 213.386719 C 281.171875 213.128906 281.417969 212.8125 281.699219 212.441406 C 281.988281 212.078125 282.34375 211.609375 282.765625 211.042969 L 286.363281 206.25 L 284.320312 202.25 " fill-opacity="1" fill-rule="nonzero"/><path fill="#5c5c5c" d="M 299.605469 203.628906 C 299.289062 203.007812 299.019531 202.480469 298.789062 202.054688 C 298.558594 201.625 298.355469 201.257812 298.175781 200.941406 C 297.996094 200.628906 297.828125 200.351562 297.675781 200.109375 C 297.523438 199.867188 297.363281 199.613281 297.203125 199.351562 L 299.914062 199.597656 L 303.183594 205.992188 L 307.414062 200.273438 L 310.125 200.519531 C 309.925781 200.726562 309.734375 200.929688 309.539062 201.144531 C 309.34375 201.351562 309.132812 201.601562 308.894531 201.886719 C 308.660156 202.167969 308.394531 202.503906 308.085938 202.894531 C 307.789062 203.28125 307.429688 203.746094 307.011719 204.296875 L 304.222656 208.023438 L 306.914062 213.269531 C 307.230469 213.898438 307.503906 214.421875 307.726562 214.835938 C 307.949219 215.253906 308.144531 215.601562 308.304688 215.890625 C 308.46875 216.179688 308.613281 216.433594 308.75 216.65625 C 308.882812 216.878906 309.023438 217.113281 309.179688 217.367188 L 306.523438 217.128906 L 302.6875 209.660156 L 297.757812 216.339844 L 295.101562 216.101562 C 295.3125 215.871094 295.5 215.65625 295.675781 215.453125 C 295.847656 215.257812 296.039062 215.023438 296.246094 214.765625 C 296.457031 214.503906 296.703125 214.191406 296.988281 213.824219 C 297.277344 213.453125 297.628906 212.988281 298.054688 212.421875 L 301.648438 207.628906 L 299.605469 203.628906 " fill-opacity="1" fill-rule="nonzero"/><path fill="#5c5c5c" d="M 314.894531 205.007812 C 314.578125 204.382812 314.304688 203.855469 314.074219 203.433594 C 313.847656 203.007812 313.644531 202.636719 313.460938 202.320312 C 313.28125 202.003906 313.113281 201.726562 312.960938 201.484375 C 312.808594 201.246094 312.648438 200.996094 312.488281 200.730469 L 315.199219 200.976562 L 318.46875 207.367188 L 322.699219 201.652344 L 325.410156 201.894531 C 325.210938 202.101562 325.019531 202.3125 324.824219 202.519531 C 324.628906 202.734375 324.417969 202.980469 324.183594 203.265625 C 323.949219 203.546875 323.679688 203.882812 323.375 204.269531 C 323.074219 204.65625 322.714844 205.125 322.296875 205.675781 L 319.511719 209.402344 L 322.199219 214.644531 C 322.519531 215.277344 322.789062 215.800781 323.011719 216.214844 C 323.238281 216.628906 323.429688 216.976562 323.59375 217.269531 C 323.753906 217.558594 323.90625 217.816406 324.039062 218.03125 C 324.167969 218.253906 324.3125 218.492188 324.464844 218.746094 L 321.8125 218.507812 L 317.976562 211.039062 L 313.042969 217.714844 L 310.390625 217.476562 C 310.597656 217.246094 310.785156 217.03125 310.960938 216.832031 C 311.132812 216.632812 311.328125 216.402344 311.53125 216.140625 C 311.742188 215.882812 311.992188 215.570312 312.273438 215.199219 C 312.5625 214.828125 312.917969 214.363281 313.339844 213.800781 L 316.941406 209.007812 L 314.894531 205.007812 " fill-opacity="1" fill-rule="nonzero"/><path fill="#5c5c5c" d="M 148.75 124.039062 L 150.304688 124.175781 C 150.722656 124.214844 151.097656 124.203125 151.414062 124.144531 C 151.730469 124.078125 152 123.976562 152.214844 123.828125 C 152.433594 123.683594 152.597656 123.503906 152.714844 123.277344 C 152.835938 123.0625 152.910156 122.8125 152.933594 122.539062 C 152.960938 122.238281 152.941406 121.976562 152.882812 121.75 C 152.816406 121.519531 152.707031 121.324219 152.542969 121.15625 C 152.378906 120.988281 152.160156 120.855469 151.878906 120.753906 C 151.601562 120.65625 151.265625 120.589844 150.867188 120.554688 C 150.71875 120.539062 150.554688 120.527344 150.375 120.511719 C 150.203125 120.496094 150.03125 120.488281 149.867188 120.476562 C 149.703125 120.46875 149.546875 120.460938 149.410156 120.449219 C 149.273438 120.441406 149.164062 120.433594 149.078125 120.433594 Z M 148.25 129.585938 C 148.320312 129.601562 148.421875 129.613281 148.546875 129.632812 C 148.671875 129.648438 148.820312 129.664062 148.992188 129.679688 C 149.160156 129.699219 149.347656 129.71875 149.550781 129.742188 C 149.753906 129.761719 149.96875 129.78125 150.191406 129.800781 C 150.527344 129.832031 150.863281 129.828125 151.191406 129.789062 C 151.515625 129.75 151.8125 129.65625 152.074219 129.515625 C 152.335938 129.375 152.550781 129.171875 152.726562 128.910156 C 152.90625 128.648438 153.011719 128.3125 153.046875 127.902344 C 153.117188 127.167969 152.941406 126.59375 152.527344 126.179688 C 152.113281 125.769531 151.441406 125.519531 150.507812 125.433594 L 148.640625 125.265625 Z M 146.847656 128.214844 L 147.445312 121.621094 C 147.480469 121.25 147.507812 120.902344 147.53125 120.582031 C 147.550781 120.265625 147.5625 119.972656 147.570312 119.722656 C 147.578125 119.464844 147.574219 119.257812 147.554688 119.097656 C 147.734375 119.101562 147.949219 119.109375 148.207031 119.121094 C 148.472656 119.136719 148.757812 119.148438 149.066406 119.167969 C 149.378906 119.195312 149.707031 119.21875 150.042969 119.246094 C 150.386719 119.269531 150.726562 119.300781 151.0625 119.332031 C 151.652344 119.382812 152.171875 119.480469 152.625 119.617188 C 153.074219 119.753906 153.445312 119.941406 153.742188 120.1875 C 154.035156 120.433594 154.246094 120.738281 154.378906 121.109375 C 154.507812 121.480469 154.550781 121.921875 154.507812 122.4375 C 154.476562 122.769531 154.398438 123.066406 154.273438 123.328125 C 154.148438 123.582031 153.988281 123.808594 153.789062 124.003906 C 153.59375 124.191406 153.371094 124.355469 153.125 124.488281 C 152.875 124.621094 152.605469 124.722656 152.328125 124.800781 C 152.628906 124.90625 152.921875 125.042969 153.210938 125.210938 C 153.503906 125.378906 153.757812 125.589844 153.976562 125.84375 C 154.195312 126.097656 154.367188 126.40625 154.488281 126.761719 C 154.605469 127.125 154.644531 127.550781 154.601562 128.042969 C 154.554688 128.523438 154.433594 128.964844 154.242188 129.363281 C 154.046875 129.765625 153.765625 130.101562 153.398438 130.378906 C 153.027344 130.652344 152.566406 130.855469 152.015625 130.980469 C 151.457031 131.109375 150.800781 131.136719 150.035156 131.066406 C 149.632812 131.03125 149.246094 130.992188 148.867188 130.953125 C 148.488281 130.910156 148.140625 130.875 147.824219 130.839844 C 147.511719 130.804688 147.238281 130.769531 147.011719 130.742188 C 146.78125 130.710938 146.609375 130.691406 146.503906 130.667969 C 146.554688 130.511719 146.59375 130.3125 146.636719 130.0625 C 146.671875 129.816406 146.707031 129.539062 146.746094 129.230469 C 146.78125 128.914062 146.816406 128.578125 146.847656 128.214844 " fill-opacity="1" fill-rule="nonzero"/><path fill="#5c5c5c" d="M 161.804688 121.9375 L 159.277344 127.503906 L 163.308594 127.871094 Z M 155.765625 131.503906 C 155.851562 131.351562 155.9375 131.195312 156.027344 131.023438 C 156.117188 130.855469 156.214844 130.667969 156.324219 130.453125 C 156.433594 130.242188 156.550781 130.003906 156.683594 129.734375 C 156.8125 129.460938 156.964844 129.148438 157.132812 128.785156 L 161.109375 120.316406 L 162.816406 120.472656 L 165.203125 129.515625 C 165.300781 129.898438 165.390625 130.234375 165.476562 130.527344 C 165.550781 130.816406 165.628906 131.074219 165.699219 131.296875 C 165.769531 131.527344 165.835938 131.734375 165.890625 131.914062 C 165.953125 132.09375 166.007812 132.269531 166.058594 132.429688 L 164.429688 132.285156 L 163.628906 129.132812 L 158.738281 128.695312 L 157.398438 131.648438 L 155.765625 131.503906 " fill-opacity="1" fill-rule="nonzero"/><path fill="#5c5c5c" d="M 170.066406 123.582031 L 169.238281 132.71875 L 167.8125 132.589844 C 167.894531 132.277344 167.972656 131.820312 168.039062 131.222656 C 168.101562 130.625 168.171875 129.933594 168.242188 129.152344 L 168.667969 124.472656 C 168.734375 123.691406 168.796875 123 168.835938 122.402344 C 168.882812 121.800781 168.890625 121.339844 168.855469 121.015625 L 170.289062 121.144531 L 175.777344 130.882812 L 176.609375 121.710938 L 178.039062 121.839844 C 178 122 177.960938 122.191406 177.921875 122.421875 C 177.886719 122.65625 177.851562 122.914062 177.816406 123.210938 C 177.78125 123.503906 177.746094 123.820312 177.714844 124.171875 C 177.675781 124.515625 177.640625 124.886719 177.609375 125.28125 L 176.871094 133.40625 L 175.558594 133.285156 L 170.066406 123.582031 " fill-opacity="1" fill-rule="nonzero"/><path fill="#5c5c5c" d="M 181.925781 127.570312 L 186.867188 122.636719 L 188.769531 122.8125 L 183.460938 127.820312 L 188.238281 134.429688 L 186.292969 134.253906 L 181.878906 128.128906 L 181.363281 133.808594 L 179.734375 133.664062 C 179.820312 133.351562 179.898438 132.894531 179.960938 132.296875 C 180.027344 131.695312 180.09375 131.007812 180.164062 130.226562 L 180.585938 125.546875 C 180.660156 124.765625 180.714844 124.074219 180.761719 123.476562 C 180.804688 122.875 180.8125 122.414062 180.78125 122.089844 L 182.410156 122.234375 L 181.925781 127.570312 " fill-opacity="1" fill-rule="nonzero"/><path fill="#5c5c5c" d="M 196.777344 125.996094 L 195.949219 135.125 L 194.515625 134.996094 C 194.605469 134.6875 194.683594 134.226562 194.746094 133.628906 C 194.8125 133.03125 194.878906 132.339844 194.949219 131.558594 L 195.371094 126.878906 C 195.445312 126.097656 195.5 125.40625 195.546875 124.808594 C 195.589844 124.207031 195.597656 123.746094 195.566406 123.421875 L 196.996094 123.550781 L 202.484375 133.292969 L 203.316406 124.121094 L 204.746094 124.253906 C 204.707031 124.40625 204.667969 124.597656 204.632812 124.832031 C 204.597656 125.0625 204.558594 125.328125 204.523438 125.617188 C 204.492188 125.910156 204.453125 126.226562 204.417969 126.578125 C 204.386719 126.929688 204.351562 127.292969 204.316406 127.6875 L 203.578125 135.8125 L 202.269531 135.691406 L 196.777344 125.996094 " fill-opacity="1" fill-rule="nonzero"/><path fill="#5c5c5c" d="M 211.523438 126.417969 L 209 131.984375 L 213.03125 132.347656 Z M 205.488281 135.984375 C 205.570312 135.832031 205.65625 135.671875 205.746094 135.503906 C 205.835938 135.339844 205.9375 135.148438 206.039062 134.9375 C 206.148438 134.722656 206.269531 134.484375 206.398438 134.210938 C 206.53125 133.941406 206.683594 133.628906 206.855469 133.269531 L 210.828125 124.800781 L 212.539062 124.953125 L 214.921875 134 C 215.023438 134.378906 215.113281 134.714844 215.191406 135.003906 C 215.273438 135.292969 215.351562 135.550781 215.417969 135.78125 C 215.488281 136.007812 215.550781 136.210938 215.613281 136.390625 C 215.667969 136.574219 215.726562 136.746094 215.78125 136.910156 L 214.152344 136.765625 L 213.347656 133.617188 L 208.457031 133.175781 L 207.117188 136.132812 L 205.488281 135.984375 " fill-opacity="1" fill-rule="nonzero"/><path fill="#5c5c5c" d="M 220.921875 125.707031 L 223.441406 135.964844 L 227.796875 126.328125 L 229.550781 126.484375 C 229.441406 128.375 229.347656 130.113281 229.265625 131.703125 C 229.242188 132.15625 229.222656 132.605469 229.199219 133.0625 C 229.183594 133.511719 229.164062 133.953125 229.140625 134.386719 C 229.125 134.820312 229.109375 135.234375 229.097656 135.625 C 229.082031 136.015625 229.070312 136.371094 229.058594 136.695312 C 229.050781 137.019531 229.046875 137.300781 229.042969 137.542969 C 229.042969 137.785156 229.046875 137.972656 229.054688 138.109375 L 227.585938 137.976562 L 228.222656 128.460938 L 224.085938 137.660156 L 222.535156 137.519531 L 220.101562 127.753906 L 219 137.203125 L 217.527344 137.070312 C 217.558594 136.941406 217.59375 136.753906 217.636719 136.515625 C 217.679688 136.277344 217.726562 136 217.769531 135.675781 C 217.820312 135.359375 217.871094 135 217.929688 134.613281 C 217.984375 134.226562 218.046875 133.820312 218.101562 133.394531 C 218.164062 132.964844 218.222656 132.527344 218.285156 132.074219 C 218.34375 131.625 218.40625 131.175781 218.464844 130.730469 C 218.671875 129.152344 218.898438 127.425781 219.136719 125.546875 L 220.921875 125.707031 " fill-opacity="1" fill-rule="nonzero"/><path fill="#5c5c5c" d="M 238.570312 132.210938 L 238.453125 133.480469 L 233.917969 133.074219 L 233.546875 137.191406 L 235.644531 137.382812 C 236.433594 137.453125 237.09375 137.511719 237.632812 137.546875 C 238.167969 137.582031 238.601562 137.585938 238.921875 137.558594 L 238.792969 138.984375 L 231.796875 138.355469 C 231.886719 138.046875 231.960938 137.585938 232.027344 136.992188 C 232.09375 136.390625 232.160156 135.699219 232.230469 134.914062 L 232.652344 130.238281 C 232.726562 129.460938 232.78125 128.765625 232.828125 128.167969 C 232.871094 127.566406 232.878906 127.105469 232.847656 126.78125 L 239.605469 127.390625 L 239.484375 128.699219 L 234.359375 128.238281 L 234.035156 131.804688 L 238.570312 132.210938 " fill-opacity="1" fill-rule="nonzero"/><path fill="#5c5c5c" d="M 51.476562 237.542969 C 51.253906 237.714844 51 237.859375 50.714844 237.972656 C 50.429688 238.089844 50.128906 238.179688 49.824219 238.253906 C 49.515625 238.320312 49.207031 238.371094 48.894531 238.390625 C 48.585938 238.410156 48.296875 238.410156 48.03125 238.386719 C 47.328125 238.320312 46.703125 238.144531 46.167969 237.859375 C 45.625 237.570312 45.179688 237.1875 44.824219 236.707031 C 44.472656 236.230469 44.21875 235.671875 44.066406 235.019531 C 43.90625 234.371094 43.867188 233.65625 43.9375 232.875 C 44.019531 231.984375 44.21875 231.210938 44.539062 230.5625 C 44.859375 229.910156 45.257812 229.382812 45.730469 228.972656 C 46.207031 228.5625 46.734375 228.269531 47.324219 228.101562 C 47.910156 227.921875 48.507812 227.867188 49.121094 227.917969 C 49.371094 227.945312 49.625 227.984375 49.882812 228.039062 C 50.136719 228.097656 50.394531 228.171875 50.648438 228.269531 C 50.90625 228.367188 51.160156 228.492188 51.40625 228.640625 C 51.65625 228.785156 51.898438 228.960938 52.132812 229.171875 L 51.597656 230.382812 C 51.398438 230.167969 51.191406 229.984375 50.976562 229.832031 C 50.757812 229.679688 50.542969 229.550781 50.324219 229.449219 C 50.105469 229.34375 49.882812 229.269531 49.660156 229.210938 C 49.441406 229.15625 49.222656 229.117188 49.015625 229.101562 C 48.527344 229.058594 48.070312 229.101562 47.648438 229.234375 C 47.222656 229.363281 46.847656 229.585938 46.527344 229.898438 C 46.199219 230.210938 45.933594 230.609375 45.71875 231.09375 C 45.503906 231.582031 45.371094 232.15625 45.3125 232.824219 C 45.253906 233.449219 45.285156 234.015625 45.40625 234.53125 C 45.519531 235.046875 45.710938 235.492188 45.96875 235.871094 C 46.226562 236.25 46.550781 236.550781 46.929688 236.777344 C 47.3125 237.003906 47.742188 237.136719 48.214844 237.179688 C 48.480469 237.199219 48.75 237.195312 49.023438 237.160156 C 49.300781 237.121094 49.578125 237.0625 49.84375 236.972656 C 50.113281 236.882812 50.375 236.769531 50.625 236.632812 C 50.875 236.5 51.109375 236.34375 51.320312 236.164062 L 51.476562 237.542969 " fill-opacity="1" fill-rule="nonzero"/><path fill="#5c5c5c" d="M 57.820312 230.246094 L 55.609375 235.117188 L 59.136719 235.433594 Z M 52.535156 238.617188 C 52.605469 238.484375 52.683594 238.347656 52.761719 238.195312 C 52.839844 238.046875 52.929688 237.882812 53.023438 237.699219 C 53.117188 237.511719 53.21875 237.304688 53.332031 237.066406 C 53.449219 236.828125 53.582031 236.554688 53.734375 236.242188 L 57.210938 228.824219 L 58.703125 228.957031 L 60.792969 236.878906 C 60.882812 237.210938 60.960938 237.503906 61.027344 237.757812 C 61.101562 238.011719 61.164062 238.242188 61.230469 238.4375 C 61.289062 238.640625 61.34375 238.816406 61.394531 238.972656 C 61.449219 239.128906 61.496094 239.285156 61.546875 239.429688 L 60.121094 239.300781 L 59.414062 236.542969 L 55.136719 236.15625 L 53.964844 238.746094 L 52.535156 238.617188 " fill-opacity="1" fill-rule="nonzero"/><path fill="#5c5c5c" d="M 64.996094 234.285156 L 66.316406 234.402344 C 67.101562 234.476562 67.714844 234.367188 68.152344 234.078125 C 68.585938 233.789062 68.828125 233.359375 68.882812 232.78125 C 68.910156 232.484375 68.890625 232.21875 68.816406 231.980469 C 68.746094 231.742188 68.621094 231.539062 68.445312 231.367188 C 68.269531 231.195312 68.03125 231.054688 67.730469 230.945312 C 67.4375 230.835938 67.074219 230.765625 66.648438 230.722656 C 66.402344 230.703125 66.164062 230.683594 65.9375 230.671875 C 65.714844 230.660156 65.507812 230.648438 65.320312 230.640625 Z M 64.777344 236.675781 C 64.746094 237.019531 64.714844 237.34375 64.691406 237.648438 C 64.667969 237.957031 64.644531 238.238281 64.628906 238.496094 C 64.613281 238.757812 64.601562 238.988281 64.597656 239.195312 C 64.589844 239.394531 64.597656 239.570312 64.609375 239.707031 L 63.074219 239.566406 C 63.152344 239.296875 63.21875 238.898438 63.277344 238.371094 C 63.332031 237.847656 63.394531 237.242188 63.453125 236.554688 L 63.898438 231.644531 C 63.925781 231.324219 63.953125 231.023438 63.96875 230.742188 C 63.992188 230.457031 64.003906 230.207031 64.007812 229.984375 C 64.015625 229.761719 64.011719 229.578125 63.996094 229.4375 C 64.238281 229.449219 64.503906 229.460938 64.796875 229.472656 C 65.046875 229.488281 65.347656 229.503906 65.6875 229.535156 C 66.03125 229.554688 66.40625 229.585938 66.820312 229.621094 C 67.359375 229.671875 67.851562 229.769531 68.289062 229.917969 C 68.726562 230.070312 69.09375 230.269531 69.394531 230.527344 C 69.691406 230.789062 69.917969 231.101562 70.0625 231.480469 C 70.207031 231.859375 70.257812 232.296875 70.210938 232.796875 C 70.175781 233.214844 70.074219 233.582031 69.914062 233.894531 C 69.753906 234.207031 69.554688 234.472656 69.316406 234.683594 C 69.078125 234.898438 68.816406 235.070312 68.53125 235.199219 C 68.242188 235.324219 67.953125 235.417969 67.664062 235.46875 C 67.785156 235.671875 67.933594 235.917969 68.113281 236.214844 C 68.289062 236.503906 68.476562 236.816406 68.679688 237.148438 C 68.882812 237.472656 69.082031 237.808594 69.289062 238.144531 C 69.496094 238.484375 69.6875 238.792969 69.867188 239.078125 C 70.046875 239.367188 70.203125 239.613281 70.34375 239.824219 C 70.476562 240.03125 70.570312 240.171875 70.625 240.246094 L 68.847656 240.089844 L 66.308594 235.484375 L 64.894531 235.359375 L 64.777344 236.675781 " fill-opacity="1" fill-rule="nonzero"/><path fill="#5c5c5c" d="M 73.6875 239.367188 C 73.847656 239.394531 74.058594 239.433594 74.320312 239.472656 C 74.578125 239.507812 74.878906 239.546875 75.207031 239.578125 C 75.523438 239.605469 75.828125 239.601562 76.140625 239.570312 C 76.445312 239.539062 76.75 239.464844 77.035156 239.359375 C 77.324219 239.25 77.597656 239.105469 77.851562 238.917969 C 78.105469 238.730469 78.332031 238.503906 78.527344 238.230469 C 78.726562 237.957031 78.890625 237.632812 79.027344 237.261719 C 79.160156 236.890625 79.242188 236.46875 79.289062 235.992188 C 79.355469 235.214844 79.316406 234.554688 79.167969 234.015625 C 79.015625 233.472656 78.792969 233.03125 78.484375 232.683594 C 78.183594 232.339844 77.8125 232.078125 77.375 231.898438 C 76.9375 231.722656 76.472656 231.609375 75.972656 231.566406 C 75.855469 231.558594 75.726562 231.546875 75.578125 231.535156 C 75.4375 231.523438 75.292969 231.511719 75.144531 231.503906 C 75 231.496094 74.859375 231.488281 74.726562 231.476562 C 74.597656 231.46875 74.488281 231.464844 74.402344 231.460938 Z M 72.546875 237.234375 L 72.980469 232.464844 C 73.007812 232.140625 73.035156 231.839844 73.050781 231.558594 C 73.070312 231.277344 73.082031 231.027344 73.085938 230.800781 C 73.09375 230.578125 73.089844 230.398438 73.074219 230.253906 C 73.171875 230.261719 73.296875 230.265625 73.449219 230.273438 C 73.597656 230.277344 73.769531 230.285156 73.949219 230.296875 C 74.136719 230.308594 74.324219 230.320312 74.53125 230.339844 C 74.730469 230.351562 74.933594 230.367188 75.136719 230.382812 C 75.335938 230.398438 75.53125 230.410156 75.726562 230.425781 C 75.914062 230.441406 76.089844 230.453125 76.246094 230.472656 C 76.429688 230.488281 76.640625 230.519531 76.878906 230.558594 C 77.117188 230.605469 77.363281 230.664062 77.617188 230.75 C 77.875 230.832031 78.136719 230.941406 78.402344 231.074219 C 78.671875 231.210938 78.925781 231.375 79.164062 231.574219 C 79.40625 231.773438 79.625 232.007812 79.835938 232.277344 C 80.039062 232.546875 80.210938 232.859375 80.347656 233.21875 C 80.484375 233.578125 80.585938 233.984375 80.644531 234.4375 C 80.703125 234.894531 80.707031 235.40625 80.65625 235.976562 C 80.59375 236.664062 80.460938 237.261719 80.261719 237.773438 C 80.0625 238.285156 79.8125 238.722656 79.523438 239.082031 C 79.230469 239.445312 78.90625 239.738281 78.542969 239.96875 C 78.179688 240.195312 77.808594 240.375 77.417969 240.496094 C 77.035156 240.621094 76.648438 240.695312 76.261719 240.726562 C 75.878906 240.757812 75.515625 240.757812 75.175781 240.726562 C 75.0625 240.714844 74.933594 240.703125 74.789062 240.6875 C 74.644531 240.671875 74.488281 240.65625 74.328125 240.640625 C 74.167969 240.625 73.996094 240.605469 73.828125 240.582031 C 73.65625 240.5625 73.488281 240.542969 73.328125 240.527344 C 72.949219 240.484375 72.558594 240.433594 72.15625 240.386719 C 72.199219 240.25 72.230469 240.074219 72.261719 239.855469 C 72.292969 239.636719 72.328125 239.394531 72.355469 239.121094 C 72.386719 238.851562 72.421875 238.554688 72.453125 238.234375 C 72.484375 237.910156 72.515625 237.582031 72.546875 237.234375 " fill-opacity="1" fill-rule="nonzero"/><path fill="#5c5c5c" d="M 88.574219 241.867188 L 88.996094 237.183594 L 83.988281 236.726562 L 83.566406 241.414062 L 82.136719 241.285156 C 82.214844 241.011719 82.28125 240.613281 82.339844 240.089844 C 82.394531 239.566406 82.457031 238.960938 82.515625 238.277344 L 82.886719 234.179688 C 82.949219 233.496094 83 232.894531 83.035156 232.367188 C 83.078125 231.839844 83.082031 231.4375 83.058594 231.15625 L 84.480469 231.285156 L 84.089844 235.621094 L 89.097656 236.074219 L 89.492188 231.734375 L 90.917969 231.863281 C 90.839844 232.136719 90.777344 232.535156 90.71875 233.058594 C 90.664062 233.585938 90.601562 234.1875 90.542969 234.875 L 90.171875 238.964844 C 90.105469 239.648438 90.058594 240.253906 90.019531 240.78125 C 89.980469 241.308594 89.976562 241.710938 90 241.992188 L 88.574219 241.867188 " fill-opacity="1" fill-rule="nonzero"/><path fill="#5c5c5c" d="M 99.707031 237.867188 C 99.761719 237.226562 99.742188 236.648438 99.648438 236.125 C 99.550781 235.597656 99.390625 235.148438 99.164062 234.769531 C 98.933594 234.390625 98.648438 234.089844 98.300781 233.867188 C 97.953125 233.640625 97.5625 233.511719 97.125 233.472656 C 96.679688 233.433594 96.269531 233.488281 95.882812 233.636719 C 95.5 233.785156 95.164062 234.019531 94.867188 234.339844 C 94.574219 234.652344 94.332031 235.046875 94.140625 235.515625 C 93.953125 235.984375 93.828125 236.519531 93.773438 237.121094 C 93.71875 237.753906 93.738281 238.332031 93.832031 238.855469 C 93.925781 239.375 94.089844 239.828125 94.320312 240.210938 C 94.550781 240.589844 94.839844 240.898438 95.1875 241.121094 C 95.539062 241.34375 95.9375 241.480469 96.394531 241.519531 C 96.820312 241.558594 97.21875 241.503906 97.597656 241.359375 C 97.976562 241.214844 98.308594 240.984375 98.605469 240.675781 C 98.894531 240.363281 99.136719 239.972656 99.332031 239.496094 C 99.523438 239.027344 99.648438 238.484375 99.707031 237.867188 Z M 101.074219 237.816406 C 101 238.648438 100.808594 239.378906 100.5 240.015625 C 100.195312 240.652344 99.816406 241.179688 99.363281 241.59375 C 98.910156 242.015625 98.410156 242.320312 97.867188 242.515625 C 97.320312 242.707031 96.769531 242.777344 96.210938 242.726562 C 95.652344 242.675781 95.121094 242.515625 94.628906 242.242188 C 94.132812 241.972656 93.710938 241.597656 93.355469 241.121094 C 93.003906 240.648438 92.734375 240.078125 92.554688 239.417969 C 92.378906 238.753906 92.324219 238.007812 92.402344 237.175781 C 92.449219 236.621094 92.554688 236.109375 92.710938 235.640625 C 92.871094 235.175781 93.066406 234.753906 93.304688 234.378906 C 93.539062 234.003906 93.8125 233.679688 94.117188 233.394531 C 94.421875 233.117188 94.75 232.890625 95.097656 232.707031 C 95.445312 232.53125 95.804688 232.402344 96.175781 232.324219 C 96.550781 232.253906 96.925781 232.230469 97.300781 232.261719 C 97.855469 232.3125 98.375 232.476562 98.867188 232.75 C 99.359375 233.023438 99.777344 233.394531 100.132812 233.867188 C 100.484375 234.347656 100.75 234.914062 100.925781 235.574219 C 101.101562 236.238281 101.152344 236.980469 101.074219 237.816406 " fill-opacity="1" fill-rule="nonzero"/><path fill="#5c5c5c" d="M 105.648438 242.25 C 105.992188 242.28125 106.316406 242.308594 106.621094 242.332031 C 106.929688 242.359375 107.210938 242.378906 107.472656 242.394531 C 107.730469 242.414062 107.964844 242.421875 108.171875 242.425781 C 108.375 242.429688 108.550781 242.429688 108.6875 242.417969 L 108.578125 243.664062 L 102.558594 243.125 C 102.636719 242.851562 102.699219 242.453125 102.761719 241.925781 C 102.816406 241.40625 102.875 240.800781 102.9375 240.117188 L 103.308594 236.023438 C 103.371094 235.339844 103.421875 234.734375 103.457031 234.210938 C 103.5 233.683594 103.503906 233.277344 103.480469 232.992188 L 104.902344 233.121094 L 104.089844 242.109375 L 105.648438 242.25 " fill-opacity="1" fill-rule="nonzero"/><path fill="#5c5c5c" d="M 111.601562 242.785156 C 111.761719 242.8125 111.976562 242.847656 112.234375 242.890625 C 112.496094 242.929688 112.792969 242.964844 113.125 242.992188 C 113.4375 243.023438 113.75 243.019531 114.058594 242.984375 C 114.367188 242.953125 114.664062 242.886719 114.953125 242.777344 C 115.242188 242.671875 115.511719 242.523438 115.769531 242.339844 C 116.023438 242.148438 116.25 241.917969 116.449219 241.644531 C 116.644531 241.371094 116.8125 241.050781 116.945312 240.679688 C 117.074219 240.308594 117.160156 239.886719 117.207031 239.410156 C 117.273438 238.632812 117.234375 237.972656 117.085938 237.433594 C 116.9375 236.894531 116.710938 236.445312 116.402344 236.101562 C 116.097656 235.753906 115.730469 235.492188 115.292969 235.316406 C 114.859375 235.140625 114.390625 235.03125 113.890625 234.980469 C 113.773438 234.972656 113.644531 234.960938 113.496094 234.949219 C 113.355469 234.941406 113.207031 234.929688 113.0625 234.921875 C 112.917969 234.914062 112.777344 234.90625 112.648438 234.898438 C 112.515625 234.886719 112.410156 234.882812 112.320312 234.878906 Z M 110.464844 240.65625 L 110.894531 235.882812 C 110.925781 235.558594 110.949219 235.253906 110.96875 234.972656 C 110.988281 234.695312 110.996094 234.441406 111.003906 234.222656 C 111.007812 233.996094 111.003906 233.816406 110.992188 233.675781 C 111.089844 233.679688 111.214844 233.683594 111.363281 233.691406 C 111.515625 233.695312 111.683594 233.707031 111.867188 233.714844 C 112.050781 233.726562 112.242188 233.742188 112.445312 233.753906 C 112.648438 233.765625 112.847656 233.78125 113.050781 233.800781 C 113.257812 233.816406 113.449219 233.832031 113.640625 233.847656 C 113.832031 233.859375 114.007812 233.875 114.164062 233.886719 C 114.347656 233.902344 114.558594 233.9375 114.796875 233.976562 C 115.035156 234.019531 115.28125 234.085938 115.535156 234.164062 C 115.792969 234.25 116.054688 234.359375 116.324219 234.492188 C 116.589844 234.625 116.839844 234.792969 117.082031 234.988281 C 117.324219 235.191406 117.546875 235.425781 117.75 235.695312 C 117.957031 235.964844 118.125 236.277344 118.269531 236.636719 C 118.40625 236.992188 118.5 237.402344 118.5625 237.855469 C 118.621094 238.308594 118.625 238.824219 118.574219 239.390625 C 118.507812 240.082031 118.378906 240.679688 118.179688 241.191406 C 117.980469 241.707031 117.730469 242.140625 117.441406 242.503906 C 117.148438 242.859375 116.820312 243.15625 116.460938 243.382812 C 116.097656 243.613281 115.722656 243.789062 115.339844 243.910156 C 114.949219 244.035156 114.566406 244.113281 114.179688 244.144531 C 113.792969 244.175781 113.433594 244.171875 113.09375 244.144531 C 112.980469 244.132812 112.851562 244.121094 112.707031 244.105469 C 112.5625 244.09375 112.410156 244.074219 112.242188 244.054688 C 112.082031 244.039062 111.917969 244.019531 111.746094 244.003906 C 111.574219 243.984375 111.40625 243.964844 111.246094 243.945312 C 110.867188 243.898438 110.476562 243.851562 110.070312 243.800781 C 110.113281 243.664062 110.148438 243.488281 110.179688 243.277344 C 110.210938 243.058594 110.242188 242.8125 110.273438 242.539062 C 110.304688 242.269531 110.339844 241.972656 110.371094 241.648438 C 110.398438 241.328125 110.429688 240.996094 110.464844 240.65625 " fill-opacity="1" fill-rule="nonzero"/><path fill="#5c5c5c" d="M 125.980469 239.324219 L 125.878906 240.433594 L 121.914062 240.078125 L 121.585938 243.6875 L 123.425781 243.851562 C 124.113281 243.914062 124.695312 243.964844 125.164062 243.996094 C 125.632812 244.027344 126.011719 244.03125 126.289062 244.003906 L 126.179688 245.253906 L 120.054688 244.703125 C 120.132812 244.429688 120.199219 244.027344 120.257812 243.503906 C 120.3125 242.980469 120.375 242.378906 120.433594 241.695312 L 120.804688 237.601562 C 120.867188 236.917969 120.917969 236.308594 120.953125 235.78125 C 120.996094 235.257812 121 234.851562 120.976562 234.570312 L 126.886719 235.105469 L 126.785156 236.25 L 122.296875 235.847656 L 122.011719 238.964844 L 125.980469 239.324219 " fill-opacity="1" fill-rule="nonzero"/><path fill="#5c5c5c" d="M 130.042969 240.148438 L 131.367188 240.265625 C 132.152344 240.339844 132.765625 240.230469 133.203125 239.941406 C 133.636719 239.652344 133.878906 239.21875 133.933594 238.644531 C 133.960938 238.347656 133.9375 238.082031 133.867188 237.84375 C 133.800781 237.605469 133.675781 237.402344 133.496094 237.226562 C 133.320312 237.058594 133.082031 236.917969 132.78125 236.808594 C 132.488281 236.699219 132.125 236.628906 131.695312 236.585938 C 131.453125 236.566406 131.214844 236.546875 130.996094 236.535156 C 130.765625 236.523438 130.558594 236.511719 130.375 236.503906 Z M 129.824219 242.539062 C 129.796875 242.882812 129.769531 243.207031 129.742188 243.511719 C 129.714844 243.816406 129.695312 244.101562 129.679688 244.359375 C 129.664062 244.621094 129.652344 244.847656 129.648438 245.054688 C 129.644531 245.257812 129.648438 245.433594 129.660156 245.570312 L 128.125 245.429688 C 128.203125 245.160156 128.269531 244.757812 128.328125 244.234375 C 128.382812 243.710938 128.445312 243.105469 128.503906 242.421875 L 128.953125 237.507812 C 128.980469 237.1875 129.003906 236.882812 129.019531 236.601562 C 129.042969 236.320312 129.054688 236.070312 129.058594 235.847656 C 129.066406 235.625 129.0625 235.441406 129.046875 235.300781 C 129.289062 235.3125 129.554688 235.324219 129.847656 235.335938 C 130.097656 235.347656 130.398438 235.367188 130.742188 235.390625 C 131.085938 235.417969 131.460938 235.449219 131.871094 235.484375 C 132.410156 235.535156 132.902344 235.632812 133.339844 235.78125 C 133.777344 235.929688 134.144531 236.132812 134.445312 236.390625 C 134.742188 236.652344 134.96875 236.964844 135.113281 237.34375 C 135.257812 237.71875 135.308594 238.160156 135.265625 238.660156 C 135.226562 239.078125 135.125 239.445312 134.964844 239.757812 C 134.804688 240.066406 134.601562 240.332031 134.367188 240.546875 C 134.128906 240.761719 133.867188 240.929688 133.582031 241.0625 C 133.292969 241.1875 133.003906 241.28125 132.714844 241.332031 C 132.835938 241.53125 132.984375 241.78125 133.160156 242.078125 C 133.339844 242.371094 133.527344 242.679688 133.730469 243.011719 C 133.933594 243.335938 134.132812 243.667969 134.339844 244.007812 C 134.546875 244.347656 134.738281 244.65625 134.921875 244.945312 C 135.097656 245.230469 135.253906 245.476562 135.394531 245.6875 C 135.527344 245.894531 135.621094 246.035156 135.675781 246.109375 L 133.898438 245.953125 L 131.359375 241.347656 L 129.945312 241.222656 L 129.824219 242.539062 " fill-opacity="1" fill-rule="nonzero"/><path fill="#5c5c5c" d="M 170.648438 225.773438 L 169.605469 223.539062 C 169.179688 222.675781 168.914062 222.117188 168.664062 221.535156 L 168.632812 221.535156 C 168.3125 222.066406 167.992188 222.554688 167.417969 223.351562 L 166.058594 225.359375 L 164.628906 225.230469 L 168.019531 220.628906 L 165.617188 215.613281 L 167.066406 215.742188 L 168.132812 218.117188 C 168.4375 218.777344 168.664062 219.289062 168.875 219.824219 L 168.917969 219.828125 C 169.242188 219.28125 169.527344 218.863281 169.9375 218.277344 L 171.464844 216.140625 L 172.894531 216.269531 L 169.535156 220.691406 L 172.09375 225.90625 L 170.648438 225.773438 " fill-opacity="1" fill-rule="nonzero"/><path fill="#5c5c5c" d="M 178.828125 226.511719 L 177.789062 224.273438 C 177.363281 223.414062 177.09375 222.859375 176.84375 222.269531 L 176.8125 222.269531 C 176.492188 222.800781 176.171875 223.292969 175.59375 224.089844 L 174.242188 226.101562 L 172.8125 225.972656 L 176.203125 221.363281 L 173.796875 216.351562 L 175.246094 216.480469 L 176.316406 218.855469 C 176.617188 219.511719 176.847656 220.023438 177.054688 220.5625 L 177.101562 220.566406 C 177.421875 220.019531 177.707031 219.597656 178.121094 219.015625 L 179.644531 216.878906 L 181.074219 217.007812 L 177.714844 221.429688 L 180.277344 226.644531 L 178.828125 226.511719 " fill-opacity="1" fill-rule="nonzero"/><path fill="#5c5c5c" d="M 188.570312 216.136719 L 181.59375 228.488281 L 180.546875 228.390625 L 187.519531 216.039062 L 188.570312 216.136719 " fill-opacity="1" fill-rule="nonzero"/><path fill="#5c5c5c" d="M 194.003906 227.878906 L 192.960938 225.640625 C 192.535156 224.78125 192.269531 224.226562 192.019531 223.636719 L 191.992188 223.636719 C 191.667969 224.167969 191.347656 224.660156 190.773438 225.457031 L 189.417969 227.46875 L 187.988281 227.335938 L 191.382812 222.734375 L 188.976562 217.71875 L 190.421875 217.847656 L 191.488281 220.222656 C 191.792969 220.882812 192.019531 221.394531 192.234375 221.929688 L 192.277344 221.9375 C 192.601562 221.390625 192.882812 220.964844 193.296875 220.382812 L 194.820312 218.246094 L 196.25 218.375 L 192.890625 222.796875 L 195.453125 228.011719 L 194.003906 227.878906 " fill-opacity="1" fill-rule="nonzero"/><path fill="#5c5c5c" d="M 202.1875 228.617188 L 201.144531 226.378906 C 200.71875 225.515625 200.453125 224.960938 200.199219 224.378906 L 200.171875 224.375 C 199.847656 224.90625 199.53125 225.398438 198.949219 226.195312 L 197.597656 228.207031 L 196.167969 228.078125 L 199.558594 223.46875 L 197.15625 218.457031 L 198.601562 218.589844 L 199.671875 220.957031 C 199.972656 221.617188 200.203125 222.128906 200.410156 222.667969 L 200.457031 222.671875 C 200.777344 222.125 201.066406 221.703125 201.476562 221.125 L 203 218.980469 L 204.433594 219.109375 L 201.074219 223.535156 L 203.632812 228.75 L 202.1875 228.617188 " fill-opacity="1" fill-rule="nonzero"/><g clip-path="url(#aded78d311)"><g clip-path="url(#897d08bc6e)"><path fill="#e3e0da" d="M 135.035156 286.054688 L 350.207031 286.054688 L 350.207031 106.066406 L 135.035156 106.066406 Z M 135.035156 286.054688 " fill-opacity="1" fill-rule="nonzero"/></g></g><path fill="#5c5c5c" d="M 329.535156 281.65625 C 329.472656 281.65625 329.414062 281.652344 329.355469 281.648438 L 141.886719 264.75 C 142.191406 264.570312 142.507812 264.386719 142.808594 264.203125 L 329.414062 281.019531 C 329.453125 281.023438 329.492188 281.027344 329.53125 281.027344 C 330.210938 281.027344 330.792969 280.511719 330.855469 279.820312 L 345.15625 122.023438 C 345.222656 121.292969 344.679688 120.652344 343.949219 120.582031 L 237.914062 111.023438 C 237.960938 110.816406 238 110.613281 238.042969 110.40625 L 344.007812 119.957031 C 345.085938 120.054688 345.878906 121.007812 345.78125 122.078125 L 331.480469 279.878906 C 331.390625 280.890625 330.535156 281.65625 329.535156 281.65625 " fill-opacity="1" fill-rule="nonzero"/><path fill="#5c5c5c" d="M 206.1875 208.085938 L 203.535156 207.847656 L 201.691406 204.261719 C 202.125 203.5625 202.558594 202.859375 202.980469 202.15625 L 203.917969 203.984375 C 204.242188 204.617188 204.511719 205.140625 204.738281 205.554688 C 204.960938 205.96875 205.148438 206.320312 205.316406 206.609375 C 205.476562 206.898438 205.625 207.15625 205.757812 207.371094 C 205.886719 207.59375 206.03125 207.832031 206.1875 208.085938 " fill-opacity="1" fill-rule="nonzero"/><path fill="#5c5c5c" d="M 221.476562 209.460938 L 218.820312 209.222656 L 214.984375 201.753906 L 210.050781 208.433594 L 207.402344 208.195312 C 207.605469 207.964844 207.796875 207.75 207.96875 207.550781 C 208.144531 207.347656 208.332031 207.121094 208.542969 206.859375 C 208.753906 206.601562 209 206.285156 209.285156 205.917969 C 209.570312 205.550781 209.925781 205.082031 210.351562 204.515625 L 213.945312 199.722656 L 211.898438 195.722656 C 211.589844 195.097656 211.316406 194.578125 211.085938 194.148438 C 210.855469 193.722656 210.648438 193.351562 210.472656 193.039062 C 210.289062 192.726562 210.125 192.449219 209.972656 192.207031 C 209.816406 191.960938 209.660156 191.710938 209.5 191.449219 L 212.210938 191.691406 L 215.480469 198.089844 L 219.707031 192.367188 L 222.417969 192.613281 C 222.222656 192.816406 222.027344 193.027344 221.835938 193.242188 C 221.640625 193.449219 221.425781 193.699219 221.191406 193.980469 C 220.953125 194.265625 220.6875 194.601562 220.382812 194.988281 C 220.082031 195.375 219.722656 195.84375 219.308594 196.390625 L 216.515625 200.117188 L 219.207031 205.359375 C 219.527344 205.992188 219.800781 206.515625 220.023438 206.929688 C 220.246094 207.34375 220.4375 207.699219 220.605469 207.988281 C 220.765625 208.273438 220.914062 208.53125 221.042969 208.753906 C 221.175781 208.96875 221.316406 209.207031 221.476562 209.460938 " fill-opacity="1" fill-rule="nonzero"/><path fill="#5c5c5c" d="M 236.761719 210.839844 L 234.109375 210.601562 L 230.273438 203.136719 L 225.335938 209.8125 L 222.6875 209.574219 C 222.890625 209.34375 223.082031 209.128906 223.257812 208.929688 C 223.429688 208.730469 223.621094 208.5 223.832031 208.238281 C 224.039062 207.976562 224.289062 207.664062 224.574219 207.296875 C 224.855469 206.925781 225.210938 206.460938 225.636719 205.894531 L 229.234375 201.101562 L 227.1875 197.101562 C 226.875 196.480469 226.601562 195.953125 226.371094 195.527344 C 226.144531 195.097656 225.9375 194.730469 225.757812 194.414062 C 225.574219 194.101562 225.410156 193.824219 225.257812 193.582031 C 225.101562 193.339844 224.945312 193.085938 224.785156 192.824219 L 227.496094 193.070312 L 230.769531 199.464844 L 234.996094 193.746094 L 237.703125 193.992188 C 237.511719 194.199219 237.3125 194.402344 237.121094 194.617188 C 236.929688 194.824219 236.710938 195.074219 236.476562 195.355469 C 236.242188 195.644531 235.972656 195.976562 235.671875 196.367188 C 235.367188 196.753906 235.007812 197.21875 234.597656 197.773438 L 231.804688 201.496094 L 234.492188 206.742188 C 234.816406 207.371094 235.085938 207.894531 235.3125 208.308594 C 235.535156 208.726562 235.726562 209.074219 235.890625 209.363281 C 236.050781 209.65625 236.199219 209.90625 236.332031 210.128906 C 236.460938 210.351562 236.605469 210.589844 236.761719 210.839844 " fill-opacity="1" fill-rule="nonzero"/><path fill="#5c5c5c" d="M 252.050781 212.21875 L 249.394531 211.980469 L 245.558594 204.511719 L 240.625 211.1875 L 237.972656 210.949219 C 238.179688 210.722656 238.371094 210.503906 238.542969 210.304688 C 238.71875 210.105469 238.90625 209.875 239.117188 209.613281 C 239.328125 209.355469 239.574219 209.042969 239.859375 208.671875 C 240.144531 208.300781 240.5 207.835938 240.925781 207.273438 L 244.519531 202.480469 L 242.476562 198.480469 C 242.160156 197.855469 241.890625 197.332031 241.660156 196.90625 C 241.429688 196.480469 241.222656 196.109375 241.046875 195.792969 C 240.863281 195.476562 240.699219 195.199219 240.546875 194.957031 C 240.390625 194.71875 240.234375 194.46875 240.074219 194.203125 L 242.785156 194.449219 L 246.054688 200.847656 L 250.28125 195.125 L 252.992188 195.367188 C 252.796875 195.574219 252.601562 195.785156 252.410156 195.992188 C 252.214844 196.207031 252 196.453125 251.765625 196.738281 C 251.53125 197.019531 251.261719 197.355469 250.957031 197.742188 C 250.65625 198.128906 250.296875 198.597656 249.882812 199.148438 L 247.089844 202.875 L 249.78125 208.117188 C 250.101562 208.75 250.375 209.273438 250.597656 209.6875 C 250.820312 210.101562 251.011719 210.453125 251.179688 210.742188 C 251.339844 211.03125 251.488281 211.289062 251.617188 211.507812 C 251.75 211.726562 251.890625 211.964844 252.050781 212.21875 " fill-opacity="1" fill-rule="nonzero"/><path fill="#5c5c5c" d="M 278.605469 214.613281 L 275.949219 214.375 L 272.113281 206.90625 L 267.183594 213.582031 L 264.527344 213.34375 C 264.738281 213.113281 264.925781 212.898438 265.101562 212.695312 C 265.273438 212.5 265.460938 212.265625 265.671875 212.007812 C 265.882812 211.75 266.128906 211.433594 266.414062 211.066406 C 266.699219 210.695312 267.050781 210.230469 267.480469 209.667969 L 271.074219 204.875 L 269.03125 200.875 C 268.714844 200.25 268.445312 199.722656 268.214844 199.296875 C 267.984375 198.871094 267.777344 198.5 267.597656 198.1875 C 267.417969 197.871094 267.25 197.59375 267.101562 197.351562 C 266.949219 197.113281 266.789062 196.859375 266.628906 196.597656 L 269.339844 196.84375 L 272.609375 203.234375 L 276.839844 197.519531 L 279.550781 197.757812 C 279.351562 197.96875 279.160156 198.179688 278.964844 198.386719 C 278.769531 198.601562 278.558594 198.847656 278.320312 199.132812 C 278.085938 199.414062 277.820312 199.75 277.511719 200.136719 C 277.214844 200.523438 276.855469 200.992188 276.4375 201.542969 L 273.644531 205.269531 L 276.332031 210.511719 C 276.65625 211.144531 276.929688 211.667969 277.152344 212.082031 C 277.375 212.496094 277.570312 212.84375 277.730469 213.136719 C 277.894531 213.425781 278.042969 213.679688 278.171875 213.898438 C 278.308594 214.121094 278.449219 214.359375 278.605469 214.613281 " fill-opacity="1" fill-rule="nonzero"/><path fill="#5c5c5c" d="M 293.890625 215.988281 L 291.238281 215.75 L 287.402344 208.28125 L 282.472656 214.957031 L 279.816406 214.722656 C 280.023438 214.492188 280.210938 214.277344 280.386719 214.078125 C 280.558594 213.875 280.753906 213.644531 280.957031 213.386719 C 281.171875 213.128906 281.417969 212.8125 281.699219 212.441406 C 281.988281 212.078125 282.34375 211.609375 282.765625 211.042969 L 286.363281 206.25 L 284.320312 202.25 C 284.003906 201.625 283.730469 201.101562 283.503906 200.675781 C 283.273438 200.25 283.066406 199.878906 282.886719 199.566406 C 282.707031 199.253906 282.539062 198.976562 282.386719 198.730469 C 282.234375 198.488281 282.074219 198.238281 281.914062 197.976562 L 284.625 198.21875 L 287.894531 204.617188 L 292.125 198.894531 L 294.835938 199.140625 C 294.640625 199.34375 294.445312 199.554688 294.25 199.765625 C 294.054688 199.976562 293.84375 200.222656 293.609375 200.507812 C 293.375 200.792969 293.105469 201.128906 292.800781 201.515625 C 292.5 201.898438 292.140625 202.367188 291.722656 202.917969 L 288.933594 206.644531 L 291.621094 211.886719 C 291.945312 212.519531 292.214844 213.042969 292.4375 213.457031 C 292.664062 213.871094 292.855469 214.226562 293.019531 214.515625 C 293.179688 214.800781 293.328125 215.058594 293.464844 215.28125 C 293.59375 215.496094 293.738281 215.734375 293.890625 215.988281 " fill-opacity="1" fill-rule="nonzero"/><path fill="#5c5c5c" d="M 309.179688 217.367188 L 306.523438 217.128906 L 302.6875 209.660156 L 297.757812 216.339844 L 295.101562 216.101562 C 295.3125 215.871094 295.5 215.65625 295.675781 215.453125 C 295.847656 215.257812 296.039062 215.023438 296.246094 214.765625 C 296.457031 214.503906 296.703125 214.191406 296.988281 213.824219 C 297.277344 213.453125 297.628906 212.988281 298.054688 212.421875 L 301.648438 207.628906 L 299.605469 203.628906 C 299.289062 203.007812 299.019531 202.480469 298.789062 202.054688 C 298.558594 201.625 298.355469 201.257812 298.175781 200.941406 C 297.996094 200.628906 297.828125 200.351562 297.675781 200.109375 C 297.523438 199.867188 297.363281 199.613281 297.203125 199.351562 L 299.914062 199.597656 L 303.183594 205.992188 L 307.414062 200.273438 L 310.125 200.519531 C 309.925781 200.726562 309.734375 200.929688 309.539062 201.144531 C 309.34375 201.351562 309.132812 201.601562 308.894531 201.886719 C 308.660156 202.167969 308.394531 202.503906 308.085938 202.894531 C 307.789062 203.28125 307.429688 203.746094 307.011719 204.296875 L 304.222656 208.023438 L 306.914062 213.269531 C 307.230469 213.898438 307.503906 214.421875 307.726562 214.835938 C 307.949219 215.253906 308.144531 215.601562 308.304688 215.890625 C 308.46875 216.179688 308.613281 216.433594 308.75 216.65625 C 308.882812 216.878906 309.023438 217.113281 309.179688 217.367188 " fill-opacity="1" fill-rule="nonzero"/><path fill="#5c5c5c" d="M 324.464844 218.746094 L 321.8125 218.507812 L 317.976562 211.039062 L 313.042969 217.714844 L 310.390625 217.476562 C 310.597656 217.246094 310.785156 217.03125 310.960938 216.832031 C 311.132812 216.632812 311.328125 216.402344 311.53125 216.140625 C 311.742188 215.882812 311.992188 215.570312 312.273438 215.199219 C 312.5625 214.828125 312.917969 214.363281 313.339844 213.800781 L 316.941406 209.007812 L 314.894531 205.007812 C 314.578125 204.382812 314.304688 203.855469 314.074219 203.433594 C 313.847656 203.007812 313.644531 202.636719 313.460938 202.320312 C 313.28125 202.003906 313.113281 201.726562 312.960938 201.484375 C 312.808594 201.246094 312.648438 200.996094 312.488281 200.730469 L 315.199219 200.976562 L 318.46875 207.367188 L 322.699219 201.652344 L 325.410156 201.894531 C 325.210938 202.101562 325.019531 202.3125 324.824219 202.519531 C 324.628906 202.734375 324.417969 202.980469 324.183594 203.265625 C 323.949219 203.546875 323.679688 203.882812 323.375 204.269531 C 323.074219 204.65625 322.714844 205.125 322.296875 205.675781 L 319.511719 209.402344 L 322.199219 214.644531 C 322.519531 215.277344 322.789062 215.800781 323.011719 216.214844 C 323.238281 216.628906 323.429688 216.976562 323.59375 217.269531 C 323.753906 217.558594 323.90625 217.816406 324.039062 218.03125 C 324.167969 218.253906 324.3125 218.492188 324.464844 218.746094 " fill-opacity="1" fill-rule="nonzero"/><path fill="#5c5c5c" d="M 238.792969 138.984375 L 231.796875 138.355469 C 231.886719 138.046875 231.960938 137.585938 232.027344 136.992188 C 232.09375 136.390625 232.160156 135.699219 232.230469 134.914062 L 232.375 133.347656 C 233.003906 131.136719 233.597656 128.984375 234.144531 126.898438 L 239.605469 127.390625 L 239.484375 128.699219 L 234.359375 128.238281 L 234.035156 131.804688 L 238.570312 132.210938 L 238.453125 133.480469 L 233.917969 133.074219 L 233.546875 137.191406 L 235.644531 137.382812 C 236.433594 137.453125 237.09375 137.511719 237.632812 137.546875 C 237.933594 137.566406 238.195312 137.578125 238.429688 137.578125 C 238.617188 137.578125 238.78125 137.570312 238.921875 137.558594 L 238.792969 138.984375 " fill-opacity="1" fill-rule="nonzero"/><path fill="#5c5c5c" d="M 195.453125 228.011719 L 194.003906 227.878906 L 192.960938 225.640625 C 192.535156 224.78125 192.269531 224.226562 192.019531 223.636719 L 191.992188 223.636719 C 191.667969 224.167969 191.347656 224.660156 190.773438 225.457031 L 189.417969 227.46875 L 187.988281 227.335938 L 191.382812 222.734375 L 190.414062 220.710938 C 190.683594 220.355469 190.957031 219.992188 191.222656 219.628906 L 191.488281 220.222656 C 191.792969 220.882812 192.019531 221.394531 192.234375 221.929688 L 192.277344 221.9375 C 192.601562 221.390625 192.882812 220.964844 193.296875 220.382812 L 194.820312 218.246094 L 196.25 218.375 L 192.890625 222.796875 L 195.453125 228.011719 " fill-opacity="1" fill-rule="nonzero"/><path fill="#5c5c5c" d="M 203.632812 228.75 L 202.1875 228.617188 L 201.144531 226.378906 C 200.71875 225.515625 200.453125 224.960938 200.199219 224.378906 L 200.171875 224.375 C 199.847656 224.90625 199.53125 225.398438 198.949219 226.195312 L 197.597656 228.207031 L 196.167969 228.078125 L 199.558594 223.46875 L 197.15625 218.457031 L 198.601562 218.589844 L 199.671875 220.957031 C 199.972656 221.617188 200.203125 222.128906 200.410156 222.667969 L 200.457031 222.671875 C 200.777344 222.125 201.066406 221.703125 201.476562 221.125 L 203 218.980469 L 204.433594 219.109375 L 201.074219 223.535156 L 203.632812 228.75 " fill-opacity="1" fill-rule="nonzero"/></svg>