<svg xmlns="http://www.w3.org/2000/svg" xmlns:xlink="http://www.w3.org/1999/xlink" width="500" zoomAndPan="magnify" viewBox="0 0 375 374.999991" height="500" preserveAspectRatio="xMidYMid meet" version="1.0"><defs><clipPath id="fc16a66a51"><path d="M 106 96 L 269 96 L 269 271.679688 L 106 271.679688 Z M 106 96 " clip-rule="nonzero"/></clipPath></defs><g clip-path="url(#fc16a66a51)"><path fill="#1db588" d="M 156.945312 271.574219 C 121.78125 271.335938 106.898438 253.132812 112.589844 223.179688 C 115.265625 209.117188 117.640625 195.820312 108.128906 182.382812 C 104.921875 177.851562 106.496094 167.589844 109.296875 161.527344 C 127.117188 123.011719 159.09375 102.824219 199.917969 96.808594 C 208.65625 95.519531 220.285156 98.800781 227.328125 104.214844 C 240.875 114.636719 253.058594 127.308594 263.804688 140.660156 C 268.074219 145.964844 269.898438 156.414062 267.921875 163.058594 C 254.015625 209.8125 224.464844 244.132812 180.730469 265.585938 C 172.128906 269.804688 161.761719 270.421875 156.945312 271.574219 " fill-opacity="1" fill-rule="nonzero"/></g></svg>