<svg xmlns="http://www.w3.org/2000/svg" xmlns:xlink="http://www.w3.org/1999/xlink" width="940" zoomAndPan="magnify" viewBox="0 0 705 591.000005" height="788" preserveAspectRatio="xMidYMid meet" version="1.0"><defs><clipPath id="ff6c2b402a"><path d="M 289 202.769531 L 312 202.769531 L 312 225 L 289 225 Z M 289 202.769531 " clip-rule="nonzero"/></clipPath><clipPath id="52f8d79295"><path d="M 260.632812 224 L 436 224 L 436 429 L 260.632812 429 Z M 260.632812 224 " clip-rule="nonzero"/></clipPath><clipPath id="d7e2e7b4c8"><path d="M 435 416 L 456.800781 416 L 456.800781 438.621094 L 435 438.621094 Z M 435 416 " clip-rule="nonzero"/></clipPath></defs><g clip-path="url(#ff6c2b402a)"><path fill="#008037" d="M 289.882812 213.570312 L 292.488281 213.570312 C 297.023438 213.570312 300.703125 209.894531 300.703125 205.359375 L 300.703125 202.757812 C 300.703125 202.757812 300.703125 205.359375 300.703125 205.359375 C 300.703125 209.894531 304.378906 213.570312 308.917969 213.570312 L 311.519531 213.570312 L 308.917969 213.570312 C 304.378906 213.570312 300.703125 217.246094 300.703125 221.78125 C 300.703125 221.78125 300.703125 224.382812 300.703125 224.382812 L 300.703125 221.78125 C 300.703125 217.246094 297.023438 213.570312 292.488281 213.570312 C 292.488281 213.570312 289.882812 213.570312 289.882812 213.570312 Z M 289.882812 213.570312 " fill-opacity="1" fill-rule="nonzero"/><path fill="#008037" d="M 301.074219 224.382812 L 300.335938 224.382812 L 300.335938 221.78125 C 300.335938 217.457031 296.816406 213.941406 292.488281 213.941406 L 289.882812 213.941406 L 289.882812 213.203125 L 292.488281 213.203125 C 296.816406 213.203125 300.335938 209.683594 300.335938 205.363281 L 300.335938 202.757812 L 301.074219 202.757812 L 301.074219 205.363281 C 301.074219 209.683594 304.59375 213.203125 308.917969 213.203125 L 311.523438 213.203125 L 311.523438 213.941406 L 308.917969 213.941406 C 304.589844 213.941406 301.074219 217.457031 301.074219 221.78125 Z M 294.980469 213.570312 C 297.714844 214.398438 299.871094 216.558594 300.703125 219.289062 C 301.535156 216.558594 303.691406 214.402344 306.425781 213.570312 C 303.691406 212.742188 301.535156 210.582031 300.703125 207.851562 C 299.871094 210.582031 297.714844 212.738281 294.980469 213.570312 Z M 294.980469 213.570312 " fill-opacity="1" fill-rule="nonzero"/></g><g clip-path="url(#52f8d79295)"><path fill="#008037" d="M 435.15625 428.113281 L 325.878906 428.113281 L 325.878906 422.707031 L 285.367188 422.707031 L 285.367188 345.6875 L 260.640625 345.6875 L 260.640625 323.390625 L 286.105469 323.390625 L 286.105469 344.949219 L 300.332031 344.949219 L 300.332031 224.382812 L 301.070312 224.382812 L 301.070312 345.6875 L 286.105469 345.6875 L 286.105469 421.96875 L 325.878906 421.96875 L 325.878906 405.941406 L 370.808594 405.941406 L 370.808594 422.707031 L 326.617188 422.707031 L 326.617188 427.375 L 435.152344 427.375 L 435.152344 428.113281 Z M 326.617188 421.96875 L 370.070312 421.96875 L 370.070312 406.679688 L 326.617188 406.679688 Z M 261.378906 344.949219 L 285.367188 344.949219 L 285.367188 324.128906 L 261.378906 324.128906 Z M 261.378906 344.949219 " fill-opacity="1" fill-rule="nonzero"/></g><g clip-path="url(#d7e2e7b4c8)"><path fill="#008037" d="M 446.34375 438.558594 L 445.605469 438.558594 L 445.605469 435.953125 C 445.605469 431.628906 442.085938 428.113281 437.757812 428.113281 L 435.15625 428.113281 L 435.15625 427.375 L 437.757812 427.375 C 442.085938 427.375 445.605469 423.859375 445.605469 419.535156 L 445.605469 416.933594 L 446.34375 416.933594 L 446.34375 419.535156 C 446.34375 423.859375 449.863281 427.375 454.1875 427.375 L 456.792969 427.375 L 456.792969 428.113281 L 454.1875 428.113281 C 449.863281 428.113281 446.34375 431.632812 446.34375 435.953125 Z M 440.25 427.746094 C 442.984375 428.574219 445.140625 430.730469 445.972656 433.460938 C 446.804688 430.730469 448.964844 428.574219 451.695312 427.746094 C 448.964844 426.914062 446.804688 424.757812 445.972656 422.027344 C 445.140625 424.757812 442.984375 426.914062 440.25 427.746094 Z M 440.25 427.746094 " fill-opacity="1" fill-rule="nonzero"/></g></svg>