<svg xmlns="http://www.w3.org/2000/svg" xmlns:xlink="http://www.w3.org/1999/xlink" width="500" zoomAndPan="magnify" viewBox="0 0 375 374.999991" height="500" preserveAspectRatio="xMidYMid meet" version="1.0"><defs><clipPath id="1418c9c6bc"><path d="M 98 134.390625 L 289 134.390625 L 289 217 L 98 217 Z M 98 134.390625 " clip-rule="nonzero"/></clipPath><clipPath id="4e1d9f9649"><path d="M 127 205 L 182 205 L 182 240.890625 L 127 240.890625 Z M 127 205 " clip-rule="nonzero"/></clipPath></defs><path fill="#1e3149" d="M 242.90625 144.195312 C 242.261719 145.820312 242.578125 146.730469 242.90625 148.4375 C 242.324219 148.4375 241.746094 148.4375 241.164062 148.4375 C 240.769531 147.230469 240.964844 145.949219 241.164062 144.691406 C 238.105469 142.703125 237.789062 146.894531 237.1875 148.933594 C 236.183594 149.277344 236.402344 148.390625 235.699219 148.4375 C 235.949219 145.121094 239.460938 141.140625 242.90625 144.195312 " fill-opacity="1" fill-rule="evenodd"/><path fill="#1e3149" d="M 231.722656 145.691406 C 232.085938 147.101562 230.027344 149.199219 231.722656 150.679688 C 232.773438 150.734375 233.328125 150.292969 234.207031 150.179688 C 234.082031 150.804688 233.546875 151.011719 233.460938 151.675781 C 230.085938 152.503906 229.296875 149.632812 229.984375 147.1875 C 228.796875 146.800781 228.039062 145.980469 226.503906 145.941406 C 224.933594 147.753906 227.953125 151.980469 225.265625 152.925781 C 223.285156 152.746094 221.90625 151.96875 222.03125 149.679688 C 222.613281 149.679688 223.191406 149.679688 223.769531 149.679688 C 223.4375 150.757812 223.699219 151.425781 225.015625 151.425781 C 225.761719 149.515625 224.589844 145.679688 226.007812 144.441406 C 228.023438 144.746094 229.039062 146.054688 231.722656 145.691406 " fill-opacity="1" fill-rule="evenodd"/><path fill="#1e3149" d="M 109.710938 145.191406 C 111.414062 145.886719 113.027344 149.0625 111.945312 150.929688 C 112.515625 151.648438 113.765625 150.941406 114.183594 150.679688 C 114.914062 150.777344 115.023438 151.496094 115.671875 151.675781 C 115.375 153.714844 116.652344 154.304688 115.175781 155.167969 C 114.277344 154.824219 114.527344 153.328125 114.433594 152.175781 C 112.734375 151.96875 112.644531 153.375 110.949219 153.171875 C 110.554688 152.988281 111.007812 151.953125 110.207031 152.175781 C 111.238281 151.074219 111.613281 148.40625 109.957031 147.683594 C 108.378906 149.261719 107.078125 151.117188 106.976562 154.167969 C 106.273438 153.964844 106.332031 154.523438 105.734375 154.417969 C 104.648438 149.886719 108.28125 148.027344 109.710938 145.191406 " fill-opacity="1" fill-rule="evenodd"/><path fill="#1e3149" d="M 114.679688 156.167969 C 116.953125 156.046875 118.003906 157.152344 117.910156 159.410156 C 117.207031 159.199219 117.265625 159.757812 116.667969 159.65625 C 116.402344 158.097656 114.703125 157.972656 114.679688 156.167969 " fill-opacity="1" fill-rule="evenodd"/><path fill="#1e3149" d="M 123.625 183.597656 C 124.65625 183.886719 124.59375 183.078125 125.363281 183.097656 C 124.828125 182.476562 124.824219 181.316406 124.371094 180.605469 C 123.683594 181.164062 123.648438 182.375 123.625 183.597656 Z M 127.351562 172.125 C 128.007812 172.464844 129.046875 172.421875 129.835938 172.625 C 130.179688 172.304688 130.082031 171.542969 130.085938 170.878906 C 128.457031 170.925781 127.351562 170.242188 127.351562 172.125 Z M 126.109375 176.367188 C 127.917969 174.769531 132.480469 175.945312 132.074219 172.125 C 132.777344 171.921875 132.71875 172.476562 133.316406 172.375 C 133.382812 175.089844 130.828125 177.59375 128.59375 176.367188 C 127.019531 177.027344 126.585938 178.839844 125.613281 180.109375 C 126.167969 181.390625 126.957031 183.628906 126.109375 184.84375 C 124.445312 184.863281 123.894531 185.320312 122.132812 184.84375 C 121.539062 180.066406 125.578125 179.554688 124.617188 175.117188 C 125.527344 174.867188 126.082031 174.257812 126.609375 173.625 C 125.882812 172.597656 126.027344 170.457031 126.609375 169.382812 C 128.265625 169.632812 128.921875 168.882812 129.339844 167.886719 C 128.941406 166.957031 128.148438 166.421875 127.351562 165.894531 C 126.226562 166.671875 125.570312 167.925781 124.617188 168.886719 C 121.886719 169.050781 119.832031 168.53125 119.152344 166.640625 C 119.875 164.871094 121.816406 164.328125 122.878906 162.898438 C 122.949219 162 121.898438 162.222656 121.882812 161.402344 C 121.199219 161.460938 121.125 162.136719 120.890625 162.652344 C 120.230469 162.648438 119.472656 162.742188 119.152344 162.398438 C 120.125 159.082031 124.152344 159.890625 124.371094 163.394531 C 123.832031 165.019531 121.121094 164.460938 120.890625 166.394531 C 122.910156 169.613281 125.488281 165.625 126.855469 164.394531 C 131.261719 164.835938 130.988281 169.035156 131.078125 173.375 C 128.5625 172.785156 127.3125 174.890625 126.109375 176.367188 " fill-opacity="1" fill-rule="evenodd"/><path fill="#1e3149" d="M 183.511719 175.367188 C 182.972656 177.199219 179.933594 177.679688 179.289062 175.617188 C 179.632812 174.058594 182.9375 173.902344 183.511719 175.367188 " fill-opacity="1" fill-rule="evenodd"/><path fill="#1e3149" d="M 189.726562 185.09375 C 189.476562 186.339844 187.765625 186.121094 186.992188 186.839844 C 186.40625 186.511719 185.863281 186.148438 184.757812 186.34375 C 184.925781 183.808594 188.054688 185.3125 189.726562 185.09375 " fill-opacity="1" fill-rule="evenodd"/><path fill="#1e3149" d="M 189.976562 192.324219 C 190.570312 192.230469 189.835938 193.464844 190.71875 193.074219 C 190.089844 194.289062 186.785156 195.515625 186.496094 193.074219 C 188.253906 193.3125 189.050781 193.304688 189.976562 192.324219 " fill-opacity="1" fill-rule="evenodd"/><path fill="#1e3149" d="M 138.039062 200.808594 C 139.148438 200.773438 139.210938 201.792969 139.28125 202.800781 C 138.75 202.25 138.25 201.675781 138.039062 200.808594 " fill-opacity="1" fill-rule="evenodd"/><g clip-path="url(#1418c9c6bc)"><path fill="#1e3149" d="M 152.949219 209.535156 C 153.003906 209.339844 152.953125 209.042969 153.195312 209.035156 C 154.585938 209.089844 153.492188 208.597656 152.699219 208.785156 C 152.738281 209.082031 152.65625 209.496094 152.949219 209.535156 Z M 172.578125 205.042969 C 173.238281 205.066406 174.910156 203.921875 174.320312 204.296875 C 173.5625 204.371094 172.621094 204.257812 172.578125 205.042969 Z M 267.261719 204.546875 C 267.589844 204.546875 267.921875 204.546875 268.253906 204.546875 C 268.351562 203.945312 267.800781 204.003906 268.003906 203.300781 C 267.753906 203.300781 267.507812 203.300781 267.261719 203.300781 C 267.261719 203.714844 267.261719 204.132812 267.261719 204.546875 Z M 175.3125 204.046875 C 176.566406 203.71875 178.765625 203.027344 178.792969 202.300781 C 177.660156 202.910156 175.742188 202.730469 175.3125 204.046875 Z M 263.78125 201.304688 C 263.78125 202.550781 263.78125 203.800781 263.78125 205.042969 C 265.976562 205.414062 265.664062 204.328125 266.019531 202.550781 C 265.65625 202.414062 264.734375 202.84375 264.773438 202.300781 C 265.503906 202.121094 265.660156 201.363281 266.019531 200.808594 C 264.910156 200.609375 264.367188 200.976562 263.78125 201.304688 Z M 259.058594 205.296875 C 260.5 205.257812 261.296875 205.765625 262.535156 205.296875 C 262.316406 202.929688 262.316406 203.175781 262.535156 200.808594 C 258.34375 199.316406 259.429688 202.976562 259.058594 205.296875 Z M 255.585938 200.808594 C 255.484375 202.652344 255.234375 203.984375 255.585938 205.296875 C 256.417969 205.222656 257.003906 204.898438 258.066406 205.042969 C 258.238281 203.292969 257.640625 202.308594 257.816406 200.558594 C 256.816406 200.386719 256.398438 200.792969 255.585938 200.808594 Z M 248.371094 205.042969 C 249.917969 205.554688 251.386719 204.828125 253.84375 205.042969 C 253.949219 203.605469 253.738281 202.492188 253.59375 201.304688 C 252.394531 200.347656 249.390625 201.199219 247.875 200.558594 C 247.742188 202.355469 248.191406 203.5625 248.371094 205.042969 Z M 267.507812 200.558594 C 267.710938 201.261719 267.160156 201.203125 267.261719 201.804688 C 268.328125 201.898438 268.585938 202.800781 269.25 203.300781 C 269.25 202.21875 269.25 201.140625 269.25 200.058594 C 268.597656 200.152344 268.554688 200.859375 267.507812 200.558594 Z M 246.882812 205.042969 C 246.53125 203.238281 246.003906 201.601562 245.390625 200.058594 C 245.058594 200.058594 244.726562 200.058594 244.394531 200.058594 C 244.667969 202.28125 244.855469 204.585938 246.882812 205.042969 Z M 139.777344 206.042969 C 138.023438 204.0625 136.492188 201.859375 134.558594 200.058594 C 136.191406 201.996094 136.488281 206.601562 139.777344 206.042969 Z M 239.675781 201.804688 C 240.46875 202.074219 240.46875 199.53125 239.675781 199.808594 C 239.761719 200.707031 240.054688 201.011719 239.675781 201.804688 Z M 271.980469 201.554688 C 272.84375 201.425781 272.628906 200.210938 272.976562 199.558594 C 272.5625 199.558594 272.148438 199.558594 271.730469 199.558594 C 271.558594 200.480469 272.160156 200.628906 271.980469 201.554688 Z M 241.660156 203.300781 C 242.324219 203.46875 242.84375 203.777344 243.402344 204.046875 C 243.589844 202.28125 242.523438 201.769531 242.90625 199.808594 C 242.308594 199.910156 242.363281 199.355469 241.660156 199.558594 C 241.660156 200.808594 241.660156 202.054688 241.660156 203.300781 Z M 276.207031 199.0625 C 276.148438 199.484375 276.484375 199.679688 276.457031 199.0625 C 277.875 199.144531 276.617188 198.484375 276.207031 199.0625 Z M 267.261719 198.5625 C 267.589844 198.5625 267.921875 198.5625 268.253906 198.5625 C 268.253906 198.394531 268.253906 198.226562 268.253906 198.0625 C 267.921875 198.0625 267.589844 198.0625 267.261719 198.0625 C 267.261719 198.226562 267.261719 198.394531 267.261719 198.5625 Z M 269.992188 197.8125 C 269.632812 197.949219 268.707031 197.523438 268.75 198.0625 C 269.109375 197.925781 270.03125 198.355469 269.992188 197.8125 Z M 259.804688 198.5625 C 261.171875 198.625 260.59375 197.863281 261.542969 198.5625 C 261.699219 198.136719 262.296875 198.152344 262.535156 197.8125 C 261.539062 197.972656 259.898438 197.488281 259.3125 198.0625 C 259.609375 198.089844 259.898438 198.136719 259.804688 198.5625 Z M 254.832031 198.0625 C 255.773438 198.117188 257.085938 197.800781 257.320312 198.5625 C 257.246094 198.070312 257.65625 198.066406 257.816406 197.8125 C 257 197.921875 254.433594 197.5625 254.832031 198.0625 Z M 262.785156 198.0625 C 263.15625 198.023438 263.707031 198.152344 263.78125 197.8125 C 263.453125 197.808594 263.550781 197.378906 263.28125 197.316406 C 263.355469 197.804688 262.949219 197.808594 262.785156 198.0625 Z M 237.933594 201.304688 C 238.503906 200.308594 238.121094 198.132812 237.933594 197.066406 C 237.074219 197.265625 236.980469 196.695312 236.195312 196.816406 C 236.546875 198.539062 236.636719 200.53125 237.933594 201.304688 Z M 135.550781 203.800781 C 134.058594 200.976562 132.808594 197.910156 130.585938 195.820312 C 130.925781 196.828125 130.042969 196.609375 130.085938 197.316406 C 131.820312 199.398438 133.304688 203.0625 135.550781 203.800781 Z M 227.25 195.070312 C 227.433594 195.46875 228.464844 195.015625 228.246094 195.820312 C 228.734375 195.894531 228.738281 195.484375 228.988281 195.320312 C 229.046875 195.511719 228.996094 195.8125 229.238281 195.820312 C 229.238281 195.234375 229.238281 194.65625 229.238281 194.070312 C 228.070312 194.84375 228.320312 193.546875 227.496094 193.324219 C 227.640625 194.132812 227.328125 194.484375 227.25 195.070312 Z M 231.472656 192.324219 C 231.472656 192.078125 231.472656 191.828125 231.472656 191.578125 C 231.179688 191.617188 230.769531 191.535156 230.730469 191.828125 C 231.121094 191.851562 230.921875 192.464844 231.472656 192.324219 Z M 223.769531 192.574219 C 224.734375 192.363281 224.847656 192.992188 225.265625 193.324219 C 224.96875 193.363281 224.558594 193.28125 224.515625 193.574219 C 224.917969 193.917969 225.128906 194.457031 226.007812 194.320312 C 226.007812 193.660156 226.007812 192.992188 226.007812 192.324219 C 224.40625 192.347656 224.753906 189.097656 223.273438 189.832031 C 223.675781 190.507812 223.59375 191.671875 223.769531 192.574219 Z M 131.578125 194.070312 C 132.957031 195.835938 134.710938 197.867188 136.050781 199.308594 C 137.550781 200.929688 138.359375 203.261719 140.027344 204.046875 C 139.777344 204.042969 139.714844 203.609375 140.027344 203.550781 C 140.882812 204.433594 141.824219 205.234375 142.011719 206.792969 C 143.007812 206.710938 143.394531 207.238281 144.5 207.039062 C 140.765625 201.144531 136.910156 195.371094 133.066406 189.582031 C 132 190.507812 131.351562 191.851562 131.578125 194.070312 Z M 271.234375 189.832031 C 270.796875 189.699219 270.492188 188.9375 269.992188 188.835938 C 268.738281 188.589844 266.617188 189.003906 265.023438 188.835938 C 264.121094 188.738281 263.019531 188.039062 262.535156 188.085938 C 261.746094 188.167969 261.761719 188.867188 261.046875 188.835938 C 260.648438 188.820312 260.222656 187.785156 259.058594 188.085938 C 256.671875 188.707031 252.511719 188.359375 250.113281 188.835938 C 249.789062 188.902344 249.347656 189.511719 249.121094 189.582031 C 247.316406 190.136719 245.558594 190.003906 244.148438 190.582031 C 243.457031 190.46875 244.34375 191.941406 243.652344 191.828125 C 241.738281 190.804688 239.769531 192.308594 239.179688 194.070312 C 239.796875 194.746094 241.179688 194.089844 241.660156 195.320312 C 243.320312 195.320312 244.976562 195.320312 246.632812 195.320312 C 253.742188 197.457031 264.675781 195.929688 272.726562 195.820312 C 275.195312 194.804688 277.726562 193.855469 278.9375 191.578125 C 277.300781 189.707031 273.847656 190.621094 271.234375 189.832031 Z M 145.742188 207.039062 C 146.414062 206.886719 147.710938 207.359375 147.976562 206.792969 C 143.277344 200.785156 138.832031 194.519531 134.558594 188.085938 C 134.3125 188.085938 134.0625 188.085938 133.8125 188.085938 C 137.265625 194.925781 141.910156 200.578125 145.742188 207.039062 Z M 239.179688 184.84375 C 239.425781 184.84375 239.675781 184.84375 239.921875 184.84375 C 239.921875 184.679688 239.921875 184.511719 239.921875 184.347656 C 239.675781 184.347656 239.425781 184.347656 239.179688 184.347656 C 239.179688 184.511719 239.179688 184.679688 239.179688 184.84375 Z M 135.550781 185.839844 C 136.425781 186.292969 135.796875 186.703125 135.550781 187.339844 C 139.921875 194.261719 144.777344 200.695312 149.714844 207.039062 C 152.449219 206.75 154.464844 207.578125 156.179688 207.039062 C 149.167969 199.941406 143.714844 191.285156 137.292969 183.597656 C 137.070312 184.707031 135.871094 184.832031 135.550781 185.839844 Z M 229.984375 182.101562 C 227.652344 181.949219 226.226562 180.882812 224.765625 179.859375 C 223.722656 181.140625 221.640625 181.375 220.539062 182.601562 C 223.722656 184.308594 224.457031 188.476562 229.734375 188.085938 C 230.988281 190.472656 235.34375 189.363281 238.183594 189.582031 C 238.878906 189.953125 237.65625 190.699219 238.679688 190.582031 C 242.792969 187.214844 250.058594 187.886719 256.078125 187.089844 C 256.402344 187.046875 256.316406 187.625 256.574219 187.585938 C 257.636719 187.445312 259.378906 186.304688 260.550781 186.839844 C 260.691406 186.402344 260.25 185.375 260.796875 185.34375 C 261.847656 185.042969 261.886719 185.746094 262.535156 185.839844 C 263.308594 183.789062 267.4375 185.105469 268.253906 183.097656 C 267.480469 182.464844 266.667969 181.867188 265.769531 181.351562 C 261.960938 184.019531 256.695312 185.21875 251.851562 186.839844 C 249.109375 186.695312 243.84375 187.226562 243.402344 186.34375 C 239.082031 186.113281 234.445312 187.027344 232.964844 183.597656 C 232.304688 183.597656 231.640625 183.597656 230.976562 183.597656 C 230.875 182.871094 230.328125 182.589844 229.984375 182.101562 Z M 258.316406 179.359375 C 258.3125 178.992188 258.40625 177.320312 258.066406 178.109375 C 258.070312 178.476562 257.972656 180.152344 258.316406 179.359375 Z M 228.246094 179.859375 C 227.933594 178.753906 227.160156 178.121094 226.257812 177.613281 C 226.785156 178.496094 226.777344 179.917969 228.246094 179.859375 Z M 255.585938 179.859375 C 256.050781 179.914062 256.128906 179.578125 256.574219 179.609375 C 256.417969 178.328125 256.417969 178.394531 256.574219 177.113281 C 256.242188 177.113281 255.914062 177.113281 255.585938 177.113281 C 255.238281 178.164062 255.558594 178.300781 255.585938 179.859375 Z M 251.851562 180.855469 C 252.773438 181.03125 252.921875 180.425781 253.84375 180.605469 C 253.953125 179.554688 253.488281 177.925781 254.339844 177.613281 C 253.726562 177.394531 253.425781 176.863281 252.347656 177.113281 C 251.867188 178.046875 251.738281 179.328125 251.851562 180.855469 Z M 136.546875 179.609375 C 137.367188 178.445312 141.019531 178 139.777344 176.367188 C 138.621094 177.203125 136.457031 178.347656 136.546875 179.609375 Z M 246.132812 182.101562 C 246.28125 180.882812 246.039062 178.328125 246.132812 176.367188 C 245.214844 175.960938 243.691406 176.15625 242.410156 176.117188 C 241.449219 179.097656 241.21875 183.597656 246.132812 182.101562 Z M 247.628906 176.117188 C 247.855469 177.054688 246.992188 179.949219 248.125 181.605469 C 249.042969 181.777344 249.191406 181.175781 250.113281 181.351562 C 250.671875 180 250.679688 178.101562 250.605469 176.117188 C 249.707031 175.875 250.40625 177.238281 249.617188 177.113281 C 248.859375 177.125 247.984375 177.261719 248.125 176.367188 C 248.691406 176.433594 249.058594 176.308594 249.121094 175.867188 C 248.507812 175.835938 247.921875 175.828125 247.628906 176.117188 Z M 260.050781 177.113281 C 260.507812 176.738281 260.816406 176.21875 260.796875 175.367188 C 259.769531 175.015625 259.503906 176.707031 260.050781 177.113281 Z M 252.597656 176.117188 C 253.414062 176.109375 254.359375 176.21875 254.339844 175.367188 C 253.335938 175.195312 253.191406 175.878906 252.597656 176.117188 Z M 256.574219 175.367188 C 256.613281 174.957031 255.039062 174.957031 255.082031 175.367188 C 255.078125 175.789062 256.695312 176.375 256.574219 175.367188 Z M 227.25 175.117188 C 226.652344 175.21875 227.386719 173.984375 226.503906 174.371094 C 226.183594 175.058594 227.226562 175.589844 227.25 175.117188 Z M 144.5 175.117188 C 144.5 174.785156 144.5 174.453125 144.5 174.121094 C 144.167969 174.121094 143.835938 174.121094 143.503906 174.121094 C 143.390625 174.902344 143.71875 175.234375 144.5 175.117188 Z M 229.734375 177.613281 C 229.703125 176.011719 229.816406 174.335938 229.984375 173.625 C 230.222656 174.050781 230.808594 174.125 230.976562 174.621094 C 230.46875 178.65625 232.449219 181.402344 235.203125 181.351562 C 234.628906 179.933594 233.921875 176.265625 234.703125 175.117188 C 236.890625 175.667969 236.027344 179.277344 236.445312 181.605469 C 237.917969 181.457031 239.019531 181.679688 239.921875 182.101562 C 240.113281 181.707031 240.710938 181.726562 240.667969 181.105469 C 239.710938 178.300781 240.613281 178.507812 240.667969 175.367188 C 235.5625 175.339844 231.824219 173.9375 227.996094 172.625 C 228.5 174.359375 228.539062 176.566406 229.734375 177.613281 Z M 259.058594 168.886719 C 253.023438 167.238281 244.898438 166.796875 237.4375 166.890625 C 237.425781 167.210938 237.121094 167.238281 237.1875 167.636719 C 235.851562 167.460938 235.070312 167.835938 234.207031 168.136719 C 234.148438 167.695312 234.457031 166.886719 233.710938 167.140625 C 230.753906 167.414062 229.304688 169.207031 227.496094 170.628906 C 231.261719 172.890625 235.734375 172.847656 240.667969 173.625 C 242.136719 173.851562 243.027344 174.78125 244.148438 174.871094 C 246.335938 175.039062 249.089844 173.464844 251.355469 174.871094 C 254.335938 173.871094 257.652344 173.207031 260.550781 172.125 C 260.257812 170.835938 259.757812 169.761719 259.058594 168.886719 Z M 187.488281 167.636719 C 186.71875 167.160156 186.371094 164.945312 185.503906 165.394531 C 186.097656 166.050781 186.855469 167.84375 187.488281 167.636719 Z M 147.730469 159.65625 C 148.023438 159.371094 148.605469 159.375 149.21875 159.410156 C 149.476562 158.570312 148.449219 159.019531 147.976562 158.910156 C 148.421875 159.582031 146.882812 159.390625 147.730469 159.65625 Z M 141.765625 158.410156 C 140.105469 158.574219 137.792969 158.082031 136.546875 158.660156 C 138.207031 158.496094 140.523438 158.992188 141.765625 158.410156 Z M 166.367188 154.917969 C 166.640625 153.777344 168.714844 154.449219 169.097656 153.421875 C 170.15625 153.480469 170.4375 152.769531 171.585938 152.921875 C 171.910156 152.183594 175.859375 151.132812 174.070312 151.425781 C 170.125 152.625 166.175781 153.8125 162.886719 155.667969 C 164.207031 155.578125 164.777344 154.734375 166.367188 154.917969 Z M 181.03125 150.179688 C 181.523438 149.597656 182.902344 149.898438 183.015625 148.933594 C 182.601562 148.933594 182.1875 148.933594 181.773438 148.933594 C 182.039062 149.863281 180.84375 149.328125 181.03125 150.179688 Z M 183.015625 147.933594 C 184.113281 147.582031 183.019531 149.429688 183.761719 149.433594 C 189.449219 146.742188 195.660156 144.582031 201.65625 142.199219 C 194.476562 143.140625 188.089844 144.882812 183.015625 147.933594 Z M 201.902344 142.199219 C 202.148438 142.199219 202.402344 142.199219 202.648438 142.199219 C 202.648438 142.03125 202.648438 141.867188 202.648438 141.703125 C 202.402344 141.703125 202.148438 141.703125 201.902344 141.703125 C 201.902344 141.867188 201.902344 142.03125 201.902344 142.199219 Z M 120.890625 147.683594 C 118.675781 145.503906 117.199219 142.578125 114.679688 140.703125 C 115.988281 143.628906 118.816406 146.359375 120.890625 147.683594 Z M 204.636719 141.703125 C 205.960938 141.117188 207.734375 140.988281 208.863281 140.207031 C 207.078125 140.164062 204.710938 140.855469 204.636719 141.703125 Z M 106.230469 140.703125 C 104.570312 142.699219 102.609375 144.382812 101.507812 146.933594 C 102.519531 150.863281 101.179688 154.621094 102.75 157.664062 C 107.957031 163.410156 110.40625 171.929688 115.175781 178.109375 C 116.738281 182.613281 119.433594 185.972656 120.890625 190.582031 C 122.570312 192.886719 123.261719 196.183594 124.867188 198.5625 C 125.820312 197.519531 125.019531 194.726562 126.359375 194.070312 C 127 191.355469 127.378906 188.621094 128.347656 186.34375 C 128.894531 185.050781 130.21875 183.988281 131.078125 182.601562 C 132.8125 179.804688 136.636719 176.945312 139.28125 175.367188 C 136.820312 170.109375 132.480469 166.730469 128.84375 162.648438 C 128.105469 162.21875 127.582031 162.726562 127.101562 162.398438 C 127.3125 162.109375 127.429688 161.730469 127.351562 161.152344 C 120.894531 154.414062 116.785156 145.320312 109.210938 139.703125 C 108.703125 140.527344 107.621094 140.769531 106.230469 140.703125 Z M 103.742188 141.203125 C 103.863281 140.492188 104.6875 140.484375 105.234375 140.207031 C 105.234375 139.703125 105.234375 139.210938 105.234375 138.710938 C 104.359375 138.996094 103.5 140.613281 103.742188 141.203125 Z M 279.683594 169.382812 C 279.90625 168.871094 278.867188 168.4375 278.9375 168.886719 C 279.332031 168.90625 279.132812 169.523438 279.683594 169.382812 Z M 267.007812 159.90625 C 264.535156 158.402344 262.070312 156.886719 260.550781 154.417969 C 256.519531 151.980469 253.6875 148.34375 250.605469 144.941406 C 247.660156 143.828125 246.480469 140.941406 244.394531 138.957031 C 237.410156 138.066406 230.46875 138.554688 223.523438 138.957031 C 216.691406 141.164062 208.996094 142.5 202.402344 144.941406 C 201.210938 144.914062 200.167969 145.03125 199.664062 145.691406 C 191.207031 147.175781 185.011719 150.933594 177.550781 153.421875 C 174.964844 155.648438 171.632812 157.125 167.609375 157.910156 C 164.78125 159.0625 162.011719 160.273438 158.417969 160.652344 C 153.273438 161.726562 148.367188 163.039062 141.765625 162.648438 C 140.390625 163.519531 138.046875 163.40625 136.546875 164.144531 C 139.363281 165.058594 141.433594 166.722656 142.011719 169.882812 C 144.871094 171.335938 146.292969 174.234375 148.96875 175.867188 C 148.105469 176.496094 146.980469 176.859375 145.742188 177.113281 C 145.742188 177.945312 145.742188 178.777344 145.742188 179.609375 C 145.082031 179.691406 144.871094 180.230469 144.25 180.355469 C 143.3125 180.71875 143.773438 179.671875 143.007812 179.859375 C 141.632812 180.722656 140.140625 181.46875 138.78125 182.351562 C 138.59375 183.675781 139.398438 184.117188 139.777344 184.597656 C 140.789062 185.882812 142.367188 187.742188 143.503906 189.335938 C 144.039062 190.082031 144.195312 191.042969 144.75 191.828125 C 146.292969 194.027344 148.550781 195.726562 149.714844 197.566406 C 150.421875 198.675781 150.59375 199.484375 151.707031 200.058594 C 151.605469 200.660156 152.160156 200.597656 151.953125 201.304688 C 154.128906 202.691406 155.585938 204.8125 156.675781 207.289062 C 158.515625 206.976562 160.523438 206.828125 162.640625 206.792969 C 165.03125 205.871094 167.105469 204.621094 170.09375 204.296875 C 170.457031 203.414062 171.929688 203.644531 172.332031 202.800781 C 177.691406 201.363281 181.757812 198.625 186.992188 197.066406 C 190.792969 194.476562 196.449219 193.753906 199.914062 190.828125 C 199.757812 190.238281 198.386719 190.871094 198.179688 190.332031 C 197.71875 186.878906 195.074219 185.625 194.199219 182.601562 C 193.542969 182.597656 192.738281 182.742188 192.710938 182.101562 C 192.925781 181.109375 192.925781 180.847656 192.710938 179.859375 C 188.082031 172.449219 184.050781 164.441406 179.289062 157.164062 C 178.445312 157.730469 177.386719 158.082031 176.308594 158.410156 C 176.722656 161.316406 179.003906 162.351562 179.785156 164.894531 C 180.476562 165.113281 181.296875 165.203125 181.773438 165.644531 C 181.058594 167.898438 182.535156 169.109375 183.761719 170.132812 C 184.371094 174.769531 189.027344 177.476562 190.222656 182.351562 C 191.90625 182.953125 191.851562 184.359375 192.957031 185.839844 C 194.136719 187.425781 197.820312 189.53125 195.691406 191.328125 C 194.300781 190.894531 194.355469 189.011719 193.453125 188.085938 C 191.761719 189.003906 190.390625 191.15625 187.988281 190.582031 C 188.328125 189.574219 187.445312 189.792969 187.488281 189.082031 C 188.851562 188.207031 190.316406 187.433594 192.710938 187.585938 C 189.164062 182.414062 185.589844 177.277344 182.519531 171.628906 C 181.667969 173.019531 178.226562 171.808594 177.300781 173.121094 C 177.683594 171.574219 176.613281 171.484375 176.308594 170.628906 C 177.207031 169.542969 179.5625 169.910156 181.03125 169.382812 C 180.578125 168.585938 180.113281 167.808594 179.785156 166.890625 C 178.386719 166.816406 177.394531 167.152344 176.554688 167.636719 C 175.867188 166.265625 176.941406 165.21875 178.296875 165.144531 C 178.234375 164.039062 177.664062 163.449219 176.800781 163.148438 C 176.445312 163.964844 174.039062 164.777344 173.324219 163.648438 C 173.222656 163.046875 173.777344 163.101562 173.570312 162.398438 C 174.898438 162.648438 175 161.671875 176.058594 161.648438 C 175.539062 159.765625 173.660156 159.242188 173.324219 157.164062 C 175.832031 156.941406 178.214844 156.402344 179.535156 154.417969 C 182.511719 156.921875 183.765625 161.152344 186.496094 163.898438 C 186.902344 161.726562 190.714844 162.972656 191.964844 161.648438 C 192.238281 159.964844 191.453125 159.335938 190.96875 158.410156 C 188.324219 158.664062 186.800781 160.046875 184.257812 160.40625 C 184.332031 159.914062 183.925781 159.914062 183.761719 159.65625 C 184.664062 159.894531 183.96875 158.535156 184.757812 158.660156 C 187.707031 158.707031 190.109375 155.839844 192.957031 157.410156 C 192.601562 159.003906 194.925781 159.753906 193.703125 160.652344 C 195.753906 161.464844 193.808594 163.804688 193.203125 164.894531 C 191.890625 163.566406 188.789062 164.734375 187.488281 165.644531 C 187.667969 166.375 188.359375 166.597656 188.234375 167.636719 C 193.34375 167.105469 197.796875 169.53125 201.410156 168.886719 C 202.449219 169.582031 203.511719 170.261719 204.390625 171.128906 C 205.40625 174.007812 206.839844 178.1875 205.382812 181.351562 C 202.871094 182.742188 202 185.773438 198.179688 185.839844 C 198.09375 185.257812 197.78125 184.910156 197.929688 184.097656 C 201.242188 183.4375 205.125 180.953125 203.890625 177.363281 C 203.996094 176.972656 204.671875 177.152344 204.390625 176.367188 C 203.574219 174.027344 202.78125 171.65625 200.660156 170.628906 C 196.523438 171.167969 192.945312 168.566406 188.234375 169.632812 C 189.941406 173.574219 192 177.160156 194.199219 180.605469 C 196.230469 180.230469 197.570312 179.167969 197.179688 176.367188 C 196.167969 176.835938 194.046875 175.945312 192.460938 176.863281 C 192.460938 176.367188 192.460938 175.867188 192.460938 175.367188 C 196.726562 174.238281 200.753906 175.796875 198.179688 180.355469 C 197.222656 180.8125 196.523438 181.523438 195.191406 181.605469 C 196.234375 184.800781 197.132812 188.136719 200.660156 188.835938 C 200.867188 189.375 201.304688 189.6875 201.15625 190.582031 C 205.808594 187.9375 211.609375 186.441406 217.308594 184.84375 C 216.507812 183.121094 217.167969 182.363281 216.5625 181.105469 C 217.640625 180.523438 218.328125 179.546875 218.550781 178.109375 C 219.5 177.910156 219.3125 178.84375 220.042969 178.859375 C 220.941406 178.101562 222.242188 177.738281 223.273438 177.113281 C 223.738281 174.546875 223.355469 172.480469 223.523438 169.882812 C 225.296875 167.675781 227.667969 166.0625 231.472656 165.890625 C 231.976562 163.738281 235.328125 164.441406 236.941406 163.394531 C 240.511719 163.773438 243.144531 163.089844 245.890625 162.648438 C 247.605469 162.375 248.46875 163.03125 250.113281 163.148438 C 250.910156 163.207031 251.40625 162.339844 252.347656 162.648438 C 254.730469 163.4375 257.75 164.128906 260.796875 164.394531 C 262.722656 166.457031 265.324219 167.835938 267.261719 169.882812 C 267.3125 171.183594 267.253906 172.371094 267.007812 173.371094 C 271.121094 172.175781 275.734375 171.484375 280.929688 171.378906 C 277.34375 166.492188 270.550781 164.832031 267.007812 159.90625 Z M 107.472656 137.460938 C 107.722656 137.460938 107.96875 137.460938 108.214844 137.460938 C 108.214844 137.210938 108.214844 136.960938 108.214844 136.714844 C 107.96875 136.714844 107.722656 136.714844 107.472656 136.714844 C 107.472656 136.960938 107.472656 137.210938 107.472656 137.460938 Z M 140.773438 214.523438 C 140.128906 213.238281 137.371094 212.328125 136.050781 213.277344 C 131.316406 211.871094 127.964844 209.085938 126.359375 204.546875 C 126.066406 204.257812 125.480469 204.265625 124.867188 204.296875 C 124.597656 201.574219 122.722656 200.464844 122.632812 197.566406 C 121.097656 195.945312 121.15625 192.726562 119.152344 191.578125 C 116.460938 185.050781 112.34375 179.957031 109.710938 173.371094 C 107.683594 170.832031 106.839844 167.109375 104.242188 165.144531 C 104.539062 164.09375 103.839844 164.050781 103.742188 163.394531 C 103.675781 162.875 103.082031 163.757812 102.75 163.148438 C 102.136719 161.1875 101.449219 159.300781 100.265625 157.910156 C 100.183594 154.785156 97.652344 150.859375 99.769531 147.933594 C 100.777344 143.019531 102.007812 137.085938 106.730469 136.714844 C 107.34375 136.421875 107.320312 135.480469 107.722656 134.96875 C 108.570312 134.425781 109.730469 135.34375 110.207031 135.964844 C 111.070312 136.167969 111.160156 135.59375 111.945312 135.714844 C 118.628906 141.8125 123.761719 149.457031 129.089844 156.910156 C 131.660156 157.066406 136.105469 157.480469 137.539062 157.164062 C 141.625 157.863281 146.613281 158.332031 150.214844 157.164062 C 155.078125 156.265625 158.804688 155.167969 163.632812 153.921875 C 168.59375 151.085938 175.644531 150.347656 180.28125 147.1875 C 185.25 146.269531 188.222656 143.347656 193.203125 142.449219 C 194.289062 142.625 194.605469 142.023438 195.691406 142.199219 C 196.238281 142.335938 196.042969 141.722656 196.4375 141.703125 C 198.015625 141.625 199.496094 141.449219 200.410156 140.703125 C 203.222656 140.863281 204.929688 139.917969 206.625 138.957031 C 209.382812 138.734375 212.507812 138.875 214.578125 137.957031 C 224.367188 138.664062 232.414062 135.15625 241.164062 136.214844 C 243.460938 136.492188 246.066406 137.097656 247.875 137.957031 C 248.011719 138.511719 247.398438 138.3125 247.378906 138.710938 C 250.808594 143.011719 254.117188 147.582031 258.066406 151.179688 C 259.019531 152.046875 260.433594 152.457031 261.542969 153.421875 C 262.265625 154.054688 262.542969 155.050781 263.28125 155.667969 C 264.707031 156.855469 266.730469 157.3125 267.507812 159.410156 C 269.921875 160.476562 271.589844 162.292969 273.472656 163.898438 C 277.019531 165.242188 280.113281 167.039062 282.664062 169.382812 C 283.722656 169.324219 284.003906 170.035156 285.152344 169.882812 C 285.742188 171.863281 288.464844 171.710938 288.878906 173.871094 C 289.03125 174.855469 287.515625 174.164062 286.894531 174.371094 C 286.640625 175.199219 287.234375 175.191406 287.882812 175.117188 C 287.230469 176.652344 284.515625 176.125 283.660156 175.117188 C 280.542969 174.980469 278.132812 175.558594 274.960938 175.367188 C 272.453125 176.507812 268.132812 175.828125 266.515625 177.863281 C 269.925781 176.898438 273.140625 178.757812 275.210938 180.605469 C 275.6875 183.917969 274.265625 186.0625 274.46875 188.335938 C 277.320312 189.378906 281.496094 189.09375 282.417969 192.078125 C 282.359375 196.460938 283.410156 199.863281 281.671875 202.800781 C 280.648438 202.773438 280.609375 203.734375 279.433594 203.550781 C 276.675781 206.433594 271.3125 207.113281 266.515625 208.039062 C 262.621094 208.789062 255.621094 209.550781 250.859375 208.039062 C 246.632812 208.921875 241.578125 206.402344 238.433594 204.546875 C 237.171875 205.53125 233.757812 203.882812 234.207031 202.300781 C 233.4375 202.21875 233.019531 202.878906 232.46875 202.300781 C 232.46875 201.222656 232.46875 200.140625 232.46875 199.0625 C 229.78125 197.433594 226.15625 196.75 222.53125 196.066406 C 221.976562 193.796875 218.917969 194.035156 217.808594 192.324219 C 218.175781 190.875 217.039062 190.9375 217.308594 189.582031 C 212.421875 190.914062 207.308594 192.015625 203.144531 194.070312 C 190.183594 196.859375 180.796875 203.238281 170.589844 208.785156 C 165.042969 210.449219 159.082031 211.699219 154.191406 214.023438 C 153.285156 213.945312 152.574219 214.0625 151.953125 214.273438 C 152.113281 215.445312 153.257812 215.625 153.445312 216.769531 C 152.867188 217.289062 151.578125 214.742188 150.960938 214.523438 C 148.082031 213.5 144.011719 215.039062 140.773438 214.523438 " fill-opacity="1" fill-rule="evenodd"/></g><path fill="#1e3149" d="M 133.566406 191.828125 C 135.15625 193.804688 136.296875 196.234375 137.292969 198.808594 C 135.539062 196.996094 134.5 194.46875 133.566406 191.828125 " fill-opacity="1" fill-rule="evenodd"/><path fill="#1e3149" d="M 168.105469 171.378906 C 168.890625 171.257812 168.980469 171.828125 169.847656 171.628906 C 169.757812 170.558594 169.289062 169.855469 168.355469 169.632812 C 168.011719 169.953125 168.109375 170.714844 168.105469 171.378906 Z M 160.15625 172.625 C 161.632812 173.886719 163.1875 175.070312 165.125 175.867188 C 167.046875 175.339844 170.375 176.59375 173.324219 175.867188 C 172.59375 174.941406 171.882812 173.988281 171.089844 173.121094 C 166.617188 174.902344 164.566406 169.691406 167.859375 167.886719 C 167.058594 168.109375 167.507812 167.074219 167.113281 166.890625 C 163.441406 167.445312 160.351562 168.585938 160.15625 172.625 Z M 170.839844 158.660156 C 172.488281 161.828125 173.042969 166.089844 175.3125 168.632812 C 171.84375 169.160156 172.085938 163.929688 170.589844 161.648438 C 168.851562 161.054688 167.433594 162.53125 166.613281 163.648438 C 169.316406 165.84375 169.300781 170.761719 173.324219 171.628906 C 173.597656 175.011719 175.886719 176.371094 176.554688 179.359375 C 179 180.039062 179.132812 182.515625 180.28125 184.84375 C 181.5 187.304688 184.367188 188.789062 184.757812 191.328125 C 185.660156 191.339844 186.71875 191.191406 186.992188 191.828125 C 186.546875 192.714844 185.714844 193.207031 185.253906 194.070312 C 184.441406 194.140625 184.726562 193.105469 184.007812 193.074219 C 179.625 193.644531 173.300781 193.640625 169.097656 192.574219 C 169.042969 191.664062 168.757812 191.621094 169.097656 190.832031 C 173.328125 191.988281 180.085938 192.585938 183.015625 191.578125 C 183.199219 189.730469 181.753906 189.523438 181.527344 188.085938 C 178.664062 188.773438 172.957031 187.921875 168.105469 187.839844 C 167.835938 189.273438 169.335938 188.933594 168.851562 190.582031 C 168.269531 190.582031 167.691406 190.582031 167.113281 190.582031 C 166.457031 189.328125 166.835938 187.035156 165.371094 186.59375 C 165.445312 185.914062 165.691406 185.417969 166.117188 185.09375 C 168.832031 187.398438 175.46875 186.964844 179.785156 186.839844 C 179.394531 182.328125 175.175781 181.65625 174.320312 177.613281 C 169.570312 178.011719 159.308594 178.09375 158.417969 171.628906 C 159.359375 168.003906 162.417969 166.5 165.371094 164.894531 C 165.082031 163.273438 163.496094 162.953125 162.886719 161.648438 C 164.550781 159.664062 168.027344 159.496094 170.839844 158.660156 " fill-opacity="1" fill-rule="evenodd"/><path fill="#1e3149" d="M 284.945312 178.390625 C 283.996094 177.0625 283.148438 175.664062 282.105469 174.402344 C 281.9375 174.199219 281.539062 174.417969 281.648438 174.671875 C 281.753906 174.933594 281.875 175.183594 281.996094 175.4375 C 281.742188 175.183594 281.5 174.925781 281.230469 174.695312 C 281.078125 174.570312 280.917969 174.589844 280.777344 174.652344 C 280.589844 174.636719 280.425781 174.765625 280.386719 174.941406 C 280.316406 174.921875 280.25 174.890625 280.171875 174.871094 C 280.042969 174.847656 279.9375 175.042969 280.078125 175.105469 C 280.246094 175.175781 280.382812 175.292969 280.546875 175.382812 C 280.832031 175.652344 281.121094 175.917969 281.429688 176.164062 C 281.765625 176.488281 282.097656 176.820312 282.441406 177.132812 C 282.765625 177.433594 283.089844 177.734375 283.402344 178.046875 C 283.496094 178.140625 283.601562 178.171875 283.699219 178.164062 C 283.847656 178.28125 283.988281 178.410156 284.136719 178.523438 C 284.226562 178.621094 284.332031 178.710938 284.40625 178.8125 C 284.433594 178.847656 284.46875 178.832031 284.5 178.820312 C 284.503906 178.820312 284.507812 178.824219 284.511719 178.828125 C 284.765625 179.011719 285.125 178.644531 284.945312 178.390625 " fill-opacity="1" fill-rule="evenodd"/><path fill="#1e3149" d="M 284.101562 176.988281 C 283.582031 176.746094 283.046875 176.566406 282.488281 176.425781 C 282.839844 176.34375 283.1875 176.269531 283.539062 176.160156 C 283.734375 176.101562 283.699219 175.792969 283.488281 175.796875 C 278.96875 175.871094 274.351562 176.125 269.957031 177.238281 C 269.742188 177.289062 269.53125 177.53125 269.558594 177.761719 C 269.613281 178.273438 269.703125 178.777344 269.78125 179.285156 C 269.832031 179.644531 270.289062 179.746094 270.5625 179.605469 C 272.691406 178.511719 275.453125 177.476562 278.171875 177.140625 C 278.410156 177.117188 278.644531 177.085938 278.878906 177.058594 C 279.679688 176.996094 280.46875 177.03125 281.242188 177.125 C 277.582031 177.484375 271.6875 178.339844 272.433594 179.753906 C 272.445312 179.777344 272.488281 179.773438 272.492188 179.746094 C 272.742188 178.5 277.304688 178.3125 278.132812 178.21875 C 280.035156 178 281.96875 177.820312 283.878906 177.804688 C 284.292969 177.804688 284.515625 177.179688 284.101562 176.988281 " fill-opacity="1" fill-rule="evenodd"/><path fill="#1e3149" d="M 285.585938 176.839844 C 285.046875 176.167969 284.824219 175.449219 284.75 174.597656 C 284.71875 174.246094 284.210938 174.238281 284.195312 174.597656 C 284.15625 175.625 284.335938 176.519531 284.863281 177.402344 C 285.203125 177.96875 286.011719 177.371094 285.585938 176.839844 " fill-opacity="1" fill-rule="evenodd"/><path fill="#1e3149" d="M 284.195312 177.148438 C 282.695312 176.664062 280.738281 177.386719 279.296875 177.789062 C 277.160156 178.382812 275.0625 179.234375 273.117188 180.304688 C 272.816406 180.46875 273.078125 180.898438 273.382812 180.753906 C 275.15625 179.898438 277.023438 179.289062 278.921875 178.792969 C 280.664062 178.332031 282.46875 178.382812 284.195312 177.980469 C 284.625 177.878906 284.578125 177.273438 284.195312 177.148438 " fill-opacity="1" fill-rule="evenodd"/><path fill="#1e3149" d="M 286.296875 171.582031 C 278.617188 165.417969 271.324219 159.3125 264.292969 152.390625 C 261.839844 149.972656 252.113281 138.15625 248.40625 139.703125 C 248.292969 139.75 248.292969 139.890625 248.40625 139.941406 C 255.25 142.800781 261.726562 151.570312 266.898438 156.714844 C 272.59375 162.382812 278.585938 168.566406 285.871094 172.140625 C 286.207031 172.304688 286.628906 171.847656 286.296875 171.582031 " fill-opacity="1" fill-rule="evenodd"/><path fill="#1e3149" d="M 256.734375 146.5625 C 254.066406 144.042969 251.375 141.480469 248.847656 138.820312 C 248.742188 138.714844 248.609375 138.71875 248.484375 138.773438 C 247.953125 139 247.410156 139.144531 247.046875 139.613281 C 247.039062 139.621094 247.039062 139.636719 247.054688 139.636719 C 247.808594 139.789062 248.40625 139.21875 249.128906 140.117188 C 250.53125 141.859375 252.210938 143.351562 253.824219 144.882812 C 256.84375 147.742188 260.28125 150.117188 263.152344 153.117188 C 263.210938 153.175781 263.324219 153.09375 263.273438 153.023438 C 261.480469 150.507812 258.957031 148.667969 256.734375 146.5625 " fill-opacity="1" fill-rule="evenodd"/><path fill="#1e3149" d="M 217.917969 191.273438 C 210.902344 191.351562 204.714844 194.683594 198.511719 197.644531 C 192.871094 200.335938 186.960938 202.695312 181.210938 205.121094 C 179.335938 205.914062 174.945312 209.472656 172.828125 209.300781 C 172.761719 209.292969 172.722656 209.386719 172.773438 209.429688 C 172.902344 209.542969 173.03125 209.65625 173.164062 209.765625 C 173.25 209.839844 173.359375 209.859375 173.460938 209.804688 C 180.261719 206.125 187.355469 203.238281 194.460938 200.183594 C 202.164062 196.875 209.386719 192.285156 217.917969 191.519531 C 218.070312 191.503906 218.078125 191.269531 217.917969 191.273438 " fill-opacity="1" fill-rule="evenodd"/><path fill="#1e3149" d="M 178.402344 207.648438 C 184.375 204.671875 191.910156 201.296875 199.675781 198.441406 C 199.683594 198.4375 199.6875 198.445312 199.695312 198.441406 C 200.289062 198.25 200.886719 198.003906 201.480469 197.785156 C 201.855469 197.652344 202.230469 197.523438 202.605469 197.390625 C 194.457031 200.414062 186.484375 203.617188 178.402344 207.648438 Z M 215.042969 191.957031 C 214.601562 192.144531 214.628906 192.808594 215.160156 192.828125 C 215.199219 192.828125 215.21875 192.828125 215.257812 192.828125 C 214.535156 193.085938 213.816406 193.34375 213.101562 193.597656 C 212.203125 193.722656 211.375 193.847656 210.929688 193.984375 C 210.359375 194.15625 209.800781 194.359375 209.234375 194.550781 C 211.230469 193.640625 213.1875 192.738281 215.042969 191.957031 Z M 219.296875 191.949219 C 217.140625 192.292969 216.589844 192.25 217.640625 191.824219 C 218.15625 191.613281 217.96875 190.789062 217.402344 190.964844 C 211.273438 192.871094 205.304688 195.222656 199.433594 197.820312 C 199.203125 197.925781 199.246094 198.203125 199.398438 198.351562 C 198.773438 198.605469 198.152344 198.863281 197.53125 199.113281 C 190.042969 202.125 182.585938 204.976562 175.59375 209.054688 C 175.179688 209.300781 175.542969 209.910156 175.96875 209.699219 C 182.554688 206.394531 189.15625 203.136719 195.871094 200.105469 C 201.324219 197.648438 207.074219 196.179688 212.710938 194.296875 C 215 193.703125 217.25 193.1875 219.410156 192.804688 C 219.898438 192.71875 219.777344 191.933594 219.296875 191.949219 " fill-opacity="1" fill-rule="evenodd"/><path fill="#1e3149" d="M 218.65625 192.464844 C 218.605469 192.46875 218.558594 192.472656 218.507812 192.472656 C 218.371094 192.480469 218.371094 192.679688 218.507812 192.691406 C 218.558594 192.691406 218.605469 192.695312 218.65625 192.699219 C 218.808594 192.707031 218.808594 192.457031 218.65625 192.464844 " fill-opacity="1" fill-rule="evenodd"/><path fill="#1e3149" d="M 107.992188 195.796875 C 104.710938 191.675781 101.609375 187.554688 97.734375 183.960938 C 95.277344 181.683594 92.027344 180.390625 89.457031 178.234375 C 89.320312 178.117188 89.074219 178.273438 89.191406 178.4375 C 90.171875 179.8125 91.433594 180.621094 92.800781 181.601562 C 97.203125 184.753906 100.730469 188.078125 104.09375 192.34375 C 110.96875 201.058594 117.109375 210.210938 123.691406 219.121094 C 123.785156 219.25 123.984375 219.140625 123.90625 219 C 119.289062 210.855469 113.816406 203.117188 107.992188 195.796875 " fill-opacity="1" fill-rule="evenodd"/><path fill="#1e3149" d="M 98.988281 178.253906 C 98.863281 178.253906 98.863281 178.453125 98.988281 178.453125 C 99.117188 178.453125 99.117188 178.253906 98.988281 178.253906 " fill-opacity="1" fill-rule="evenodd"/><path fill="#1e3149" d="M 105.683594 167.957031 C 105.523438 167.957031 105.523438 168.203125 105.683594 168.203125 C 105.84375 168.203125 105.84375 167.957031 105.683594 167.957031 " fill-opacity="1" fill-rule="evenodd"/><path fill="#1e3149" d="M 182.476562 204.863281 C 171.570312 204.375 161.859375 211.648438 152.6875 216.652344 C 143.664062 221.570312 133.167969 225.035156 126.894531 233.652344 C 126.851562 233.710938 126.941406 233.773438 126.992188 233.726562 C 133.914062 226.910156 142.261719 222.957031 150.847656 218.714844 C 161.484375 213.460938 170.628906 207.375 182.519531 205.195312 C 182.714844 205.160156 182.65625 204.871094 182.476562 204.863281 " fill-opacity="1" fill-rule="evenodd"/><g clip-path="url(#4e1d9f9649)"><path fill="#1e3149" d="M 181.347656 205.691406 C 163.273438 213.28125 143.230469 221.417969 130.316406 236.867188 C 130.113281 237.109375 130.429688 237.433594 130.667969 237.21875 C 131.003906 236.910156 131.351562 236.628906 131.691406 236.324219 C 130.351562 237.675781 129.046875 239.050781 127.8125 240.480469 C 127.667969 240.644531 127.886719 240.863281 128.050781 240.71875 C 144.511719 226.484375 161.550781 215.210938 181.632812 206.742188 C 182.269531 206.472656 181.992188 205.421875 181.347656 205.691406 " fill-opacity="1" fill-rule="evenodd"/></g><path fill="#1e3149" d="M 130.613281 228.152344 C 130.605469 227.988281 130.382812 227.996094 130.367188 228.152344 C 130.121094 230.558594 132.226562 232.566406 131.789062 234.902344 C 129.871094 233.914062 129.550781 231.03125 128.5 229.316406 C 128.183594 228.875 127.460938 229.273438 127.757812 229.75 C 129.042969 231.8125 129.289062 235.027344 131.96875 235.824219 C 132.167969 235.886719 132.371094 235.757812 132.429688 235.5625 C 133.25 232.804688 130.773438 230.792969 130.613281 228.152344 " fill-opacity="1" fill-rule="evenodd"/><path fill="#1e3149" d="M 125.875 227.054688 C 124.941406 226.183594 124.082031 225.285156 123.253906 224.324219 C 119.78125 216.851562 115.003906 210.023438 110.632812 203.042969 C 106.839844 196.980469 100.753906 186.609375 93.882812 183.664062 C 93.847656 183.648438 93.820312 183.695312 93.855469 183.71875 C 101.84375 188.554688 108.417969 200.9375 113.152344 208.796875 C 115.738281 213.09375 118.523438 217.242188 120.984375 221.613281 C 120.292969 220.390625 121.300781 222.046875 122.421875 223.875 C 122.269531 223.988281 122.179688 224.199219 122.28125 224.398438 C 123.042969 226.148438 123.808594 227.898438 124.574219 229.644531 C 124.757812 230.148438 125.566406 229.9375 125.382812 229.421875 C 125.101562 228.640625 124.78125 227.878906 124.46875 227.117188 C 124.648438 227.359375 124.636719 227.265625 124.289062 226.589844 C 124.246094 226.503906 124.210938 226.4375 124.171875 226.363281 C 124.109375 226.210938 124.054688 226.050781 123.988281 225.894531 C 124.296875 226.394531 124.847656 227.261719 125.265625 227.664062 C 125.664062 228.050781 126.28125 227.433594 125.875 227.054688 " fill-opacity="1" fill-rule="evenodd"/><path fill="#1e3149" d="M 122.625 220.480469 C 122.347656 220.285156 121.882812 220.613281 122.023438 220.949219 C 122.3125 221.652344 122.582031 222.359375 122.851562 223.0625 C 122.5625 222.691406 121.632812 221.226562 121.035156 221.402344 C 121.003906 221.410156 121.003906 221.457031 121.035156 221.460938 C 121.144531 221.488281 121.503906 222.378906 121.585938 222.503906 C 122.011719 223.15625 122.410156 223.824219 122.824219 224.484375 C 123.515625 225.59375 124.332031 226.746094 125.222656 227.710938 C 125.597656 228.113281 126.332031 227.566406 125.996094 227.113281 C 124.867188 225.582031 124.15625 223.851562 123.425781 222.121094 C 125.671875 224.070312 126.972656 226.707031 128.308594 229.378906 C 128.554688 229.871094 129.328125 229.527344 129.179688 229.011719 C 128.1875 225.582031 125.484375 222.496094 122.625 220.480469 " fill-opacity="1" fill-rule="evenodd"/><path fill="#1e3149" d="M 129.59375 223.617188 C 127.96875 224.347656 126.507812 225.667969 125.058594 226.703125 C 124.320312 227.226562 122.828125 227.992188 122.574219 228.929688 C 122.5625 228.96875 122.605469 229 122.640625 228.984375 C 123.789062 228.367188 124.863281 227.570312 125.949219 226.84375 C 127.242188 225.972656 128.859375 225.1875 129.855469 223.957031 C 130.011719 223.761719 129.820312 223.515625 129.59375 223.617188 " fill-opacity="1" fill-rule="evenodd"/><path fill="#1e3149" d="M 123.753906 225.230469 C 121.019531 217.835938 115.660156 212.023438 111.640625 205.332031 C 110.808594 203.945312 109.925781 202.617188 109.042969 201.289062 C 106.460938 196.171875 103.941406 191.445312 99.519531 187.503906 C 99.199219 187.214844 98.539062 187.488281 98.726562 187.964844 C 99.339844 189.542969 100.113281 190.980469 100.945312 192.378906 C 97.367188 187.886719 93.683594 183.503906 90.285156 178.855469 C 90.148438 178.664062 89.84375 178.832031 89.96875 179.039062 C 94.117188 186.011719 99.695312 192.253906 104.476562 198.820312 C 110.21875 206.703125 115.21875 214.746094 120.167969 223.097656 C 120.535156 223.714844 121.5 223.148438 121.125 222.53125 C 120.589844 221.640625 120.050781 220.75 119.507812 219.859375 C 119.65625 219.707031 119.753906 219.542969 119.792969 219.363281 C 120.882812 221.367188 121.859375 223.417969 122.660156 225.535156 C 122.914062 226.21875 124.011719 225.925781 123.753906 225.230469 " fill-opacity="1" fill-rule="evenodd"/><path fill="#1e3149" d="M 108.945312 171.550781 C 107.171875 172.835938 105.519531 174.300781 103.433594 174.996094 C 103.273438 175.03125 103.09375 175.105469 102.914062 175.179688 C 102.867188 175.195312 102.824219 175.21875 102.773438 175.230469 C 102.773438 175.234375 102.777344 175.234375 102.777344 175.234375 C 102.730469 175.257812 102.6875 175.265625 102.636719 175.289062 C 102.046875 175.605469 102.464844 176.484375 103.078125 176.339844 C 103.179688 176.3125 103.261719 176.261719 103.359375 176.234375 C 104.171875 175.949219 104.625 176.980469 104.855469 178.414062 C 104.84375 178.4375 104.816406 178.4375 104.804688 178.464844 C 104.390625 179.300781 104.03125 180.09375 103.429688 180.753906 C 103.472656 179.523438 103.832031 178.332031 104.039062 177.117188 C 104.125 176.621094 103.53125 176.148438 103.132812 176.585938 C 101.972656 177.859375 100.625 178.859375 100.835938 180.726562 C 100.835938 180.730469 100.839844 180.734375 100.839844 180.742188 C 100.878906 182.148438 102.164062 183.625 103.585938 183.957031 C 103.910156 184.03125 104.167969 183.808594 104.195312 183.492188 C 104.242188 182.929688 104.226562 182.296875 103.890625 181.832031 C 104.132812 181.605469 104.351562 181.363281 104.550781 181.109375 C 104.550781 182.285156 104.675781 183.460938 104.933594 184.632812 C 105.050781 185.179688 105.929688 185.195312 106.039062 184.632812 C 106.328125 183.140625 106.65625 177.476562 105.066406 175.578125 C 106.121094 175.042969 107.082031 174.351562 108.035156 173.625 C 108.179688 173.863281 108.554688 173.972656 108.765625 173.738281 C 109.175781 173.292969 109.445312 172.867188 109.707031 172.3125 C 109.917969 171.859375 109.445312 171.191406 108.945312 171.550781 " fill-opacity="1" fill-rule="evenodd"/><path fill="#1e3149" d="M 138.695312 213.882812 C 137.476562 214.386719 136.5 215.203125 135.566406 216.085938 C 133.464844 216.847656 131.589844 217.738281 129.898438 219.019531 C 130.132812 217.929688 130.46875 216.867188 130.449219 215.699219 C 130.441406 215.089844 129.667969 215.003906 129.421875 215.496094 C 129.308594 214.941406 129.171875 214.386719 128.980469 213.796875 C 128.898438 213.53125 128.660156 213.414062 128.394531 213.460938 C 127.613281 213.597656 127.207031 213.8125 126.855469 214.253906 C 125.847656 212.738281 124.863281 211.175781 123.792969 209.691406 C 124.042969 209.878906 124.285156 210.066406 124.535156 210.253906 C 124.636719 210.328125 124.738281 210.152344 124.632812 210.082031 C 124.15625 209.765625 123.734375 209.390625 123.296875 209.035156 C 121.960938 207.261719 120.480469 205.628906 118.636719 204.371094 C 118.335938 204.164062 118.035156 204.605469 118.265625 204.855469 C 119.035156 205.6875 119.847656 206.445312 120.679688 207.171875 C 122.871094 209.5625 124.546875 212.414062 126.332031 215.128906 C 126.25 215.351562 126.308594 215.578125 126.511719 215.71875 C 126.71875 215.925781 126.925781 216.128906 127.128906 216.335938 C 127.476562 216.835938 128.292969 216.367188 127.949219 215.855469 C 127.871094 215.742188 127.773438 215.585938 127.667969 215.441406 C 127.609375 215.363281 127.554688 215.28125 127.5 215.203125 C 127.78125 215.128906 128.0625 215.054688 128.339844 214.980469 C 128.636719 216 128.71875 217.027344 128.585938 218.074219 C 128.574219 218.289062 128.699219 218.417969 128.855469 218.5 C 128.722656 219.21875 128.582031 219.886719 128.472656 220.28125 C 128.285156 220.464844 128.085938 220.613281 127.90625 220.8125 C 127.5625 221.1875 127.789062 221.835938 128.328125 221.832031 C 128.589844 221.828125 128.851562 221.828125 129.113281 221.824219 C 129.410156 221.820312 129.738281 221.554688 129.703125 221.234375 C 129.6875 221.074219 129.71875 220.925781 129.714844 220.769531 C 130.152344 220.386719 130.601562 220.027344 131.0625 219.714844 C 131.046875 219.734375 131.023438 219.75 131.003906 219.773438 C 130.515625 220.367188 131.113281 221.160156 131.816406 220.828125 C 134.730469 219.445312 136.832031 216.667969 138.933594 214.296875 C 139.082031 214.128906 138.941406 213.777344 138.695312 213.882812 " fill-opacity="1" fill-rule="evenodd"/><path fill="#1e3149" d="M 131.433594 231.070312 C 131.246094 231.191406 131.054688 231.3125 130.863281 231.433594 C 130.769531 231.460938 130.808594 231.613281 130.90625 231.585938 C 131.175781 231.496094 131.320312 231.359375 131.519531 231.160156 C 131.578125 231.101562 131.492188 231.015625 131.433594 231.070312 " fill-opacity="1" fill-rule="evenodd"/><path fill="#1e3149" d="M 215.554688 189.234375 C 207.824219 189.226562 198.746094 193.144531 191.816406 196.429688 C 187.726562 198.371094 177.273438 201.140625 176.492188 206.589844 C 176.480469 206.675781 176.582031 206.726562 176.636719 206.652344 C 179.6875 202.097656 186.445312 200.203125 191.246094 198.097656 C 199.046875 194.675781 206.730469 192.097656 215.128906 190.605469 C 215.3125 190.574219 215.527344 190.367188 215.554688 190.175781 C 215.621094 190.101562 215.683594 190.027344 215.746094 189.953125 C 216.074219 189.753906 215.941406 189.234375 215.554688 189.234375 " fill-opacity="1" fill-rule="evenodd"/><path fill="#1e3149" d="M 218.703125 189.871094 C 210.554688 190.621094 203.445312 194.671875 195.90625 197.523438 C 191.042969 199.363281 184.945312 200.839844 181.566406 204.910156 C 181.625 204.835938 181.570312 204.683594 181.460938 204.730469 C 181.414062 204.75 181.367188 204.765625 181.320312 204.785156 C 181.148438 204.855469 181.214844 205.128906 181.398438 205.070312 C 185.636719 203.71875 189.46875 200.804688 193.777344 199.324219 C 202.042969 196.480469 209.890625 191.761719 218.703125 190.949219 C 219.386719 190.882812 219.394531 189.804688 218.703125 189.871094 " fill-opacity="1" fill-rule="evenodd"/><path fill="#1e3149" d="M 201.511719 196.707031 C 197.859375 198.050781 194.144531 199.523438 190.421875 201.085938 C 190.398438 200.773438 190.085938 200.480469 189.710938 200.65625 C 183.757812 203.441406 177.894531 206.425781 172.152344 209.625 C 167.804688 211.890625 163.554688 214.277344 159.492188 216.792969 C 154.523438 219.492188 149.675781 222.347656 145.226562 225.585938 C 144.757812 225.925781 145.15625 226.628906 145.683594 226.367188 C 149.773438 224.363281 153.625 221.953125 157.472656 219.511719 C 159.015625 218.777344 160.566406 218.050781 162.074219 217.289062 C 168.347656 214.117188 174.527344 210.59375 180.65625 207.039062 C 187.6875 203.773438 194.75 200.574219 201.691406 197.128906 C 201.925781 197.011719 201.757812 196.613281 201.511719 196.707031 " fill-opacity="1" fill-rule="evenodd"/><path fill="#1e3149" d="M 131.292969 236.4375 C 131.246094 236.375 131.191406 236.316406 131.144531 236.257812 C 131.144531 236.222656 131.132812 236.191406 131.125 236.15625 C 131.324219 236.003906 131.4375 235.761719 131.339844 235.480469 C 130.6875 233.652344 129.640625 232.117188 128.394531 230.648438 C 128.023438 230.210938 127.253906 230.566406 127.277344 231.113281 C 127.277344 231.132812 127.285156 231.148438 127.285156 231.167969 C 127.210938 231.199219 127.148438 231.246094 127.09375 231.300781 C 126.675781 230.957031 125.949219 231.441406 126.28125 231.980469 C 126.339844 232.078125 126.386719 232.179688 126.445312 232.273438 C 126.316406 232.347656 126.269531 232.546875 126.378906 232.675781 C 126.726562 233.074219 127.046875 233.492188 127.347656 233.917969 C 127.851562 234.910156 128.3125 235.925781 128.65625 236.972656 C 128.847656 237.566406 129.6875 237.320312 129.574219 236.71875 C 129.542969 236.5625 129.5 236.390625 129.457031 236.21875 C 129.777344 236.578125 130.113281 236.929688 130.476562 237.257812 C 131.042969 237.765625 131.753906 237.011719 131.292969 236.4375 " fill-opacity="1" fill-rule="evenodd"/><path fill="#1e3149" d="M 109.304688 169.988281 C 109.175781 169.675781 108.835938 169.457031 108.46875 169.695312 C 108.410156 169.734375 108.351562 169.765625 108.296875 169.800781 C 108.261719 169.808594 108.238281 169.789062 108.203125 169.804688 C 105.675781 171.148438 102.828125 172.511719 100.152344 174.132812 C 99.519531 174.425781 98.890625 174.71875 98.269531 175.011719 C 97.855469 175.207031 96.597656 175.878906 95.074219 176.644531 C 93.222656 177.46875 91.363281 178.28125 89.511719 179.105469 C 88.414062 179.46875 87.558594 179.613281 87.242188 179.335938 C 86.652344 178.808594 85.78125 179.675781 86.375 180.207031 C 86.835938 180.617188 87.570312 180.65625 88.410156 180.515625 C 88.554688 180.644531 88.730469 180.738281 88.941406 180.695312 C 90.496094 180.382812 91.972656 179.910156 93.421875 179.367188 C 93.3125 179.453125 93.203125 179.535156 93.09375 179.621094 C 93.09375 179.625 93.089844 179.625 93.089844 179.625 C 93.050781 179.65625 93.015625 179.683594 92.980469 179.710938 C 92.753906 179.902344 92.78125 180.171875 92.921875 180.375 C 92.207031 181.378906 91.601562 182.460938 91.160156 183.652344 C 91.050781 183.957031 91.519531 184.074219 91.632812 183.785156 C 92.101562 182.621094 92.738281 181.566406 93.488281 180.597656 C 93.539062 180.585938 93.589844 180.605469 93.640625 180.574219 C 95.625 179.324219 97.527344 177.957031 99.429688 176.597656 C 101.378906 175.550781 103.300781 174.445312 105.246094 173.378906 C 106.738281 172.613281 108.242188 171.859375 109.738281 171.082031 C 110.382812 170.75 109.921875 169.898438 109.304688 169.988281 " fill-opacity="1" fill-rule="evenodd"/><path fill="#1e3149" d="M 110.085938 175.035156 C 108.839844 174.921875 107.613281 174.996094 106.394531 175.148438 C 107.503906 174.660156 108.609375 174.171875 109.707031 173.664062 C 110.265625 173.398438 109.867188 172.460938 109.289062 172.664062 C 106.578125 173.613281 103.800781 174.699219 101.273438 176.140625 C 99.625 176.8125 97.96875 177.464844 96.304688 178.089844 C 95.535156 178.285156 94.757812 178.457031 93.96875 178.589844 C 93.777344 178.621094 93.800781 178.894531 93.945312 178.957031 C 93.378906 179.167969 92.8125 179.382812 92.242188 179.585938 C 91.605469 179.8125 91.867188 180.828125 92.523438 180.613281 C 93.824219 180.1875 95.136719 179.6875 96.460938 179.171875 C 96.996094 178.972656 97.523438 178.765625 98.054688 178.5625 C 98.109375 178.675781 98.222656 178.761719 98.351562 178.707031 C 99.425781 178.28125 100.472656 177.804688 101.515625 177.3125 C 101.710938 177.246094 101.914062 177.191406 102.109375 177.128906 C 104.722656 176.449219 107.347656 175.878906 110.085938 175.953125 C 110.6875 175.96875 110.667969 175.085938 110.085938 175.035156 " fill-opacity="1" fill-rule="evenodd"/><path fill="#1e3149" d="M 127.816406 228.820312 C 127.8125 228.859375 127.804688 228.890625 127.800781 228.925781 C 127.667969 228.921875 127.53125 228.957031 127.398438 229.0625 C 126.75 229.527344 126.136719 230.035156 125.546875 230.570312 C 125.09375 230.296875 124.558594 229.40625 124.140625 228.570312 C 124.328125 228.410156 124.4375 228.121094 124.316406 227.867188 C 119.992188 218.859375 114.390625 210.695312 108.25 202.835938 C 104.800781 198.417969 101.300781 194.039062 97.835938 189.632812 C 99.019531 191.140625 87.921875 177.835938 91.660156 182.140625 C 91.730469 182.21875 91.867188 182.113281 91.804688 182.027344 C 91.101562 181.238281 90.601562 180.335938 90.300781 179.316406 C 90.265625 179.234375 90.167969 179.203125 90.089844 179.195312 L 89.757812 179.160156 C 89.546875 179.136719 89.40625 179.417969 89.515625 179.585938 C 94.335938 187.035156 100.039062 193.871094 105.507812 200.84375 C 109.625 206.089844 113.539062 211.449219 117.1875 217.035156 C 117.75 217.917969 118.253906 218.835938 118.785156 219.730469 C 118.382812 219.609375 117.871094 220.039062 118.144531 220.515625 C 118.613281 221.328125 119.101562 222.109375 119.59375 222.886719 C 119.578125 222.945312 119.640625 223.09375 119.796875 223.367188 C 120.371094 224.355469 120.890625 225.125 121.429688 225.859375 C 122.65625 227.925781 123.734375 230.058594 124.308594 232.5625 C 124.40625 232.984375 124.9375 233.074219 125.230469 232.808594 C 125.582031 232.507812 125.914062 232.183594 126.25 231.863281 C 127.078125 231.292969 127.160156 231.179688 127.886719 230.171875 C 127.980469 230.0625 128.085938 229.960938 128.183594 229.847656 C 128.265625 229.757812 128.304688 229.664062 128.324219 229.566406 C 128.382812 229.488281 128.425781 229.429688 128.488281 229.34375 C 128.792969 228.9375 128.15625 228.492188 127.816406 228.820312 " fill-opacity="1" fill-rule="evenodd"/><path fill="#1e3149" d="M 157.167969 153.960938 C 154.476562 154.851562 136.195312 160.113281 143.765625 156.832031 C 149.429688 155.707031 155.125 154.316406 160.796875 152.753906 C 159.59375 153.152344 158.382812 153.558594 157.167969 153.960938 Z M 142.164062 158.703125 C 149.644531 156.539062 157.152344 154.4375 164.652344 152.328125 C 163.582031 152.691406 162.511719 153.058594 161.441406 153.417969 C 155.078125 155.566406 148.757812 157.574219 142.164062 158.703125 Z M 197.847656 141.214844 C 194.535156 142.105469 191.203125 142.945312 187.867188 143.769531 C 187.808594 143.566406 187.617188 143.402344 187.34375 143.476562 C 184.445312 144.257812 181.574219 145.121094 178.707031 146.003906 C 165.621094 149.148438 152.511719 152.257812 139.789062 156.578125 C 139.160156 156.789062 139.417969 157.671875 140.058594 157.558594 C 140.640625 157.453125 141.226562 157.324219 141.808594 157.214844 C 140.675781 157.78125 139.550781 158.382812 138.441406 159.082031 C 138.128906 159.277344 138.328125 159.800781 138.699219 159.691406 C 138.847656 159.648438 139 159.609375 139.148438 159.5625 C 139.183594 159.585938 139.214844 159.609375 139.265625 159.601562 C 152.394531 158.289062 164.371094 152.714844 177.089844 149.605469 C 177.578125 149.488281 177.484375 148.660156 176.96875 148.71875 C 174.984375 148.933594 173.050781 149.289062 171.140625 149.726562 C 173.601562 148.964844 176.042969 148.183594 178.46875 147.386719 C 185.066406 145.828125 191.628906 144.144531 198.058594 141.988281 C 198.546875 141.824219 198.351562 141.082031 197.847656 141.214844 " fill-opacity="1" fill-rule="evenodd"/></svg>