<svg xmlns="http://www.w3.org/2000/svg" xmlns:xlink="http://www.w3.org/1999/xlink" width="500" zoomAndPan="magnify" viewBox="0 0 375 374.999991" height="500" preserveAspectRatio="xMidYMid meet" version="1.0"><defs><clipPath id="a56af29173"><path d="M 9.140625 0 L 366.140625 0 L 366.140625 375 L 9.140625 375 Z M 9.140625 0 " clip-rule="nonzero"/></clipPath></defs><g clip-path="url(#a56af29173)"><path fill="#000000" d="M 52.917969 114.019531 C 47.609375 111.972656 44.878906 109.175781 45.445312 106.34375 C 45.945312 103.847656 48.707031 101.632812 51.273438 101.632812 L 51.394531 101.632812 C 56.5625 101.773438 57.65625 104.414062 57.78125 104.796875 C 58.347656 106.839844 60.445312 108.0625 62.511719 107.558594 C 64.621094 107.035156 65.90625 104.90625 65.386719 102.804688 C 64.585938 99.570312 60.78125 94.035156 51.613281 93.78125 L 51.285156 93.78125 C 45.003906 93.78125 38.972656 98.667969 37.738281 104.804688 C 37.226562 107.371094 36.597656 116.148438 50.085938 121.34375 C 55.410156 123.394531 58.125 126.1875 57.558594 129.023438 C 57.066406 131.519531 54.308594 133.742188 51.730469 133.742188 C 51.691406 133.742188 51.652344 133.734375 51.613281 133.734375 C 46.355469 133.589844 45.320312 130.867188 45.25 130.679688 C 44.730469 128.570312 42.59375 127.285156 40.496094 127.8125 C 38.390625 128.332031 37.101562 130.460938 37.628906 132.5625 C 38.429688 135.796875 42.222656 141.339844 51.394531 141.582031 C 51.511719 141.582031 51.613281 141.59375 51.722656 141.59375 C 58 141.582031 64.03125 136.707031 65.265625 130.5625 C 65.785156 127.996094 66.40625 119.21875 52.917969 114.019531 Z M 108.65625 93.777344 C 106.480469 93.777344 104.730469 95.53125 104.730469 97.699219 L 104.730469 123.582031 C 104.730469 129.179688 100.167969 133.734375 94.566406 133.734375 C 88.957031 133.734375 84.398438 129.179688 84.398438 123.582031 L 84.398438 97.699219 C 84.398438 95.53125 82.640625 93.777344 80.46875 93.777344 C 78.292969 93.777344 76.542969 95.53125 76.542969 97.699219 L 76.542969 123.582031 C 76.542969 133.503906 84.625 141.582031 94.566406 141.582031 C 104.496094 141.582031 112.585938 133.503906 112.585938 123.582031 L 112.585938 97.699219 C 112.585938 95.53125 110.828125 93.777344 108.65625 93.777344 Z M 152.527344 124.015625 C 150.449219 123.371094 148.257812 124.519531 147.613281 126.589844 C 146.277344 130.859375 142.394531 133.734375 137.964844 133.734375 C 132.363281 133.734375 127.804688 129.179688 127.804688 123.582031 L 127.804688 111.78125 C 127.804688 106.1875 132.363281 101.625 137.964844 101.625 C 142.394531 101.625 146.277344 104.5 147.613281 108.777344 C 148.257812 110.839844 150.449219 111.988281 152.527344 111.351562 C 154.601562 110.699219 155.761719 108.5 155.105469 106.429688 C 152.734375 98.863281 145.851562 93.777344 137.964844 93.777344 C 128.03125 93.777344 119.949219 101.851562 119.949219 111.78125 L 119.949219 123.582031 C 119.949219 133.503906 128.03125 141.582031 137.964844 141.582031 C 145.851562 141.582031 152.734375 136.503906 155.105469 128.9375 C 155.761719 126.863281 154.601562 124.660156 152.527344 124.015625 Z M 195.582031 124.015625 C 193.523438 123.371094 191.3125 124.519531 190.667969 126.589844 C 189.328125 130.867188 185.457031 133.734375 181.023438 133.734375 C 175.421875 133.734375 170.859375 129.179688 170.859375 123.582031 L 170.859375 111.78125 C 170.859375 106.1875 175.421875 101.625 181.023438 101.625 C 185.449219 101.625 189.328125 104.5 190.667969 108.777344 C 191.3125 110.839844 193.503906 111.988281 195.582031 111.351562 C 197.65625 110.699219 198.8125 108.5 198.160156 106.429688 C 195.789062 98.863281 188.90625 93.777344 181.023438 93.777344 C 171.085938 93.777344 163.003906 101.851562 163.003906 111.78125 L 163.003906 123.582031 C 163.003906 133.503906 171.085938 141.582031 181.023438 141.582031 C 188.914062 141.582031 195.792969 136.503906 198.160156 128.925781 C 198.8125 126.863281 197.65625 124.660156 195.582031 124.015625 Z M 235.195312 133.734375 L 216.191406 133.734375 L 216.191406 121.613281 L 224.652344 121.613281 C 226.820312 121.613281 228.582031 119.851562 228.582031 117.6875 C 228.582031 115.511719 226.820312 113.761719 224.652344 113.761719 L 216.191406 113.761719 L 216.191406 101.625 L 235.195312 101.625 C 237.363281 101.625 239.125 99.867188 239.125 97.699219 C 239.125 95.53125 237.363281 93.777344 235.195312 93.777344 L 212.261719 93.777344 C 210.09375 93.777344 208.335938 95.53125 208.335938 97.699219 L 208.335938 137.65625 C 208.335938 139.832031 210.09375 141.582031 212.261719 141.582031 L 235.195312 141.582031 C 237.363281 141.582031 239.125 139.832031 239.125 137.65625 C 239.125 135.492188 237.363281 133.734375 235.195312 133.734375 Z M 263.847656 114.019531 C 258.535156 111.972656 255.8125 109.175781 256.386719 106.34375 C 256.878906 103.847656 259.636719 101.632812 262.214844 101.632812 L 262.332031 101.632812 C 267.5 101.773438 268.585938 104.414062 268.71875 104.796875 C 269.285156 106.839844 271.367188 108.0625 273.449219 107.558594 C 275.554688 107.035156 276.84375 104.90625 276.316406 102.804688 C 275.515625 99.570312 271.714844 94.035156 262.542969 93.78125 C 255.992188 93.554688 249.929688 98.554688 248.679688 104.804688 C 248.160156 107.371094 247.539062 116.148438 261.027344 121.34375 C 266.347656 123.394531 269.066406 126.1875 268.5 129.023438 C 268.003906 131.519531 265.25 133.742188 262.671875 133.742188 C 262.628906 133.742188 262.589844 133.734375 262.554688 133.734375 C 257.296875 133.589844 256.257812 130.867188 256.1875 130.679688 C 255.671875 128.574219 253.539062 127.28125 251.433594 127.8125 C 249.328125 128.332031 248.039062 130.460938 248.570312 132.5625 C 249.359375 135.796875 253.164062 141.339844 262.339844 141.582031 C 262.449219 141.582031 262.554688 141.59375 262.660156 141.59375 C 268.941406 141.582031 274.972656 136.707031 276.207031 130.5625 C 276.71875 127.996094 277.347656 119.21875 263.847656 114.019531 Z M 298.628906 114.019531 C 293.3125 111.972656 290.589844 109.175781 291.160156 106.34375 C 291.660156 103.847656 294.417969 101.632812 296.988281 101.632812 L 297.105469 101.632812 C 302.285156 101.773438 303.367188 104.414062 303.492188 104.796875 C 304.066406 106.839844 306.15625 108.070312 308.222656 107.558594 C 310.328125 107.042969 311.617188 104.914062 311.097656 102.808594 C 310.296875 99.570312 306.496094 94.035156 297.324219 93.78125 L 296.996094 93.78125 C 290.71875 93.78125 284.683594 98.667969 283.460938 104.804688 C 282.941406 107.371094 282.3125 116.148438 295.800781 121.34375 C 301.121094 123.394531 303.847656 126.1875 303.273438 129.023438 C 302.777344 131.519531 300.019531 133.742188 297.445312 133.742188 C 297.40625 133.742188 297.363281 133.734375 297.324219 133.734375 C 292.078125 133.589844 291.035156 130.867188 290.96875 130.679688 C 290.445312 128.570312 288.304688 127.285156 286.210938 127.8125 C 284.105469 128.332031 282.816406 130.460938 283.339844 132.5625 C 284.140625 135.796875 287.945312 141.339844 297.113281 141.582031 C 297.222656 141.582031 297.335938 141.59375 297.433594 141.59375 C 303.71875 141.582031 309.753906 136.707031 310.980469 130.5625 C 311.492188 127.996094 312.121094 119.21875 298.628906 114.019531 Z M 298.628906 114.019531 C 293.3125 111.972656 290.589844 109.175781 291.160156 106.34375 C 291.660156 103.847656 294.417969 101.632812 296.988281 101.632812 L 297.105469 101.632812 C 302.285156 101.773438 303.367188 104.414062 303.492188 104.796875 C 304.066406 106.839844 306.15625 108.070312 308.222656 107.558594 C 310.328125 107.042969 311.617188 104.914062 311.097656 102.808594 C 310.296875 99.570312 306.496094 94.035156 297.324219 93.78125 L 296.996094 93.78125 C 290.71875 93.78125 284.683594 98.667969 283.460938 104.804688 C 282.941406 107.371094 282.3125 116.148438 295.800781 121.34375 C 301.121094 123.394531 303.847656 126.1875 303.273438 129.023438 C 302.777344 131.519531 300.019531 133.742188 297.445312 133.742188 C 297.40625 133.742188 297.363281 133.734375 297.324219 133.734375 C 292.078125 133.589844 291.035156 130.867188 290.96875 130.679688 C 290.445312 128.570312 288.304688 127.285156 286.210938 127.8125 C 284.105469 128.332031 282.816406 130.460938 283.339844 132.5625 C 284.140625 135.796875 287.945312 141.339844 297.113281 141.582031 C 297.222656 141.582031 297.335938 141.59375 297.433594 141.59375 C 303.71875 141.582031 309.753906 136.707031 310.980469 130.5625 C 311.492188 127.996094 312.121094 119.21875 298.628906 114.019531 Z M 263.847656 114.019531 C 258.535156 111.972656 255.8125 109.175781 256.386719 106.34375 C 256.878906 103.847656 259.636719 101.632812 262.214844 101.632812 L 262.332031 101.632812 C 267.5 101.773438 268.585938 104.414062 268.71875 104.796875 C 269.285156 106.839844 271.367188 108.0625 273.449219 107.558594 C 275.554688 107.035156 276.84375 104.90625 276.316406 102.804688 C 275.515625 99.570312 271.714844 94.035156 262.542969 93.78125 C 255.992188 93.554688 249.929688 98.554688 248.679688 104.804688 C 248.160156 107.371094 247.539062 116.148438 261.027344 121.34375 C 266.347656 123.394531 269.066406 126.1875 268.5 129.023438 C 268.003906 131.519531 265.25 133.742188 262.671875 133.742188 C 262.628906 133.742188 262.589844 133.734375 262.554688 133.734375 C 257.296875 133.589844 256.257812 130.867188 256.1875 130.679688 C 255.671875 128.574219 253.539062 127.28125 251.433594 127.8125 C 249.328125 128.332031 248.039062 130.460938 248.570312 132.5625 C 249.359375 135.796875 253.164062 141.339844 262.339844 141.582031 C 262.449219 141.582031 262.554688 141.59375 262.660156 141.59375 C 268.941406 141.582031 274.972656 136.707031 276.207031 130.5625 C 276.71875 127.996094 277.347656 119.21875 263.847656 114.019531 Z M 235.195312 133.734375 L 216.191406 133.734375 L 216.191406 121.613281 L 224.652344 121.613281 C 226.820312 121.613281 228.582031 119.851562 228.582031 117.6875 C 228.582031 115.511719 226.820312 113.761719 224.652344 113.761719 L 216.191406 113.761719 L 216.191406 101.625 L 235.195312 101.625 C 237.363281 101.625 239.125 99.867188 239.125 97.699219 C 239.125 95.53125 237.363281 93.777344 235.195312 93.777344 L 212.261719 93.777344 C 210.09375 93.777344 208.335938 95.53125 208.335938 97.699219 L 208.335938 137.65625 C 208.335938 139.832031 210.09375 141.582031 212.261719 141.582031 L 235.195312 141.582031 C 237.363281 141.582031 239.125 139.832031 239.125 137.65625 C 239.125 135.492188 237.363281 133.734375 235.195312 133.734375 Z M 195.582031 124.015625 C 193.523438 123.371094 191.3125 124.519531 190.667969 126.589844 C 189.328125 130.867188 185.457031 133.734375 181.023438 133.734375 C 175.421875 133.734375 170.859375 129.179688 170.859375 123.582031 L 170.859375 111.78125 C 170.859375 106.1875 175.421875 101.625 181.023438 101.625 C 185.449219 101.625 189.328125 104.5 190.667969 108.777344 C 191.3125 110.839844 193.503906 111.988281 195.582031 111.351562 C 197.65625 110.699219 198.8125 108.5 198.160156 106.429688 C 195.789062 98.863281 188.90625 93.777344 181.023438 93.777344 C 171.085938 93.777344 163.003906 101.851562 163.003906 111.78125 L 163.003906 123.582031 C 163.003906 133.503906 171.085938 141.582031 181.023438 141.582031 C 188.914062 141.582031 195.792969 136.503906 198.160156 128.925781 C 198.8125 126.863281 197.65625 124.660156 195.582031 124.015625 Z M 152.527344 124.015625 C 150.449219 123.371094 148.257812 124.519531 147.613281 126.589844 C 146.277344 130.859375 142.394531 133.734375 137.964844 133.734375 C 132.363281 133.734375 127.804688 129.179688 127.804688 123.582031 L 127.804688 111.78125 C 127.804688 106.1875 132.363281 101.625 137.964844 101.625 C 142.394531 101.625 146.277344 104.5 147.613281 108.777344 C 148.257812 110.839844 150.449219 111.988281 152.527344 111.351562 C 154.601562 110.699219 155.761719 108.5 155.105469 106.429688 C 152.734375 98.863281 145.851562 93.777344 137.964844 93.777344 C 128.03125 93.777344 119.949219 101.851562 119.949219 111.78125 L 119.949219 123.582031 C 119.949219 133.503906 128.03125 141.582031 137.964844 141.582031 C 145.851562 141.582031 152.734375 136.503906 155.105469 128.9375 C 155.761719 126.863281 154.601562 124.660156 152.527344 124.015625 Z M 108.65625 93.777344 C 106.480469 93.777344 104.730469 95.53125 104.730469 97.699219 L 104.730469 123.582031 C 104.730469 129.179688 100.167969 133.734375 94.566406 133.734375 C 88.957031 133.734375 84.398438 129.179688 84.398438 123.582031 L 84.398438 97.699219 C 84.398438 95.53125 82.640625 93.777344 80.46875 93.777344 C 78.292969 93.777344 76.542969 95.53125 76.542969 97.699219 L 76.542969 123.582031 C 76.542969 133.503906 84.625 141.582031 94.566406 141.582031 C 104.496094 141.582031 112.585938 133.503906 112.585938 123.582031 L 112.585938 97.699219 C 112.585938 95.53125 110.828125 93.777344 108.65625 93.777344 Z M 52.917969 114.019531 C 47.609375 111.972656 44.878906 109.175781 45.445312 106.34375 C 45.945312 103.847656 48.707031 101.632812 51.273438 101.632812 L 51.394531 101.632812 C 56.5625 101.773438 57.65625 104.414062 57.78125 104.796875 C 58.347656 106.839844 60.445312 108.0625 62.511719 107.558594 C 64.621094 107.035156 65.90625 104.90625 65.386719 102.804688 C 64.585938 99.570312 60.78125 94.035156 51.613281 93.78125 L 51.285156 93.78125 C 45.003906 93.78125 38.972656 98.667969 37.738281 104.804688 C 37.226562 107.371094 36.597656 116.148438 50.085938 121.34375 C 55.410156 123.394531 58.125 126.1875 57.558594 129.023438 C 57.066406 131.519531 54.308594 133.742188 51.730469 133.742188 C 51.691406 133.742188 51.652344 133.734375 51.613281 133.734375 C 46.355469 133.589844 45.320312 130.867188 45.25 130.679688 C 44.730469 128.570312 42.59375 127.285156 40.496094 127.8125 C 38.390625 128.332031 37.101562 130.460938 37.628906 132.5625 C 38.429688 135.796875 42.222656 141.339844 51.394531 141.582031 C 51.511719 141.582031 51.613281 141.59375 51.722656 141.59375 C 58 141.582031 64.03125 136.707031 65.265625 130.5625 C 65.785156 127.996094 66.40625 119.21875 52.917969 114.019531 Z M 51.273438 101.632812 L 51.394531 101.632812 C 56.5625 101.773438 57.65625 104.414062 57.78125 104.796875 C 58.347656 106.839844 60.445312 108.0625 62.511719 107.558594 C 64.621094 107.035156 65.90625 104.90625 65.386719 102.804688 C 64.585938 99.570312 60.78125 94.035156 51.613281 93.78125 L 51.285156 93.78125 C 45.003906 93.78125 38.972656 98.667969 37.738281 104.804688 C 37.226562 107.371094 36.597656 116.148438 50.085938 121.34375 C 55.410156 123.394531 58.125 126.1875 57.558594 129.023438 C 57.066406 131.519531 54.308594 133.742188 51.730469 133.742188 C 51.691406 133.742188 51.652344 133.734375 51.613281 133.734375 C 46.355469 133.589844 45.320312 130.867188 45.25 130.679688 C 44.730469 128.570312 42.59375 127.285156 40.496094 127.8125 C 38.390625 128.332031 37.101562 130.460938 37.628906 132.5625 C 38.429688 135.796875 42.222656 141.339844 51.394531 141.582031 C 51.511719 141.582031 51.613281 141.59375 51.722656 141.59375 C 58 141.582031 64.03125 136.707031 65.265625 130.5625 C 65.785156 127.996094 66.40625 119.21875 52.917969 114.019531 C 47.609375 111.972656 44.878906 109.175781 45.445312 106.34375 C 45.945312 103.847656 48.707031 101.632812 51.273438 101.632812 Z M 108.65625 93.777344 C 106.480469 93.777344 104.730469 95.53125 104.730469 97.699219 L 104.730469 123.582031 C 104.730469 129.179688 100.167969 133.734375 94.566406 133.734375 C 88.957031 133.734375 84.398438 129.179688 84.398438 123.582031 L 84.398438 97.699219 C 84.398438 95.53125 82.640625 93.777344 80.46875 93.777344 C 78.292969 93.777344 76.542969 95.53125 76.542969 97.699219 L 76.542969 123.582031 C 76.542969 133.503906 84.625 141.582031 94.566406 141.582031 C 104.496094 141.582031 112.585938 133.503906 112.585938 123.582031 L 112.585938 97.699219 C 112.585938 95.53125 110.828125 93.777344 108.65625 93.777344 Z M 137.964844 101.625 C 142.394531 101.625 146.277344 104.5 147.613281 108.777344 C 148.257812 110.839844 150.449219 111.988281 152.527344 111.351562 C 154.601562 110.699219 155.761719 108.5 155.105469 106.429688 C 152.734375 98.863281 145.851562 93.777344 137.964844 93.777344 C 128.03125 93.777344 119.949219 101.851562 119.949219 111.78125 L 119.949219 123.582031 C 119.949219 133.503906 128.03125 141.582031 137.964844 141.582031 C 145.851562 141.582031 152.734375 136.503906 155.105469 128.9375 C 155.761719 126.863281 154.601562 124.660156 152.527344 124.015625 C 150.449219 123.371094 148.257812 124.519531 147.613281 126.589844 C 146.277344 130.859375 142.394531 133.734375 137.964844 133.734375 C 132.363281 133.734375 127.804688 129.179688 127.804688 123.582031 L 127.804688 111.78125 C 127.804688 106.1875 132.363281 101.625 137.964844 101.625 Z M 181.023438 101.625 C 185.449219 101.625 189.328125 104.5 190.667969 108.777344 C 191.3125 110.839844 193.503906 111.988281 195.582031 111.351562 C 197.65625 110.699219 198.8125 108.5 198.160156 106.429688 C 195.789062 98.863281 188.90625 93.777344 181.023438 93.777344 C 171.085938 93.777344 163.003906 101.851562 163.003906 111.78125 L 163.003906 123.582031 C 163.003906 133.503906 171.085938 141.582031 181.023438 141.582031 C 188.914062 141.582031 195.792969 136.503906 198.160156 128.925781 C 198.8125 126.863281 197.65625 124.660156 195.582031 124.015625 C 193.523438 123.371094 191.3125 124.519531 190.667969 126.589844 C 189.328125 130.867188 185.457031 133.734375 181.023438 133.734375 C 175.421875 133.734375 170.859375 129.179688 170.859375 123.582031 L 170.859375 111.78125 C 170.859375 106.1875 175.421875 101.625 181.023438 101.625 Z M 235.195312 101.625 C 237.363281 101.625 239.125 99.867188 239.125 97.699219 C 239.125 95.53125 237.363281 93.777344 235.195312 93.777344 L 212.261719 93.777344 C 210.09375 93.777344 208.335938 95.53125 208.335938 97.699219 L 208.335938 137.65625 C 208.335938 139.832031 210.09375 141.582031 212.261719 141.582031 L 235.195312 141.582031 C 237.363281 141.582031 239.125 139.832031 239.125 137.65625 C 239.125 135.492188 237.363281 133.734375 235.195312 133.734375 L 216.191406 133.734375 L 216.191406 121.613281 L 224.652344 121.613281 C 226.820312 121.613281 228.582031 119.851562 228.582031 117.6875 C 228.582031 115.511719 226.820312 113.761719 224.652344 113.761719 L 216.191406 113.761719 L 216.191406 101.625 Z M 262.660156 141.59375 C 268.941406 141.582031 274.972656 136.707031 276.207031 130.5625 C 276.71875 127.996094 277.347656 119.21875 263.847656 114.019531 C 258.535156 111.972656 255.8125 109.175781 256.386719 106.34375 C 256.878906 103.847656 259.636719 101.632812 262.214844 101.632812 L 262.332031 101.632812 C 267.5 101.773438 268.585938 104.414062 268.71875 104.796875 C 269.285156 106.839844 271.367188 108.0625 273.449219 107.558594 C 275.554688 107.035156 276.84375 104.90625 276.316406 102.804688 C 275.515625 99.570312 271.714844 94.035156 262.542969 93.78125 C 255.992188 93.554688 249.929688 98.554688 248.679688 104.804688 C 248.160156 107.371094 247.539062 116.148438 261.027344 121.34375 C 266.347656 123.394531 269.066406 126.1875 268.5 129.023438 C 268.003906 131.519531 265.25 133.742188 262.671875 133.742188 C 262.628906 133.742188 262.589844 133.734375 262.554688 133.734375 C 257.296875 133.589844 256.257812 130.867188 256.1875 130.679688 C 255.671875 128.574219 253.539062 127.28125 251.433594 127.8125 C 249.328125 128.332031 248.039062 130.460938 248.570312 132.5625 C 249.359375 135.796875 253.164062 141.339844 262.339844 141.582031 C 262.449219 141.582031 262.554688 141.59375 262.660156 141.59375 Z M 297.445312 133.742188 C 297.40625 133.742188 297.363281 133.734375 297.324219 133.734375 C 292.078125 133.589844 291.035156 130.867188 290.96875 130.679688 C 290.445312 128.570312 288.304688 127.285156 286.210938 127.8125 C 284.105469 128.332031 282.816406 130.460938 283.339844 132.5625 C 284.140625 135.796875 287.945312 141.339844 297.113281 141.582031 C 297.222656 141.582031 297.335938 141.59375 297.433594 141.59375 C 303.71875 141.582031 309.753906 136.707031 310.980469 130.5625 C 311.492188 127.996094 312.121094 119.21875 298.628906 114.019531 C 293.3125 111.972656 290.589844 109.175781 291.160156 106.34375 C 291.660156 103.847656 294.417969 101.632812 296.988281 101.632812 L 297.105469 101.632812 C 302.285156 101.773438 303.367188 104.414062 303.492188 104.796875 C 304.066406 106.839844 306.15625 108.070312 308.222656 107.558594 C 310.328125 107.042969 311.617188 104.914062 311.097656 102.808594 C 310.296875 99.570312 306.496094 94.035156 297.324219 93.78125 L 296.996094 93.78125 C 290.71875 93.78125 284.683594 98.667969 283.460938 104.804688 C 282.941406 107.371094 282.3125 116.148438 295.800781 121.34375 C 301.121094 123.394531 303.847656 126.1875 303.273438 129.023438 C 302.777344 131.519531 300.019531 133.742188 297.445312 133.742188 Z M 249.1875 176.226562 L 18.644531 176.226562 L 18.644531 55.675781 L 249.1875 55.675781 C 251.359375 55.675781 253.117188 53.921875 253.117188 51.75 L 253.117188 14.140625 L 355.007812 115.953125 L 253.171875 217.707031 L 253.171875 213.695312 C 253.171875 213.5 253.140625 213.3125 253.117188 213.132812 L 253.117188 180.152344 C 253.117188 177.984375 251.359375 176.226562 249.1875 176.226562 Z M 245.316406 366.644531 L 217.691406 366.644531 L 217.691406 184.074219 L 245.261719 184.074219 L 245.261719 227.238281 C 245.261719 227.457031 245.285156 227.667969 245.316406 227.882812 Z M 209.835938 366.644531 L 120.703125 366.644531 L 120.703125 184.074219 L 209.835938 184.074219 Z M 112.847656 366.644531 L 85.222656 366.644531 L 85.222656 184.074219 L 112.847656 184.074219 Z M 362.226562 366.644531 L 253.171875 366.644531 L 253.171875 228.808594 L 363.34375 118.722656 C 364.082031 117.992188 364.492188 116.988281 364.492188 115.953125 C 364.492188 114.90625 364.082031 113.910156 363.34375 113.175781 L 251.960938 1.886719 C 250.839844 0.765625 249.15625 0.433594 247.679688 1.039062 C 246.210938 1.644531 245.261719 3.074219 245.261719 4.664062 L 245.261719 47.828125 L 14.71875 47.828125 C 12.550781 47.828125 10.789062 49.578125 10.789062 51.75 L 10.789062 180.152344 C 10.789062 182.320312 12.550781 184.074219 14.71875 184.074219 L 77.367188 184.074219 L 77.367188 366.644531 L 13.054688 366.644531 C 10.878906 366.644531 9.125 368.402344 9.125 370.570312 C 9.125 372.734375 10.878906 374.496094 13.054688 374.496094 L 362.226562 374.496094 C 364.402344 374.496094 366.15625 372.734375 366.15625 370.570312 C 366.15625 368.402344 364.402344 366.644531 362.226562 366.644531 Z M 51.273438 101.632812 L 51.394531 101.632812 C 56.5625 101.773438 57.65625 104.414062 57.78125 104.796875 C 58.347656 106.839844 60.445312 108.0625 62.511719 107.558594 C 64.621094 107.035156 65.90625 104.90625 65.386719 102.804688 C 64.585938 99.570312 60.78125 94.035156 51.613281 93.78125 L 51.285156 93.78125 C 45.003906 93.78125 38.972656 98.667969 37.738281 104.804688 C 37.226562 107.371094 36.597656 116.148438 50.085938 121.34375 C 55.410156 123.394531 58.125 126.1875 57.558594 129.023438 C 57.066406 131.519531 54.308594 133.742188 51.730469 133.742188 C 51.691406 133.742188 51.652344 133.734375 51.613281 133.734375 C 46.355469 133.589844 45.320312 130.867188 45.25 130.679688 C 44.730469 128.570312 42.59375 127.285156 40.496094 127.8125 C 38.390625 128.332031 37.101562 130.460938 37.628906 132.5625 C 38.429688 135.796875 42.222656 141.339844 51.394531 141.582031 C 51.511719 141.582031 51.613281 141.59375 51.722656 141.59375 C 58 141.582031 64.03125 136.707031 65.265625 130.5625 C 65.785156 127.996094 66.40625 119.21875 52.917969 114.019531 C 47.609375 111.972656 44.878906 109.175781 45.445312 106.34375 C 45.945312 103.847656 48.707031 101.632812 51.273438 101.632812 Z M 108.65625 93.777344 C 106.480469 93.777344 104.730469 95.53125 104.730469 97.699219 L 104.730469 123.582031 C 104.730469 129.179688 100.167969 133.734375 94.566406 133.734375 C 88.957031 133.734375 84.398438 129.179688 84.398438 123.582031 L 84.398438 97.699219 C 84.398438 95.53125 82.640625 93.777344 80.46875 93.777344 C 78.292969 93.777344 76.542969 95.53125 76.542969 97.699219 L 76.542969 123.582031 C 76.542969 133.503906 84.625 141.582031 94.566406 141.582031 C 104.496094 141.582031 112.585938 133.503906 112.585938 123.582031 L 112.585938 97.699219 C 112.585938 95.53125 110.828125 93.777344 108.65625 93.777344 Z M 137.964844 101.625 C 142.394531 101.625 146.277344 104.5 147.613281 108.777344 C 148.257812 110.839844 150.449219 111.988281 152.527344 111.351562 C 154.601562 110.699219 155.761719 108.5 155.105469 106.429688 C 152.734375 98.863281 145.851562 93.777344 137.964844 93.777344 C 128.03125 93.777344 119.949219 101.851562 119.949219 111.78125 L 119.949219 123.582031 C 119.949219 133.503906 128.03125 141.582031 137.964844 141.582031 C 145.851562 141.582031 152.734375 136.503906 155.105469 128.9375 C 155.761719 126.863281 154.601562 124.660156 152.527344 124.015625 C 150.449219 123.371094 148.257812 124.519531 147.613281 126.589844 C 146.277344 130.859375 142.394531 133.734375 137.964844 133.734375 C 132.363281 133.734375 127.804688 129.179688 127.804688 123.582031 L 127.804688 111.78125 C 127.804688 106.1875 132.363281 101.625 137.964844 101.625 Z M 181.023438 101.625 C 185.449219 101.625 189.328125 104.5 190.667969 108.777344 C 191.3125 110.839844 193.503906 111.988281 195.582031 111.351562 C 197.65625 110.699219 198.8125 108.5 198.160156 106.429688 C 195.789062 98.863281 188.90625 93.777344 181.023438 93.777344 C 171.085938 93.777344 163.003906 101.851562 163.003906 111.78125 L 163.003906 123.582031 C 163.003906 133.503906 171.085938 141.582031 181.023438 141.582031 C 188.914062 141.582031 195.792969 136.503906 198.160156 128.925781 C 198.8125 126.863281 197.65625 124.660156 195.582031 124.015625 C 193.523438 123.371094 191.3125 124.519531 190.667969 126.589844 C 189.328125 130.867188 185.457031 133.734375 181.023438 133.734375 C 175.421875 133.734375 170.859375 129.179688 170.859375 123.582031 L 170.859375 111.78125 C 170.859375 106.1875 175.421875 101.625 181.023438 101.625 Z M 235.195312 101.625 C 237.363281 101.625 239.125 99.867188 239.125 97.699219 C 239.125 95.53125 237.363281 93.777344 235.195312 93.777344 L 212.261719 93.777344 C 210.09375 93.777344 208.335938 95.53125 208.335938 97.699219 L 208.335938 137.65625 C 208.335938 139.832031 210.09375 141.582031 212.261719 141.582031 L 235.195312 141.582031 C 237.363281 141.582031 239.125 139.832031 239.125 137.65625 C 239.125 135.492188 237.363281 133.734375 235.195312 133.734375 L 216.191406 133.734375 L 216.191406 121.613281 L 224.652344 121.613281 C 226.820312 121.613281 228.582031 119.851562 228.582031 117.6875 C 228.582031 115.511719 226.820312 113.761719 224.652344 113.761719 L 216.191406 113.761719 L 216.191406 101.625 Z M 262.214844 101.632812 L 262.332031 101.632812 C 267.5 101.773438 268.585938 104.414062 268.71875 104.796875 C 269.285156 106.839844 271.367188 108.0625 273.449219 107.558594 C 275.554688 107.035156 276.84375 104.90625 276.316406 102.804688 C 275.515625 99.570312 271.714844 94.035156 262.542969 93.78125 C 255.992188 93.554688 249.929688 98.554688 248.679688 104.804688 C 248.160156 107.371094 247.539062 116.148438 261.027344 121.34375 C 266.347656 123.394531 269.066406 126.1875 268.5 129.023438 C 268.003906 131.519531 265.25 133.742188 262.671875 133.742188 C 262.628906 133.742188 262.589844 133.734375 262.554688 133.734375 C 257.296875 133.589844 256.257812 130.867188 256.1875 130.679688 C 255.671875 128.574219 253.539062 127.28125 251.433594 127.8125 C 249.328125 128.332031 248.039062 130.460938 248.570312 132.5625 C 249.359375 135.796875 253.164062 141.339844 262.339844 141.582031 C 262.449219 141.582031 262.554688 141.59375 262.660156 141.59375 C 268.941406 141.582031 274.972656 136.707031 276.207031 130.5625 C 276.71875 127.996094 277.347656 119.21875 263.847656 114.019531 C 258.535156 111.972656 255.8125 109.175781 256.386719 106.34375 C 256.878906 103.847656 259.636719 101.632812 262.214844 101.632812 Z M 298.628906 114.019531 C 293.3125 111.972656 290.589844 109.175781 291.160156 106.34375 C 291.660156 103.847656 294.417969 101.632812 296.988281 101.632812 L 297.105469 101.632812 C 302.285156 101.773438 303.367188 104.414062 303.492188 104.796875 C 304.066406 106.839844 306.15625 108.070312 308.222656 107.558594 C 310.328125 107.042969 311.617188 104.914062 311.097656 102.808594 C 310.296875 99.570312 306.496094 94.035156 297.324219 93.78125 L 296.996094 93.78125 C 290.71875 93.78125 284.683594 98.667969 283.460938 104.804688 C 282.941406 107.371094 282.3125 116.148438 295.800781 121.34375 C 301.121094 123.394531 303.847656 126.1875 303.273438 129.023438 C 302.777344 131.519531 300.019531 133.742188 297.445312 133.742188 C 297.40625 133.742188 297.363281 133.734375 297.324219 133.734375 C 292.078125 133.589844 291.035156 130.867188 290.96875 130.679688 C 290.445312 128.570312 288.304688 127.285156 286.210938 127.8125 C 284.105469 128.332031 282.816406 130.460938 283.339844 132.5625 C 284.140625 135.796875 287.945312 141.339844 297.113281 141.582031 C 297.222656 141.582031 297.335938 141.59375 297.433594 141.59375 C 303.71875 141.582031 309.753906 136.707031 310.980469 130.5625 C 311.492188 127.996094 312.121094 119.21875 298.628906 114.019531 Z M 298.628906 114.019531 C 293.3125 111.972656 290.589844 109.175781 291.160156 106.34375 C 291.660156 103.847656 294.417969 101.632812 296.988281 101.632812 L 297.105469 101.632812 C 302.285156 101.773438 303.367188 104.414062 303.492188 104.796875 C 304.066406 106.839844 306.15625 108.070312 308.222656 107.558594 C 310.328125 107.042969 311.617188 104.914062 311.097656 102.808594 C 310.296875 99.570312 306.496094 94.035156 297.324219 93.78125 L 296.996094 93.78125 C 290.71875 93.78125 284.683594 98.667969 283.460938 104.804688 C 282.941406 107.371094 282.3125 116.148438 295.800781 121.34375 C 301.121094 123.394531 303.847656 126.1875 303.273438 129.023438 C 302.777344 131.519531 300.019531 133.742188 297.445312 133.742188 C 297.40625 133.742188 297.363281 133.734375 297.324219 133.734375 C 292.078125 133.589844 291.035156 130.867188 290.96875 130.679688 C 290.445312 128.570312 288.304688 127.285156 286.210938 127.8125 C 284.105469 128.332031 282.816406 130.460938 283.339844 132.5625 C 284.140625 135.796875 287.945312 141.339844 297.113281 141.582031 C 297.222656 141.582031 297.335938 141.59375 297.433594 141.59375 C 303.71875 141.582031 309.753906 136.707031 310.980469 130.5625 C 311.492188 127.996094 312.121094 119.21875 298.628906 114.019531 Z M 263.847656 114.019531 C 258.535156 111.972656 255.8125 109.175781 256.386719 106.34375 C 256.878906 103.847656 259.636719 101.632812 262.214844 101.632812 L 262.332031 101.632812 C 267.5 101.773438 268.585938 104.414062 268.71875 104.796875 C 269.285156 106.839844 271.367188 108.0625 273.449219 107.558594 C 275.554688 107.035156 276.84375 104.90625 276.316406 102.804688 C 275.515625 99.570312 271.714844 94.035156 262.542969 93.78125 C 255.992188 93.554688 249.929688 98.554688 248.679688 104.804688 C 248.160156 107.371094 247.539062 116.148438 261.027344 121.34375 C 266.347656 123.394531 269.066406 126.1875 268.5 129.023438 C 268.003906 131.519531 265.25 133.742188 262.671875 133.742188 C 262.628906 133.742188 262.589844 133.734375 262.554688 133.734375 C 257.296875 133.589844 256.257812 130.867188 256.1875 130.679688 C 255.671875 128.574219 253.539062 127.28125 251.433594 127.8125 C 249.328125 128.332031 248.039062 130.460938 248.570312 132.5625 C 249.359375 135.796875 253.164062 141.339844 262.339844 141.582031 C 262.449219 141.582031 262.554688 141.59375 262.660156 141.59375 C 268.941406 141.582031 274.972656 136.707031 276.207031 130.5625 C 276.71875 127.996094 277.347656 119.21875 263.847656 114.019531 Z M 235.195312 133.734375 L 216.191406 133.734375 L 216.191406 121.613281 L 224.652344 121.613281 C 226.820312 121.613281 228.582031 119.851562 228.582031 117.6875 C 228.582031 115.511719 226.820312 113.761719 224.652344 113.761719 L 216.191406 113.761719 L 216.191406 101.625 L 235.195312 101.625 C 237.363281 101.625 239.125 99.867188 239.125 97.699219 C 239.125 95.53125 237.363281 93.777344 235.195312 93.777344 L 212.261719 93.777344 C 210.09375 93.777344 208.335938 95.53125 208.335938 97.699219 L 208.335938 137.65625 C 208.335938 139.832031 210.09375 141.582031 212.261719 141.582031 L 235.195312 141.582031 C 237.363281 141.582031 239.125 139.832031 239.125 137.65625 C 239.125 135.492188 237.363281 133.734375 235.195312 133.734375 Z M 195.582031 124.015625 C 193.523438 123.371094 191.3125 124.519531 190.667969 126.589844 C 189.328125 130.867188 185.457031 133.734375 181.023438 133.734375 C 175.421875 133.734375 170.859375 129.179688 170.859375 123.582031 L 170.859375 111.78125 C 170.859375 106.1875 175.421875 101.625 181.023438 101.625 C 185.449219 101.625 189.328125 104.5 190.667969 108.777344 C 191.3125 110.839844 193.503906 111.988281 195.582031 111.351562 C 197.65625 110.699219 198.8125 108.5 198.160156 106.429688 C 195.789062 98.863281 188.90625 93.777344 181.023438 93.777344 C 171.085938 93.777344 163.003906 101.851562 163.003906 111.78125 L 163.003906 123.582031 C 163.003906 133.503906 171.085938 141.582031 181.023438 141.582031 C 188.914062 141.582031 195.792969 136.503906 198.160156 128.925781 C 198.8125 126.863281 197.65625 124.660156 195.582031 124.015625 Z M 152.527344 124.015625 C 150.449219 123.371094 148.257812 124.519531 147.613281 126.589844 C 146.277344 130.859375 142.394531 133.734375 137.964844 133.734375 C 132.363281 133.734375 127.804688 129.179688 127.804688 123.582031 L 127.804688 111.78125 C 127.804688 106.1875 132.363281 101.625 137.964844 101.625 C 142.394531 101.625 146.277344 104.5 147.613281 108.777344 C 148.257812 110.839844 150.449219 111.988281 152.527344 111.351562 C 154.601562 110.699219 155.761719 108.5 155.105469 106.429688 C 152.734375 98.863281 145.851562 93.777344 137.964844 93.777344 C 128.03125 93.777344 119.949219 101.851562 119.949219 111.78125 L 119.949219 123.582031 C 119.949219 133.503906 128.03125 141.582031 137.964844 141.582031 C 145.851562 141.582031 152.734375 136.503906 155.105469 128.9375 C 155.761719 126.863281 154.601562 124.660156 152.527344 124.015625 Z M 108.65625 93.777344 C 106.480469 93.777344 104.730469 95.53125 104.730469 97.699219 L 104.730469 123.582031 C 104.730469 129.179688 100.167969 133.734375 94.566406 133.734375 C 88.957031 133.734375 84.398438 129.179688 84.398438 123.582031 L 84.398438 97.699219 C 84.398438 95.53125 82.640625 93.777344 80.46875 93.777344 C 78.292969 93.777344 76.542969 95.53125 76.542969 97.699219 L 76.542969 123.582031 C 76.542969 133.503906 84.625 141.582031 94.566406 141.582031 C 104.496094 141.582031 112.585938 133.503906 112.585938 123.582031 L 112.585938 97.699219 C 112.585938 95.53125 110.828125 93.777344 108.65625 93.777344 Z M 52.917969 114.019531 C 47.609375 111.972656 44.878906 109.175781 45.445312 106.34375 C 45.945312 103.847656 48.707031 101.632812 51.273438 101.632812 L 51.394531 101.632812 C 56.5625 101.773438 57.65625 104.414062 57.78125 104.796875 C 58.347656 106.839844 60.445312 108.0625 62.511719 107.558594 C 64.621094 107.035156 65.90625 104.90625 65.386719 102.804688 C 64.585938 99.570312 60.78125 94.035156 51.613281 93.78125 L 51.285156 93.78125 C 45.003906 93.78125 38.972656 98.667969 37.738281 104.804688 C 37.226562 107.371094 36.597656 116.148438 50.085938 121.34375 C 55.410156 123.394531 58.125 126.1875 57.558594 129.023438 C 57.066406 131.519531 54.308594 133.742188 51.730469 133.742188 C 51.691406 133.742188 51.652344 133.734375 51.613281 133.734375 C 46.355469 133.589844 45.320312 130.867188 45.25 130.679688 C 44.730469 128.570312 42.59375 127.285156 40.496094 127.8125 C 38.390625 128.332031 37.101562 130.460938 37.628906 132.5625 C 38.429688 135.796875 42.222656 141.339844 51.394531 141.582031 C 51.511719 141.582031 51.613281 141.59375 51.722656 141.59375 C 58 141.582031 64.03125 136.707031 65.265625 130.5625 C 65.785156 127.996094 66.40625 119.21875 52.917969 114.019531 Z M 52.917969 114.019531 C 47.609375 111.972656 44.878906 109.175781 45.445312 106.34375 C 45.945312 103.847656 48.707031 101.632812 51.273438 101.632812 L 51.394531 101.632812 C 56.5625 101.773438 57.65625 104.414062 57.78125 104.796875 C 58.347656 106.839844 60.445312 108.0625 62.511719 107.558594 C 64.621094 107.035156 65.90625 104.90625 65.386719 102.804688 C 64.585938 99.570312 60.78125 94.035156 51.613281 93.78125 L 51.285156 93.78125 C 45.003906 93.78125 38.972656 98.667969 37.738281 104.804688 C 37.226562 107.371094 36.597656 116.148438 50.085938 121.34375 C 55.410156 123.394531 58.125 126.1875 57.558594 129.023438 C 57.066406 131.519531 54.308594 133.742188 51.730469 133.742188 C 51.691406 133.742188 51.652344 133.734375 51.613281 133.734375 C 46.355469 133.589844 45.320312 130.867188 45.25 130.679688 C 44.730469 128.570312 42.59375 127.285156 40.496094 127.8125 C 38.390625 128.332031 37.101562 130.460938 37.628906 132.5625 C 38.429688 135.796875 42.222656 141.339844 51.394531 141.582031 C 51.511719 141.582031 51.613281 141.59375 51.722656 141.59375 C 58 141.582031 64.03125 136.707031 65.265625 130.5625 C 65.785156 127.996094 66.40625 119.21875 52.917969 114.019531 Z M 108.65625 93.777344 C 106.480469 93.777344 104.730469 95.53125 104.730469 97.699219 L 104.730469 123.582031 C 104.730469 129.179688 100.167969 133.734375 94.566406 133.734375 C 88.957031 133.734375 84.398438 129.179688 84.398438 123.582031 L 84.398438 97.699219 C 84.398438 95.53125 82.640625 93.777344 80.46875 93.777344 C 78.292969 93.777344 76.542969 95.53125 76.542969 97.699219 L 76.542969 123.582031 C 76.542969 133.503906 84.625 141.582031 94.566406 141.582031 C 104.496094 141.582031 112.585938 133.503906 112.585938 123.582031 L 112.585938 97.699219 C 112.585938 95.53125 110.828125 93.777344 108.65625 93.777344 Z M 152.527344 124.015625 C 150.449219 123.371094 148.257812 124.519531 147.613281 126.589844 C 146.277344 130.859375 142.394531 133.734375 137.964844 133.734375 C 132.363281 133.734375 127.804688 129.179688 127.804688 123.582031 L 127.804688 111.78125 C 127.804688 106.1875 132.363281 101.625 137.964844 101.625 C 142.394531 101.625 146.277344 104.5 147.613281 108.777344 C 148.257812 110.839844 150.449219 111.988281 152.527344 111.351562 C 154.601562 110.699219 155.761719 108.5 155.105469 106.429688 C 152.734375 98.863281 145.851562 93.777344 137.964844 93.777344 C 128.03125 93.777344 119.949219 101.851562 119.949219 111.78125 L 119.949219 123.582031 C 119.949219 133.503906 128.03125 141.582031 137.964844 141.582031 C 145.851562 141.582031 152.734375 136.503906 155.105469 128.9375 C 155.761719 126.863281 154.601562 124.660156 152.527344 124.015625 Z M 195.582031 124.015625 C 193.523438 123.371094 191.3125 124.519531 190.667969 126.589844 C 189.328125 130.867188 185.457031 133.734375 181.023438 133.734375 C 175.421875 133.734375 170.859375 129.179688 170.859375 123.582031 L 170.859375 111.78125 C 170.859375 106.1875 175.421875 101.625 181.023438 101.625 C 185.449219 101.625 189.328125 104.5 190.667969 108.777344 C 191.3125 110.839844 193.503906 111.988281 195.582031 111.351562 C 197.65625 110.699219 198.8125 108.5 198.160156 106.429688 C 195.789062 98.863281 188.90625 93.777344 181.023438 93.777344 C 171.085938 93.777344 163.003906 101.851562 163.003906 111.78125 L 163.003906 123.582031 C 163.003906 133.503906 171.085938 141.582031 181.023438 141.582031 C 188.914062 141.582031 195.792969 136.503906 198.160156 128.925781 C 198.8125 126.863281 197.65625 124.660156 195.582031 124.015625 Z M 235.195312 133.734375 L 216.191406 133.734375 L 216.191406 121.613281 L 224.652344 121.613281 C 226.820312 121.613281 228.582031 119.851562 228.582031 117.6875 C 228.582031 115.511719 226.820312 113.761719 224.652344 113.761719 L 216.191406 113.761719 L 216.191406 101.625 L 235.195312 101.625 C 237.363281 101.625 239.125 99.867188 239.125 97.699219 C 239.125 95.53125 237.363281 93.777344 235.195312 93.777344 L 212.261719 93.777344 C 210.09375 93.777344 208.335938 95.53125 208.335938 97.699219 L 208.335938 137.65625 C 208.335938 139.832031 210.09375 141.582031 212.261719 141.582031 L 235.195312 141.582031 C 237.363281 141.582031 239.125 139.832031 239.125 137.65625 C 239.125 135.492188 237.363281 133.734375 235.195312 133.734375 Z M 263.847656 114.019531 C 258.535156 111.972656 255.8125 109.175781 256.386719 106.34375 C 256.878906 103.847656 259.636719 101.632812 262.214844 101.632812 L 262.332031 101.632812 C 267.5 101.773438 268.585938 104.414062 268.71875 104.796875 C 269.285156 106.839844 271.367188 108.0625 273.449219 107.558594 C 275.554688 107.035156 276.84375 104.90625 276.316406 102.804688 C 275.515625 99.570312 271.714844 94.035156 262.542969 93.78125 C 255.992188 93.554688 249.929688 98.554688 248.679688 104.804688 C 248.160156 107.371094 247.539062 116.148438 261.027344 121.34375 C 266.347656 123.394531 269.066406 126.1875 268.5 129.023438 C 268.003906 131.519531 265.25 133.742188 262.671875 133.742188 C 262.628906 133.742188 262.589844 133.734375 262.554688 133.734375 C 257.296875 133.589844 256.257812 130.867188 256.1875 130.679688 C 255.671875 128.574219 253.539062 127.28125 251.433594 127.8125 C 249.328125 128.332031 248.039062 130.460938 248.570312 132.5625 C 249.359375 135.796875 253.164062 141.339844 262.339844 141.582031 C 262.449219 141.582031 262.554688 141.59375 262.660156 141.59375 C 268.941406 141.582031 274.972656 136.707031 276.207031 130.5625 C 276.71875 127.996094 277.347656 119.21875 263.847656 114.019531 Z M 298.628906 114.019531 C 293.3125 111.972656 290.589844 109.175781 291.160156 106.34375 C 291.660156 103.847656 294.417969 101.632812 296.988281 101.632812 L 297.105469 101.632812 C 302.285156 101.773438 303.367188 104.414062 303.492188 104.796875 C 304.066406 106.839844 306.15625 108.070312 308.222656 107.558594 C 310.328125 107.042969 311.617188 104.914062 311.097656 102.808594 C 310.296875 99.570312 306.496094 94.035156 297.324219 93.78125 L 296.996094 93.78125 C 290.71875 93.78125 284.683594 98.667969 283.460938 104.804688 C 282.941406 107.371094 282.3125 116.148438 295.800781 121.34375 C 301.121094 123.394531 303.847656 126.1875 303.273438 129.023438 C 302.777344 131.519531 300.019531 133.742188 297.445312 133.742188 C 297.40625 133.742188 297.363281 133.734375 297.324219 133.734375 C 292.078125 133.589844 291.035156 130.867188 290.96875 130.679688 C 290.445312 128.570312 288.304688 127.285156 286.210938 127.8125 C 284.105469 128.332031 282.816406 130.460938 283.339844 132.5625 C 284.140625 135.796875 287.945312 141.339844 297.113281 141.582031 C 297.222656 141.582031 297.335938 141.59375 297.433594 141.59375 C 303.71875 141.582031 309.753906 136.707031 310.980469 130.5625 C 311.492188 127.996094 312.121094 119.21875 298.628906 114.019531 Z M 235.195312 133.734375 L 216.191406 133.734375 L 216.191406 121.613281 L 224.652344 121.613281 C 226.820312 121.613281 228.582031 119.851562 228.582031 117.6875 C 228.582031 115.511719 226.820312 113.761719 224.652344 113.761719 L 216.191406 113.761719 L 216.191406 101.625 L 235.195312 101.625 C 237.363281 101.625 239.125 99.867188 239.125 97.699219 C 239.125 95.53125 237.363281 93.777344 235.195312 93.777344 L 212.261719 93.777344 C 210.09375 93.777344 208.335938 95.53125 208.335938 97.699219 L 208.335938 137.65625 C 208.335938 139.832031 210.09375 141.582031 212.261719 141.582031 L 235.195312 141.582031 C 237.363281 141.582031 239.125 139.832031 239.125 137.65625 C 239.125 135.492188 237.363281 133.734375 235.195312 133.734375 Z M 108.65625 93.777344 C 106.480469 93.777344 104.730469 95.53125 104.730469 97.699219 L 104.730469 123.582031 C 104.730469 129.179688 100.167969 133.734375 94.566406 133.734375 C 88.957031 133.734375 84.398438 129.179688 84.398438 123.582031 L 84.398438 97.699219 C 84.398438 95.53125 82.640625 93.777344 80.46875 93.777344 C 78.292969 93.777344 76.542969 95.53125 76.542969 97.699219 L 76.542969 123.582031 C 76.542969 133.503906 84.625 141.582031 94.566406 141.582031 C 104.496094 141.582031 112.585938 133.503906 112.585938 123.582031 L 112.585938 97.699219 C 112.585938 95.53125 110.828125 93.777344 108.65625 93.777344 Z M 152.527344 124.015625 C 150.449219 123.371094 148.257812 124.519531 147.613281 126.589844 C 146.277344 130.859375 142.394531 133.734375 137.964844 133.734375 C 132.363281 133.734375 127.804688 129.179688 127.804688 123.582031 L 127.804688 111.78125 C 127.804688 106.1875 132.363281 101.625 137.964844 101.625 C 142.394531 101.625 146.277344 104.5 147.613281 108.777344 C 148.257812 110.839844 150.449219 111.988281 152.527344 111.351562 C 154.601562 110.699219 155.761719 108.5 155.105469 106.429688 C 152.734375 98.863281 145.851562 93.777344 137.964844 93.777344 C 128.03125 93.777344 119.949219 101.851562 119.949219 111.78125 L 119.949219 123.582031 C 119.949219 133.503906 128.03125 141.582031 137.964844 141.582031 C 145.851562 141.582031 152.734375 136.503906 155.105469 128.9375 C 155.761719 126.863281 154.601562 124.660156 152.527344 124.015625 Z M 195.582031 124.015625 C 193.523438 123.371094 191.3125 124.519531 190.667969 126.589844 C 189.328125 130.867188 185.457031 133.734375 181.023438 133.734375 C 175.421875 133.734375 170.859375 129.179688 170.859375 123.582031 L 170.859375 111.78125 C 170.859375 106.1875 175.421875 101.625 181.023438 101.625 C 185.449219 101.625 189.328125 104.5 190.667969 108.777344 C 191.3125 110.839844 193.503906 111.988281 195.582031 111.351562 C 197.65625 110.699219 198.8125 108.5 198.160156 106.429688 C 195.789062 98.863281 188.90625 93.777344 181.023438 93.777344 C 171.085938 93.777344 163.003906 101.851562 163.003906 111.78125 L 163.003906 123.582031 C 163.003906 133.503906 171.085938 141.582031 181.023438 141.582031 C 188.914062 141.582031 195.792969 136.503906 198.160156 128.925781 C 198.8125 126.863281 197.65625 124.660156 195.582031 124.015625 Z M 52.917969 114.019531 C 47.609375 111.972656 44.878906 109.175781 45.445312 106.34375 C 45.945312 103.847656 48.707031 101.632812 51.273438 101.632812 L 51.394531 101.632812 C 56.5625 101.773438 57.65625 104.414062 57.78125 104.796875 C 58.347656 106.839844 60.445312 108.0625 62.511719 107.558594 C 64.621094 107.035156 65.90625 104.90625 65.386719 102.804688 C 64.585938 99.570312 60.78125 94.035156 51.613281 93.78125 L 51.285156 93.78125 C 45.003906 93.78125 38.972656 98.667969 37.738281 104.804688 C 37.226562 107.371094 36.597656 116.148438 50.085938 121.34375 C 55.410156 123.394531 58.125 126.1875 57.558594 129.023438 C 57.066406 131.519531 54.308594 133.742188 51.730469 133.742188 C 51.691406 133.742188 51.652344 133.734375 51.613281 133.734375 C 46.355469 133.589844 45.320312 130.867188 45.25 130.679688 C 44.730469 128.570312 42.59375 127.285156 40.496094 127.8125 C 38.390625 128.332031 37.101562 130.460938 37.628906 132.5625 C 38.429688 135.796875 42.222656 141.339844 51.394531 141.582031 C 51.511719 141.582031 51.613281 141.59375 51.722656 141.59375 C 58 141.582031 64.03125 136.707031 65.265625 130.5625 C 65.785156 127.996094 66.40625 119.21875 52.917969 114.019531 Z M 263.847656 114.019531 C 258.535156 111.972656 255.8125 109.175781 256.386719 106.34375 C 256.878906 103.847656 259.636719 101.632812 262.214844 101.632812 L 262.332031 101.632812 C 267.5 101.773438 268.585938 104.414062 268.71875 104.796875 C 269.285156 106.839844 271.367188 108.0625 273.449219 107.558594 C 275.554688 107.035156 276.84375 104.90625 276.316406 102.804688 C 275.515625 99.570312 271.714844 94.035156 262.542969 93.78125 C 255.992188 93.554688 249.929688 98.554688 248.679688 104.804688 C 248.160156 107.371094 247.539062 116.148438 261.027344 121.34375 C 266.347656 123.394531 269.066406 126.1875 268.5 129.023438 C 268.003906 131.519531 265.25 133.742188 262.671875 133.742188 C 262.628906 133.742188 262.589844 133.734375 262.554688 133.734375 C 257.296875 133.589844 256.257812 130.867188 256.1875 130.679688 C 255.671875 128.574219 253.539062 127.28125 251.433594 127.8125 C 249.328125 128.332031 248.039062 130.460938 248.570312 132.5625 C 249.359375 135.796875 253.164062 141.339844 262.339844 141.582031 C 262.449219 141.582031 262.554688 141.59375 262.660156 141.59375 C 268.941406 141.582031 274.972656 136.707031 276.207031 130.5625 C 276.71875 127.996094 277.347656 119.21875 263.847656 114.019531 Z M 298.628906 114.019531 C 293.3125 111.972656 290.589844 109.175781 291.160156 106.34375 C 291.660156 103.847656 294.417969 101.632812 296.988281 101.632812 L 297.105469 101.632812 C 302.285156 101.773438 303.367188 104.414062 303.492188 104.796875 C 304.066406 106.839844 306.15625 108.070312 308.222656 107.558594 C 310.328125 107.042969 311.617188 104.914062 311.097656 102.808594 C 310.296875 99.570312 306.496094 94.035156 297.324219 93.78125 L 296.996094 93.78125 C 290.71875 93.78125 284.683594 98.667969 283.460938 104.804688 C 282.941406 107.371094 282.3125 116.148438 295.800781 121.34375 C 301.121094 123.394531 303.847656 126.1875 303.273438 129.023438 C 302.777344 131.519531 300.019531 133.742188 297.445312 133.742188 C 297.40625 133.742188 297.363281 133.734375 297.324219 133.734375 C 292.078125 133.589844 291.035156 130.867188 290.96875 130.679688 C 290.445312 128.570312 288.304688 127.285156 286.210938 127.8125 C 284.105469 128.332031 282.816406 130.460938 283.339844 132.5625 C 284.140625 135.796875 287.945312 141.339844 297.113281 141.582031 C 297.222656 141.582031 297.335938 141.59375 297.433594 141.59375 C 303.71875 141.582031 309.753906 136.707031 310.980469 130.5625 C 311.492188 127.996094 312.121094 119.21875 298.628906 114.019531 " fill-opacity="1" fill-rule="nonzero"/></g><path fill="#35ccbe" d="M 248.570312 132.5625 C 248.039062 130.460938 249.328125 128.332031 251.433594 127.8125 C 253.539062 127.28125 255.671875 128.574219 256.1875 130.679688 C 256.257812 130.867188 257.296875 133.589844 262.554688 133.734375 C 262.589844 133.734375 262.628906 133.742188 262.671875 133.742188 C 265.25 133.742188 268.003906 131.519531 268.5 129.023438 C 269.066406 126.1875 266.347656 123.394531 261.027344 121.34375 C 247.539062 116.148438 248.160156 107.371094 248.679688 104.804688 C 249.929688 98.554688 255.992188 93.554688 262.542969 93.78125 C 271.714844 94.035156 275.515625 99.570312 276.316406 102.804688 C 276.84375 104.90625 275.554688 107.035156 273.449219 107.558594 C 271.367188 108.0625 269.285156 106.839844 268.71875 104.796875 C 268.585938 104.414062 267.5 101.773438 262.332031 101.632812 L 262.214844 101.632812 C 259.636719 101.632812 256.878906 103.847656 256.386719 106.34375 C 255.8125 109.175781 258.535156 111.972656 263.847656 114.019531 C 277.347656 119.21875 276.71875 127.996094 276.207031 130.5625 C 274.972656 136.707031 268.941406 141.582031 262.660156 141.59375 C 262.554688 141.59375 262.449219 141.582031 262.339844 141.582031 C 253.164062 141.339844 249.359375 135.796875 248.570312 132.5625 Z M 224.652344 113.761719 C 226.820312 113.761719 228.582031 115.511719 228.582031 117.6875 C 228.582031 119.851562 226.820312 121.613281 224.652344 121.613281 L 216.191406 121.613281 L 216.191406 133.734375 L 235.195312 133.734375 C 237.363281 133.734375 239.125 135.492188 239.125 137.65625 C 239.125 139.832031 237.363281 141.582031 235.195312 141.582031 L 212.261719 141.582031 C 210.09375 141.582031 208.335938 139.832031 208.335938 137.65625 L 208.335938 97.699219 C 208.335938 95.53125 210.09375 93.777344 212.261719 93.777344 L 235.195312 93.777344 C 237.363281 93.777344 239.125 95.53125 239.125 97.699219 C 239.125 99.867188 237.363281 101.625 235.195312 101.625 L 216.191406 101.625 L 216.191406 113.761719 Z M 181.023438 133.734375 C 185.457031 133.734375 189.328125 130.867188 190.667969 126.589844 C 191.3125 124.519531 193.523438 123.371094 195.582031 124.015625 C 197.65625 124.660156 198.8125 126.863281 198.160156 128.925781 C 195.792969 136.503906 188.914062 141.582031 181.023438 141.582031 C 171.085938 141.582031 163.003906 133.503906 163.003906 123.582031 L 163.003906 111.78125 C 163.003906 101.851562 171.085938 93.777344 181.023438 93.777344 C 188.90625 93.777344 195.789062 98.863281 198.160156 106.429688 C 198.8125 108.5 197.65625 110.699219 195.582031 111.351562 C 193.503906 111.988281 191.3125 110.839844 190.667969 108.777344 C 189.328125 104.5 185.449219 101.625 181.023438 101.625 C 175.421875 101.625 170.859375 106.1875 170.859375 111.78125 L 170.859375 123.582031 C 170.859375 129.179688 175.421875 133.734375 181.023438 133.734375 Z M 137.964844 133.734375 C 142.394531 133.734375 146.277344 130.859375 147.613281 126.589844 C 148.257812 124.519531 150.449219 123.371094 152.527344 124.015625 C 154.601562 124.660156 155.761719 126.863281 155.105469 128.9375 C 152.734375 136.503906 145.851562 141.582031 137.964844 141.582031 C 128.03125 141.582031 119.949219 133.503906 119.949219 123.582031 L 119.949219 111.78125 C 119.949219 101.851562 128.03125 93.777344 137.964844 93.777344 C 145.851562 93.777344 152.734375 98.863281 155.105469 106.429688 C 155.761719 108.5 154.601562 110.699219 152.527344 111.351562 C 150.449219 111.988281 148.257812 110.839844 147.613281 108.777344 C 146.277344 104.5 142.394531 101.625 137.964844 101.625 C 132.363281 101.625 127.804688 106.1875 127.804688 111.78125 L 127.804688 123.582031 C 127.804688 129.179688 132.363281 133.734375 137.964844 133.734375 Z M 112.585938 123.582031 C 112.585938 133.503906 104.496094 141.582031 94.566406 141.582031 C 84.625 141.582031 76.542969 133.503906 76.542969 123.582031 L 76.542969 97.699219 C 76.542969 95.53125 78.292969 93.777344 80.46875 93.777344 C 82.640625 93.777344 84.398438 95.53125 84.398438 97.699219 L 84.398438 123.582031 C 84.398438 129.179688 88.957031 133.734375 94.566406 133.734375 C 100.167969 133.734375 104.730469 129.179688 104.730469 123.582031 L 104.730469 97.699219 C 104.730469 95.53125 106.480469 93.777344 108.65625 93.777344 C 110.828125 93.777344 112.585938 95.53125 112.585938 97.699219 Z M 52.917969 114.019531 C 66.40625 119.21875 65.785156 127.996094 65.265625 130.5625 C 64.03125 136.707031 58 141.582031 51.722656 141.59375 C 51.613281 141.59375 51.511719 141.582031 51.394531 141.582031 C 42.222656 141.339844 38.429688 135.796875 37.628906 132.5625 C 37.101562 130.460938 38.390625 128.332031 40.496094 127.8125 C 42.59375 127.285156 44.730469 128.570312 45.25 130.679688 C 45.320312 130.867188 46.355469 133.589844 51.613281 133.734375 C 51.652344 133.734375 51.691406 133.742188 51.730469 133.742188 C 54.308594 133.742188 57.066406 131.519531 57.558594 129.023438 C 58.125 126.1875 55.410156 123.394531 50.085938 121.34375 C 36.597656 116.148438 37.226562 107.371094 37.738281 104.804688 C 38.972656 98.667969 45.003906 93.78125 51.285156 93.78125 L 51.613281 93.78125 C 60.78125 94.035156 64.585938 99.570312 65.386719 102.804688 C 65.90625 104.90625 64.621094 107.035156 62.511719 107.558594 C 60.445312 108.0625 58.347656 106.839844 57.78125 104.796875 C 57.65625 104.414062 56.5625 101.773438 51.394531 101.632812 L 51.273438 101.632812 C 48.707031 101.632812 45.945312 103.847656 45.445312 106.34375 C 44.878906 109.175781 47.609375 111.972656 52.917969 114.019531 Z M 295.800781 121.34375 C 282.3125 116.148438 282.941406 107.371094 283.460938 104.804688 C 284.683594 98.667969 290.71875 93.78125 296.996094 93.78125 L 297.324219 93.78125 C 306.496094 94.035156 310.296875 99.570312 311.097656 102.808594 C 311.617188 104.914062 310.328125 107.042969 308.222656 107.558594 C 306.15625 108.070312 304.066406 106.839844 303.492188 104.796875 C 303.367188 104.414062 302.285156 101.773438 297.105469 101.632812 L 296.988281 101.632812 C 294.417969 101.632812 291.660156 103.847656 291.160156 106.34375 C 290.589844 109.175781 293.3125 111.972656 298.628906 114.019531 C 312.121094 119.21875 311.492188 127.996094 310.980469 130.5625 C 309.753906 136.707031 303.71875 141.582031 297.433594 141.59375 C 297.335938 141.59375 297.222656 141.582031 297.113281 141.582031 C 287.945312 141.339844 284.140625 135.796875 283.339844 132.5625 C 282.816406 130.460938 284.105469 128.332031 286.210938 127.8125 C 288.304688 127.285156 290.445312 128.570312 290.96875 130.679688 C 291.035156 130.867188 292.078125 133.589844 297.324219 133.734375 C 297.363281 133.734375 297.40625 133.742188 297.445312 133.742188 C 300.019531 133.742188 302.777344 131.519531 303.273438 129.023438 C 303.847656 126.1875 301.121094 123.394531 295.800781 121.34375 Z M 355.007812 115.953125 L 253.117188 14.140625 L 253.117188 51.75 C 253.117188 53.921875 251.359375 55.675781 249.1875 55.675781 L 18.644531 55.675781 L 18.644531 176.226562 L 249.1875 176.226562 C 251.359375 176.226562 253.117188 177.984375 253.117188 180.152344 L 253.117188 213.132812 C 253.140625 213.3125 253.171875 213.5 253.171875 213.695312 L 253.171875 217.707031 L 355.007812 115.953125 " fill-opacity="1" fill-rule="nonzero"/><path fill="#3c7782" d="M 245.261719 227.238281 L 245.261719 184.074219 L 217.691406 184.074219 L 217.691406 366.644531 L 245.316406 366.644531 L 245.316406 227.882812 C 245.285156 227.667969 245.261719 227.457031 245.261719 227.238281 Z M 112.847656 184.074219 L 112.847656 366.644531 L 85.222656 366.644531 L 85.222656 184.074219 L 112.847656 184.074219 " fill-opacity="1" fill-rule="nonzero"/></svg>