<svg width="444.00001220703126px" height="123.29999389648437px" xmlns="http://www.w3.org/2000/svg" viewBox="27.99999389648437 13.350003051757817 444.00001220703126 123.29999389648437" style="background: rgba(0, 0, 0, 0) none repeat scroll 0% 0%;" preserveAspectRatio="xMidYMid"><defs><linearGradient id="editing-shadow-gradient1" x1="0" x2="0" y1="0" y2="1"><stop offset="0" stop-color="#000000" stop-opacity="0"></stop><stop offset="0.2" stop-color="#000000" stop-opacity="0"></stop><stop offset="1" stop-color="#000000" stop-opacity="1"></stop></linearGradient><linearGradient id="editing-shadow-gradient2" x1="1.4975640502598242" x2="-0.4975640502598242" y1="0.4302435262558745" y2="0.5697564737441255"><stop offset="0" stop-color="#ffffff"></stop><stop offset="1" stop-color="#20c997"></stop></linearGradient><filter id="editing-shadow" x="-100%" y="-100%" width="300%" height="300%"><feGaussianBlur stdDeviation="2.5"></feGaussianBlur><feComposite operator="in" in2="SourceGraphic"></feComposite><feGaussianBlur stdDeviation="1.25"></feGaussianBlur></filter></defs><g transform="translate(250,75)"><g transform="translate(-20.4, -1.2)"><g transform="skewX(45)"><g filter="url(#editing-shadow)"><g transform="translate(-116.7681405544281, 24)"><path d="M0.26-3.07L0.26-3.07L8.19-44.80L21.18-46.08L19.20-36.29L19.20-36.29Q18.50-33.28 17.60-31.17L17.60-31.17L17.60-31.17Q19.01-32.96 22.08-33.66L22.08-33.66L22.08-33.66Q22.98-33.92 24.06-33.92L24.06-33.92L24.06-33.92Q30.02-33.92 33.28-30.30L33.28-30.30L33.28-30.30Q36.54-26.69 36.54-19.71L36.54-19.71L36.54-19.71Q36.54-10.62 31.36-4.93L31.36-4.93L31.36-4.93Q25.79 1.28 15.68 1.28L15.68 1.28L15.68 1.28Q8.70 1.28 3.46-1.02L3.46-1.02L3.46-1.02Q1.60-1.86 0.26-3.07ZM16.51-22.40L13.12-3.65L13.12-3.65Q14.46-2.50 16.13-2.50L16.13-2.50L16.13-2.50Q17.79-2.50 18.75-3.14L18.75-3.14L18.75-3.14Q19.71-3.78 20.42-5.06L20.42-5.06L20.42-5.06Q22.34-8.51 23.87-19.07L23.87-19.07L23.87-19.07Q24.32-22.08 24.32-25.09L24.32-25.09L24.32-25.09Q24.32-28.10 23.65-29.06L23.65-29.06L23.65-29.06Q22.98-30.02 21.70-30.02L21.70-30.02L21.70-30.02Q17.79-30.02 16.51-22.40L16.51-22.40ZM43.17-1.92L43.17-1.92L43.17-1.92Q41.66-3.58 40.99-6.21L40.99-6.21L40.99-6.21Q40.32-8.83 40.32-13.12L40.32-13.12L40.32-13.12Q40.32-17.41 41.79-21.31L41.79-21.31L41.79-21.31Q43.26-25.22 45.95-28.03L45.95-28.03L45.95-28.03Q51.46-33.92 60.54-33.92L60.54-33.92L60.54-33.92Q63.81-33.92 66.18-32.83L66.18-32.83L77.12-33.92L72.38-8.96L72.38-8.96Q72.19-8.19 72.19-6.78L72.19-6.78L72.19-6.78Q72.19-5.38 73.06-4.48L73.06-4.48L73.06-4.48Q73.92-3.58 75.20-3.46L75.20-3.46L75.20-3.46Q74.56-1.28 72.22 0L72.22 0L72.22 0Q69.89 1.28 67.26 1.28L67.26 1.28L67.26 1.28Q64.64 1.28 62.88 0.29L62.88 0.29L62.88 0.29Q61.12-0.70 60.61-2.37L60.61-2.37L60.61-2.37Q59.58-0.77 57.41 0.26L57.41 0.26L57.41 0.26Q55.23 1.28 52.32 1.28L52.32 1.28L52.32 1.28Q49.41 1.28 47.04 0.51L47.04 0.51L47.04 0.51Q44.67-0.26 43.17-1.92ZM56.67-27.90L56.67-27.90L56.67-27.90Q55.94-26.75 55.30-24.80L55.30-24.80L55.30-24.80Q54.66-22.85 53.60-17.63L53.60-17.63L53.60-17.63Q52.54-12.42 52.54-8.70L52.54-8.70L52.54-8.70Q52.54-4.99 53.12-3.90L53.12-3.90L53.12-3.90Q53.70-2.82 54.72-2.82L54.72-2.82L54.72-2.82Q56.77-2.82 58.27-4.77L58.27-4.77L58.27-4.77Q59.78-6.72 60.35-10.18L60.35-10.18L63.74-28.93L63.74-28.93Q62.40-30.08 60.83-30.08L60.83-30.08L60.83-30.08Q59.26-30.08 58.34-29.57L58.34-29.57L58.34-29.57Q57.41-29.06 56.67-27.90ZM107.65 1.28L107.65 1.28L107.65 1.28Q99.90 1.28 99.90-4.74L99.90-4.74L99.90-4.74Q99.97-6.40 100.48-9.22L100.48-9.22L101.63-15.10L101.63-15.10Q103.36-23.42 103.36-25.28L103.36-25.28L103.36-25.28Q103.36-28.99 101.18-28.99L101.18-28.99L101.18-28.99Q97.54-28.99 95.62-19.46L95.62-19.46L91.84 0L78.98 1.28L85.63-32.70L96.13-33.92L95.10-27.65L95.10-27.65Q98.11-33.92 107.33-33.92L107.33-33.92L107.33-33.92Q111.81-33.92 113.70-32.03L113.70-32.03L113.70-32.03Q115.58-30.14 115.58-25.92L115.58-25.92L115.58-25.92Q115.58-21.95 113.54-12.67L113.54-12.67L113.54-12.67Q112.58-8.51 112.58-6.94L112.58-6.94L112.58-6.94Q112.58-5.38 113.44-4.48L113.44-4.48L113.44-4.48Q114.30-3.58 115.58-3.46L115.58-3.46L115.58-3.46Q114.94-1.28 112.74 0L112.74 0L112.74 0Q110.53 1.28 107.65 1.28ZM137.22-30.34L137.22-30.34L137.22-30.34Q140.67-33.92 147.97-33.92L147.97-33.92L147.97-33.92Q152-33.92 154.21-31.78L154.21-31.78L154.21-31.78Q156.42-29.63 156.42-25.70L156.42-25.70L156.42-25.70Q156.42-21.76 154.21-18.98L154.21-18.98L154.21-18.98Q152-16.19 147.90-15.04L147.90-15.04L147.90-15.04Q148.22-13.76 148.67-12.42L148.67-12.42L149.57-9.86L149.57-9.86Q150.78-6.59 151.74-5.44L151.74-5.44L151.74-5.44Q152.70-4.29 153.98-3.90L153.98-3.90L153.98-3.90Q153.28-1.28 150.72 0.13L150.72 0.13L150.72 0.13Q148.67 1.28 145.86 1.28L145.86 1.28L145.86 1.28Q137.60 1.28 136.51-11.46L136.51-11.46L136.51-11.46Q136.32-13.25 136.32-15.04L136.32-15.04L136.32-15.04Q139.52-15.94 141.76-18.94L141.76-18.94L141.76-18.94Q144-21.95 144-25.47L144-25.47L144-25.47Q144-28.99 141.50-28.99L141.50-28.99L141.50-28.99Q139.71-28.99 138.30-27.01L138.30-27.01L138.30-27.01Q136.90-25.02 136.26-21.63L136.26-21.63L132.03 0L119.10 1.28L128.06-44.80L140.93-46.08L139.46-38.46L139.46-38.46Q138.50-33.09 137.22-30.34ZM174.72-3.52L174.72-3.52L174.72-3.52Q172.74 1.28 166.40 1.28L166.40 1.28L166.40 1.28Q163.14 1.28 161.09-0.96L161.09-0.96L161.09-0.96Q159.36-2.94 159.36-4.93L159.36-4.93L159.36-4.93Q159.36-10.11 161.73-20.22L161.73-20.22L164.10-32.64L177.09-33.92L173.18-13.70L173.18-13.70Q172.10-8.96 172.10-7.30L172.10-7.30L172.10-7.30Q172.10-3.65 174.72-3.52ZM165.25-41.54L165.25-41.54L165.25-41.54Q165.25-44.03 167.33-45.38L167.33-45.38L167.33-45.38Q169.41-46.72 172.42-46.72L172.42-46.72L172.42-46.72Q175.42-46.72 177.25-45.38L177.25-45.38L177.25-45.38Q179.07-44.03 179.07-41.54L179.07-41.54L179.07-41.54Q179.07-39.04 177.06-37.76L177.06-37.76L177.06-37.76Q175.04-36.48 172.03-36.48L172.03-36.48L172.03-36.48Q169.02-36.48 167.14-37.76L167.14-37.76L167.14-37.76Q165.25-39.04 165.25-41.54ZM199.30-22.46L199.30-22.46L199.30-22.46Q200.19-24.83 200.19-26.88L200.19-26.88L200.19-26.88Q200.19-30.66 197.12-30.66L197.12-30.66L197.12-30.66Q195.52-30.66 194.21-29.22L194.21-29.22L194.21-29.22Q192.90-27.78 192.90-25.98L192.90-25.98L192.90-25.98Q192.90-24.70 193.92-23.68L193.92-23.68L193.92-23.68Q195.39-22.27 199.17-19.97L199.17-19.97L199.17-19.97Q202.94-17.66 204.38-15.78L204.38-15.78L204.38-15.78Q205.82-13.89 205.82-11.30L205.82-11.30L205.82-11.30Q205.82-8.70 204.58-6.34L204.58-6.34L204.58-6.34Q203.33-3.97 201.09-2.30L201.09-2.30L201.09-2.30Q196.29 1.28 188.61 1.28L188.61 1.28L188.61 1.28Q184.45 1.28 181.25-0.90L181.25-0.90L181.25-0.90Q178.05-3.01 178.05-5.50L178.05-5.50L178.05-5.50Q178.05-8 179.87-9.47L179.87-9.47L179.87-9.47Q181.70-10.94 184.38-10.94L184.38-10.94L184.38-10.94Q187.07-10.94 188.74-9.92L188.74-9.92L188.74-9.92Q187.90-7.81 187.90-6.40L187.90-6.40L187.90-6.40Q187.90-2.18 191.49-2.18L191.49-2.18L191.49-2.18Q193.02-2.18 194.05-3.14L194.05-3.14L194.05-3.14Q195.07-4.10 195.07-5.76L195.07-5.76L195.07-5.76Q195.07-9.02 189.57-12.48L189.57-12.48L189.57-12.48Q185.09-15.42 184.06-16.58L184.06-16.58L184.06-16.58Q182.34-18.62 182.34-21.18L182.34-21.18L182.34-21.18Q182.34-23.74 183.55-26.18L183.55-26.18L183.55-26.18Q184.77-28.61 187.01-30.34L187.01-30.34L187.01-30.34Q191.68-33.92 199.81-33.92L199.81-33.92L199.81-33.92Q203.97-33.92 206.43-32.26L206.43-32.26L206.43-32.26Q208.90-30.59 208.90-27.78L208.90-27.78L208.90-27.78Q208.90-24.96 207.20-23.36L207.20-23.36L207.20-23.36Q205.50-21.76 202.43-21.76L202.43-21.76L202.43-21.76Q200.32-21.76 199.30-22.46ZM212.29-6.40L212.29-6.40L212.29-6.40Q212.29-8.13 213.18-12.48L213.18-12.48L216.58-29.76L212.80-29.76L213.06-31.68L213.06-31.68Q220.74-33.98 228.16-39.62L228.16-39.62L231.23-39.62L229.70-32.64L234.69-32.64L234.11-29.76L229.18-29.76L225.92-12.48L225.92-12.48Q225.09-8.51 225.09-7.17L225.09-7.17L225.09-7.17Q225.09-4.10 227.78-3.46L227.78-3.46L227.78-3.46Q227.14-1.28 224.83 0L224.83 0L224.83 0Q222.53 1.28 219.26 1.28L219.26 1.28L219.26 1.28Q216 1.28 214.14-0.77L214.14-0.77L214.14-0.77Q212.29-2.82 212.29-6.40Z" fill="url(#editing-shadow-gradient1)"></path></g></g></g></g><g><g transform="translate(-116.7666757106781, 24)"><path d="M0.26-3.07L0.26-3.07L8.19-44.80L21.18-46.08L19.20-36.29L19.20-36.29Q18.50-33.28 17.60-31.17L17.60-31.17L17.60-31.17Q19.01-32.96 22.08-33.66L22.08-33.66L22.08-33.66Q22.98-33.92 24.06-33.92L24.06-33.92L24.06-33.92Q30.02-33.92 33.28-30.30L33.28-30.30L33.28-30.30Q36.54-26.69 36.54-19.71L36.54-19.71L36.54-19.71Q36.54-10.62 31.36-4.93L31.36-4.93L31.36-4.93Q25.79 1.28 15.68 1.28L15.68 1.28L15.68 1.28Q8.70 1.28 3.46-1.02L3.46-1.02L3.46-1.02Q1.60-1.86 0.26-3.07ZM16.51-22.40L13.12-3.65L13.12-3.65Q14.46-2.50 16.13-2.50L16.13-2.50L16.13-2.50Q17.79-2.50 18.75-3.14L18.75-3.14L18.75-3.14Q19.71-3.78 20.42-5.06L20.42-5.06L20.42-5.06Q22.34-8.51 23.87-19.07L23.87-19.07L23.87-19.07Q24.32-22.08 24.32-25.09L24.32-25.09L24.32-25.09Q24.32-28.10 23.65-29.06L23.65-29.06L23.65-29.06Q22.98-30.02 21.70-30.02L21.70-30.02L21.70-30.02Q17.79-30.02 16.51-22.40L16.51-22.40ZM43.17-1.92L43.17-1.92L43.17-1.92Q41.66-3.58 40.99-6.21L40.99-6.21L40.99-6.21Q40.32-8.83 40.32-13.12L40.32-13.12L40.32-13.12Q40.32-17.41 41.79-21.31L41.79-21.31L41.79-21.31Q43.26-25.22 45.95-28.03L45.95-28.03L45.95-28.03Q51.46-33.92 60.54-33.92L60.54-33.92L60.54-33.92Q63.81-33.92 66.18-32.83L66.18-32.83L77.12-33.92L72.38-8.96L72.38-8.96Q72.19-8.19 72.19-6.78L72.19-6.78L72.19-6.78Q72.19-5.38 73.06-4.48L73.06-4.48L73.06-4.48Q73.92-3.58 75.20-3.46L75.20-3.46L75.20-3.46Q74.56-1.28 72.22 0L72.22 0L72.22 0Q69.89 1.28 67.26 1.28L67.26 1.28L67.26 1.28Q64.64 1.28 62.88 0.29L62.88 0.29L62.88 0.29Q61.12-0.70 60.61-2.37L60.61-2.37L60.61-2.37Q59.58-0.77 57.41 0.26L57.41 0.26L57.41 0.26Q55.23 1.28 52.32 1.28L52.32 1.28L52.32 1.28Q49.41 1.28 47.04 0.51L47.04 0.51L47.04 0.51Q44.67-0.26 43.17-1.92ZM56.67-27.90L56.67-27.90L56.67-27.90Q55.94-26.75 55.30-24.80L55.30-24.80L55.30-24.80Q54.66-22.85 53.60-17.63L53.60-17.63L53.60-17.63Q52.54-12.42 52.54-8.70L52.54-8.70L52.54-8.70Q52.54-4.99 53.12-3.90L53.12-3.90L53.12-3.90Q53.70-2.82 54.72-2.82L54.72-2.82L54.72-2.82Q56.77-2.82 58.27-4.77L58.27-4.77L58.27-4.77Q59.78-6.72 60.35-10.18L60.35-10.18L63.74-28.93L63.74-28.93Q62.40-30.08 60.83-30.08L60.83-30.08L60.83-30.08Q59.26-30.08 58.34-29.57L58.34-29.57L58.34-29.57Q57.41-29.06 56.67-27.90ZM107.65 1.28L107.65 1.28L107.65 1.28Q99.90 1.28 99.90-4.74L99.90-4.74L99.90-4.74Q99.97-6.40 100.48-9.22L100.48-9.22L101.63-15.10L101.63-15.10Q103.36-23.42 103.36-25.28L103.36-25.28L103.36-25.28Q103.36-28.99 101.18-28.99L101.18-28.99L101.18-28.99Q97.54-28.99 95.62-19.46L95.62-19.46L91.84 0L78.98 1.28L85.63-32.70L96.13-33.92L95.10-27.65L95.10-27.65Q98.11-33.92 107.33-33.92L107.33-33.92L107.33-33.92Q111.81-33.92 113.70-32.03L113.70-32.03L113.70-32.03Q115.58-30.14 115.58-25.92L115.58-25.92L115.58-25.92Q115.58-21.95 113.54-12.67L113.54-12.67L113.54-12.67Q112.58-8.51 112.58-6.94L112.58-6.94L112.58-6.94Q112.58-5.38 113.44-4.48L113.44-4.48L113.44-4.48Q114.30-3.58 115.58-3.46L115.58-3.46L115.58-3.46Q114.94-1.28 112.74 0L112.74 0L112.74 0Q110.53 1.28 107.65 1.28ZM137.22-30.34L137.22-30.34L137.22-30.34Q140.67-33.92 147.97-33.92L147.97-33.92L147.97-33.92Q152-33.92 154.21-31.78L154.21-31.78L154.21-31.78Q156.42-29.63 156.42-25.70L156.42-25.70L156.42-25.70Q156.42-21.76 154.21-18.98L154.21-18.98L154.21-18.98Q152-16.19 147.90-15.04L147.90-15.04L147.90-15.04Q148.22-13.76 148.67-12.42L148.67-12.42L149.57-9.86L149.57-9.86Q150.78-6.59 151.74-5.44L151.74-5.44L151.74-5.44Q152.70-4.29 153.98-3.90L153.98-3.90L153.98-3.90Q153.28-1.28 150.72 0.13L150.72 0.13L150.72 0.13Q148.67 1.28 145.86 1.28L145.86 1.28L145.86 1.28Q137.60 1.28 136.51-11.46L136.51-11.46L136.51-11.46Q136.32-13.25 136.32-15.04L136.32-15.04L136.32-15.04Q139.52-15.94 141.76-18.94L141.76-18.94L141.76-18.94Q144-21.95 144-25.47L144-25.47L144-25.47Q144-28.99 141.50-28.99L141.50-28.99L141.50-28.99Q139.71-28.99 138.30-27.01L138.30-27.01L138.30-27.01Q136.90-25.02 136.26-21.63L136.26-21.63L132.03 0L119.10 1.28L128.06-44.80L140.93-46.08L139.46-38.46L139.46-38.46Q138.50-33.09 137.22-30.34ZM174.72-3.52L174.72-3.52L174.72-3.52Q172.74 1.28 166.40 1.28L166.40 1.28L166.40 1.28Q163.14 1.28 161.09-0.96L161.09-0.96L161.09-0.96Q159.36-2.94 159.36-4.93L159.36-4.93L159.36-4.93Q159.36-10.11 161.73-20.22L161.73-20.22L164.10-32.64L177.09-33.92L173.18-13.70L173.18-13.70Q172.10-8.96 172.10-7.30L172.10-7.30L172.10-7.30Q172.10-3.65 174.72-3.52ZM165.25-41.54L165.25-41.54L165.25-41.54Q165.25-44.03 167.33-45.38L167.33-45.38L167.33-45.38Q169.41-46.72 172.42-46.72L172.42-46.72L172.42-46.72Q175.42-46.72 177.25-45.38L177.25-45.38L177.25-45.38Q179.07-44.03 179.07-41.54L179.07-41.54L179.07-41.54Q179.07-39.04 177.06-37.76L177.06-37.76L177.06-37.76Q175.04-36.48 172.03-36.48L172.03-36.48L172.03-36.48Q169.02-36.48 167.14-37.76L167.14-37.76L167.14-37.76Q165.25-39.04 165.25-41.54ZM199.30-22.46L199.30-22.46L199.30-22.46Q200.19-24.83 200.19-26.88L200.19-26.88L200.19-26.88Q200.19-30.66 197.12-30.66L197.12-30.66L197.12-30.66Q195.52-30.66 194.21-29.22L194.21-29.22L194.21-29.22Q192.90-27.78 192.90-25.98L192.90-25.98L192.90-25.98Q192.90-24.70 193.92-23.68L193.92-23.68L193.92-23.68Q195.39-22.27 199.17-19.97L199.17-19.97L199.17-19.97Q202.94-17.66 204.38-15.78L204.38-15.78L204.38-15.78Q205.82-13.89 205.82-11.30L205.82-11.30L205.82-11.30Q205.82-8.70 204.58-6.34L204.58-6.34L204.58-6.34Q203.33-3.97 201.09-2.30L201.09-2.30L201.09-2.30Q196.29 1.28 188.61 1.28L188.61 1.28L188.61 1.28Q184.45 1.28 181.25-0.90L181.25-0.90L181.25-0.90Q178.05-3.01 178.05-5.50L178.05-5.50L178.05-5.50Q178.05-8 179.87-9.47L179.87-9.47L179.87-9.47Q181.70-10.94 184.38-10.94L184.38-10.94L184.38-10.94Q187.07-10.94 188.74-9.92L188.74-9.92L188.74-9.92Q187.90-7.81 187.90-6.40L187.90-6.40L187.90-6.40Q187.90-2.18 191.49-2.18L191.49-2.18L191.49-2.18Q193.02-2.18 194.05-3.14L194.05-3.14L194.05-3.14Q195.07-4.10 195.07-5.76L195.07-5.76L195.07-5.76Q195.07-9.02 189.57-12.48L189.57-12.48L189.57-12.48Q185.09-15.42 184.06-16.58L184.06-16.58L184.06-16.58Q182.34-18.62 182.34-21.18L182.34-21.18L182.34-21.18Q182.34-23.74 183.55-26.18L183.55-26.18L183.55-26.18Q184.77-28.61 187.01-30.34L187.01-30.34L187.01-30.34Q191.68-33.92 199.81-33.92L199.81-33.92L199.81-33.92Q203.97-33.92 206.43-32.26L206.43-32.26L206.43-32.26Q208.90-30.59 208.90-27.78L208.90-27.78L208.90-27.78Q208.90-24.96 207.20-23.36L207.20-23.36L207.20-23.36Q205.50-21.76 202.43-21.76L202.43-21.76L202.43-21.76Q200.32-21.76 199.30-22.46ZM212.29-6.40L212.29-6.40L212.29-6.40Q212.29-8.13 213.18-12.48L213.18-12.48L216.58-29.76L212.80-29.76L213.06-31.68L213.06-31.68Q220.74-33.98 228.16-39.62L228.16-39.62L231.23-39.62L229.70-32.64L234.69-32.64L234.11-29.76L229.18-29.76L225.92-12.48L225.92-12.48Q225.09-8.51 225.09-7.17L225.09-7.17L225.09-7.17Q225.09-4.10 227.78-3.46L227.78-3.46L227.78-3.46Q227.14-1.28 224.83 0L224.83 0L224.83 0Q222.53 1.28 219.26 1.28L219.26 1.28L219.26 1.28Q216 1.28 214.14-0.77L214.14-0.77L214.14-0.77Q212.29-2.82 212.29-6.40Z" fill="url(#editing-shadow-gradient2)"></path></g></g></g><style>text {
  font-size: 64px;
  font-family: Arial Black;
  dominant-baseline: central;
  text-anchor: middle;
}</style></svg>