<svg xmlns="http://www.w3.org/2000/svg" xmlns:xlink="http://www.w3.org/1999/xlink" width="1920" zoomAndPan="magnify" viewBox="0 0 1440 809.999993" height="1080" preserveAspectRatio="xMidYMid meet" version="1.0"><defs><g/></defs><path fill="#25c19b" d="M 190.089844 509.523438 C 190.089844 509.523438 197.246094 400.167969 156.371094 312.292969 L 415.941406 312.632812 C 442.292969 523.558594 351.148438 678.398438 172.722656 791.582031 C 386.597656 697.910156 485.988281 528.949219 453.757812 273.464844 L 93.003906 273.464844 L 128.773438 335.804688 L 5.117188 335.804688 C 5.117188 335.804688 116.503906 440.046875 144.101562 501.363281 C 144.101562 501.363281 132.859375 427.78125 91.980469 381.792969 L 151.25 381.792969 C 151.25 381.78125 182.929688 451.265625 190.089844 509.523438 Z M 190.089844 509.523438 " fill-opacity="1" fill-rule="nonzero"/><path fill="#25c19b" d="M 295.503906 399.765625 L 291.953125 399.765625 C 289.492188 399.765625 287.480469 400.035156 285.90625 400.558594 C 284.320312 401.085938 283.136719 401.742188 282.355469 402.535156 C 281.394531 403.5 280.757812 404.792969 280.453125 406.414062 C 280.148438 408.035156 279.992188 409.511719 279.992188 410.828125 C 279.992188 412.5 280.234375 413.875 280.710938 414.972656 C 281.1875 416.070312 281.785156 416.972656 282.492188 417.667969 C 283.199219 418.375 283.941406 418.902344 284.722656 419.253906 C 285.515625 419.609375 286.210938 419.863281 286.832031 420.046875 L 295.515625 422.816406 L 295.515625 399.765625 Z M 295.503906 399.765625 " fill-opacity="1" fill-rule="nonzero"/><path fill="#25c19b" d="M 314.199219 463.804688 C 316.308594 463.5 317.929688 462.863281 319.0625 461.902344 C 319.855469 461.195312 320.515625 460.21875 321.039062 458.9375 C 321.5625 457.667969 321.832031 456.109375 321.832031 454.265625 C 321.832031 451.730469 321.222656 449.328125 319.992188 447.097656 C 318.757812 444.863281 316.210938 443.132812 312.355469 441.902344 L 305.769531 439.792969 L 305.769531 464.265625 L 308.929688 464.265625 C 310.332031 464.265625 312.089844 464.121094 314.199219 463.804688 Z M 314.199219 463.804688 " fill-opacity="1" fill-rule="nonzero"/><path fill="#25c19b" d="M 377.101562 431.851562 C 377.101562 389.523438 342.78125 355.207031 300.453125 355.207031 C 258.125 355.207031 223.808594 389.523438 223.808594 431.851562 C 223.808594 474.179688 258.125 508.496094 300.453125 508.496094 C 342.78125 508.496094 377.101562 474.179688 377.101562 431.851562 Z M 265.492188 478.082031 L 265.492188 464.265625 L 295.503906 464.265625 L 295.503906 436.5 L 277.867188 430.839844 C 275.40625 430.046875 273.125 429.109375 271.027344 428.011719 C 268.917969 426.914062 266.992188 424.914062 265.234375 422.023438 C 263.832031 419.65625 262.953125 417.21875 262.601562 414.71875 C 262.246094 412.21875 262.078125 409.914062 262.078125 407.804688 C 262.078125 405.085938 262.320312 402.339844 262.796875 399.570312 C 263.285156 396.804688 264.480469 394.328125 266.417969 392.132812 C 267.648438 390.730469 269.027344 389.609375 270.5625 388.78125 C 272.101562 387.949219 273.675781 387.328125 275.296875 386.9375 C 276.917969 386.546875 278.539062 386.28125 280.160156 386.144531 C 281.785156 386.011719 283.34375 385.949219 284.832031 385.949219 L 295.492188 385.949219 L 295.492188 377 L 305.757812 377 L 305.757812 385.949219 L 333.929688 385.949219 L 333.929688 399.765625 L 305.757812 399.765625 L 305.757812 426.097656 L 321.296875 431.097656 C 323.660156 431.890625 326.101562 432.804688 328.601562 433.863281 C 331.101562 434.914062 333.453125 436.890625 335.636719 439.792969 C 337.5625 442.339844 338.734375 444.863281 339.125 447.363281 C 339.515625 449.863281 339.722656 452.609375 339.722656 455.582031 C 339.722656 457.253906 339.671875 458.925781 339.585938 460.582031 C 339.503906 462.253906 339.234375 463.875 338.796875 465.449219 C 338.355469 467.023438 337.722656 468.546875 336.894531 469.984375 C 336.0625 471.4375 334.894531 472.730469 333.40625 473.863281 C 332.089844 474.914062 330.636719 475.730469 329.0625 476.304688 C 327.476562 476.875 325.855469 477.289062 324.199219 477.558594 C 322.527344 477.828125 320.855469 477.972656 319.199219 478.023438 C 317.527344 478.070312 315.953125 478.082031 314.453125 478.082031 L 305.769531 478.082031 L 305.769531 487.035156 L 295.503906 487.035156 L 295.503906 478.082031 Z M 265.492188 478.082031 " fill-opacity="1" fill-rule="nonzero"/><path fill="#25c19b" d="M 362.625 39.90625 L 375.308594 145.453125 L 207.503906 74.074219 C 208.382812 76.113281 245.0625 159.320312 272.1875 245.039062 L 310.785156 245.039062 C 308.917969 225.5625 305.285156 205.695312 298.929688 186.832031 L 379.367188 221.0625 C 379.367188 221.0625 379.597656 230.136719 379.417969 245.039062 L 415.84375 245.039062 C 423.125 208.402344 427.648438 168.832031 426.304688 129.355469 L 778.449219 279.671875 C 702.585938 547.703125 526.84375 702.496094 273.964844 769.859375 C 241.46875 778.519531 207.710938 785.75 172.699219 791.554688 C 196.796875 791.277344 220.355469 790.164062 243.34375 788.203125 C 548.78125 762.3125 756.265625 589.058594 852.289062 248.148438 Z M 362.625 39.90625 " fill-opacity="1" fill-rule="nonzero"/><path fill="#25c19b" d="M 560.011719 326.804688 C 556.683594 325.378906 553.78125 324.585938 551.328125 324.378906 C 548.878906 324.171875 546.914062 324.402344 545.367188 325.023438 C 543.5 325.769531 541.902344 327.171875 540.5625 329.207031 C 539.195312 331.21875 538.160156 333.160156 537.378906 334.9375 C 536.425781 337.207031 535.964844 339.230469 535.988281 341.011719 C 536.011719 342.769531 536.292969 344.339844 536.84375 345.707031 C 537.378906 347.046875 538.109375 348.21875 538.988281 349.144531 C 539.84375 350.074219 540.648438 350.851562 541.390625 351.449219 L 551.597656 360.230469 L 564.855469 328.839844 Z M 560.011719 326.804688 " fill-opacity="1" fill-rule="nonzero"/><path fill="#25c19b" d="M 545.964844 424.449219 C 547.855469 425.253906 550.328125 426.046875 553.355469 426.851562 C 556.402344 427.65625 558.964844 427.730469 561.074219 427.058594 C 562.550781 426.570312 564.011719 425.609375 565.464844 424.167969 C 566.914062 422.742188 568.148438 420.78125 569.207031 418.253906 C 570.683594 414.792969 571.21875 411.207031 570.828125 407.425781 C 570.4375 403.683594 567.988281 399.828125 563.464844 395.925781 L 555.746094 389.253906 L 541.632812 422.609375 Z M 545.964844 424.449219 " fill-opacity="1" fill-rule="nonzero"/><path fill="#25c19b" d="M 485.5625 420.960938 C 484.269531 434.960938 482.488281 448.65625 480.183594 462.058594 C 488.636719 469.21875 498.269531 475.230469 508.988281 479.777344 C 566.4375 504.21875 632.78125 477.304688 657.132812 419.644531 C 681.460938 361.988281 654.65625 295.4375 597.183594 271 C 558.148438 254.390625 515.039062 261.523438 483.78125 285.855469 C 488.050781 325.5625 489.160156 363.425781 487.136719 399.4375 L 527.71875 416.695312 L 543.707031 378.851562 L 523.011719 360.976562 C 520.121094 358.476562 517.5625 355.867188 515.34375 353.171875 C 513.121094 350.464844 511.648438 346.609375 510.925781 341.644531 C 510.390625 337.621094 510.585938 333.792969 511.574219 330.183594 C 512.523438 326.597656 513.609375 323.339844 514.832031 320.476562 C 516.402344 316.78125 518.292969 313.195312 520.539062 309.707031 C 522.78125 306.21875 525.855469 303.535156 529.730469 301.671875 C 532.207031 300.453125 534.71875 299.730469 537.304688 299.476562 C 539.867188 299.242188 542.367188 299.292969 544.792969 299.707031 C 547.21875 300.097656 549.574219 300.683594 551.84375 301.4375 C 554.148438 302.183594 556.28125 303.011719 558.304688 303.867188 L 572.769531 310.011719 L 577.9375 297.839844 L 591.867188 303.757812 L 586.71875 315.949219 L 624.949219 332.195312 L 617 351.023438 L 578.769531 334.78125 L 563.632812 370.609375 L 581.816406 386.390625 C 584.585938 388.839844 587.367188 391.5 590.160156 394.378906 C 592.953125 397.265625 594.988281 401.304688 596.304688 406.523438 C 597.464844 411.097656 597.574219 415.207031 596.695312 418.839844 C 595.792969 422.488281 594.476562 426.328125 592.742188 430.390625 C 591.792969 432.65625 590.78125 434.914062 589.695312 437.132812 C 588.609375 439.351562 587.316406 441.390625 585.816406 443.304688 C 584.316406 445.195312 582.585938 446.890625 580.621094 448.390625 C 578.660156 449.863281 576.328125 450.972656 573.648438 451.644531 C 571.246094 452.316406 568.816406 452.597656 566.34375 452.472656 C 563.890625 452.316406 561.4375 451.960938 559.035156 451.363281 C 556.609375 450.742188 554.257812 450 551.988281 449.097656 C 549.683594 448.195312 547.550781 447.316406 545.5 446.460938 L 533.71875 441.449219 L 528.550781 453.644531 L 514.621094 447.707031 L 519.769531 435.511719 Z M 485.5625 420.960938 " fill-opacity="1" fill-rule="nonzero"/><g fill="#6bc3b2" fill-opacity="1"><g transform="translate(787.997186, 597.530176)"><g><path d="M 108.609375 -10.453125 C 103.359375 -6.273438 96.546875 -3.039062 88.171875 -0.75 C 79.804688 1.539062 69.523438 2.6875 57.328125 2.6875 C 45.140625 2.6875 32.179688 1.578125 18.453125 -0.640625 L 18.453125 -142.03125 C 32.328125 -144.25 44.359375 -145.359375 54.546875 -145.359375 C 64.742188 -145.359375 73.113281 -144.390625 79.65625 -142.453125 C 86.195312 -140.523438 91.539062 -137.914062 95.6875 -134.625 C 103.84375 -128.257812 107.921875 -120.015625 107.921875 -109.890625 C 107.921875 -99.773438 104.238281 -91.394531 96.875 -84.75 C 105.59375 -82.03125 112.347656 -76.878906 117.140625 -69.296875 C 121.503906 -62.503906 123.6875 -54.976562 123.6875 -46.71875 C 123.6875 -38.457031 122.488281 -31.394531 120.09375 -25.53125 C 117.695312 -19.664062 113.867188 -14.640625 108.609375 -10.453125 Z M 46.875 -88.71875 C 49.882812 -88.21875 53.640625 -87.96875 58.140625 -87.96875 C 62.648438 -87.96875 66.351562 -88.554688 69.25 -89.734375 C 72.144531 -90.910156 74.378906 -92.394531 75.953125 -94.1875 C 78.523438 -97.125 79.8125 -101.203125 79.8125 -106.421875 C 79.8125 -117.359375 73.375 -122.828125 60.5 -122.828125 C 55.0625 -122.828125 50.519531 -122.613281 46.875 -122.1875 Z M 62.75 -65.765625 C 56.75 -65.765625 51.457031 -65.367188 46.875 -64.578125 L 46.875 -22.421875 C 51.882812 -21.128906 57.140625 -20.484375 62.640625 -20.484375 C 68.148438 -20.484375 73 -21.144531 77.1875 -22.46875 C 81.375 -23.789062 84.894531 -25.597656 87.75 -27.890625 C 93.539062 -32.609375 96.4375 -38.617188 96.4375 -45.921875 C 96.4375 -59.148438 85.207031 -65.765625 62.75 -65.765625 Z M 62.75 -65.765625 "/></g></g></g><g fill="#6bc3b2" fill-opacity="1"><g transform="translate(947.16211, 597.530176)"><g><path d="M 28.859375 0.859375 C 22.703125 0.285156 15.515625 0 7.296875 0 L -1.1875 0 L 45.484375 -130.765625 C 47.554688 -136.628906 48.59375 -140.046875 48.59375 -141.015625 C 48.59375 -141.984375 48.554688 -142.570312 48.484375 -142.78125 L 48.59375 -143 C 53.238281 -142.78125 58.175781 -142.671875 63.40625 -142.671875 C 67.695312 -142.671875 72.84375 -142.742188 78.84375 -142.890625 L 78.953125 -142.671875 C 78.804688 -142.390625 78.734375 -142 78.734375 -141.5 C 78.734375 -140.132812 79.804688 -136.519531 81.953125 -130.65625 L 129.59375 0.328125 C 128.15625 0.253906 126.472656 0.21875 124.546875 0.21875 C 124.546875 0.21875 122.6875 0.144531 118.96875 0 C 117.175781 0 115.566406 0 114.140625 0 L 97.515625 0 L 87.4375 -30.890625 L 38.9375 -30.890625 Z M 79.0625 -56.640625 L 62.859375 -106.53125 L 47.09375 -56.640625 Z M 79.0625 -56.640625 "/></g></g></g><g fill="#6bc3b2" fill-opacity="1"><g transform="translate(1106.327035, 597.530176)"><g><path d="M 19.421875 0 C 19.847656 -2.425781 20.0625 -5.070312 20.0625 -7.9375 L 20.0625 -142.671875 L 41.515625 -142.671875 L 98.375 -53.203125 L 98.375 -135.390625 C 98.375 -139.316406 98.015625 -141.742188 97.296875 -142.671875 L 126.265625 -142.671875 C 125.910156 -139.816406 125.734375 -136.671875 125.734375 -133.234375 L 125.734375 0 L 103.421875 0 L 47.421875 -85.921875 L 47.421875 0 Z M 19.421875 0 "/></g></g></g><g fill="#6bc3b2" fill-opacity="1"><g transform="translate(1282.870358, 597.530176)"><g><path d="M 45.8125 0.640625 C 40.875 0.210938 34.578125 0 26.921875 0 L 18.453125 0 L 18.453125 -143.109375 L 22.75 -142.890625 C 25.75 -142.742188 28 -142.671875 29.5 -142.671875 L 32.609375 -142.671875 C 38.898438 -142.671875 43.300781 -142.957031 45.8125 -143.53125 L 45.8125 -82.921875 L 89.25 -143.109375 C 93.832031 -142.816406 97.695312 -142.671875 100.84375 -142.671875 L 106.734375 -142.671875 C 114.109375 -142.671875 119.367188 -142.957031 122.515625 -143.53125 L 81.09375 -89.46875 L 121.859375 -8.578125 C 123.578125 -4.648438 125.1875 -1.789062 126.6875 0 L 120.15625 0 C 105.0625 0 95.65625 0.285156 91.9375 0.859375 C 91.144531 -3.929688 90.070312 -8.113281 88.71875 -11.6875 L 61.359375 -63.828125 L 45.8125 -43.453125 Z M 45.8125 0.640625 "/></g></g></g></svg>