<svg width="298.28001098632814px" height="130.0399963378906px" xmlns="http://www.w3.org/2000/svg" viewBox="100.85999450683593 9.980001831054693 298.28001098632814 130.0399963378906" style="background: rgba(0, 0, 0, 0) none repeat scroll 0% 0%;" preserveAspectRatio="xMidYMid"><defs><filter id="editing-lego" x="-100%" y="-100%" width="300%" height="300%"><feFlood flood-color="#000" result="f1"></feFlood><feFlood flood-color="#20c997" result="f2"></feFlood><feMorphology operator="dilate" radius="3" in="SourceAlpha"></feMorphology><feConvolveMatrix order="5,5" divisor="1" result="cm1" kernelMatrix="0 1 1 1 0  1 0 0 0 1  1 0 0 0 1  1 0 0 0 1  0 1 1 1 0"></feConvolveMatrix><feComposite operator="in" in="f1" in2="cm1" result="c1"></feComposite><feMorphology operator="dilate" radius="3"></feMorphology><feConvolveMatrix order="5,5" divisor="1" result="cm2" kernelMatrix="0 1 1 1 0  1 0 0 0 1  1 0 0 0 1  1 0 0 0 1  0 1 1 1 0"></feConvolveMatrix><feComposite operator="in" in="f2" in2="cm2" result="c2"></feComposite><feMerge><feMergeNode in="c2"></feMergeNode><feMergeNode in="c1"></feMergeNode><feMergeNode in="SourceGraphic"></feMergeNode></feMerge></filter></defs><g filter="url(#editing-lego)"><g transform="translate(147.42587673664093, 99.64500045776367)"><path d="M32.88-40.97L32.88-40.97L32.88-40.97Q32.88-35.72 25.19-32.34L25.19-32.34L25.19-32.34Q31.56-31.16 33.50-26.56L33.50-26.56L33.50-26.56Q34.13-25.03 34.13-22.52L34.13-22.52L34.13-22.52Q34.13-20 33.39-17.08L33.39-17.08L33.39-17.08Q32.66-14.16 31.08-11.58L31.08-11.58L31.08-11.58Q29.50-9 27.06-6.88L27.06-6.88L27.06-6.88Q24.63-4.75 21.22-3.22L21.22-3.22L21.22-3.22Q14.06 0 3.53 0L3.53 0L3.53 0Q4.53-2.38 4.70-3.97L4.70-3.97L4.70-3.97Q4.88-5.56 5-7.38L5-7.38L5-7.38Q5.25-11.06 5.25-17.28L5.25-17.28L5.25-17.28Q5.25-24.81 5-31.03L5-31.03L4.66-39.63L4.66-39.63Q4.53-42.88 4.09-44.16L4.09-44.16L4.09-44.16Q3.41-46.19 1.84-47.81L1.84-47.81L18.38-47.81L18.38-47.81Q25.94-47.81 29.31-46.31L29.31-46.31L29.31-46.31Q32.88-44.75 32.88-40.97ZM12.53-24.78L12.53-24.78L12.56-8.91L12.56-8.91Q12.56-7.13 12.95-6.22L12.95-6.22L12.95-6.22Q13.34-5.31 14.53-5.31L14.53-5.31L14.53-5.31Q19.34-5.31 22.56-9.88L22.56-9.88L22.56-9.88Q25.88-14.56 25.88-22.06L25.88-22.06L25.88-22.06Q25.88-25.78 24.22-27.59L24.22-27.59L24.22-27.59Q22.03-30 16.38-30L16.38-30L16.38-30Q15.09-30 14.34-29.89L14.34-29.89L14.34-29.89Q13.59-29.78 13.19-29.28L13.19-29.28L13.19-29.28Q12.53-28.47 12.53-24.78ZM22.86-35.63L22.86-35.63L22.86-35.63Q23.81-36.56 24.22-37.63L24.22-37.63L24.22-37.63Q24.63-38.69 24.63-39.61L24.63-39.61L24.63-39.61Q24.63-40.53 24.36-41.47L24.36-41.47L24.36-41.47Q24.09-42.41 23.31-43.13L23.31-43.13L23.31-43.13Q21.56-44.69 17.31-44.69L17.31-44.69L17.31-44.69Q14.09-44.69 13.47-44.05L13.47-44.05L13.47-44.05Q12.84-43.41 12.69-42.34L12.69-42.34L12.69-42.34Q12.53-41.28 12.53-39.61L12.53-39.61L12.53-39.61Q12.53-37.94 12.63-36.83L12.63-36.83L12.63-36.83Q12.72-35.72 13.13-34.97L13.13-34.97L13.13-34.97Q13.91-33.44 16.33-33.44L16.33-33.44L16.33-33.44Q18.75-33.44 20.33-34.06L20.33-34.06L20.33-34.06Q21.91-34.69 22.86-35.63ZM62.75-16.69L62.75-16.69L62.66-10.69L62.66-10.69Q62.66-5.09 63.69-3.06L63.69-3.06L63.69-3.06Q64.31-1.84 65.16-1.19L65.16-1.19L66.63 0L57.56 0L56.59-3.63L56.59-3.63Q53.06 0.63 46.53 0.63L46.53 0.63L46.53 0.63Q42.81 0.63 40.53-1.88L40.53-1.88L40.53-1.88Q38.53-4.13 38.53-7.19L38.53-7.19L38.53-7.19Q38.53-10.25 39.98-12.53L39.98-12.53L39.98-12.53Q41.44-14.81 43.81-16.31L43.81-16.31L43.81-16.31Q48.50-19.22 55.59-19.34L55.59-19.34L55.59-19.69L55.59-19.69Q55.59-27.28 53.25-28.59L53.25-28.59L53.25-28.59Q52.41-29.06 51.08-29.06L51.08-29.06L51.08-29.06Q49.75-29.06 48.44-28.19L48.44-28.19L48.44-28.19Q47.13-27.31 46.06-25.94L46.06-25.94L46.06-25.94Q43.94-23.16 43.03-19.38L43.03-19.38L43.03-19.38Q40.25-21.03 40.25-25.72L40.25-25.72L40.25-25.72Q40.25-27.63 40.75-30L40.75-30L40.75-30Q41.94-30 43-30.34L43-30.34L45.41-31.09L45.41-31.09Q48.94-32.19 52.31-32.19L52.31-32.19L52.31-32.19Q55.69-32.19 57.70-31.19L57.70-31.19L57.70-31.19Q59.72-30.19 60.84-28.22L60.84-28.22L60.84-28.22Q62.75-24.88 62.75-16.69ZM45.28-6.56L45.28-6.56Q45.28-4.63 46.17-3.56L46.17-3.56L46.17-3.56Q47.06-2.50 48.41-2.50L48.41-2.50L48.41-2.50Q49.75-2.50 51-3.20L51-3.20L51-3.20Q52.25-3.91 53.25-5.13L53.25-5.13L53.25-5.13Q55.59-7.91 55.59-11.66L55.59-11.66L55.59-16.28L55.59-16.28Q51.22-15.88 48.38-13.38L48.38-13.38L48.38-13.38Q45.28-10.69 45.28-6.56L45.28-6.56ZM80.56 0L71.59 0L71.59 0Q73.03-4.94 73.03-16.97L73.03-16.97L73.03-16.97Q73.03-25.53 71.53-28.66L71.53-28.66L71.53-28.66Q71.16-29.44 70.69-30.13L70.69-30.13L69.66-31.56L80.50-31.56L80.50-31.56Q80.03-30 79.88-28.63L79.88-28.63L79.63-26.38L79.63-26.38Q83.41-32.19 89.25-32.19L89.25-32.19L89.25-32.19Q93.03-32.19 95.16-29.25L95.16-29.25L95.16-29.25Q97.22-26.38 97.22-21.47L97.22-21.47L97.22-18.13L97.22-18.13Q97.22-9.53 97.38-7.63L97.38-7.63L97.38-7.63Q97.53-5.72 97.63-4.72L97.63-4.72L97.63-4.72Q97.72-3.72 97.84-2.94L97.84-2.94L97.84-2.94Q98.06-1.47 98.50 0L98.50 0L89.34 0L89.34 0Q90.78-4.94 90.78-16.97L90.78-16.97L90.78-16.97Q90.78-21.78 90.17-23.56L90.17-23.56L90.17-23.56Q89.56-25.34 88.72-26.11L88.72-26.11L88.72-26.11Q87.88-26.88 86.50-26.88L86.50-26.88L86.50-26.88Q83.97-26.88 81.91-24.88L81.91-24.88L81.91-24.88Q80.13-23.16 79.19-20.50L79.19-20.50L79.19-20.50Q79.13-19.66 79.13-18.75L79.13-18.75L79.13-16.97L79.13-16.97Q79.13-4.94 80.56 0L80.56 0ZM114.56-15.56L114.56-13.25L114.56-13.25Q114.56-4.19 115.78 0L115.78 0L106.56 0L106.56 0Q107.44-3.03 107.66-7.16L107.66-7.16L107.66-7.16Q108.13-17.13 108.13-22.63L108.13-22.63L108.13-22.63Q108.13-28.13 108.09-30.02L108.09-30.02L108.09-30.02Q108.06-31.91 108.03-33.81L108.03-33.81L108.03-33.81Q107.84-40.53 107.39-42.36L107.39-42.36L107.39-42.36Q106.94-44.19 106.53-45L106.53-45L106.53-45Q105.94-46.31 104.63-47.81L104.63-47.81L116.03-47.81L116.03-47.81Q115.16-44.66 115-41.84L115-41.84L114.78-37.31L114.78-37.31Q114.56-32.16 114.56-29.47L114.56-29.47L114.56-29.47Q114.56-26.78 114.61-25.84L114.61-25.84L114.61-25.84Q114.66-24.91 114.84-24.31L114.84-24.31L114.84-24.31Q115.22-23.06 116.73-23.13L116.73-23.13L116.73-23.13Q118.25-23.19 119.47-23.77L119.47-23.77L119.47-23.77Q120.69-24.34 121.47-25.25L121.47-25.25L121.47-25.25Q123.03-27 123.03-28.97L123.03-28.97L123.03-28.97Q123.03-30.94 122.56-31.56L122.56-31.56L131.59-31.56L131.59-31.56Q131.22-30.81 130.92-30.05L130.92-30.05L130.92-30.05Q130.63-29.28 130.28-28.50L130.28-28.50L130.28-28.50Q128.06-23.56 123.28-21.34L123.28-21.34L123.28-21.34Q123.59-14.88 127.53-8.38L127.53-8.38L127.53-8.38Q131.25-2.34 135.72 0L135.72 0L125.25 0L125.25 0Q122.13-1.50 120.19-10.06L120.19-10.06L120.19-10.06Q119.53-12.97 119.31-15.66L119.31-15.66L119.31-15.66Q119.09-18.34 118.63-19.17L118.63-19.17L118.63-19.17Q118.16-20 116.94-20L116.94-20L116.94-20Q114.56-20 114.56-15.56L114.56-15.56ZM146.77-39.97L146.77-39.97L146.77-39.97Q146.13-38.94 145.22-38.23L145.22-38.23L145.22-38.23Q144.31-37.53 143.16-37.53L143.16-37.53L143.16-37.53Q142-37.53 141.09-38.23L141.09-38.23L141.09-38.23Q140.19-38.94 139.56-39.97L139.56-39.97L139.56-39.97Q138.28-42.09 138.28-44.47L138.28-44.47L138.28-44.47Q138.28-47.34 140.91-48.31L140.91-48.31L140.91-48.31Q141.84-48.66 143.19-48.66L143.19-48.66L143.19-48.66Q146.91-48.66 147.81-46.03L147.81-46.03L147.81-46.03Q148.09-45.28 148.09-44.36L148.09-44.36L148.09-44.36Q148.09-43.44 147.75-42.22L147.75-42.22L147.75-42.22Q147.41-41 146.77-39.97ZM147.50 0L138.28 0L138.28 0Q139.72-4.94 139.72-16.97L139.72-16.97L139.72-16.97Q139.72-25.44 138.22-28.63L138.22-28.63L138.22-28.63Q137.84-29.44 137.38-30.13L137.38-30.13L136.34-31.56L147.44-31.56L147.44-31.56Q146.06-26.41 146.06-15.67L146.06-15.67L146.06-15.67Q146.06-4.94 147.50 0L147.50 0ZM175.09-33.41L175.09-33.41L175.09-33.41Q175.94-31.53 175.94-29.63L175.94-29.63L175.94-29.63Q175.94-27.72 175.77-26.47L175.77-26.47L175.77-26.47Q175.59-25.22 175.25-24.06L175.25-24.06L175.25-24.06Q174.47-21.44 173.03-20.03L173.03-20.03L173.03-20.03Q172.06-24.88 170.92-26.31L170.92-26.31L170.92-26.31Q169.78-27.75 168.64-28.25L168.64-28.25L168.64-28.25Q167.50-28.75 166.22-28.75L166.22-28.75L166.22-28.75Q164.94-28.75 164.13-28.50L164.13-28.50L164.13-28.50Q163.31-28.25 162.72-27.78L162.72-27.78L162.72-27.78Q161.38-26.75 161.38-25.44L161.38-25.44L161.38-25.44Q161.38-24.13 162.03-23.17L162.03-23.17L162.03-23.17Q162.69-22.22 163.77-21.39L163.77-21.39L163.77-21.39Q164.84-20.56 166.22-19.78L166.22-19.78L169.03-18.19L169.03-18.19Q172.66-16.16 174-14.81L174-14.81L174-14.81Q176.66-12.16 176.66-9.22L176.66-9.22L176.66-9.22Q176.66-5.38 174.03-2.75L174.03-2.75L174.03-2.75Q170.72 0.63 164.09 0.63L164.09 0.63L164.09 0.63Q158.06 0.63 155.03-2.19L155.03-2.19L155.03-2.19Q154.16-3 153.78-3.81L153.78-3.81L153.78-3.81Q154.03-6.16 155.88-8.22L155.88-8.22L155.88-8.22Q157.66-10.22 159.34-10.53L159.34-10.53L159.34-10.53Q159.22-10.13 159.22-9.31L159.22-9.31L159.22-9.31Q159.22-8.50 159.69-7.30L159.69-7.30L159.69-7.30Q160.16-6.09 161.03-5.06L161.03-5.06L161.03-5.06Q163-2.69 165.47-2.69L165.47-2.69L165.47-2.69Q167.94-2.69 169.09-3.81L169.09-3.81L169.09-3.81Q170.25-4.94 170.25-6.38L170.25-6.38L170.25-6.38Q170.25-7.81 169.59-8.78L169.59-8.78L169.59-8.78Q168.94-9.75 167.86-10.59L167.86-10.59L167.86-10.59Q166.78-11.44 165.41-12.22L165.41-12.22L162.59-13.81L162.59-13.81Q159-15.94 157.66-17.44L157.66-17.44L157.66-17.44Q154.97-20.44 154.97-23.97L154.97-23.97L154.97-23.97Q154.97-27.69 158.09-30L158.09-30L158.09-30Q161.06-32.19 165.50-32.19L165.50-32.19L171-31.81L171-31.81Q173-31.81 173.78-32.30L173.78-32.30L173.78-32.30Q174.56-32.78 175.09-33.41ZM192.84-44.06L192.84-44.06L192.84-44.06Q192.19-41.66 192.19-38.30L192.19-38.30L192.19-38.30Q192.19-34.94 192.33-34L192.33-34L192.33-34Q192.47-33.06 192.78-32.50L192.78-32.50L192.78-32.50Q193.38-31.56 195.09-31.56L195.09-31.56L203.47-31.56L203.47-31.56Q203.47-29.81 202.63-28.88L202.63-28.88L202.63-28.88Q201.09-27.19 198.88-27.19L198.88-27.19L198.88-27.19Q197.78-27.19 196.94-27.50L196.94-27.50L196.94-27.50Q195.41-28.13 194.56-28.13L194.56-28.13L194.56-28.13Q193.72-28.13 193.19-27.80L193.19-27.80L193.19-27.80Q192.66-27.47 192.34-26.84L192.34-26.84L192.34-26.84Q191.78-25.72 191.78-21.94L191.78-21.94L191.78-21.94Q191.78-18.16 192.02-14.19L192.02-14.19L192.02-14.19Q192.25-10.22 193.19-7.55L193.19-7.55L193.19-7.55Q194.13-4.88 196.03-3.53L196.03-3.53L196.03-3.53Q197.94-2.19 201.28-2.19L201.28-2.19L201.28-2.19Q201.28-1.22 199.97 0.13L199.97 0.13L199.97 0.13Q199.63 0.50 199.38 0.63L199.38 0.63L199.38 0.63Q193.84 0.63 191.09-0.69L191.09-0.69L191.09-0.69Q187.94-2.25 186.59-6.25L186.59-6.25L186.59-6.25Q185.25-10.31 185.25-18.28L185.25-18.28L185.25-18.28Q185.25-25.25 184.88-26.52L184.88-26.52L184.88-26.52Q184.50-27.78 184.19-28.19L184.19-28.19L184.19-28.19Q183.81-28.66 182.38-29.34L182.38-29.34L182.38-29.34Q184.31-30.81 186.22-34.81L186.22-34.81L187.78-38.09L187.78-38.09Q189.44-41.84 190.61-42.95L190.61-42.95L190.61-42.95Q191.78-44.06 192.84-44.06Z" fill="#fff"></path></g></g><style>text {
  font-size: 64px;
  font-family: Arial Black;
  dominant-baseline: central;
  text-anchor: middle;
}</style></svg>