<svg xmlns="http://www.w3.org/2000/svg" xmlns:xlink="http://www.w3.org/1999/xlink" width="500" zoomAndPan="magnify" viewBox="0 0 375 374.999991" height="500" preserveAspectRatio="xMidYMid meet" version="1.0"><path fill="#25c19b" d="M 113.636719 215.648438 C 113.636719 215.648438 115.835938 182.085938 103.289062 155.121094 L 182.949219 155.222656 C 191.035156 219.953125 163.066406 267.472656 108.308594 302.207031 C 173.945312 273.460938 204.445312 221.609375 194.554688 143.203125 L 83.84375 143.203125 L 94.820312 162.335938 L 56.871094 162.335938 C 56.871094 162.335938 91.054688 194.324219 99.523438 213.144531 C 99.523438 213.144531 96.074219 190.5625 83.527344 176.449219 L 101.71875 176.449219 C 101.71875 176.445312 111.441406 197.769531 113.636719 215.648438 Z M 113.636719 215.648438 " fill-opacity="1" fill-rule="nonzero"/><path fill="#25c19b" d="M 145.988281 181.964844 L 144.898438 181.964844 C 144.140625 181.964844 143.523438 182.046875 143.042969 182.207031 C 142.554688 182.367188 142.191406 182.570312 141.953125 182.8125 C 141.65625 183.109375 141.460938 183.507812 141.371094 184.003906 C 141.277344 184.5 141.226562 184.953125 141.226562 185.359375 C 141.226562 185.871094 141.300781 186.292969 141.449219 186.632812 C 141.59375 186.96875 141.777344 187.246094 141.996094 187.457031 C 142.210938 187.675781 142.441406 187.835938 142.679688 187.945312 C 142.921875 188.054688 143.136719 188.132812 143.328125 188.1875 L 145.992188 189.039062 L 145.992188 181.964844 Z M 145.988281 181.964844 " fill-opacity="1" fill-rule="nonzero"/><path fill="#25c19b" d="M 151.726562 201.617188 C 152.371094 201.523438 152.871094 201.328125 153.21875 201.03125 C 153.460938 200.816406 153.664062 200.515625 153.824219 200.121094 C 153.984375 199.734375 154.066406 199.253906 154.066406 198.6875 C 154.066406 197.910156 153.878906 197.171875 153.503906 196.488281 C 153.125 195.804688 152.34375 195.273438 151.160156 194.894531 L 149.136719 194.246094 L 149.136719 201.757812 L 150.109375 201.757812 C 150.539062 201.757812 151.078125 201.714844 151.726562 201.617188 Z M 151.726562 201.617188 " fill-opacity="1" fill-rule="nonzero"/><path fill="#25c19b" d="M 171.027344 191.8125 C 171.027344 178.820312 160.496094 168.289062 147.507812 168.289062 C 134.515625 168.289062 123.984375 178.820312 123.984375 191.8125 C 123.984375 204.800781 134.515625 215.332031 147.507812 215.332031 C 160.496094 215.332031 171.027344 204.800781 171.027344 191.8125 Z M 136.777344 206 L 136.777344 201.757812 L 145.988281 201.757812 L 145.988281 193.238281 L 140.574219 191.5 C 139.820312 191.257812 139.121094 190.96875 138.476562 190.632812 C 137.828125 190.292969 137.238281 189.679688 136.699219 188.792969 C 136.269531 188.066406 136 187.320312 135.890625 186.550781 C 135.78125 185.785156 135.730469 185.078125 135.730469 184.429688 C 135.730469 183.597656 135.804688 182.753906 135.949219 181.902344 C 136.101562 181.054688 136.464844 180.292969 137.0625 179.621094 C 137.441406 179.191406 137.863281 178.847656 138.335938 178.59375 C 138.804688 178.335938 139.289062 178.148438 139.785156 178.027344 C 140.285156 177.90625 140.78125 177.824219 141.28125 177.785156 C 141.777344 177.742188 142.257812 177.722656 142.710938 177.722656 L 145.984375 177.722656 L 145.984375 174.976562 L 149.136719 174.976562 L 149.136719 177.722656 L 157.78125 177.722656 L 157.78125 181.964844 L 149.136719 181.964844 L 149.136719 190.042969 L 153.902344 191.578125 C 154.628906 191.820312 155.378906 192.101562 156.144531 192.429688 C 156.910156 192.75 157.632812 193.355469 158.304688 194.246094 C 158.894531 195.027344 159.253906 195.804688 159.375 196.570312 C 159.492188 197.339844 159.558594 198.179688 159.558594 199.09375 C 159.558594 199.605469 159.542969 200.117188 159.515625 200.628906 C 159.492188 201.140625 159.40625 201.636719 159.273438 202.121094 C 159.136719 202.605469 158.945312 203.070312 158.691406 203.511719 C 158.433594 203.957031 158.074219 204.355469 157.617188 204.703125 C 157.214844 205.023438 156.769531 205.277344 156.285156 205.453125 C 155.800781 205.628906 155.300781 205.753906 154.792969 205.835938 C 154.28125 205.917969 153.769531 205.964844 153.257812 205.980469 C 152.746094 205.996094 152.261719 206 151.804688 206 L 149.136719 206 L 149.136719 208.746094 L 145.988281 208.746094 L 145.988281 206 Z M 136.777344 206 " fill-opacity="1" fill-rule="nonzero"/><path fill="#25c19b" d="M 166.585938 71.527344 L 170.476562 103.917969 L 118.980469 82.011719 C 119.25 82.636719 130.507812 108.171875 138.832031 134.480469 L 150.675781 134.480469 C 150.105469 128.503906 148.988281 122.40625 147.039062 116.617188 L 171.726562 127.121094 C 171.726562 127.121094 171.796875 129.90625 171.738281 134.480469 L 182.917969 134.480469 C 185.152344 123.238281 186.542969 111.09375 186.128906 98.976562 L 294.199219 145.109375 C 270.914062 227.363281 216.984375 274.867188 139.378906 295.542969 C 129.40625 298.199219 119.046875 300.417969 108.300781 302.199219 C 115.695312 302.113281 122.925781 301.773438 129.980469 301.171875 C 223.714844 293.226562 287.390625 240.054688 316.859375 135.433594 Z M 166.585938 71.527344 " fill-opacity="1" fill-rule="nonzero"/><path fill="#25c19b" d="M 227.164062 159.574219 C 226.140625 159.136719 225.25 158.890625 224.496094 158.828125 C 223.746094 158.765625 223.144531 158.835938 222.667969 159.027344 C 222.09375 159.253906 221.605469 159.683594 221.191406 160.308594 C 220.773438 160.925781 220.457031 161.523438 220.214844 162.070312 C 219.925781 162.765625 219.78125 163.386719 219.789062 163.933594 C 219.796875 164.472656 219.882812 164.953125 220.050781 165.375 C 220.214844 165.785156 220.441406 166.144531 220.710938 166.429688 C 220.972656 166.714844 221.21875 166.953125 221.449219 167.136719 L 224.578125 169.832031 L 228.648438 160.199219 Z M 227.164062 159.574219 " fill-opacity="1" fill-rule="nonzero"/><path fill="#25c19b" d="M 222.851562 189.539062 C 223.429688 189.785156 224.191406 190.027344 225.117188 190.277344 C 226.054688 190.523438 226.839844 190.546875 227.488281 190.339844 C 227.941406 190.191406 228.390625 189.894531 228.835938 189.453125 C 229.28125 189.015625 229.660156 188.414062 229.984375 187.636719 C 230.4375 186.574219 230.601562 185.472656 230.480469 184.3125 C 230.363281 183.164062 229.609375 181.984375 228.222656 180.785156 L 225.851562 178.738281 L 221.523438 188.972656 Z M 222.851562 189.539062 " fill-opacity="1" fill-rule="nonzero"/><path fill="#25c19b" d="M 204.3125 188.46875 C 203.917969 192.765625 203.371094 196.96875 202.664062 201.082031 C 205.257812 203.277344 208.214844 205.121094 211.503906 206.519531 C 229.132812 214.019531 249.492188 205.757812 256.96875 188.0625 C 264.433594 170.371094 256.207031 149.945312 238.570312 142.445312 C 226.589844 137.351562 213.359375 139.539062 203.769531 147.003906 C 205.078125 159.191406 205.417969 170.8125 204.796875 181.863281 L 217.253906 187.160156 L 222.160156 175.546875 L 215.808594 170.058594 C 214.921875 169.292969 214.132812 168.492188 213.453125 167.664062 C 212.773438 166.832031 212.320312 165.652344 212.097656 164.128906 C 211.933594 162.890625 211.992188 161.71875 212.296875 160.609375 C 212.589844 159.507812 212.921875 158.511719 213.296875 157.628906 C 213.777344 156.496094 214.359375 155.394531 215.046875 154.324219 C 215.738281 153.253906 216.679688 152.433594 217.871094 151.859375 C 218.628906 151.484375 219.398438 151.265625 220.195312 151.1875 C 220.980469 151.113281 221.746094 151.128906 222.492188 151.257812 C 223.238281 151.375 223.957031 151.554688 224.65625 151.789062 C 225.363281 152.015625 226.015625 152.269531 226.636719 152.53125 L 231.078125 154.417969 L 232.664062 150.683594 L 236.9375 152.5 L 235.359375 156.242188 L 247.089844 161.226562 L 244.652344 167.003906 L 232.917969 162.019531 L 228.273438 173.015625 L 233.855469 177.859375 C 234.703125 178.609375 235.558594 179.425781 236.414062 180.308594 C 237.269531 181.195312 237.894531 182.4375 238.300781 184.039062 C 238.65625 185.441406 238.6875 186.703125 238.417969 187.816406 C 238.144531 188.9375 237.738281 190.117188 237.207031 191.363281 C 236.914062 192.058594 236.605469 192.75 236.273438 193.429688 C 235.9375 194.113281 235.542969 194.738281 235.082031 195.324219 C 234.621094 195.90625 234.089844 196.425781 233.488281 196.886719 C 232.882812 197.339844 232.167969 197.679688 231.347656 197.882812 C 230.609375 198.089844 229.863281 198.175781 229.105469 198.140625 C 228.351562 198.089844 227.601562 197.980469 226.863281 197.796875 C 226.117188 197.609375 225.394531 197.378906 224.699219 197.101562 C 223.992188 196.824219 223.335938 196.554688 222.707031 196.292969 L 219.09375 194.757812 L 217.507812 198.5 L 213.234375 196.675781 L 214.8125 192.933594 Z M 204.3125 188.46875 " fill-opacity="1" fill-rule="nonzero"/></svg>