<?xml version="1.0" encoding="utf-8"?>
<!-- Generator: Adobe Illustrator 25.0.1, SVG Export Plug-In . SVG Version: 6.00 Build 0)  -->
<svg version="1.0" id="katman_1" xmlns="http://www.w3.org/2000/svg" xmlns:xlink="http://www.w3.org/1999/xlink" x="0px" y="0px"
	 viewBox="0 0 800 600" style="enable-background:new 0 0 800 600;" xml:space="preserve">
<style type="text/css">
	.st0{fill:#041446;}
	.st1{fill:#E5002A;}
</style>
<g>
	<path class="st0" d="M119.7,273.3c3.9,0,7.5,0.7,10.8,2.2c3.3,1.5,6.1,3.5,8.5,6c2.4,2.5,4.3,5.5,5.6,8.9c1.3,3.4,2,7.1,2,11.1
		c0,3.7-0.6,7.2-1.8,10.6c-1.2,3.4-3,6.4-5.4,8.9c-2.4,2.6-5.4,4.6-8.9,6.2s-7.6,2.3-12.3,2.3c-4.6,0-8.6-0.7-12-2.2
		c-3.5-1.5-6.4-3.5-8.8-6c-2.4-2.5-4.2-5.5-5.4-8.9c-1.2-3.4-1.8-7.1-1.8-11v-49.7h13.3v28.5c1.9-2.1,4.2-3.8,6.9-5.1
		C112.9,273.9,116.1,273.3,119.7,273.3z M133.3,301.4c0-2.2-0.3-4.3-0.8-6.2c-0.6-1.9-1.4-3.6-2.7-5c-1.2-1.4-2.8-2.6-4.7-3.4
		c-1.9-0.8-4.2-1.2-7-1.2c-4.6,0-8.2,1.3-10.8,3.8c-2.6,2.5-3.9,6.5-3.9,12c0,5.5,1.3,9.4,3.9,12c2.6,2.5,6.2,3.8,10.8,3.8
		c2.7,0,5-0.4,7-1.2c1.9-0.8,3.5-1.9,4.7-3.4s2.1-3.1,2.7-5C133,305.7,133.3,303.6,133.3,301.4z"/>
	<path class="st0" d="M169.7,329.1h-13.3v-27.5c0-3.9,0.6-7.6,1.9-11c1.3-3.5,3.1-6.5,5.5-9c2.4-2.5,5.4-4.5,8.9-6
		c3.5-1.5,7.6-2.2,12.2-2.2c0.8,0,1.6,0.1,2.4,0.2c0.8,0.1,1.6,0.2,2.4,0.4v12.8c-0.7-0.1-1.4-0.3-2.1-0.4c-0.7-0.1-1.4-0.2-2.1-0.2
		c-3,0-5.5,0.4-7.6,1.2c-2,0.8-3.7,1.9-4.9,3.3c-1.3,1.4-2.1,3-2.7,4.9c-0.5,1.9-0.8,3.9-0.8,6V329.1z"/>
	<path class="st0" d="M224.3,317.2c4.7,0,8.2-1.5,10.4-4.4c2.2-2.9,3.4-6.7,3.4-11.4v-27.6h13.3v27.6c0,3.9-0.6,7.6-1.8,11
		c-1.2,3.4-3,6.4-5.3,8.9c-2.3,2.5-5.2,4.5-8.5,6c-3.4,1.5-7.2,2.2-11.4,2.2c-4.3,0-8.1-0.7-11.4-2.2c-3.4-1.5-6.2-3.5-8.5-6
		s-4.1-5.5-5.3-8.9c-1.2-3.4-1.8-7.1-1.8-11v-27.6h13.3v27.6c0,4.6,1.1,8.4,3.4,11.4C216.1,315.8,219.6,317.2,224.3,317.2z"/>
	<path class="st0" d="M287.7,295.7c2.7,0.5,5.4,1.1,7.9,1.7c2.5,0.6,4.8,1.5,6.8,2.7c2,1.1,3.6,2.7,4.8,4.5c1.2,1.9,1.8,4.3,1.8,7.3
		c0,3.1-0.7,5.8-2,8c-1.3,2.2-3.1,4.1-5.5,5.5s-5,2.5-8.1,3.2c-3.1,0.7-6.4,1-10.1,1c-1.5,0-3.1-0.1-4.9-0.2
		c-1.8-0.1-3.7-0.3-5.6-0.5c-1.9-0.2-3.8-0.5-5.6-0.8c-1.8-0.3-3.5-0.6-5.1-1v-12.5c1.3,0.4,2.8,0.7,4.6,0.9
		c1.8,0.3,3.7,0.5,5.7,0.7c2,0.2,4,0.3,6,0.4c2,0.1,3.9,0.2,5.6,0.2c4.4,0,7.6-0.3,9.4-1c1.9-0.7,2.8-1.8,2.8-3.4
		c0-0.5-0.2-1-0.5-1.4c-0.3-0.4-1-0.8-2-1.2c-1-0.4-2.4-0.8-4.3-1.2c-1.8-0.4-4.3-0.9-7.3-1.5c-1.4-0.3-3.2-0.7-5.4-1.1
		c-2.2-0.4-4.4-1.3-6.5-2.4c-2.1-1.2-3.9-2.8-5.5-4.9c-1.5-2.1-2.3-4.8-2.3-8.3c0-2.9,0.6-5.5,1.8-7.7c1.2-2.2,2.8-4,4.9-5.4
		c2.1-1.4,4.6-2.5,7.5-3.2c2.9-0.7,6-1,9.4-1c1.3,0,2.9,0.1,4.6,0.2c1.7,0.1,3.5,0.3,5.2,0.5c1.8,0.2,3.5,0.5,5.3,0.8
		c1.8,0.3,3.4,0.6,4.9,1v12.5c-1-0.3-2.4-0.6-4.1-0.8c-1.7-0.3-3.5-0.5-5.4-0.7c-1.9-0.2-3.8-0.4-5.7-0.5c-2-0.1-3.7-0.2-5.2-0.2
		c-3.9,0-6.6,0.4-8.1,1.1c-1.5,0.7-2.3,1.8-2.3,3.1c0,0.7,0.2,1.3,0.6,1.8c0.4,0.5,1.1,0.9,2,1.3c1,0.4,2.2,0.8,3.9,1.2
		C283.4,294.8,285.4,295.2,287.7,295.7z"/>
	<path class="st0" d="M341.8,295.7c2.7,0.5,5.4,1.1,7.9,1.7c2.5,0.6,4.8,1.5,6.8,2.7c2,1.1,3.6,2.7,4.8,4.5c1.2,1.9,1.8,4.3,1.8,7.3
		c0,3.1-0.7,5.8-2,8c-1.3,2.2-3.1,4.1-5.5,5.5s-5,2.5-8.1,3.2c-3.1,0.7-6.4,1-10.1,1c-1.5,0-3.1-0.1-4.9-0.2
		c-1.8-0.1-3.7-0.3-5.6-0.5c-1.9-0.2-3.8-0.5-5.6-0.8c-1.8-0.3-3.5-0.6-5.1-1v-12.5c1.3,0.4,2.8,0.7,4.6,0.9
		c1.8,0.3,3.7,0.5,5.7,0.7c2,0.2,4,0.3,6,0.4c2,0.1,3.9,0.2,5.6,0.2c4.4,0,7.6-0.3,9.4-1c1.9-0.7,2.8-1.8,2.8-3.4
		c0-0.5-0.2-1-0.5-1.4c-0.3-0.4-1-0.8-2-1.2c-1-0.4-2.4-0.8-4.3-1.2c-1.8-0.4-4.3-0.9-7.3-1.5c-1.4-0.3-3.2-0.7-5.4-1.1
		c-2.2-0.4-4.4-1.3-6.5-2.4c-2.1-1.2-3.9-2.8-5.5-4.9c-1.5-2.1-2.3-4.8-2.3-8.3c0-2.9,0.6-5.5,1.8-7.7c1.2-2.2,2.8-4,4.9-5.4
		c2.1-1.4,4.6-2.5,7.5-3.2c2.9-0.7,6-1,9.4-1c1.3,0,2.9,0.1,4.6,0.2c1.7,0.1,3.5,0.3,5.2,0.5c1.8,0.2,3.5,0.5,5.3,0.8
		c1.8,0.3,3.4,0.6,4.9,1v12.5c-1-0.3-2.4-0.6-4.1-0.8c-1.7-0.3-3.5-0.5-5.4-0.7c-1.9-0.2-3.8-0.4-5.7-0.5c-2-0.1-3.7-0.2-5.2-0.2
		c-3.9,0-6.6,0.4-8.1,1.1c-1.5,0.7-2.3,1.8-2.3,3.1c0,0.7,0.2,1.3,0.6,1.8c0.4,0.5,1.1,0.9,2,1.3c1,0.4,2.2,0.8,3.9,1.2
		C337.4,294.8,339.4,295.2,341.8,295.7z"/>
	<path class="st0" d="M397.6,309.7c-2.4,0-4.9-0.3-7.5-0.9c-2.5-0.6-4.9-1.4-7-2.4c0.7,3.2,2.3,5.7,4.8,7.6c2.5,1.9,6.5,2.9,12,2.9
		c1.2,0,2.5-0.1,4.1-0.2s3.1-0.2,4.8-0.4c1.6-0.1,3.2-0.3,4.6-0.6c1.5-0.3,2.7-0.6,3.8-0.9v12.5c-1.3,0.4-2.8,0.7-4.4,1
		c-1.6,0.3-3.2,0.6-4.8,0.8c-1.6,0.2-3.2,0.4-4.7,0.5c-1.5,0.1-2.9,0.2-4.3,0.2c-4.9,0-9.3-0.7-13-2.2c-3.7-1.5-6.8-3.5-9.3-6
		c-2.5-2.5-4.3-5.5-5.5-8.9c-1.2-3.4-1.8-7.1-1.8-10.9c0-4,0.6-7.7,1.9-11.1c1.3-3.4,3.1-6.4,5.5-9c2.4-2.6,5.3-4.6,8.8-6.1
		c3.5-1.5,7.5-2.2,12-2.2c3.4,0,6.5,0.4,9.4,1.3c2.9,0.9,5.4,2.1,7.5,3.8c2.1,1.6,3.7,3.5,4.9,5.7c1.1,2.2,1.7,4.7,1.7,7.4
		c0,2.7-0.6,5.2-1.7,7.5c-1.1,2.2-2.7,4.2-4.8,5.7c-2.1,1.6-4.5,2.8-7.4,3.7C404.2,309.3,401,309.7,397.6,309.7z M397.7,296.9
		c3.1,0,5.5-0.5,7.3-1.4c1.8-0.9,2.7-2.3,2.7-4c0-1.8-0.9-3.1-2.6-4c-1.7-0.9-4.1-1.4-7-1.4c-3.9,0-7,0.8-9.2,2.3
		c-2.2,1.5-3.9,3.5-4.9,6c2,0.8,4.2,1.4,6.7,1.9C393,296.7,395.4,296.9,397.7,296.9z"/>
	<path class="st0" d="M444.6,329.1h-13.3v-77.3h13.3V329.1z"/>
	<path class="st0" d="M481,295.7c2.7,0.5,5.4,1.1,7.9,1.7c2.5,0.6,4.8,1.5,6.8,2.7c2,1.1,3.6,2.7,4.8,4.5c1.2,1.9,1.8,4.3,1.8,7.3
		c0,3.1-0.7,5.8-2,8c-1.3,2.2-3.1,4.1-5.5,5.5s-5,2.5-8.1,3.2s-6.4,1-10.1,1c-1.5,0-3.1-0.1-4.9-0.2c-1.8-0.1-3.7-0.3-5.6-0.5
		c-1.9-0.2-3.8-0.5-5.6-0.8c-1.8-0.3-3.5-0.6-5.1-1v-12.5c1.3,0.4,2.8,0.7,4.6,0.9c1.8,0.3,3.7,0.5,5.7,0.7c2,0.2,4,0.3,6,0.4
		c2,0.1,3.9,0.2,5.6,0.2c4.4,0,7.6-0.3,9.4-1c1.9-0.7,2.8-1.8,2.8-3.4c0-0.5-0.2-1-0.5-1.4c-0.3-0.4-1-0.8-2-1.2
		c-1-0.4-2.4-0.8-4.3-1.2c-1.8-0.4-4.3-0.9-7.3-1.5c-1.4-0.3-3.2-0.7-5.4-1.1c-2.2-0.4-4.4-1.3-6.5-2.4c-2.1-1.2-3.9-2.8-5.5-4.9
		c-1.5-2.1-2.3-4.8-2.3-8.3c0-2.9,0.6-5.5,1.8-7.7c1.2-2.2,2.8-4,4.9-5.4c2.1-1.4,4.6-2.5,7.5-3.2c2.9-0.7,6-1,9.4-1
		c1.3,0,2.9,0.1,4.6,0.2c1.7,0.1,3.5,0.3,5.2,0.5c1.8,0.2,3.5,0.5,5.3,0.8c1.8,0.3,3.4,0.6,4.9,1v12.5c-1-0.3-2.4-0.6-4.1-0.8
		c-1.7-0.3-3.5-0.5-5.4-0.7c-1.9-0.2-3.8-0.4-5.7-0.5c-2-0.1-3.7-0.2-5.2-0.2c-3.9,0-6.6,0.4-8.1,1.1c-1.5,0.7-2.3,1.8-2.3,3.1
		c0,0.7,0.2,1.3,0.6,1.8c0.4,0.5,1.1,0.9,2,1.3c1,0.4,2.2,0.8,3.9,1.2C476.6,294.8,478.6,295.2,481,295.7z"/>
</g>
<g>
	<path class="st0" d="M315.7,372.3h-11.9l-2.3,5.9H298l10.4-25.5h2.8l10.4,25.5H318L315.7,372.3z M309.7,357l-4.8,12.5h9.7
		L309.7,357z"/>
	<path class="st0" d="M334.7,352.8h3.2v25.5h-3.2V352.8z"/>
	<path class="st0" d="M356.2,367.4v10.9H353v-25.5h7.4c2.5,0,4.6,0.7,6.2,2.1c1.6,1.4,2.4,3.3,2.4,5.7c0,2.2-0.8,4-2.3,5.4
		s-3.3,2.1-5.5,2.3l9.9,10.2h-4.5L356.2,367.4z M356.2,365.4c0.3,0,1.2,0,2.8,0c4.4,0,6.7-1.6,6.7-4.9c0-1.5-0.5-2.7-1.4-3.6
		c-1-0.9-2.3-1.3-4-1.3h-4.1V365.4z"/>
	<path class="st0" d="M384.2,352.8h3.2v22.5h9v3h-12.2V352.8z"/>
	<path class="st0" d="M409.7,352.8h3.2v25.5h-3.2V352.8z"/>
	<path class="st0" d="M444.6,352.8h3.2v25.5h-3l-13.7-19.8h-0.1v19.8h-3.2v-25.5h3l13.7,19.8h0.1V352.8z"/>
	<path class="st0" d="M462.9,352.8h13.2v3h-10v8.1h10v3h-10v8.4h10v3h-13.2V352.8z"/>
	<path class="st0" d="M502.4,360c-0.2-1.5-0.8-2.7-1.6-3.6s-1.9-1.3-3.3-1.3c-1.6,0-2.8,0.4-3.5,1.3s-1.1,1.8-1.1,2.9
		c0,1.8,1.2,3.1,3.7,4.1l3.2,1.2c4,1.5,5.9,3.8,5.9,7c0,2.1-0.8,3.8-2.3,5.1c-1.5,1.3-3.5,2-5.9,2c-2.4,0-4.3-0.6-5.8-1.9
		c-1.5-1.3-2.3-3.2-2.5-5.6h3.2c0.3,3.2,2.1,4.7,5.3,4.7c1.4,0,2.5-0.4,3.4-1.2c0.9-0.8,1.4-1.7,1.4-2.9c0-1.7-1.3-3.1-4-4.2
		l-3.3-1.3c-3.8-1.5-5.7-3.8-5.7-7c0-2.1,0.8-3.8,2.3-5.1s3.4-1.9,5.6-1.9c2.2,0,4,0.7,5.5,2c1.4,1.3,2.3,3.2,2.4,5.7H502.4z"/>
</g>
<circle class="st1" cx="565.2" cy="367.1" r="10"/>
<circle class="st1" cx="667.8" cy="367.1" r="10"/>
<circle class="st1" cx="565.2" cy="264.4" r="10"/>
<circle class="st1" cx="565.2" cy="313.9" r="15.4"/>
<circle class="st1" cx="616.5" cy="264.4" r="10"/>
<circle class="st1" cx="667.8" cy="264.4" r="15.4"/>
<circle class="st1" cx="616.5" cy="313.9" r="20.2"/>
<circle class="st1" cx="616.5" cy="367.1" r="17.2"/>
<circle class="st1" cx="667.8" cy="313.9" r="17.2"/>
</svg>
