<?xml version="1.0" encoding="utf-8"?>
<!-- Generator: Adobe Illustrator 26.0.3, SVG Export Plug-In . SVG Version: 6.00 Build 0)  -->
<svg version="1.0" id="katman_1" xmlns="http://www.w3.org/2000/svg" xmlns:xlink="http://www.w3.org/1999/xlink" x="0px" y="0px"
	 viewBox="0 0 600 450" style="enable-background:new 0 0 600 450;" xml:space="preserve">
<style type="text/css">
	.st0{clip-path:url(#SVGID_00000039851373151045713390000005491422535773282726_);}
	.st1{fill:#252525;}
	.st2{fill:#CD2F7A;}
</style>
<g>
	<defs>
		<rect id="SVGID_1_" x="59.9" y="155.1" width="480.4" height="140.6"/>
	</defs>
	<clipPath id="SVGID_00000152240564468734858230000008125502228849855119_">
		<use xlink:href="#SVGID_1_"  style="overflow:visible;"/>
	</clipPath>
	<g style="clip-path:url(#SVGID_00000152240564468734858230000008125502228849855119_);">
		<path class="st1" d="M116.8,156.3c2.8-1.6,6.2-1.6,9,0l52.4,30.6c2.8,1.6,4.5,4.6,4.5,7.9V256c0,3.2-1.6,6.2-4.4,7.9l-52.4,30.6
			c-2.8,1.6-6.2,1.6-9,0l-52.4-30.6c-2.8-1.6-4.5-4.6-4.5-7.9v-61.2c0-3.2,1.7-6.3,4.4-7.9L116.8,156.3z M101,187.4l-22.5,13.2
			c-0.7,0.4-1.1,1.1-1.1,1.9v48.8c0,0.9,0.5,1.7,1.2,2.1l41.2,24.2c1,0.6,2.2,0.6,3.2,0l21.2-12.4c0.3-0.2,0.4-0.4,0.4-0.7
			c0-0.3-0.2-0.6-0.4-0.7l-41.5-24.3c-0.3-0.2-0.5-0.6-0.5-1v-50.4c0-0.3-0.2-0.6-0.4-0.7C101.6,187.2,101.3,187.3,101,187.4z"/>
		<path class="st1" d="M209,245l27.2-36.3h-25.8V199h39.2v9.7L222.7,245h27.2v9.7H209V245z"/>
		<path class="st1" d="M295.3,249.5c-0.8,0.7-1.8,1.3-2.7,1.8c-1.3,0.7-2.6,1.2-3.9,1.7c-1.6,0.5-3.3,1-4.9,1.2
			c-1.9,0.3-3.8,0.5-5.7,0.5c-3.2,0-6.3-0.4-9.4-1.4c-5.3-1.7-9.5-5.6-11.4-10.5c-1.1-2.8-1.6-5.7-1.5-8.6c-0.1-3.1,0.5-6.1,1.7-9
			c1.1-2.4,2.7-4.6,4.7-6.4c2-1.7,4.4-3,7-3.9c2.8-0.9,5.7-1.3,8.7-1.2c2.2,0,4.3,0.3,6.4,0.8c2.2,0.5,4.3,1.4,6.1,2.7
			c1.9,1.3,3.5,3.1,4.5,5.1c1.3,2.5,1.9,5.3,1.8,8.1c0,2.4-0.3,4.8-0.8,7.2h-29.4c0,1.5,0.4,2.9,1.1,4.2c0.7,1.1,1.6,2.1,2.7,2.8
			c1.2,0.7,2.5,1.3,3.9,1.6c1.5,0.3,3,0.5,4.6,0.5c2.7,0.1,5.5-0.3,8.1-1.1c1.9-0.6,3.6-1.5,5.1-2.7L295.3,249.5z M277.6,221.7
			c-1.4,0-2.7,0.2-4,0.6c-1.2,0.4-2.4,0.9-3.4,1.6c-1,0.7-1.9,1.6-2.5,2.7c-0.7,1.1-1.1,2.3-1.1,3.6h20.1c0.2-2.3-0.6-4.6-2.4-6.3
			S280.1,221.4,277.6,221.7z"/>
		<path class="st1" d="M302.5,214.8h14.3l1.2,5.2h0.3c1.4-1.9,3.3-3.4,5.4-4.5c2.6-1.3,5.5-2,8.4-1.9c1.9,0,3.8,0.3,5.7,0.8
			c1.7,0.5,3.3,1.4,4.5,2.6c1.4,1.4,2.4,3.1,3,5c0.8,2.5,1.2,5.1,1.1,7.8v24.8h-10.6V232c0-3.2-0.7-5.6-2.2-7
			c-1.5-1.4-3.6-2.2-5.7-2.1c-2,0-3.9,0.6-5.5,1.7c-1.6,1-2.8,2.5-3.4,4.3v25.8h-10.6v-31.1h-5.9V214.8z"/>
		<path class="st1" d="M355.1,196.1h17.2V234c0,4.2,0.5,7.1,1.5,8.8c1.1,1.7,3,2.6,5,2.5c1.4,0,2.8-0.1,4.1-0.5
			c1.1-0.4,2.2-0.9,3.2-1.5l4,7.4c-0.9,0.6-1.8,1.2-2.8,1.7c-0.9,0.5-1.9,1-2.9,1.3c-1.1,0.4-2.2,0.6-3.4,0.8
			c-1.4,0.2-2.7,0.3-4.1,0.3c-5.1,0-8.9-1.3-11.4-3.9c-2.6-2.6-3.8-6.4-3.8-11.2v-34.4h-6.7V196.1z"/>
		<path class="st1" d="M401.8,245.6h13.7v-23h-13.7v-9h23.7v32h14.3v9h-38V245.6z"/>
		<path class="st1" d="M445.6,214.8h14.2l1.2,5.2h0.3c1.4-1.9,3.3-3.4,5.4-4.5c2.6-1.3,5.5-2,8.4-1.9c1.9,0,3.8,0.3,5.7,0.8
			c1.7,0.5,3.3,1.4,4.5,2.6c1.4,1.4,2.4,3.1,3,5c0.8,2.5,1.2,5.1,1.1,7.8v24.8h-10.6V232c0-3.2-0.7-5.6-2.2-7
			c-1.5-1.4-3.5-2.2-5.7-2.1c-2,0-3.9,0.6-5.5,1.7c-1.6,1-2.8,2.5-3.4,4.3v25.8h-10.6v-31.1h-5.9V214.8z"/>
		<path class="st1" d="M492.4,199h17.1v31.7h2.4l13.2-15.8h12.3L521.2,233l10.5,12.9h7.5v8.7h-13l-13.8-16.5h-2.8v16.5H499v-46.9
			h-6.6V199z"/>
		<path class="st2" d="M417.9,207.8c4,0,7.3-3.3,7.3-7.3s-3.3-7.3-7.3-7.3c-4,0-7.3,3.3-7.3,7.3S413.9,207.8,417.9,207.8z"/>
	</g>
</g>
</svg>
