<?xml version="1.0" encoding="utf-8"?>
<!-- Generator: Adobe Illustrator 26.0.3, SVG Export Plug-In . SVG Version: 6.00 Build 0)  -->
<svg version="1.0" id="katman_1" xmlns="http://www.w3.org/2000/svg" xmlns:xlink="http://www.w3.org/1999/xlink" x="0px" y="0px"
	 viewBox="0 0 310.2 231.6" style="enable-background:new 0 0 310.2 231.6;" xml:space="preserve">
<style type="text/css">
	.st0{fill:#1D1D1B;}
	.st1{fill:none;stroke:#BA9B35;stroke-width:1.33;stroke-miterlimit:10;}
	.st2{fill:none;stroke:#BA9B35;stroke-width:1.33;stroke-miterlimit:10;stroke-dasharray:1.96,1.96;}
	.st3{fill:none;stroke:#BA9B35;stroke-width:1.33;stroke-miterlimit:10;stroke-dasharray:1.99,1.99;}
	.st4{fill:none;stroke:#BA9B35;stroke-width:1.33;stroke-miterlimit:10;stroke-dasharray:1.98,1.98;}
	.st5{fill:#BA9B35;}
	.st6{font-family:'ArialMT';}
	.st7{font-size:11.94px;}
	.st8{fill:none;stroke:#BA9B35;stroke-width:0.66;stroke-miterlimit:10;}
</style>
<g id="Layer_2">
	<g id="Layer_2-2">
		<g>
			<path class="st0" d="M95.5,120.4c-1,0-1.8,0.8-2.3,1.4l-5,5.8c-0.6,0.7-1,1.5-1.1,2.4l-0.3,32.6c0,0.1,0,0.2,0,0.3
				c0.1,1.7,1.5,2.9,3,2.9c0.1,0,0.1,0,0.2,0l3.5,0c0.9,0,1.7-0.3,2.3-0.8c0.7-0.6,1-1.4,1-2.3l0.4-40.3
				C97.2,120.5,95.7,120.4,95.5,120.4z M88.1,162.8L88.1,162.8L88.1,162.8L88.1,162.8z"/>
			<path class="st0" d="M95.5,110.1l-5.6,0c-1,0-2,0.5-2.5,1.3l-20.9,24.8L45.4,111c-0.8-0.8-1.9-1.2-3-1.2l-3.1,0
				c-0.9,0-1.8,0.3-2.4,1c-0.6,0.6-0.9,1.5-0.9,2.3l-0.4,49c-0.1,0.9,0.3,1.8,0.9,2.4c0.6,0.6,1.4,0.9,2.2,0.9c0,0,0.1,0,0.1,0
				l2.9,0c0.9,0,1.7-0.3,2.3-0.8c0.7-0.6,1.1-1.5,1-2.3l0.3-37.3l18.1,21.4c0.2,0.3,0.5,0.6,0.7,0.7c0.6,0.4,1.3,0.7,2.1,0.7
				c0.7,0,1.4-0.2,1.9-0.6c0.3-0.2,0.6-0.4,0.8-0.7L96.7,114c0.4-0.5,0.7-1,0.8-1.6l0-0.3c0-0.7-0.3-1.1-0.5-1.4
				C96.8,110.4,96.3,110.1,95.5,110.1z"/>
			<path class="st0" d="M131.2,159.7l-23.3,0l0-15.5h19.5c1.5,0,2.7-1.2,2.7-2.7c0-0.7-0.3-1.4-0.8-1.9c-0.5-0.5-1.2-0.8-1.9-0.8
				c0,0,0,0,0,0l-19.6,0l0-14.5h22.7c1.5,0,2.7-1.2,2.7-2.7l0-0.2c-0.1-1.4-1.2-2.5-2.6-2.6h-25.9c-1.5,0-2.7,1.2-2.7,2.7v41
				c0,1.5,1.2,2.7,2.7,2.7h26.4c1.5,0,2.7-1.2,2.7-2.7l0-0.2C133.9,160.9,132.7,159.7,131.2,159.7z"/>
			<path class="st0" d="M176,118.8L176,118.8c-1.6,0-2.9,1.3-2.9,2.9v32.4c0,0.1,0,0.1-0.1,0.2c-0.1,0.1-0.1,0.1-0.2,0.1
				c0,0-0.1,0-0.2-0.1l-27.4-34.4c-0.5-0.7-1.4-1.1-2.3-1.1c-1.6,0-2.9,1.3-2.9,2.9v40.6c0,1.6,1.3,2.9,2.9,2.9
				c1.6,0,2.9-1.3,2.9-2.9l0-31.8c0-0.1,0-0.1,0.1-0.2c0.1-0.1,0.1-0.1,0.2-0.1c0,0,0.1,0,0.2,0.1l26.9,33.7
				c0.5,0.7,1.4,1.1,2.3,1.1c0,0,0,0,0,0h0.6c1.6,0,2.9-1.3,2.9-2.9v-40.5C178.9,120.1,177.6,118.8,176,118.8z"/>
			<path class="st0" d="M215.3,143.3L215.3,143.3c-1.6-1.1-3.4-1.9-5.2-2.4c-1.7-0.6-3.8-1.1-6.6-1.7c-2.1-0.4-4-0.9-5.7-1.4
				c-1.3-0.4-2.5-0.9-3.7-1.5c-0.8-0.4-1.4-1.1-1.8-1.8c-0.4-0.9-0.6-1.9-0.6-2.9l0-0.1l0-0.1c-0.1-2.1,0.8-4.1,2.5-5.5
				c1.7-1.4,4.6-2.1,8.5-2.1c4.2,0,7.5,1.1,10,3.3c0.1,0.1,0.2,0.2,0.3,0.2c1,0.6,2.2,0.5,3-0.1l0.2,0.1l0.5-0.8
				c0.7-1.2,0.5-2.7-0.5-3.6c-1.6-1.4-3.5-2.5-5.5-3.2c-2.6-0.9-5.3-1.4-8-1.3c-2.2,0-4.5,0.3-6.6,0.8c-1.9,0.5-3.7,1.4-5.3,2.6
				c-1.5,1.1-2.7,2.6-3.6,4.3c-0.9,1.8-1.3,3.8-1.3,5.8c-0.1,1.8,0.3,3.5,1.1,5.2c0.8,1.4,1.9,2.6,3.2,3.5c1.5,1,3.2,1.8,4.9,2.3
				c1.6,0.5,3.3,0.9,5.2,1.3l1.1,0.3c2.2,0.5,4.2,1,5.9,1.5c1.4,0.4,2.7,1,4,1.8c0.9,0.5,1.6,1.3,2.1,2.1c0.5,0.9,0.7,2,0.7,3l0,0.1
				l0,0.1c0.1,2.1-0.9,4-2.6,5.2c-1.9,1.2-4.7,1.9-8.3,1.9c-3,0-5.8-0.5-8.5-1.6c-1.9-0.8-3.7-1.9-5.2-3.2c-0.1-0.1-0.2-0.2-0.3-0.3
				c-1.3-0.8-3-0.5-3.7,0.7l-0.1,0.1c-0.8,1.2-0.5,2.7,0.5,3.6c4.7,3.9,10.6,6,16.6,6c0.2,0,0.4,0,0.6,0c2.3,0,4.5-0.2,6.7-0.8
				c1.9-0.5,3.7-1.3,5.4-2.4c1.5-1,2.8-2.5,3.6-4.1c0.9-1.8,1.3-3.7,1.3-5.6c0.1-1.9-0.4-3.8-1.2-5.6
				C217.9,145.6,216.7,144.3,215.3,143.3z"/>
			<path class="st0" d="M261.4,161.2l-17.3-40.7c-0.4-1.1-1.5-1.7-2.6-1.7c0,0,0,0,0,0h-0.6c0,0,0,0,0,0c-1.1,0-2.2,0.7-2.6,1.7
				L221,161.2c-0.2,0.4-0.2,0.7-0.2,1.1c0,1.6,1.3,2.9,2.9,2.9c1.1,0,2.2-0.7,2.6-1.7l5.3-12.6c0-0.1,0.1-0.1,0.2-0.1h18.9
				c0.1,0,0.1,0,0.2,0.1l5.3,12.5c0.4,1.1,1.5,1.8,2.7,1.8c0.4,0,0.7-0.1,1.1-0.2C261.3,164.4,262,162.7,261.4,161.2z M241,127.8
				c0-0.1,0.1-0.1,0.1-0.1c0,0,0.1,0,0.1,0c0.1,0,0.2,0,0.2,0.1l7.3,17.5c0,0.1-0.1,0.2-0.2,0.2h0l-14.8,0c-0.1,0-0.1-0.2-0.1-0.3
				L241,127.8z"/>
		</g>
		<line class="st1" x1="270.3" y1="173.3" x2="270.3" y2="172.3"/>
		<line class="st2" x1="270.3" y1="170.4" x2="270.3" y2="81.1"/>
		<line class="st1" x1="270.3" y1="80.1" x2="270.3" y2="79.1"/>
		<line class="st1" x1="270.8" y1="82.5" x2="269.9" y2="82.1"/>
		<line class="st3" x1="268" y1="81.3" x2="181.6" y2="43.4"/>
		<line class="st1" x1="180.7" y1="43" x2="179.8" y2="42.6"/>
		<line class="st1" x1="179.8" y1="42.6" x2="179" y2="43.1"/>
		<line class="st4" x1="177.2" y1="44.1" x2="102.2" y2="86.6"/>
		<line class="st1" x1="101.4" y1="87.1" x2="100.5" y2="87.6"/>
		<path class="st5" d="M272.3,171.1c-0.3-1.8-1.9-3.2-3.8-3c-1.8,0.4-3,2-2.9,3.8c0.3,1.9,2,3.2,3.9,3
			C271.3,174.6,272.5,172.9,272.3,171.1z"/>
		<path class="st5" d="M103.8,87.2c-0.3-1.8-1.9-3.2-3.8-3c-1.8,0.4-3.1,2-2.9,3.8c0.3,1.9,2,3.2,3.9,3
			C102.8,90.6,104,89,103.8,87.2z"/>
		<path class="st5" d="M273.2,81.7c-0.3-1.8-1.9-3.2-3.8-3c-1.8,0.4-3.1,2-2.9,3.9c0.3,1.9,2,3.2,3.9,3
			C272.2,85.2,273.4,83.5,273.2,81.7z"/>
		<path class="st5" d="M183.2,42.5c-0.3-1.8-1.9-3.2-3.8-3c-1.8,0.4-3,2-2.9,3.8c0.3,1.9,2,3.2,3.9,3
			C182.2,46,183.4,44.3,183.2,42.5z"/>
		<text transform="matrix(1 0 0 1 153.0122 186.5511)" class="st0 st6 st7">HOUSE OF BRANDS</text>
		<line class="st8" x1="263.2" y1="172.5" x2="98" y2="172.5"/>
	</g>
</g>
</svg>
