<?xml version="1.0" encoding="utf-8"?>
<!-- Generator: Adobe Illustrator 26.0.3, SVG Export Plug-In . SVG Version: 6.00 Build 0)  -->
<svg version="1.0" id="katman_1" xmlns="http://www.w3.org/2000/svg" xmlns:xlink="http://www.w3.org/1999/xlink" x="0px" y="0px"
	 viewBox="0 0 207.6 131.4" style="enable-background:new 0 0 207.6 131.4;" xml:space="preserve">
<style type="text/css">
	.st0{fill:#51AF33;}
	.st1{fill:#254F17;}
	.st2{fill:#FFFFFF;}
</style>
<g id="Layer_2">
	<g id="Identity">
		<path class="st0" d="M144.5,76.3h-2.7c-0.8,0-1.5-0.6-1.5-1.5c0,0,0,0,0-0.1h0c-0.7,1.4-2.5,2-4.1,2c-4.5,0-7.1-3.5-7.1-7.6
			c0-4.6,3.3-7.5,7.1-7.5c1.6-0.1,3.2,0.7,4.1,2h0c0-0.8,0.6-1.5,1.4-1.5c0,0,0,0,0.1,0h2.7V76.3z M136.8,72.9
			c1.9,0,3.5-1.5,3.5-3.4c0-0.1,0-0.1,0-0.2c0.2-1.9-1.2-3.7-3.2-3.9c-1.9-0.2-3.7,1.2-3.9,3.2c0,0.2,0,0.5,0,0.7
			C133.3,71.2,134.8,72.8,136.8,72.9L136.8,72.9z"/>
		<path class="st0" d="M149.3,57.5h1.3v5.8c1.1-1.1,2.6-1.7,4.1-1.6c2.9,0,6.9,2.1,6.9,7.5c0,5.1-3.5,7.6-7.1,7.6
			c-1.6,0.1-3.1-0.7-4-2l0,0v1.5h-4.2V60.4C146.3,58.8,147.7,57.5,149.3,57.5z M153.9,72.9c2-0.1,3.5-1.8,3.5-3.7
			c-0.1-1.8-1.5-3.3-3.4-3.4c-1.9,0-3.5,1.5-3.5,3.4c0,0,0,0.1,0,0.1c-0.1,1.9,1.3,3.5,3.2,3.6C153.7,72.9,153.8,72.9,153.9,72.9
			L153.9,72.9z"/>
		<path class="st0" d="M165.7,57.5h1.2v5.8c1.1-1.1,2.6-1.7,4.1-1.6c2.9,0,6.9,2.1,6.9,7.5c0,5.1-3.5,7.6-7.1,7.6
			c-1.6,0.1-3.1-0.7-4-2l0,0v1.5h-4.1V60.4C162.8,58.8,164.1,57.5,165.7,57.5z M170.2,72.9c2-0.1,3.5-1.8,3.5-3.7
			c-0.1-1.8-1.5-3.3-3.4-3.4c-1.9,0-3.5,1.5-3.5,3.4c0,0,0,0.1,0,0.1c-0.1,1.9,1.3,3.5,3.2,3.6C170.1,72.9,170.2,72.9,170.2,72.9
			L170.2,72.9z"/>
		<path class="st0" d="M183.3,76.3h-4.1V65.2c0-1.6,1.2-2.9,2.8-3c0,0,0.1,0,0.1,0h1.2L183.3,76.3z"/>
		<circle class="st0" cx="181.3" cy="59.2" r="2.2"/>
		<path class="st0" d="M127.1,72.1c-0.7,0-1.4-0.4-1.9-0.9l-0.7-0.9l0,0l-0.3-0.4c2.8-0.5,4.8-3.1,4.7-5.9c0.1-2-0.8-3.9-2.3-5.1
			c-1.2-0.9-2.5-1.4-5.8-1.4h-6v18.8h4.6v-5.6l1.8,2.2l0.7,0.9c1.3,1.5,3.2,2.4,5.2,2.5h1.9v-4.3H127.1z M121.1,67h-1.7v-5.2h1.7
			c1.8,0,3.1,0.8,3.1,2.5C124.3,65.2,124,67,121.1,67L121.1,67z"/>
		<path class="st0" d="M191.4,72.1c-0.4,0-0.9-0.1-1.3-0.3c-0.6-0.3-1-1.1-0.9-1.8v-1.6l0,0v-2.9h2.8v-3.3h-2.8v-4.6H188
			c-1.7,0-3,1.3-3,3V70c-0.1,3.4,2.6,6.3,6.1,6.4c0.1,0,0.2,0,0.3,0h0.6v-4.3H191.4z"/>
		<path class="st1" d="M64.1,61.8h-4.3v-1.3c-0.1-1.6,1.2-2.9,2.7-3c0.1,0,0.1,0,0.2,0H73v4.3h-4.1v14.7h-1.8c-1.7,0-3-1.3-3-3
			L64.1,61.8z"/>
		<path class="st1" d="M85.9,76.3h-2.7c-0.8,0-1.5-0.6-1.5-1.5c0,0,0,0,0-0.1h-0.1c-0.7,1.4-2.5,2-4.1,2c-4.5,0-7.1-3.5-7.1-7.6
			c0-4.6,3.3-7.5,7.1-7.5c1.6-0.1,3.2,0.7,4.1,2h0.1c0-0.8,0.6-1.5,1.4-1.5c0,0,0,0,0.1,0h2.7L85.9,76.3z M78.2,72.9
			c1.9,0,3.5-1.5,3.5-3.4c0-0.1,0-0.1,0-0.2c0.2-1.9-1.2-3.7-3.2-3.9s-3.7,1.2-3.9,3.2c0,0.2,0,0.5,0,0.7
			C74.7,71.3,76.2,72.8,78.2,72.9z"/>
		<path class="st1" d="M93.9,66.2c0-0.3-0.1-1.1-1.3-1.1c-0.9,0-1.2,0.6-1.2,0.9c0,0.8,1,1.2,2.2,1.5c2.4,0.7,4.9,1.4,4.9,4.4
			s-2.6,4.8-5.7,4.8c-2.1,0-5.4-1-5.7-4.7h4.2c0.1,0.8,0.7,1.4,1.6,1.4c0,0,0,0,0,0c0.7,0,1.5-0.4,1.5-1.1c0-1.1-1-1.2-3.7-2.3
			c-1.8-0.6-3.3-1.8-3.4-3.7c0-2.8,2.5-4.7,5.5-4.7c1.9,0,5.1,0.7,5.4,4.4L93.9,66.2z"/>
		<path class="st1" d="M99.6,72.6v3.8h4.3v-3.7l0,0v-3l0,0c0,0,0.6,0.9,2.2,3.4c2.2,3.3,6.5,3.3,6.7,3.3h1v-3.7h-1
			c0,0-2.5,0-3.6-1.7l-1.5-2.2l-0.2-0.3l5.3-6.2h-5l-3.9,5.1h-0.1v-6.9c0-1.6-1.2-2.9-2.8-2.9c-0.1,0-0.1,0-0.2,0h-1.2V72.6z"/>
		<path class="st0" d="M54,64.2c-2-3.3-3.5-3.7-4.7-4.1c-1.1-0.3-2-0.6-3.8-3.6c-1.3-2.1-2.9-4.1-4.8-5.7c-2.4-2-4.1-2.4-5.1-2.4
			c-0.7,0-1.3,0.2-1.8,0.5L33,49.6c-0.2-0.1-0.5-0.1-0.7-0.1c-0.4,0-0.8,0.1-1.1,0.4c-0.4,0.3-0.6,0.9-0.5,1.4
			c0.2,0.9,0.6,1.7,1.3,2.3c0.3,0.3,0.6,0.7,1,1.1c-5.2-0.9-10.5,1.1-13.8,5.2h-0.3c-1.1,0-2.1,0.5-2.7,1.5
			c-0.5,0.8-0.6,1.7-0.3,2.5c0.1,0.5,0.4,0.9,0.7,1.2c-2.1,7.6,2.5,15.5,10.1,17.6c6.4,1.7,13.1-1.2,16.3-7c0.2,0,0.5,0,0.7,0
			c0.6,0,1.2-0.1,1.8-0.4c0.6-0.3,1-0.9,1.1-1.6c0.1-0.7-0.3-1.4-0.9-1.7c-0.4-0.2-0.8-0.4-1.2-0.6c0.1-0.3,0.1-0.7,0.2-1
			c1,0.3,2,0.5,3.1,0.4c0.5,0,0.9,0,1.6-0.1c3.4-0.2,4.8-1.5,5.3-2.5C54.9,67.5,55.2,66.1,54,64.2z"/>
		<path class="st2" d="M53.2,64.8c-3.5-5.9-4.8-1.6-8.5-7.7c-3-4.9-7.7-8.4-9.9-7.4c-0.1,0-0.1,0.1-0.1,0.2c0,0,0,0.1,0.1,0.1
			c2.2,0.9,7,4.9,9.1,8.9c0,0,0,0.1,0,0.1c0,0-0.1,0-0.1,0c-2.6-3.2-10.5-9.4-11.8-8.3c-1.1,0.9,4.8,6.5,9.7,9
			c0.1,0.1,0.2,0.2,0.1,0.3c0,0,0,0,0,0c-0.2,0.4-0.8,1-2.2,1c-2.6,0-5-3.8-10.5-3.9c-3.4,0-6.7,1.4-8.9,4c0,0-0.1,0-0.1,0
			c-1-0.5-2.2-0.2-2.8,0.7c-0.6,1-0.3,2.2,0.6,2.8c0.1,0.1,0.1,0.2,0.1,0.2c-0.4,1.3-0.6,2.6-0.6,3.9c0,6.3,5.2,11.4,11.5,11.5
			c2.2,0,4.3-0.6,6.2-1.8c1.8-1.1,3.1-2.5,2.7-3.5c-0.5-1.5-2.6-1-4.8-0.2c-0.1,0-0.2,0-0.2-0.1c0,0,0-0.1,0-0.1
			c2.5-2.6,2.5-6.9-0.2-9.4c-1.2-1.2-2.9-1.9-4.6-1.9c-2.7-0.2-5.2,1.5-6.2,4c0,0.1-0.1,0.1-0.2,0.1c-0.1,0-0.1-0.1-0.1-0.2l0,0
			c0.7-3.2,3.4-5.5,6.7-5.6c4-0.2,7.4,2.8,7.7,6.8c0.1,1.5-0.3,3-1.1,4.2c-0.1,0.1,0,0.2,0.1,0.3c0.1,0,0.2,0,0.2,0
			c0.8-0.4,1.5-1,2.1-1.7c0,0,0.1,0,0.1,0c0,0,0,0,0,0c3.6,3.9,8.2,4,8.3,2.5c0.1-1.7-4.3-0.6-4.6-4.9c0-0.1,0-0.1,0.1-0.1
			c0,0,0,0,0.1,0c0.4,0.3,1,0.3,1.3-0.1c0.1-0.1,0.2-0.3,0.2-0.5c0-0.1,0.1-0.1,0.1-0.1c0,0,0,0,0,0c1.9,1.9,3.9,2,6.5,1.8
			C53,69.5,54.7,67.4,53.2,64.8z M49.7,64.8c-0.5,0-1-0.4-1.1-0.9c-0.1-0.4,0.2-0.8,0.6-0.9c0.1,0,0.1,0,0.2,0c0.5,0,1,0.4,1.1,1
			c0.1,0.4-0.2,0.8-0.6,0.9C49.9,64.8,49.8,64.8,49.7,64.8L49.7,64.8z"/>
	</g>
</g>
</svg>
