<?xml version="1.0" encoding="utf-8"?>
<!-- Generator: Adobe Illustrator 25.0.1, SVG Export Plug-In . SVG Version: 6.00 Build 0)  -->
<svg version="1.0" id="Layer_1" xmlns="http://www.w3.org/2000/svg" xmlns:xlink="http://www.w3.org/1999/xlink" x="0px" y="0px"
	 viewBox="0 0 882 585" style="enable-background:new 0 0 882 585;" xml:space="preserve">
<style type="text/css">
	.st0{fill:#4C4C4C;}
	.st1{fill:#808080;}
	.st2{fill:none;}
</style>
<path d="M375.8,304.4v-76.8H408v78c0,13,6.8,21.5,22.6,21.5c14.7,0,22-9,22-22v-77.4h32.2v76.8c0,29.9-18.1,48-54.2,48
	C393.8,352.9,375.8,334.9,375.8,304.4z M499.4,256.9h28.8v13h0.6c6.8-10.2,15.8-15.2,28.8-15.2c20.3,0,32.2,14.7,32.2,35.6v60.4
	h-29.9v-54.8c0-9.6-5.1-16.4-14.7-16.4s-16.4,8.5-16.4,19.8v51.4h-29.9v-93.7L499.4,256.9z M605.1,220.2H635v24.3h-29.9V220.2z
	 M605.1,256.9H635v93.2h-29.9V256.9z M658.2,325.8v-44.6h-12.4v-24.3h12.4v-29.4H687v29.4h16.9v24.3H687v38.4c0,7.3,4,9,10.2,9h6.8
	v21.5c-5.4,1.1-10.9,1.7-16.4,1.7C670.6,351.8,658.2,346.1,658.2,325.8L658.2,325.8z M722.5,358h10.2c8.5,0,12.4-3.4,12.4-9.6
	c0-4-1.7-9.6-5.7-19.2l-27.7-71.7h31.1l12.4,39.5c2.8,9,5.7,21.5,5.7,21.5h0.6c0,0,2.8-12.4,5.6-21.5l12.4-39.5h29.9l-32.2,94.3
	c-7.3,22-16.4,29.4-35,29.4h-19.2L722.5,358z"/>
<path class="st0" d="M312.5,346.7V220.2L203,157v48.5l42.9,24.9c1.7,1.1,1.7,3.4,0,4l-50.9,29.4c-1.4,0.9-3.1,0.9-4.5,0l-50.8-29.4
	c-1.1-0.5-1.6-1.8-1.1-2.9c0.2-0.5,0.6-0.9,1.1-1.1l42.9-24.9V157L72.5,220.2v126.5l41.8-24.3v-49.7c0.2-1.5,1.5-2.5,3-2.3
	c0.1,0,0.3,0,0.4,0.1l50.8,29.4c1.5,0.8,2.3,2.3,2.3,4v58.6c-0.2,1.5-1.5,2.5-3,2.3c-0.1,0-0.3,0-0.4-0.1l-42.9-24.8l-41.8,24.3
	L192.2,428l109.6-63.2L260,340.5l-42.9,24.9c-1.7,1.1-3.4,0-3.4-2.3v-58.7c0-1.6,0.9-3.1,2.3-4l50.8-29.4c1.7-1.1,3.4,0,3.4,2.3V323
	L312.5,346.7z"/>
<path d="M192.2,428l109.6-63.2L260,340.5l-42.9,24.9c-1.7,1.1-3.4,0-3.4-2.3v-58.7c0-1.6,0.9-3.1,2.3-4l50.8-29.4
	c1.7-1.1,3.4,0,3.4,2.3V323l41.8,24.3V220.2l-119.8,69.5V428z"/>
<path class="st1" d="M203,157v48.5l42.9,24.9c1.7,1.1,1.7,3.4,0,4l-50.9,29.4c-1.4,0.9-3.1,0.9-4.5,0l-50.8-29.4
	c-1.1-0.5-1.6-1.8-1.1-2.9c0.2-0.5,0.6-0.9,1.1-1.1l42.9-24.9V157L72.5,220.2l119.7,69.5L312,220.2L203,157z"/>
<path class="st0" d="M167.9,365.4L125,340.5l-41.8,24.3L192.8,428V289.7L72.5,220.2v126.5l41.8-24.3v-49.7c0.2-1.5,1.5-2.5,3-2.3
	c0.1,0,0.3,0,0.4,0.1l50.8,29.4c1.5,0.8,2.3,2.3,2.3,4v58.6C171.3,364.8,169.6,366.5,167.9,365.4z"/>
<rect x="41" y="134" class="st2" width="800" height="317"/>
</svg>
