<?xml version="1.0" encoding="utf-8"?>
<!-- Generator: Adobe Illustrator 25.0.1, SVG Export Plug-In . SVG Version: 6.00 Build 0)  -->
<svg version="1.0" id="Layer_1" xmlns="http://www.w3.org/2000/svg" xmlns:xlink="http://www.w3.org/1999/xlink" x="0px" y="0px"
	 viewBox="0 0 726.5 472.5" style="enable-background:new 0 0 726.5 472.5;" xml:space="preserve">
<style type="text/css">
	.st0{fill:#00205C;}
	.st1{fill:#FFFFFF;}
	.st2{fill:#CD9F26;}
	.st3{fill:#221E1F;}
</style>
<g id="Legal_lines">
	<path class="st0" d="M119.5,190.7l-7.1-8.5l79.7-66.3c2.2-1.8,5.3-1.7,7.4,0.3l38.6,37l50.8-50.1c2.1-2,5.3-2.1,7.5-0.2l7,6.1
		l57.4-62.4c1-1.1,2.4-1.7,3.9-1.8s2.9,0.5,4,1.6L441,117l24.7-9.7c1.8-0.7,3.8-0.4,5.4,0.7l5.5,4.1l15.3-11.3
		c1.9-1.4,4.5-1.4,6.5-0.1L611.7,181l-6.4,9L495,112.1l-15.4,11.4c-2,1.5-4.6,1.5-6.6,0l-6.3-4.7l-25.1,9.9c-2,0.8-4.3,0.3-5.9-1.2
		L365,58.3l-57.2,62.1c-2,2.2-5.4,2.4-7.7,0.4l-7.2-6.3L242,164.8c-2.1,2.1-5.5,2.1-7.7,0.1l-38.9-37.3L119.5,190.7z"/>
	<path class="st1" d="M647.8,331.8c-1.5-1.1-2.1-3.7-2.1-5.5V204.1c0-2.4,1-4.6,1.7-5.1c3.8-2.5,5.5-7.1,4.1-11.4
		c-1.1-4.2-4.9-7.1-9.3-7.1h-39.4c-0.2,0-0.3,0-0.5,0h-1L495,105.3l-18.6,13.8l-8.7-6.6l-28,11l-74.9-73.1l-61,66.3l-11.1-9.7
		l-54.6,53.9l-42.4-40.8l-72.5,60.3H79.8c-0.2,0-0.3,0-0.5,0h-1c-4.4,0-8.3,3-9.3,7.3c-1.3,4.4,0.6,9,4.5,11.4c1.1,0.6,2,3,2,4.9
		v122.3c0.1,2.1-0.9,4.1-2.5,5.4c-3.5,2.4-5.1,6.9-4,11c1.1,4.3,4.9,7.3,9.3,7.3h1c0.2,0,0.3,0,0.5,0h60.9
		c28.5,0,48.7-16.7,52.8-42.5h4.2c8.4,19.6,27.6,30.7,55,30.5c18.7,0,33.2-5,43-14.9c4.4-4.5,7.8-9.8,10-15.7h8.5V326
		c0,5.5,4.5,9.9,9.9,9.9c2.4,0,4.8-0.9,6.6-2.5c0.5-0.4,1.1-0.9,1.7-1.2c0.6,0.2,1.4,0.5,2.1,0.8c8.8,3.7,18.2,5.6,27.7,5.5
		c28.2,0,45.4-13.8,53-30.8h6.9c4.5,7.6,10.7,14.1,18,19.2c14.4,10,30.8,12,41.9,12c14.7,0,23.6-3.3,36-7.9l5.4-2
		c4.1-1.3,6.9-5.2,6.9-9.5v-11.7h2.3v18.6c0,1.8-0.5,4.4-2.1,5.5c-3.5,2.5-5,7-3.7,11.2c1.1,4.2,4.9,7.1,9.3,7.1h39.6
		c4.3,0,8.1-2.9,9.3-7.1c0.2-0.8,0.4-1.7,0.4-2.6h7.9c0,0.9,0.2,1.7,0.4,2.6c1.1,4.2,4.9,7.1,9.3,7.1h39.4c4.4,0,8.2-2.9,9.3-7.1
		C652.9,338.8,651.3,334.3,647.8,331.8z"/>
	<path class="st0" d="M227.3,163l-21.9,10.9l3.2-10.6l-8.9-22.7l-6.8-1.3l4.1-12.7L227.3,163z M367.8,59.1l-2.7,22.6l12.4,28.8
		l-6.1,9.7l12.9,54l9.4-46.6l18.5,25.1l-2.5-31.3l14.7,0.7L367.8,59.1z M497.2,118.6l4.2,22.9l42,34.5l5.4-7.5l22.6,2.7L516,125.3
		l-9.2,1.4L497.2,118.6z"/>
	<path class="st2" d="M409.3,190.3c0-0.7-0.1-1.5-0.3-2.2c2.6,1.8,4.2,4.8,4.2,8v37.5c-0.1,5.5-4.7,9.8-10.2,9.7
		c-3.7-0.1-7-2.2-8.6-5.4L394,237c0,0-0.2-0.6-0.6-1.4c2.4,1.8,5.4,2.4,8.3,1.7c4.5-1,7.6-4.9,7.7-9.5L409.3,190.3z M350.5,277.5
		c-10-5.2-22.2-11.5-30.2-21.5c7.5,13.5,22.3,21.2,34.1,27.3c7.2,3.7,13,6.9,16.6,10C370.1,288,362.2,283.6,350.5,277.5z
		 M369.4,213.7c-9.8,0-9.8,5-9.8,7.1c0,2.4,1.3,4.5,4,6.6c0-0.2-0.1-0.5-0.1-0.7c0-2.1,0-7.1,9.8-7.1c6.7,0,11.7,3.9,15.1,8.1
		C385.7,222.6,379.5,213.7,369.4,213.7L369.4,213.7z M243.4,199.2c-1.2,0.8-1.9,2.1-1.9,3.5v80.1c0,8.4,1.4,13.3,5,16
		c-0.8-3.3-1.2-6.6-1.1-10v-80.2c0-1.4,0.7-2.8,1.9-3.5c4.8-2.7,6.6-8.7,4-13.6c-0.7-1.3-1.7-2.5-3-3.3
		C249.4,192.5,247.4,197,243.4,199.2L243.4,199.2z M320.3,193.9c-0.6-2.3-1.9-4.3-3.9-5.7c1,4.4-1,8.9-4.9,11
		c-1.2,0.6-1.7,2.4-1.7,3.5v80.1c0.1,17.3-4.7,31-14.2,40.5c-9.8,9.9-24.3,14.8-43,14.8H252c-21.8,0-38.4-7.2-48.4-20.2
		c9.2,16.7,27.4,26.2,52.3,26.2h0.5c18.7,0,33.2-5,43-14.8c9.5-9.6,14.3-23.2,14.2-40.5v-80.1c0-1.1,0.5-2.9,1.7-3.5
		C319.4,203,321.4,198.3,320.3,193.9L320.3,193.9z M584.8,343c-1.1,4.2-4.9,7.1-9.3,7.1H536c-2.2,0-4.3-0.8-6-2.2
		c0.1,0.6,0.2,1.2,0.3,1.7c1.1,4.2,4.9,7.1,9.3,7.1h39.5c4.3,0,8.1-2.9,9.3-7.1c1.2-3.9-0.1-8.1-3.2-10.7
		C585.4,340.3,585.2,341.7,584.8,343z M578.8,285v41.3c0,2,0.7,4.4,2.3,5.5c1,0.7,1.8,1.6,2.5,2.6c0-0.5,0-1,0-1.5v-40.7h15.9V285
		L578.8,285z M580.8,199c-1,0.6-2,2.9-2,5.1v40.7h4.8v-34.1c0-2.2,1-4.5,1.9-5.1c3.8-2.4,5.5-7.1,4.1-11.4c-0.7-2.5-2.4-4.6-4.6-5.9
		C586,192.4,584.3,196.7,580.8,199L580.8,199z M653.2,338.5c-1.6-1.1-2.1-3.7-2.1-5.5V210.7c0-2.4,1-4.6,1.8-5.1
		c3.8-2.4,5.5-7.1,4.1-11.4c-0.8-2.7-2.7-5-5.3-6.2c1.2,4.2-0.5,8.6-4.2,11c-0.8,0.5-1.8,2.7-1.8,5.1v122.2c0,1.9,0.6,4.4,2.1,5.5
		c3.5,2.5,5,7,3.7,11.2c-1.1,4.2-4.9,7.1-9.3,7.1h-39.4c-2.2,0-4.4-0.8-6.1-2.2c0.1,0.6,0.2,1.2,0.3,1.7c1.1,4.2,4.9,7.1,9.3,7.1
		h41.2c4.3,0,8.1-2.9,9.3-7.1C658.2,345.5,656.7,341,653.2,338.5L653.2,338.5z M129.1,223.8h1c2.1-0.1,4.1,0.1,6.1,0.7
		c-1.4-6.1-5.4-6.7-10.9-6.7h-1v28.3c1.6,0,3.3,0,4.8-0.1V223.8z M187.4,226.1c0-9.8-2.4-18.1-6.8-24.9c7.6,7.6,11.6,18,11.6,30.9
		c0,16.2-5.9,26.4-12.7,33c-1.9-1.7-4-3.3-6.1-4.7C180.8,253.8,187.4,243.3,187.4,226.1z M124.2,281.5v-1.1
		c1.7-0.5,5.4-1.3,12.6-0.7h0.4c3.1,0.4,5.1,1.1,5.8,7.8l-0.8-0.1c-3.9,0-9,0-13.3,0.1v28h-0.4c-1.5,0-2.9-0.1-4.4-0.2L124.2,281.5z
		 M197.5,303.6c0,31.4-21.5,52.5-53.6,52.5H83.1c-4.3,0-8.1-2.9-9.3-7.1c1.4,0.7,2.9,1.1,4.4,1.1h60.9c32.1,0,53.6-21.1,53.6-52.5
		c0-10.7-2.7-18.8-6.8-24.9C192.5,279.3,197.5,289.1,197.5,303.6z M362.2,338.5c-9.5,0.1-18.9-1.8-27.7-5.5
		c-0.7-0.3-1.5-0.6-2.1-0.8c-0.6,0.4-1.2,0.8-1.7,1.3c-3.4,3.1-8.6,3.4-12.3,0.7c1.2,5.3,6.5,8.6,11.8,7.4c1.6-0.4,3.1-1.1,4.4-2.3
		c0.6-0.5,1.1-0.9,1.8-1.3c0.6,0.2,1.4,0.5,2.1,0.8c8.8,3.7,18.2,5.6,27.7,5.5c32,0,49.9-17.8,55.6-37.9c-1.3-2.3-2.5-4.7-3.6-7.2
		C412.9,319.9,395,338.5,362.2,338.5z M483.9,211.9c-7.8,0.1-22.5,0.3-22.6,46.5c0.1,22.1,4.4,33.4,9.6,39.2
		c-3.3-6.7-5.6-17.1-5.7-33.3c0.2-46.2,14.9-46.4,22.6-46.4c5.6-0.2,10.9,2.3,14.2,6.8C497.4,216.5,492.7,211.9,483.9,211.9z
		 M530,284.5c0.1,0.6,0.2,1.3,0.2,1.9v32.9c0,4.3-2.8,8.2-6.9,9.5l-5.4,2c-12.4,4.6-21.3,7.9-36,7.9c-24.5,0-43.6-9.1-55.8-25.7
		c11.9,20.3,32.4,31.6,59.7,31.6c14.7,0,23.6-3.3,36-7.9c1.7-0.6,3.5-1.3,5.4-2c4.1-1.3,6.9-5.2,6.9-9.5v-32.9
		C534.1,289.2,532.6,286.3,530,284.5L530,284.5z M524.8,228.4c0,4.6-3.2,8.5-7.7,9.5c-3,0.7-6.1-0.1-8.5-2c0.4,0.8,0.8,1.7,1.2,2.6
		c2.4,4.9,8.4,7,13.3,4.6c3.4-1.6,5.5-5,5.6-8.7v-40c0-3.2-1.6-6.1-4.2-8c0.2,0.7,0.2,1.4,0.2,2.1v39.9H524.8z"/>
	<path class="st3" d="M365.5,187.9c17.3,0,25.3,5.2,27.6,5.2c2.5,0,6-3.2,6-3.2c0.2-0.2,0.6-0.2,0.8,0c0.1,0.1,0.1,0.2,0.1,0.3v37.5
		c0,0.4-0.9,0.6-1.1,0.2c0,0-8.5-23.6-29.4-23.6c-11.5,0-19.1,5.8-19.1,16.5c-0.5,26.8,60,19.9,60.1,65.4
		c0,18.9-13.2,42.9-48.2,42.9c-18.4,0-25.5-6.6-30.3-6.6c-2.9,0-7.4,3.9-7.4,3.9c-0.2,0.2-0.6,0.2-0.8,0c-0.1-0.1-0.1-0.2-0.1-0.4
		v-41.6c0-0.4,0.9-0.6,1.1-0.2c5,10.3,13.7,28.8,35.6,28.8c14.3,0,20.2-8.6,20.2-18.5c0.7-26-59.1-25.9-59.4-62.7
		C321,214.5,331.2,187.9,365.5,187.9z M281.3,202.7c0-4-2.2-9.3-6.7-11.8c-0.4-0.2-0.2-1.1,0.2-1.1H307c0.4,0,0.5,0.9,0.2,1.1
		c-4.9,2.5-6.7,7.8-6.7,11.8v80.1c0.2,26.1-11.9,46.2-48.4,46c-36.3,0-49.8-20.4-49.8-46v-80.1c0-4-1.8-9.3-6.7-11.8
		c-0.4-0.2-0.2-1.1,0.2-1.1h43.1c0.4,0,0.5,0.9,0.2,1.1c-4.9,2.5-6.9,7.8-6.9,11.8v80.1c0,13.1,3.2,27.8,24.9,27.8
		s24.2-17.5,24.2-27.8L281.3,202.7L281.3,202.7z M79.8,340.8c-0.4,0-0.5-1-0.2-1.3c4.3-3,6.8-8,6.7-13.2V204.1c0-4.4-2-10.3-6.7-13
		c-0.4-0.2-0.2-1.2,0.2-1.2h53.1c18.6,0,46.8,5.2,46.8,36.3c0,25.8-17.2,32.3-25.6,35.6c10.6,2.9,30.9,9.4,30.9,35.8
		c0,28.1-19,43.2-44.2,43.2L79.8,340.8L79.8,340.8z M141.4,250.5c5.6-5.4,6.1-13.7,6.1-20.6c0-20.3-13.9-21.4-20.8-21.4
		c-5.6,0-9.4,1-10.3,1.5v42.5C117.7,252.6,138.5,253.6,141.4,250.5L141.4,250.5z M116.4,321.5c0.5,0.6,3.6,3.4,13.7,3.4
		c11.9-0.2,24-4.8,24.2-28.1c0-12.6-0.7-23.2-14.7-24.8c-4.3,0-23.2,0.1-23.2,0.4L116.4,321.5z M481.2,186.1c9.3,0,18.5,2,26.9,5.9
		l6.5-4.2c0.4-0.1,0.8,0.1,0.9,0.4v0.1v40c0,0.4-0.9,0.6-1.1,0.2c-6-12.6-12.8-26.1-30.5-26.1c-16.4,0.2-31.8,8.4-32,55.8
		c0.2,47.2,19,54.6,34.5,54.8c15.4,0,28-9.3,33.4-26.8c0.2-0.4,1.1-0.2,1.1,0.2v32.9c0,0.2-0.2,0.6-0.4,0.6
		c-15.7,5.7-23.7,9.5-38.6,9.5s-62-4-62-71.2C420,225.9,435.5,186.1,481.2,186.1z M569.5,326.3c0,4.6,1.8,10.1,6.3,13.2
		c0.3,0.2,0.2,1.3-0.2,1.3H536c-0.3,0-0.5-1-0.2-1.3c4.5-3.1,6.1-8.6,6.1-13.2V204.1c0-4.4-1.7-10.3-6.1-13
		c-0.3-0.2-0.2-1.2,0.2-1.2h39.5c0.3,0,0.5,1,0.2,1.2c-4.5,2.7-6.3,8.6-6.3,13V254h39.2l0.2-49.9c0-4.4-2-10.3-6.1-13
		c-0.3-0.2-0.2-1.2,0.2-1.2h39.4c0.3,0,0.5,1,0.2,1.2c-4.5,2.7-6.1,8.6-6.1,13v122.2c0,4.6,1.7,10.1,6.1,13.2
		c0.3,0.2,0.2,1.3-0.2,1.3h-39.4c-0.3,0-0.5-1-0.2-1.3c4.1-3.1,6.1-8.6,6.1-13.2v-50.6h-39.4L569.5,326.3L569.5,326.3z"/>
	<path class="st2" d="M660.9,329c0-4.8,3.9-8.7,8.8-8.7c4.8,0,8.7,3.9,8.7,8.8c0,4.8-3.9,8.7-8.7,8.7
		C664.8,337.8,660.9,333.9,660.9,329L660.9,329z M676.7,329c0-3.9-3.2-7.1-7.1-7.1c-3.9,0-7.1,3.2-7.1,7.1s3.2,7.1,7.1,7.1l0,0
		C673.5,336.1,676.7,333,676.7,329L676.7,329z M674,333.8h-2.2l-2.1-4h-1.8v4H666v-9.5h4.6c0.9-0.1,1.8,0.1,2.6,0.5
		c0.8,0.6,1.2,1.5,1.1,2.4c0,1.7-0.9,2.4-2.6,2.5L674,333.8z M670.7,328.4c1,0,1.8-0.2,1.8-1.4s-1.3-1.2-2.2-1.2H668v2.6H670.7z"/>
	<path class="st2" d="M669.6,338c-4.9,0-8.9-4-9-8.9c0-4.9,4-8.9,8.9-9c4.9,0,8.9,4,9,8.9l0,0C678.5,334,674.5,337.9,669.6,338z
		 M669.6,320.5c-4.7,0-8.6,3.8-8.6,8.5s3.8,8.6,8.5,8.6s8.6-3.8,8.6-8.5c0,0,0,0,0-0.1C678.2,324.3,674.4,320.5,669.6,320.5
		L669.6,320.5L669.6,320.5z M669.6,336.3c-4,0-7.3-3.2-7.3-7.2s3.2-7.3,7.2-7.3s7.3,3.2,7.3,7.2l0,0
		C676.9,333,673.6,336.3,669.6,336.3L669.6,336.3z M669.6,322.2c-3.8,0-6.9,3.1-6.9,6.9s3.1,6.9,6.9,6.9c3.8,0,6.9-3.1,6.9-6.9
		c0,0,0,0,0-0.1C676.5,325.2,673.5,322.1,669.6,322.2L669.6,322.2z M674.3,334h-2.6v-0.1l-2-3.9h-1.5v4H666v-9.8h4.7
		c0.9-0.1,1.8,0.1,2.7,0.5c0.8,0.6,1.3,1.6,1.2,2.6c0.1,1.3-0.8,2.5-2.1,2.7c-0.1,0-0.2,0-0.3,0L674.3,334z M671.9,333.6h1.7l-2.3-4
		h0.3c1.7-0.1,2.4-0.8,2.4-2.4c0.1-0.9-0.3-1.8-1-2.3c-0.8-0.3-1.6-0.5-2.5-0.4h-4.4v9.1h1.5v-4h2.1l0.1,0.1L671.9,333.6z
		 M670.8,328.6h-3.1v-3h2.5c0.9,0,2.4,0,2.4,1.4c0,0.4-0.1,0.9-0.4,1.2C671.8,328.5,671.3,328.6,670.8,328.6L670.8,328.6z
		 M668.1,328.2h2.7c0.4,0,0.8-0.1,1.2-0.3c0.2-0.3,0.3-0.6,0.3-0.9c0-1-0.9-1-2.1-1h-2.1L668.1,328.2L668.1,328.2z"/>
</g>
</svg>
