<?xml version="1.0" encoding="utf-8"?>
<!-- Generator: Adobe Illustrator 26.0.3, SVG Export Plug-In . SVG Version: 6.00 Build 0)  -->
<svg version="1.0" id="katman_1" xmlns="http://www.w3.org/2000/svg" xmlns:xlink="http://www.w3.org/1999/xlink" x="0px" y="0px"
	 viewBox="0 0 600 450" style="enable-background:new 0 0 600 450;" xml:space="preserve">
<style type="text/css">
	.st0{fill:#54616C;}
	.st1{fill:#BAC0C4;}
</style>
<path class="st0" d="M217.9,207.9c0.4,0.4,0.5,0.9,0.5,1.4v5.3c0,1.2-0.6,1.7-1.9,1.9c-1.4,0.1-2.7,0.4-4,1
	c-1.4,0.6-2.6,1.5-3.6,2.6c-1.5,1.6-2.2,4-2.2,7.1v13.3c0.1,0.9-0.6,1.8-1.6,1.9c0,0,0,0,0,0h-5.8c-0.9,0.1-1.8-0.6-1.9-1.6
	c0,0,0,0,0,0v-30.9c-0.1-0.9,0.6-1.8,1.6-1.9h5.8c0.9-0.1,1.7,0.6,1.8,1.6c0,0.1,0,0.2,0,0.3v2.7c1.2-1.5,2.7-2.8,4.4-3.6
	c1.7-0.8,3.5-1.3,5.4-1.5C217,207.4,217.5,207.6,217.9,207.9z M231.5,241.5c-2.8-1.2-5.2-3.2-7.1-5.6c-2.2-3.1-3.2-6.7-3.1-10.5
	c-0.1-3.3,0.8-6.5,2.5-9.3c1.6-2.7,3.9-4.8,6.7-6.3c2.9-1.5,6.2-2.3,9.5-2.2c3,0,6,0.7,8.6,2c2.7,1.3,4.9,3.3,6.6,5.8
	c1,1.5,1.8,3.1,2.2,4.9c0.4,1.8,0.5,3.7,0.5,5.6c0,0.8-0.2,1.6-0.7,2.2c-0.5,0.6-1.2,0.9-1.9,0.9h-24.7c0.4,2,1.6,3.8,3.4,4.7
	c1.8,1,3.9,1.5,5.9,1.4c1.5,0,3-0.2,4.4-0.7c1.2-0.5,2.3-1.2,3.3-2.1c0.4-0.4,0.9-0.6,1.5-0.7c0.4,0,0.8,0.1,1.2,0.4l4.1,2.3
	c0.6,0.2,1,0.8,1,1.4c0,0.4-0.2,0.8-0.5,1.2c-3.7,4.3-9.2,6.6-14.8,6.5C237.1,243.2,234.2,242.6,231.5,241.5L231.5,241.5z
	 M233.7,217.6c-1.5,1.1-2.6,2.8-2.8,4.7h17.2c-0.1-1.2-0.6-2.2-1.2-3.2c-0.7-1-1.7-1.9-2.8-2.4c-1.3-0.6-2.6-1-4.1-0.9
	C237.7,215.6,235.5,216.3,233.7,217.6L233.7,217.6z M315.5,211.2c2.4,2.5,3.6,6.2,3.6,10.9v18.4c0.1,0.9-0.6,1.8-1.6,1.9h-5.9
	c-0.9,0.1-1.8-0.6-1.9-1.5c0,0,0,0,0,0c0-0.1,0-0.2,0-0.3v-18.5c0.2-1.9-0.5-3.8-1.8-5.2c-1.3-1.2-3.1-1.8-4.9-1.7
	c-1.8,0-3.5,0.7-4.7,2c-1.4,1.7-2,3.9-1.9,6.1v17.2c0.1,0.9-0.6,1.8-1.6,1.9c0,0,0,0,0,0h-6c-0.9,0.1-1.8-0.6-1.9-1.5v-18.8
	c0.2-1.9-0.5-3.8-1.7-5.2c-1.3-1.2-3.1-1.7-4.9-1.6c-1.8-0.1-3.6,0.7-4.8,2.2c-1.2,1.4-1.8,3.7-1.8,6.9l-0.1,16.3
	c0.1,0.9-0.5,1.7-1.4,1.9c-0.2,0-0.3,0-0.5,0h-5.5c-0.9,0.1-1.8-0.6-1.9-1.6c0,0,0,0,0,0c0-0.1,0-0.2,0-0.3v-30.6
	c-0.1-1,0.6-1.8,1.6-1.9h5.8c1-0.1,1.8,0.6,1.9,1.6c0,0.1,0,0.2,0,0.3v1.2c1.3-1.1,2.8-2,4.4-2.7c1.5-0.7,3.1-1,4.7-1.1
	c4.8,0,8.5,1.6,11.1,4.7c1.3-1.5,3-2.7,4.8-3.5c2-0.8,4.1-1.2,6.2-1.2C309.5,207.4,313.1,208.7,315.5,211.2z M335.2,240.8
	c-2.8-1.6-5.1-3.8-6.8-6.5c-3.3-5.5-3.3-12.4,0-17.9c1.7-2.7,4-5,6.8-6.5c8.9-4.9,20.1-2,25.5,6.6c3.3,5.5,3.3,12.4,0,17.8
	C355.3,242.9,344.1,245.8,335.2,240.8L335.2,240.8z M339.8,216.9c-1.4,0.8-2.6,2-3.4,3.5c-1.6,3.1-1.6,6.8,0,10
	c0.8,1.5,2,2.7,3.4,3.5c4.4,2.7,10.1,1.3,12.8-3.1c0,0,0,0,0,0c0.1-0.1,0.1-0.2,0.2-0.3c0.8-1.5,1.3-3.3,1.2-5
	c0-1.7-0.4-3.4-1.2-4.9c-0.8-1.4-2-2.7-3.4-3.5c-1.5-0.8-3.1-1.3-4.8-1.2c-1.7,0-3.3,0.4-4.7,1.3L339.8,216.9z M383.6,242.5
	c-0.5,0-0.9-0.4-1.3-1.1l-16-31c-0.2-0.3-0.2-0.6-0.2-0.9c0-0.9,0.5-1.3,1.6-1.3h6.3c1-0.1,1.9,0.5,2.2,1.4l7.3,15.4l7.3-15.4
	c0.4-0.9,1.4-1.4,2.3-1.3h6.4c1.1,0,1.6,0.4,1.6,1.3c0,0.3-0.1,0.6-0.2,0.9l-16,30.9C384.5,242,384.1,242.5,383.6,242.5L383.6,242.5
	z M414,241.5c-2.8-1.2-5.2-3.2-7.1-5.6c-2.2-3.1-3.2-6.8-3.1-10.5c-0.1-3.3,0.8-6.5,2.5-9.3c1.6-2.7,3.9-4.8,6.7-6.3
	c2.9-1.5,6.2-2.3,9.5-2.2c3,0,6,0.7,8.6,2c2.7,1.3,4.9,3.3,6.6,5.8c1,1.5,1.8,3.1,2.2,4.9c0.4,1.8,0.5,3.7,0.5,5.5
	c0,0.8-0.2,1.6-0.7,2.2c-0.5,0.6-1.2,0.9-1.9,0.9h-24.7c0.4,2,1.6,3.8,3.4,4.7c1.8,1,3.9,1.5,5.9,1.4c1.5,0,3-0.2,4.4-0.7
	c1.2-0.5,2.3-1.2,3.2-2.1c0.4-0.4,0.9-0.6,1.4-0.6c0.4,0,0.8,0.1,1.2,0.4l4.1,2.3c0.6,0.2,0.9,0.8,1,1.4c0,0.4-0.2,0.8-0.5,1.2
	c-3.7,4.2-9.1,6.6-14.8,6.4C419.6,243.2,416.7,242.6,414,241.5L414,241.5z M416.2,217.6c-1.5,1.1-2.6,2.8-2.8,4.7h17.2
	c-0.1-1.2-0.6-2.2-1.2-3.2c-0.7-1-1.7-1.9-2.8-2.4c-1.3-0.6-2.6-1-4.1-0.9C420.2,215.6,418,216.2,416.2,217.6L416.2,217.6z"/>
<path class="st1" d="M460,241.9c-0.4,0.3-0.9,0.5-1.4,0.5h-5.5c-0.9,0.1-1.8-0.6-1.9-1.6c0,0,0,0,0,0c0-0.1,0-0.2,0-0.3v-43.4
	c-0.1-0.9,0.6-1.8,1.6-1.9h5.8c0.9-0.1,1.8,0.6,1.9,1.6c0,0,0,0,0,0c0,0.1,0,0.2,0,0.3v14.5c1.1-1.4,2.6-2.5,4.2-3.1
	c2-0.8,4.1-1.2,6.2-1.2c3.2-0.1,6.3,0.7,9.1,2.3c2.6,1.5,4.7,3.8,6,6.5c1.4,2.8,2.1,6,2.1,9.1c0.1,3.2-0.7,6.3-2.1,9.1
	c-1.3,2.7-3.4,4.9-5.9,6.4c-2.8,1.6-6,2.4-9.2,2.3c-2.1,0-4.3-0.4-6.2-1.3c-1.6-0.6-3.1-1.6-4.2-2.9v1.7
	C460.6,241.1,460.4,241.6,460,241.9z M462.7,232.3c1.8,1.8,4.3,2.7,6.9,2.6c2.6,0.1,5-0.9,6.8-2.7c1.8-1.9,2.7-4.4,2.6-7
	c0.1-2.6-0.8-5.1-2.6-7.1c-3.9-3.6-9.8-3.6-13.7,0c-1.8,1.9-2.7,4.4-2.6,7.1C460,227.8,460.9,230.4,462.7,232.3L462.7,232.3z
	 M530.5,208.6c0.3,0.4,0.5,0.9,0.5,1.4v29.4c0,5-1.5,8.9-4.6,11.7c-3.1,2.8-7.3,4.3-12.8,4.2c-5.3,0.2-10.5-1.3-14.9-4.1
	c-0.5-0.3-0.8-0.8-0.9-1.4c0-0.4,0.2-0.8,0.4-1.2l2.4-3.5c0.3-0.5,0.8-0.9,1.4-0.9c0.4,0,0.8,0.1,1.2,0.4c1.4,0.9,2.9,1.6,4.5,2
	c1.7,0.5,3.4,0.7,5.1,0.7c5.9,0,8.8-2.7,8.8-8v-0.6c-2.7,2.1-6.1,3.2-9.6,3.1c-3.3,0-6.6-0.8-9.5-2.3c-2.7-1.4-4.9-3.6-6.4-6.2
	c-1.5-2.7-2.2-5.6-2.2-8.7c0-3.1,0.7-6.1,2.2-8.7c1.5-2.6,3.7-4.7,6.3-6.2c2.9-1.6,6.2-2.4,9.5-2.3c3.5-0.2,6.9,0.9,9.6,3.1v-0.6
	c-0.1-0.9,0.6-1.8,1.6-1.9c0.1,0,0.2,0,0.3,0h5.5C529.7,208,530.2,208.2,530.5,208.6L530.5,208.6z M517.5,232.7
	c1.4-0.8,2.6-2,3.4-3.4c1.6-2.9,1.6-6.5,0-9.4c-0.8-1.4-2-2.6-3.4-3.4c-1.5-0.8-3.1-1.2-4.8-1.2c-2.5-0.1-5,0.8-6.8,2.6
	c-1.8,1.8-2.7,4.2-2.6,6.7c-0.1,2.5,0.8,4.9,2.6,6.7c1.8,1.7,4.3,2.7,6.9,2.6C514.4,234,516,233.6,517.5,232.7L517.5,232.7z"/>
<g>
	<path class="st0" d="M70.4,218.4l44.1,23c0.6,0.3,1.2,0.3,1.8,0l44.1-23c0.9-0.5,1.3-1.6,0.8-2.6c0,0,0,0,0,0
		c-0.2-0.3-0.5-0.6-0.8-0.8l-44.1-23c-0.6-0.3-1.2-0.3-1.8,0l-44.1,23c-0.9,0.5-1.3,1.7-0.8,2.6C69.8,217.9,70.1,218.2,70.4,218.4z"
		/>
	<path class="st1" d="M160.4,232.4l-7.3-3.8l-35,18.3c-1.7,0.9-3.6,0.9-5.3,0l-35-18.3l-7.3,3.8c-0.9,0.5-1.3,1.6-0.8,2.6
		c0.2,0.4,0.5,0.6,0.8,0.8l44.1,23c0.6,0.3,1.2,0.3,1.8,0l44.1-23c0.9-0.5,1.3-1.6,0.8-2.6c0,0,0,0,0,0
		C161,232.8,160.8,232.6,160.4,232.4L160.4,232.4z"/>
</g>
</svg>
