<?xml version="1.0" encoding="utf-8"?>
<!-- Generator: Adobe Illustrator 24.3.0, SVG Export Plug-In . SVG Version: 6.00 Build 0)  -->
<svg version="1.1" id="katman_1" xmlns="http://www.w3.org/2000/svg" xmlns:xlink="http://www.w3.org/1999/xlink" x="0px" y="0px"
	 viewBox="0 0 3270.5 2546.7" style="enable-background:new 0 0 3270.5 2546.7;" xml:space="preserve">
<style type="text/css">
	.st0{fill-rule:evenodd;clip-rule:evenodd;fill:#CC2229;}
	.st1{fill-rule:evenodd;clip-rule:evenodd;fill:#FFFFFF;}
</style>
<g>
	<path class="st0" d="M422,892h792.1v762.7H422V892z M1243.4,892h792.1v762.7h-792.1V892z M2056.4,892h792.1v762.7h-792.1V892
		L2056.4,892z"/>
	<path class="st1" d="M462.2,1441v-66.8h27v-199.7h-27v-66.6h329.1v103.6h-84.9v-37.1h-77.2v67.8h58.5v65.4h-58.5v66.6h34.5v66.8
		H462.2z M963.4,1374.1h36.5v66.8H806v-66.8h27.9v-199.7H806v-66.6h199.4c65.2,0,111.8,7.5,139.8,22.5c27.9,15,41.9,39.8,41.9,74.3
		c0,17.9-4.3,33.4-13.1,46.4c-8.7,13-21.9,23.8-39.7,32.3l54.6,90.7h20.9v66.8h-132.1l-72.5-137.4h-42V1374.1L963.4,1374.1z
		 M963.4,1174.4v70.6h11.1c21.9,0,38-2.9,48.3-8.6c10.3-5.7,15.4-14.6,15.4-26.8c0-11.9-5.2-20.8-15.6-26.8c-10.3-5.9-26-8.9-47-8.9
		c-1.2,0-3.2,0.1-5.8,0.2C967.6,1174.3,965.5,1174.4,963.4,1174.4L963.4,1174.4z M1388.8,1285.8h62.7l-28.8-95L1388.8,1285.8z
		 M1357.9,1374.1h23.5v66.8h-126.6v-66.8h19.3l70.9-200.2h-27.1v-66.1h248.8v66.1h-27.5l70.3,200.2h19.9v66.8H1451v-66.8h26.5
		l-14.5-49.4h-88.2L1357.9,1374.1L1357.9,1374.1z M1739.4,1233.9v140.2h32.3v66.8h-136.6v-66.8h26.5v-199.7h-26.5v-66.6h160.4
		l118.2,193.9v-127.8h-31.6v-66.1h136.6v66.1h-26.5v267h-124.8L1739.4,1233.9L1739.4,1233.9z M2482,1374.1h7.9v66.8h-189.6v-66.8
		h24.8l-86.7-105l92.8-95.2h-35v-66.1h161.4v66.1h-21.4l-66.8,68.7L2482,1374.1L2482,1374.1z M2067.1,1441v-66.8h26.5v-199.7h-26.5
		v-66.6H2258v66.6h-26.5v199.7h26.5v66.8H2067.1z M2492.4,1441v-66.8h26.5v-199.7h-26.5v-66.6h323.9v103.6h-83.6v-37.1h-75.9v67.8
		h65v65.4h-65v66.6h75.9V1332h83.6v109H2492.4L2492.4,1441z"/>
</g>
</svg>
