<?xml version="1.0" encoding="utf-8"?>
<!-- Generator: Adobe Illustrator 26.0.3, SVG Export Plug-In . SVG Version: 6.00 Build 0)  -->
<svg version="1.0" id="Layer_1" xmlns="http://www.w3.org/2000/svg" xmlns:xlink="http://www.w3.org/1999/xlink" x="0px" y="0px"
	 viewBox="0 0 238 150" style="enable-background:new 0 0 238 150;" xml:space="preserve">
<style type="text/css">
	.st0{fill:#00B19D;}
	.st1{fill:#707070;}
	.st2{fill:none;}
</style>
<g id="logo-alegra">
	<path class="st0" d="M83.4,87.3c0,0-14.3,6.8-30.2,3.2c-9.6-2.2-23.4-10.1-23.4-10.1l14.3-19c0,0,6.9,10.7,15.2,17.3
		C73.9,90,83.4,87.3,83.4,87.3 M78.6,84.8c0,0-6.6-2.8-9.9-15.8c-1.9-7.6-1-16.8-1-16.8l-16.8,4.5c0,0,4.4,10.7,8.9,16.4
		C67.3,82.3,78.6,84.8,78.6,84.8 M77,80.7c0,0-2.2-4.4,1.9-12.5c1.9-3.3,4.2-6.4,7-9L75.3,54c0,0-2.6,7.4-2.8,12.3
		C72.6,71.4,74.1,76.4,77,80.7 M78.3,76.6c0,0,0.9-2.7,5.9-4.3c2.1-0.6,4.3-0.9,6.6-0.8L88.5,65c-2.2,1.1-4.2,2.4-6.1,3.9
		C80.3,71,78.9,73.6,78.3,76.6"/>
	<path class="st1" d="M121.9,87.8h2.6V57.8h-2.6V87.8z M180.4,71.5v-3.4h-2.6v19.7h2.7v-11c-0.2-1.8,0.6-3.6,2-4.7
		c1-0.8,2.3-1.3,3.6-1.3v-2.6C183.5,68.4,181.7,69,180.4,71.5L180.4,71.5z M148,74.3c-1.9-5.3-7.8-8.1-13.1-6.2
		c-4.2,1.5-6.9,5.5-6.8,9.9c0,5.7,4.5,10.3,10.2,10.3c4.1,0,7.8-2.4,9.5-6.1h-2.9c-1.4,2.3-3.8,3.8-6.6,3.9c-4-0.1-7.3-3.2-7.6-7.2
		h17.9C148.7,77.4,148.4,75.8,148,74.3L148,74.3z M130.8,76.7c0.5-3.8,3.7-6.7,7.6-6.8c4,0,6.8,3.1,7.6,6.8H130.8z M115,71.3
		c-3.7-4.4-10.2-5-14.7-1.3c-4.4,3.7-5,10.2-1.3,14.7c2,2.4,5,3.8,8.2,3.7c3.1,0.1,6-1.4,7.8-3.9v3.5h2.6v-9.5l0,0v-0.3
		C117.6,75.6,116.7,73.1,115,71.3z M107.2,86.1c-4.5,0-8.1-3.6-8.1-8.1c0-4.5,3.6-8.1,8.1-8.1c4.5,0.2,7.9,4,7.7,8.5
		C114.7,82.6,111.4,85.9,107.2,86.1z M208.2,78c0-2.5-0.9-4.9-2.6-6.8c-3.7-4.4-10.2-5-14.7-1.3c-4.4,3.7-5,10.2-1.3,14.7
		c2,2.4,5,3.8,8.2,3.7c3.1,0.1,6-1.4,7.8-3.9v3.5h2.6v-9.5l0,0V78L208.2,78z M197.9,86.1c-4.5,0-8.1-3.6-8.1-8.1
		c0-4.5,3.6-8.1,8.1-8.1c4.4,0.1,7.8,3.7,7.8,8.1C205.7,82.4,202.3,86,197.9,86.1z M170.6,71.2c-1.4-2-4.6-3.5-7.9-3.5
		c-5.7,0-10.3,4.7-10.3,10.4s4.7,10.3,10.4,10.3l0,0c3.1,0,6.4-1.4,7.7-4.4v4.4c0.1,3.9-3,7.1-6.8,7.2c-0.2,0-0.4,0-0.5,0
		c-1.7,0-3.3-0.5-4.7-1.5c-1.1-1-2-2.2-2.7-3.5h-2.6c0.3,1,0.8,2.1,1.3,3c1.9,2.7,5.1,4.3,8.4,4.3c3.2,0,6.2-1.3,8.3-3.7
		c1.6-2,1.8-3.7,1.8-6.3v-9.6C173.1,75.6,172.2,73.1,170.6,71.2L170.6,71.2z M162.9,86.1c-4.4-0.1-7.9-3.7-7.8-8.1c0,0,0-0.1,0-0.1
		c-0.2-4.3,3.2-7.8,7.4-8c0.1,0,0.1,0,0.2,0c4.4,0.1,7.9,3.6,7.9,8C170.6,82.2,167.3,86.1,162.9,86.1L162.9,86.1z"/>
</g>
<rect x="23" y="47" class="st2" width="192" height="56"/>
</svg>
